<?xml version="1.0" encoding="utf-8" ?>
<svg baseProfile="full" height="200mm" version="1.1" viewBox="0,0,200,200" width="200mm" xmlns="http://www.w3.org/2000/svg" xmlns:ev="http://www.w3.org/2001/xml-events" xmlns:xlink="http://www.w3.org/1999/xlink"><defs /><rect fill="#1a1a1a" height="200" width="200" x="0" y="0" /><text alignment-baseline="middle" fill="#e1ed5e" style="dominant-baseline: central; font-size:9.0px; font-family:Arial;" text-anchor="middle" x="100.0" y="100.0">2024</text><line stroke="#e1ed5e" stroke-width="0.3" x1="100.0" x2="100.0" y1="15.0" y2="10.0" /><path d="M 100.0 14.0 a86.0,86.0 0 0,1 42.35913384403234,11.155469271406648" fill="none" id="id85" stroke="none" /><text fill="#e1ed5e" style="font-size:6.75px; font-family:Arial;" text-anchor="middle"><textPath startOffset="22.145653131862478" xlink:href="#id85">January</textPath></text><line stroke="#e1ed5e" stroke-width="0.3" x1="143.13028292997686" x2="145.6673583964461" y1="26.7553504044142" y2="22.446841604673864" /><path d="M 143.63769802327073 25.89364864446614 a86.0,86.0 0 0,1 29.32050498858742,28.57503671076993" fill="none" id="id86" stroke="none" /><text fill="#e1ed5e" style="font-size:6.75px; font-family:Arial;" text-anchor="middle"><textPath startOffset="20.669276256404974" xlink:href="#id86">February</textPath></text><line stroke="#e1ed5e" stroke-width="0.3" x1="172.87174338648825" x2="177.1583165268699" y1="56.24261187166439" y2="53.66864786411523" /><path d="M 173.72905801456457 55.72781907015455 a86.0,86.0 0 0,1 12.242430191666344,42.057860355516425" fill="none" id="id87" stroke="none" /><text fill="#e1ed5e" style="font-size:6.75px; font-family:Arial;" text-anchor="middle"><textPath startOffset="22.145653131862474" xlink:href="#id87">March</textPath></text><path d="M 118.36410011445183 89.81374322990088 l 8.136521903994344 -4.513191542905948 a30.304401463669628,30.304401463669628 0 0,0 0.24843064948068497,0.45708441371726244 l -8.21279790309037 4.3728522957140825" fill="#ff4806" stroke="none" /><path d="M 120.86939407059847 97.66154086499901 l 8.63765274852308 -0.967867006891538 a29.69170935703084,29.69170935703084 0 0,0 0.052409553761660115,0.5070148905295634 l -8.652994694766406 0.8194475940790432" fill="#ff3f05" stroke="none" /><line stroke="#e1ed5e" stroke-width="0.3" x1="184.99686870605535" x2="189.99668451229388" y1="99.2704041080226" y2="99.22748670261217" /><path d="M 185.99683186730306 99.26182062694052 a86.0,86.0 0 0,1 -10.086455211305974,41.156179273409016" fill="none" id="id88" stroke="none" /><text fill="#e1ed5e" style="font-size:6.75px; font-family:Arial;" text-anchor="middle"><textPath startOffset="21.40746469413373" xlink:href="#id88">April</textPath></text><path d="M 120.99303781780057 100.54070618675476 l 8.942543943617478 0.2303282106003857 a29.945509670674333,29.945509670674333 0 0,0 -0.01764690739112266,0.5137704542275621 l -8.937272349229511 -0.3838049293920584" fill="#ff4306" stroke="none" /><path d="M 120.7213421655516 103.40968896794604 l 9.026691804768367 1.485338701415545 a30.148081547307896,30.148081547307896 0 0,0 -0.08841310020714092,0.5099432671277154 l -8.999863887068992 -1.6400750014638483" fill="#ff4606" stroke="none" /><path d="M 120.51834098615036 104.47187691870673 l 61.555022958451104 13.415630756120176 a84.0,84.0 0 0,0 -0.3191565537693437,1.4062626642439322 l -61.315655543124095 -14.470327754303124" fill="#4dd2ff" stroke="none" /><line stroke="#e1ed5e" stroke-width="0.3" x1="174.33088141563837" x2="178.70328620479359" y1="141.23008692659167" y2="143.65538615756765" /><path d="M 175.20536237346943 141.71514677278685 a86.0,86.0 0 0,1 -30.301960400862466,31.631185727798858" fill="none" id="id89" stroke="none" /><text fill="#e1ed5e" style="font-size:6.75px; font-family:Arial;" text-anchor="middle"><textPath startOffset="22.145653131862474" xlink:href="#id89">May</textPath></text><path d="M 111.8722381534696 117.32195027204791 l 5.287500580369778 7.7146213656287825 a30.35270256142185,30.35270256142185 0 0,0 -0.4323145715432795,0.2908805373206381 l -5.154289720729494 -7.804251577006542" fill="#ff4906" stroke="none" /><path d="M 111.5731344415666 117.5232005979908 l 4.100184678858838 6.208202192691897 a28.439979090433873,28.439979090433873 0 0,0 -0.4096905853888795,0.26555648770784485 l -3.9930084612129493 -6.277672522103637" fill="#ff2c04" stroke="none" /><path d="M 111.27062007382361 117.71928675628689 l 5.095600713216352 8.011130677958265 a30.494385781495033,30.494385781495033 0 0,0 -0.44410843059552685,0.27715650680911846 l -4.95732815383111 -8.097422981608933" fill="#ff4b06" stroke="none" /><line stroke="#e1ed5e" stroke-width="0.3" x1="143.1302829299769" x2="145.66735839644613" y1="173.24464959558577" y2="177.55315839532614" /><path d="M 143.63769802327073 174.10635135553383 a86.0,86.0 0 0,1 -40.68552437913181,11.842963189579606" fill="none" id="id90" stroke="none" /><text fill="#e1ed5e" style="font-size:6.75px; font-family:Arial;" text-anchor="middle"><textPath startOffset="21.407464694133747" xlink:href="#id90">June</textPath></text><path d="M 110.02825361518725 118.45085714620011 l 7.210417445148752 13.266355972831528 a36.099215891270255,36.099215891270255 0 0,0 -0.5470082970446651,0.2912511078114258 l -6.981620332317533 -13.388177548365523" fill="#ff9b0e" stroke="none" /><path d="M 109.3889696526874 118.78422872680471 l 6.034592963876777 12.073228341320947 a34.497375849451124,34.497375849451124 0 0,0 -0.5319819807713789,0.26021904475229346 l -5.826450733843328 -12.175041136170465" fill="#ff850c" stroke="none" /><path d="M 108.73861861582097 119.09545874513695 l 5.408594331441143 11.818754710067308 a33.99753267119708,33.99753267119708 0 0,0 -0.5327682065747092,0.2383004422628585 l -5.204912722010807 -11.909858903240016" fill="#ff7e0b" stroke="none" /><path d="M 107.06938296918513 119.77432235084164 l 4.977170809313795 13.922032574494278 a35.78496602195504,35.78496602195504 0 0,0 -0.580217827525748,0.20182987933905178 l -4.737447209743025 -14.005420886401922" fill="#ff970d" stroke="none" /><path d="M 104.9986988182912 120.39639698878246 l 1.0861783192824286 4.431978201932613 a25.563136434918974,25.563136434918974 0 0,0 -0.42710869640826876,0.10079648939566566 l -1.0099374691342808 -4.449970834974504" fill="#ff0000" stroke="none" /><path d="M 103.94208987418118 120.62667999033965 l 1.9384449047803183 10.142762850660066 a31.326335598536332,31.326335598536332 0 0,0 -0.5290649124725663,0.09641325113201582 l -1.7640452587566948 -10.174544275723447" fill="#ff5708" stroke="none" /><path d="M 102.51750503828377 120.84855314841334 l 1.4514059191616535 12.019723093063641 a33.107036069001566,33.107036069001566 0 0,0 -0.5648124965681269,0.06328841832658824 l -1.2448575209927273 -12.042867271897201" fill="#ff710a" stroke="none" /><path d="M 101.44090949804482 120.95050786540614 l 0.7633229991872752 11.09854888181257 a32.12476738107684,32.12476738107684 0 0,0 -0.5504894751672028,0.033116079840103375 l -0.5726891718876073 -11.110016939477367" fill="#ff6309" stroke="none" /><line stroke="#e1ed5e" stroke-width="0.3" x1="101.45913802915013" x2="101.54496967792366" y1="184.9874750549273" y2="189.98673829345242" /><path d="M 101.47630435890484 185.9873277026323 a86.0,86.0 0 0,1 -42.54439059252881,-10.42667462771756" fill="none" id="id91" stroke="none" /><text fill="#e1ed5e" style="font-size:6.75px; font-family:Arial;" text-anchor="middle"><textPath startOffset="22.145653131862474" xlink:href="#id91">July</textPath></text><path d="M 100.36049292484886 120.99690560180557 l 0.12870960493680042 7.496689223614512 a28.497794040773655,28.497794040773655 0 0,0 -0.4892025297856517,0.004199215353578475 l -9.182149472699556e-16 -7.497794040773655" fill="#ff2d04" stroke="none" /><path d="M 99.63950707515114 120.99690560180557 l -0.17736076021714894 10.330375114311574 a31.33189754312598,31.33189754312598 0 0,0 -0.5376951771162939,-0.013849120426411891 l 0.3546692514041868 -10.325808276535113" fill="#ff5708" stroke="none" /><path d="M 99.27912038922189 120.98762331915562 l -0.2532009556058676 7.371669555989041 a28.3760167276529,28.3760167276529 0 0,0 -0.4866814400981076,-0.020900195099167358 l 0.3797081563048139 -7.366236792464045" fill="#ff2b04" stroke="none" /><path d="M 94.30408787586889 120.21278271476187 l -2.400401677459234 8.51817873542681 a29.849932043910087,29.849932043910087 0 0,0 -0.4920121480042341,-0.14321756562215857 l 2.546273837845075 -8.475717475502135" fill="#ff4106" stroke="none" /><path d="M 92.93061703081489 119.77432235084164 l -3.526142692502269 9.86324868245779 a31.47460533193936,31.47460533193936 0 0,0 -0.5072070424634949,-0.18625345154217776 l 3.694938886619883 -9.801264381906893" fill="#ff5908" stroke="none" /><line stroke="#e1ed5e" stroke-width="0.3" x1="58.13341422392154" x2="55.67067388415222" y1="173.97424548756322" y2="178.32567169271397" /><path d="M 57.64086615596768 174.84453072859336 a86.0,86.0 0 0,1 -31.369924170532247,-30.572349798747897" fill="none" id="id92" stroke="none" /><text fill="#e1ed5e" style="font-size:6.75px; font-family:Arial;" text-anchor="middle"><textPath startOffset="22.145653131862474" xlink:href="#id92">August</textPath></text><path d="M 88.4268655584334 117.5232005979908 l -4.431467920897618 6.7098072448330255 a29.041108207004704,29.041108207004704 0 0,0 -0.4136334886900771,-0.27831107106676717 l 4.545997697684701 -6.632746499709137" fill="#ff3505" stroke="none" /><path d="M 88.1277618465304 117.32195027204791 l -8.384419103678734 12.23311804366792 a35.830632514375324,35.830632514375324 0 0,0 -0.504367183695154,-0.3520874653486978 l 8.593181378547653 -12.087385762514094" fill="#ff980e" stroke="none" /><path d="M 87.54013794807813 116.9041958592261 l -6.457070034128225 8.76025561750158 a31.882822791427078,31.882822791427078 0 0,0 -0.43777698366646167,-0.32851600996085845 l 6.606500006705453 -8.648120580276705" fill="#ff5f08" stroke="none" /><path d="M 86.13680546590413 115.77377054828092 l -5.300334805142558 6.030808039212058 a29.028959749085207,29.028959749085207 0 0,0 -0.37148079616742186,-0.3321804185971688 l 5.403080628133351 -5.938932090731507" fill="#ff3505" stroke="none" /><path d="M 85.60350026404147 115.28858382429668 l -6.610700091335907 7.020334410261814 a30.642948248823835,30.642948248823835 0 0,0 -0.37986678777972027,-0.3639037897585932 l 6.7302393649809416 -6.905818490197638" fill="#ff4d07" stroke="none" /><path d="M 84.58840730492382 114.26474011684316 l -5.5331350501207135 5.121387197481845 a28.539508625196028,28.539508625196028 0 0,0 -0.32970240044359794,-0.36240069344702114 l 5.620235151406192 -5.025648928477149" fill="#ff2e04" stroke="none" /><path d="M 84.3458050057657 113.99807769240083 l -6.840056723356286 6.116420899908 a30.175891270256145,30.175891270256145 0 0,0 -0.34197753607187886,-0.38910766009935877 l 6.9440453233867565 -5.998100961997341" fill="#ff4606" stroke="none" /><path d="M 84.1078160697243 113.72728997021213 l -13.371144681256194 11.549676311233013 a38.66868792472556,38.66868792472556 0 0,0 -0.4296007197564456,-0.5060685676574472 l 13.567439964519751 -11.318440961126012" fill="#ffbf11" stroke="none" /><path d="M 82.78059297857968 112.02048342749411 l -4.829835140359073 3.371600031870677 a26.890245687401986,26.890245687401986 0 0,0 -0.2609765738404748,-0.3807726206126528 l 4.887001451014873 -3.2881926761879736" fill="#ff1402" stroke="none" /><line stroke="#e1ed5e" stroke-width="0.3" x1="26.387840678322732" x2="22.057713659400548" y1="142.50000000000003" y2="145.00000000000006" /><path d="M 25.521815274538298 143.00000000000003 a86.0,86.0 0 0,1 -11.493303480769221,-40.785679425670985" fill="none" id="id93" stroke="none" /><text fill="#e1ed5e" style="font-size:6.75px; font-family:Arial;" text-anchor="middle"><textPath startOffset="21.40746469413373" xlink:href="#id93">September</textPath></text><line stroke="#e1ed5e" stroke-width="0.3" x1="15.003131293944662" x2="10.003315487706104" y1="100.72959589197737" y2="100.7725132973878" /><path d="M 14.003168132696942 100.73817937305945 a86.0,86.0 0 0,1 10.791469493833604,-42.45332614584628" fill="none" id="id94" stroke="none" /><text fill="#e1ed5e" style="font-size:6.75px; font-family:Arial;" text-anchor="middle"><textPath startOffset="22.145653131862435" xlink:href="#id94">October</textPath></text><line stroke="#e1ed5e" stroke-width="0.3" x1="26.387840678322718" x2="22.05771365940052" y1="57.49999999999999" y2="54.99999999999999" /><path d="M 25.521815274538284 56.99999999999999 a86.0,86.0 0 0,1 29.574782752854787,-30.34633250058573" fill="none" id="id95" stroke="none" /><text fill="#e1ed5e" style="font-size:6.75px; font-family:Arial;" text-anchor="middle"><textPath startOffset="21.40746469413373" xlink:href="#id95">November</textPath></text><line stroke="#e1ed5e" stroke-width="0.3" x1="56.869717070023135" x2="54.33264160355391" y1="26.7553504044142" y2="22.446841604673864" /><path d="M 56.362301976729285 25.89364864446614 a86.0,86.0 0 0,1 42.16139366436587,-11.88097634709845" fill="none" id="id96" stroke="none" /><text fill="#e1ed5e" style="font-size:6.75px; font-family:Arial;" text-anchor="middle"><textPath startOffset="22.145653131862474" xlink:href="#id96">December</textPath></text></svg>