<?xml version="1.0" encoding="utf-8" ?>
<svg baseProfile="full" height="200mm" version="1.1" viewBox="0,0,200,200" width="200mm" xmlns="http://www.w3.org/2000/svg" xmlns:ev="http://www.w3.org/2001/xml-events" xmlns:xlink="http://www.w3.org/1999/xlink"><defs /><rect fill="#1a1a1a" height="200" width="200" x="0" y="0" /><text alignment-baseline="middle" fill="#e1ed5e" style="dominant-baseline: central; font-size:9.0px; font-family:Arial;" text-anchor="middle" x="100.0" y="100.0">2023</text><line stroke="#e1ed5e" stroke-width="0.3" x1="100.0" x2="100.0" y1="15.0" y2="10.0" /><path d="M 100.0 14.0 a86.0,86.0 0 0,1 42.46469731375804,11.215312516191453" fill="none" id="id73" stroke="none" /><text fill="#e1ed5e" style="font-size:6.75px; font-family:Arial;" text-anchor="middle"><textPath startOffset="22.20632615414155" xlink:href="#id73">January</textPath></text><path d="M 105.36241919743992 79.69619591428918 l 0.7554992592825437 -2.8605575921210433 a23.958643078949844,23.958643078949844 0 0,0 0.3978299720459782,0.10874195947442328 l -0.8046271205522327 2.8471290918203267" fill="#ff0000" stroke="none" /><path d="M 106.0581310904928 79.89281104454417 l 0.8784774640490626 -2.915703225779376 a24.045167968382422,24.045167968382422 0 0,0 0.39527350944349116,0.12281340347694454 l -0.928536346203272 2.900149687419911" fill="#ff0100" stroke="none" /><path d="M 109.73455568895987 81.39251694778311 l 2.8782689964735693 -5.501775662174659 a27.209184153571094,27.209184153571094 0 0,0 0.4131325308233107,0.22068109028021526 l -2.9725465738251913 5.45141584539269" fill="#ff3004" stroke="none" /><path d="M 110.05341064243156 81.56283822128135 l 8.690526081224915 -15.937739042057478 a39.153147642796654,39.153147642796654 0 0,0 0.5889302941602617,0.32773907107888517 l -8.96358046445721 15.785784573418413" fill="#ffd513" stroke="none" /><line stroke="#e1ed5e" stroke-width="0.3" x1="143.23703022742887" x2="145.7803849466894" y1="26.81831364943548" y2="22.513508569990506" /><path d="M 143.74570117128098 25.957352633546492 a86.0,86.0 0 0,1 28.547481713284135,27.462654790039103" fill="none" id="id74" stroke="none" /><text fill="#e1ed5e" style="font-size:6.75px; font-family:Arial;" text-anchor="middle"><textPath startOffset="19.985693538727396" xlink:href="#id74">February</textPath></text><path d="M 110.68208982089419 81.91981866633111 l 6.283620258742538 -10.635465121044104 a33.35301590288887,33.35301590288887 0 0,0 0.49177899664670416,0.29629134292688886 l -6.465761321606879 10.525727168658602" fill="#ff880c" stroke="none" /><path d="M 111.2981086023043 82.29822771554956 l 6.354227354164002 -9.955744773430151 a32.810717982497415,32.810717982497415 0 0,0 0.473463307447114,0.3079537054023124 l -6.524657687395396 9.84489214386831" fill="#ff800b" stroke="none" /><path d="M 112.19680574252982 82.90503203632743 l 6.05372382510433 -8.484862105347819 a31.42307330384869,31.42307330384869 0 0,0 0.43761071248898936,0.31794279333397557 l -6.198879853947108 8.379400077197168" fill="#ff6d0a" stroke="none" /><path d="M 112.77801427241765 83.33499621200491 l 12.203691580624128 -15.915975838094422 a41.05613061070858,41.05613061070858 0 0,0 0.5571266969130629,0.43484622393788086 l -12.47585083269662 15.703551224933316" fill="#ffee16" stroke="none" /><path d="M 113.34407831869373 83.78471172551755 l 7.5086787334557705 -9.124301230523647 a32.816646278347605,32.816646278347605 0 0,0 0.4330898180153652,0.3627002675914716 l -7.6646260884302535 8.993699805538355" fill="#ff800b" stroke="none" /><path d="M 114.16331599549186 84.49514656593476 l 9.617152212105104 -10.528080821556763 a35.25938646842947,35.25938646842947 0 0,0 0.4445908361462277,0.4131987289382081 l -9.79695093204618 10.360977506543914" fill="#ffa20e" stroke="none" /><path d="M 114.68862486808459 84.99185889309783 l 11.122552396111482 -11.364497175801436 a36.901665568834105,36.901665568834105 0 0,0 0.4501374110920692,0.44820437799564167 l -11.316525607370874 11.171356947155676" fill="#ffb811" stroke="none" /><path d="M 116.15771136456269 86.58626213691792 l 11.066628050175014 -9.187244674938922 a35.383174931777546,35.383174931777546 0 0,0 0.3850051822397799,0.4719708299007951 l -11.223131724491203 8.995389675430026" fill="#ffa30f" stroke="none" /><path d="M 116.38621287248628 86.86637796730983 l 10.760108704179519 -8.624274678418175 a34.78978074715348,34.78978074715348 0 0,0 0.370504404815788,0.4705029688046541 l -10.90696718958927 8.437779315660482" fill="#ff9b0e" stroke="none" /><path d="M 116.82858285166822 87.43820079747576 l 11.579392484830597 -8.643508759101545 a35.44965653524043,35.44965653524043 0 0,0 0.36080557024435905,0.4921383923318504 l -11.726460667588581 8.4429079230982" fill="#ffa40f" stroke="none" /><path d="M 117.45458315368197 88.32363383020206 l 7.90570205537118 -5.288574995752088 a30.511527241930935,30.511527241930935 0 0,0 0.28826617453178244,0.4390491606173634 l -7.995564865260888 5.15170777115705" fill="#ff6008" stroke="none" /><line stroke="#e1ed5e" stroke-width="0.3" x1="172.23445277983987" x2="176.4835382374775" y1="55.19839476539836" y2="52.563006222186495" /><path d="M 173.08426987136738 54.67131705675599 a86.0,86.0 0 0,1 12.851231095245387,41.99856678651699" fill="none" id="id75" stroke="none" /><text fill="#e1ed5e" style="font-size:6.75px; font-family:Arial;" text-anchor="middle"><textPath startOffset="22.20632615414155" xlink:href="#id75">March</textPath></text><path d="M 117.84615892207809 88.93136811851018 l 7.49241674569386 -4.646983321335257 a29.81650512844641,29.81650512844641 0 0,0 0.2667642982834697,0.43849036542859904 l -7.571296842263553 4.517325182699576" fill="#ff5608" stroke="none" /><path d="M 118.03404312379186 89.2402003453031 l 13.463652367211104 -8.032929781595053 a36.67794297543992,36.67794297543992 0 0,0 0.31881922145217023,0.5449653962308134 l -13.5999312631336 7.799984973010344" fill="#ffb510" stroke="none" /><path d="M 118.21658344932153 89.55222093294921 l 12.489510399149024 -7.1631239561995 a35.397854521501834,35.397854521501834 0 0,0 0.298593306815531,0.5311641748883068 l -12.610961347256989 6.947076271376399" fill="#ffa40f" stroke="none" /><path d="M 118.73160827565052 90.50648371742162 l 11.564197798858032 -5.860943624425825 a33.9646184247671,33.9646184247671 0 0,0 0.25981313637128683,0.5237674289120346 l -11.663370948182726 5.661016607014839" fill="#ff900d" stroke="none" /><path d="M 118.89224826269711 90.83032412892265 l 8.390008114189756 -4.072233960355846 a30.32605627176061,30.32605627176061 0 0,0 0.2238955494300144,0.4715811275835803 l -8.458861857461526 3.9272104171317257" fill="#ff5d08" stroke="none" /><path d="M 119.34039704204932 91.81776055985345 l 8.656367467166278 -3.6622035806326103 a30.399171920579654,30.399171920579654 0 0,0 0.19973459341228836,0.4836731607536935 l -8.718123747464764 3.5126558494256135" fill="#ff5e08" stroke="none" /><path d="M 119.7369772167798 92.82701384747503 l 14.633259009222556 -5.318147915285992 a36.5696810012233,36.5696810012233 0 0,0 0.20992201811740516,0.593477813620878 l -14.722634108149771 5.065472475238499" fill="#ffb310" stroke="none" /><path d="M 119.97218684219823 93.5106431181261 l 9.771575450876146 -3.1749773272156023 a31.27444245789028,31.27444245789028 0 0,0 0.16194876740487388,0.5134218491649621 l -9.824779702049225 3.006305311624221" fill="#ff6b09" stroke="none" /><path d="M 120.37134235888165 94.90015583598534 l 29.166819833811566 -7.30173953644636 a51.06690505316647,51.06690505316647 0 0,0 0.20613326384302533,0.8545554575776 l -29.28818589791541 6.7985988472093535" fill="#98ff23" stroke="none" /><path d="M 120.53481517161879 95.60439243477599 l 10.314887565504222 -2.2079671737211584 a31.548555566011103,31.548555566011103 0 0,0 0.10909896752707475,0.5320053113717059 l -10.351365828946294 2.0300862061860405" fill="#ff6f0a" stroke="none" /><path d="M 120.67395015179393 96.31383870115 l 12.229727196624399 -2.180557985130785 a33.42260280417804,33.42260280417804 0 0,0 0.09611089364253741,0.5672519348039992 l -12.26544995178716 1.969720262010948" fill="#ff890c" stroke="none" /><path d="M 120.91429891909075 98.10471618934814 l 14.183903271560702 -1.2853656891124574 a35.24202503058248,35.24202503058248 0 0,0 0.04954947525115401,0.6046291022825869 l -14.20392723063135 1.0410226696221017" fill="#ffa20e" stroke="none" /><path d="M 120.94382443527127 98.46500227214037 l 9.219179329376086 -0.6756845850698854 a30.24390702926508,30.24390702926508 0 0,0 0.033584287506660246,0.5195340629705376 l -9.229444207887163 0.5168914578463124" fill="#ff5c08" stroke="none" /><line stroke="#e1ed5e" stroke-width="0.3" x1="184.98032266829074" x2="189.97916517819016" y1="98.17113171792111" y2="98.06355123074" /><path d="M 185.9800911702706 98.14961562048488 a86.0,86.0 0 0,1 -9.607161424134198,41.387399972396054" fill="none" id="id76" stroke="none" /><text fill="#e1ed5e" style="font-size:6.75px; font-family:Arial;" text-anchor="middle"><textPath startOffset="21.466115282336823" xlink:href="#id76">April</textPath></text><path d="M 120.99824983174949 100.27111621757518 l 14.533417440244799 0.18764636083540273 a35.534628775759856,35.534628775759856 0 0,0 -0.01316124357759002,0.6115512729370122 l -14.528034133982201 -0.43778744956252974" fill="#ffa50f" stroke="none" /><path d="M 120.95626037817324 101.35467743843564 l 10.003164065095167 0.6466354410288074 a31.024042533170228,31.024042533170228 0 0,0 -0.039036284184300774,0.5326190832226027 l -9.990551222246529 -0.8187276607481804" fill="#ff6709" stroke="none" /><path d="M 120.92983693683757 101.71520430193887 l 15.797892351913495 1.2946404219651515 a36.85085160440388,36.85085160440388 0 0,0 -0.05725113862510774,0.631761544067627 l -15.773266617011313 -1.566383354581349" fill="#ffb711" stroke="none" /><path d="M 120.81339534386255 102.79330883721812 l 10.437614611068739 1.400803696412396 a31.53119412816411,31.53119412816411 0 0,0 -0.07682492714987067,0.5373133615537264 l -10.411955632902266 -1.5802625299465318" fill="#ff6e0a" stroke="none" /><path d="M 120.76222939487914 103.15116336523771 l 14.030951014594459 2.129531370438469 a35.19163451585584,35.19163451585584 0 0,0 -0.09605346436226599,0.598125014274022 l -13.992215795870903 -2.370735614405696" fill="#ffa10e" stroke="none" /><path d="M 120.49622156327973 104.57218783832717 l 51.15885997907658 11.41224574963012 a73.41629810859132,73.41629810859132 0 0,0 -0.2857622218509562,1.2310561726417275 l -50.95483719129507 -12.291170579620413" fill="#3fffc2" stroke="none" /><path d="M 120.13307415673323 105.97154293290107 l 6.844227584892232 2.0300227649070277 a28.138938552743014,28.138938552743014 0 0,0 -0.14173077852263047,0.4631843846999197 l -6.808270033863468 -2.1475341221590045" fill="#ff3e05" stroke="none" /><line stroke="#e1ed5e" stroke-width="0.3" x1="174.80103733775053" x2="179.2010983576182" y1="140.37084112569926" y2="142.7455964860345" /><path d="M 175.68104954172406 140.8457921977663 a86.0,86.0 0 0,1 -30.038265399797805,32.042727171017184" fill="none" id="id77" stroke="none" /><text fill="#e1ed5e" style="font-size:6.75px; font-family:Arial;" text-anchor="middle"><textPath startOffset="22.206326154141568" xlink:href="#id77">May</textPath></text><path d="M 117.14729908036423 112.12312394758627 l 5.816998023128849 4.11261200418494 a28.12397666321634,28.12397666321634 0 0,0 -0.28287391381086935,0.3928871254316335 l -5.745344316942377 -4.212132735067705" fill="#ff3e05" stroke="none" /><path d="M 116.93607887273984 112.41649034213515 l 5.7518328871324975 4.216889755255512 a28.132022207584455,28.132022207584455 0 0,0 -0.2896777546416001,0.3880706908045307 l -5.6783938657958055 -4.315273325569357" fill="#ff3e05" stroke="none" /><path d="M 116.498646956653 112.99209946851258 l 7.0869283836240795 5.580704813441725 a30.020466735673285,30.020466735673285 0 0,0 -0.3231947524137533,0.403235147101116 l -6.989815719155472 -5.701867794121092" fill="#ff5908" stroke="none" /><path d="M 115.56566222782051 114.09645910891815 l 6.612618232851416 5.988470079716513 a29.921238355133152,29.921238355133152 0 0,0 -0.3490149910621924,0.37878684150011055 l -6.508556833793501 -6.101408176017958" fill="#ff5808" stroke="none" /><path d="M 114.81725581225074 114.88116024355365 l 6.571149891061202 6.599490199287998 a30.313070480850662,30.313070480850662 0 0,0 -0.37292300963636543,0.3649836548182815 l -6.456576929049042 -6.711623957028851" fill="#ff5d08" stroke="none" /><path d="M 114.55890576462653 115.13401014063108 l 5.05615146024606 5.255879027519305 a28.29307424484803,28.29307424484803 0 0,0 -0.35388460662104465,0.33461998392363307 l -4.964931019234207 -5.34213364818886" fill="#ff4006" stroke="none" /><path d="M 113.48314897796784 116.09983520530334 l 12.087509204206228 14.433342429747333 a39.826291521595934,39.826291521595934 0 0,0 -0.5293670301411777,0.43563302668226467 l -11.83727204552036 -14.639270575286776" fill="#ffde14" stroke="none" /><path d="M 111.45004920935366 117.60387380957326 l 4.134248299326981 6.3561984781114536 a28.58243154229792,28.58243154229792 0 0,0 -0.4147422396517141,0.2647081201956282 l -4.024224257628337 -6.426421027130891" fill="#ff4406" stroke="none" /><line stroke="#e1ed5e" stroke-width="0.3" x1="143.8653032363475" x2="146.44561519142675" y1="172.8068346515853" y2="177.08958963109032" /><path d="M 144.38136562736335 173.6633856474863 a86.0,86.0 0 0,1 -40.68145358897372,12.25698825130547" fill="none" id="id78" stroke="none" /><text fill="#e1ed5e" style="font-size:6.75px; font-family:Arial;" text-anchor="middle"><textPath startOffset="21.466115282336833" xlink:href="#id78">June</textPath></text><path d="M 109.57404056367764 118.69057910512821 l 4.212621606823785 8.223940232823457 a30.240095981932814,30.240095981932814 0 0,0 -0.46533184989808785,0.23332704966964343 l -4.070435849242937 -8.295235123402403" fill="#ff5c08" stroke="none" /><path d="M 108.92500713936063 119.00905698771935 l 3.9026884987389567 8.312198177486307 a30.182789122047616,30.182789122047616 0 0,0 -0.4721910573140778,0.21675975490403965 l -3.7590294456574593 -8.378145002724422" fill="#ff5b08" stroke="none" /><path d="M 107.59598834532513 119.57807347666477 l 10.444547794643745 26.920015521076976 a49.875176437376496,49.875176437376496 0 0,0 -0.8030610665863076,0.30364898017900555 l -9.979616507297163 -27.09581275136261" fill="#a5ff21" stroke="none" /><path d="M 106.91757812671514 119.82793768551818 l 3.148381936134793 9.02424514712856 a30.55768325962172,30.55768325962172 0 0,0 -0.49813427957552053,0.16899419338503305 l -2.9925779236220453 -9.077102327411717" fill="#ff6108" stroke="none" /><path d="M 105.53697534728816 120.25689768951611 l 6.75703921970308 24.72047346654905 a46.62731721087795,46.62731721087795 0 0,0 -0.776032999583895,0.2049573684442819 l -6.3305157773076886 -24.83312218429691" fill="#cbff1d" stroke="none" /><path d="M 102.34483914955558 120.86867818915974 l 0.6514825517618856 5.798086287133227 a26.83457231579938,26.83457231579938 0 0,0 -0.45946845184719826,0.04762578368711736 l -0.5515815033090847 -5.808441439276103" fill="#ff2b04" stroke="none" /><path d="M 101.62511606390274 120.93702456842531 l 0.4729481195799145 6.0931810466848555 a27.111508421944105,27.111508421944105 0 0,0 -0.465591407067081,0.03210990938640129 l -0.36799395173390315 -6.100419300587542" fill="#ff2f04" stroke="none" /><path d="M 101.26447882468166 120.96189622390904 l 0.3656142042516755 6.060969039509328 a27.071986449609486,27.071986449609486 0 0,0 -0.46539572000274415,0.02405564278479833 l -0.26123041583545176 -6.066364489056329" fill="#ff2e04" stroke="none" /><line stroke="#e1ed5e" stroke-width="0.3" x1="102.19456741930631" x2="102.32365962044197" y1="184.97166512339345" y2="189.96999836594603" /><path d="M 102.22038585953345 185.97133177190398 a86.0,86.0 0 0,1 -42.740103519485714,-10.115201625700543" fill="none" id="id79" stroke="none" /><text fill="#e1ed5e" style="font-size:6.75px; font-family:Arial;" text-anchor="middle"><textPath startOffset="22.20632615414155" xlink:href="#id79">July</textPath></text><path d="M 99.81925306533755 120.99922214144158 l -0.06568109717559449 7.630845594475643 a28.631128258210218,28.631128258210218 0 0,0 -0.492783041731919,-0.00848370695761938 l 0.19702382880018143 -7.628584410238864" fill="#ff4506" stroke="none" /><path d="M 98.73552117531835 120.96189622390904 l -0.4486333949888121 7.437219575980738 a28.45073868448292,28.45073868448292 0 0,0 -0.48859027871295313,-0.03369604622941226 l 0.5765864344806954 -7.428395185235041" fill="#ff4206" stroke="none" /><path d="M 97.2962882734958 120.8252237178851 l -1.2224292348785282 9.415708799896334 a30.49473040368872,30.49473040368872 0 0,0 -0.5199662417631713,-0.07206258316518688 l 1.3843240678285305 -9.393271651238543" fill="#ff6008" stroke="none" /><path d="M 96.93821686468263 120.77559828337769 l -1.2446507146486314 8.445524097505565 a29.536746024277782,29.536746024277782 0 0,0 -0.5023555421702733,-0.07845760422346947 l 1.3898421204274218 -8.422848185934988" fill="#ff5207" stroke="none" /><path d="M 94.81253420990036 120.34920634021253 l -3.611818993835389 14.168315116280201 a35.621435964994824,35.621435964994824 0 0,0 -0.5928586814544872,-0.15657936618083532 l 3.855168118101366 -14.104044400795784" fill="#ffa70f" stroke="none" /><path d="M 94.46302465271185 120.25689768951611 l -2.431158602492294 8.894338151928647 a30.220617295567894,30.220617295567894 0 0,0 -0.5006100398936526,-0.14147739773247767 l 2.5838998104905606 -8.851171960857648" fill="#ff5c08" stroke="none" /><path d="M 94.11515582081647 120.15858648285463 l -1.9806536411864415 6.784746800887651 a28.067940152441892,28.067940152441892 0 0,0 -0.4626198334606476,-0.13938356089333273 l 2.097148449087335 -6.749647870888592" fill="#ff3d05" stroke="none" /><path d="M 93.76903079525671 120.05430185196036 l -2.722389676000002 8.761979481394961 a30.175167027383083,30.175167027383083 0 0,0 -0.49469837694493596,-0.15838679823792007 l 2.872809398035878 -8.713819836497334" fill="#ff5b08" stroke="none" /><path d="M 92.40401165467489 119.57807347666478 l -3.6622366479598516 9.43913220019872 a31.124682412722315,31.124682412722315 0 0,0 -0.49781546844400354,-0.19809104863425422 l 3.824173192445713 -9.3746943071584" fill="#ff6909" stroke="none" /><path d="M 91.7346041902142 119.30500536409082 l -2.8508165587597505 6.658486807581232 a28.243107179824975,28.243107179824975 0 0,0 -0.4452718509840714,-0.1951940941379315 l 2.965009084401565 -6.608428160148849" fill="#ff3f05" stroke="none" /><path d="M 91.40352486487194 119.15986991738527 l -3.600364046733819 8.024510710065963 a29.795191493365955,29.795191493365955 0 0,0 -0.4661273322766215,-0.2139761961462755 l 3.73795937477786 -7.9613474435856135" fill="#ff5607" stroke="none" /><path d="M 90.10565033884886 118.52300852407294 l -3.6951018018314503 6.917524093713723 a28.842570810200435,28.842570810200435 0 0,0 -0.4359035248676686,-0.23768935742790906 l 3.8136281385677595 -6.852894084526048" fill="#ff4806" stroke="none" /><line stroke="#e1ed5e" stroke-width="0.3" x1="58.666819895761336" x2="56.23545636021788" y1="174.27360380694188" y2="178.64263932499728" /><path d="M 58.180547188652646 175.14741091055294 a86.0,86.0 0 0,1 -31.652253787137756,-30.449443065178592" fill="none" id="id80" stroke="none" /><text fill="#e1ed5e" style="font-size:6.75px; font-family:Arial;" text-anchor="middle"><textPath startOffset="22.20632615414155" xlink:href="#id80">August</textPath></text><path d="M 89.7882731507175 118.34994917583269 l -6.937107777562088 12.465626727420952 a35.265879363884444,35.265879363884444 0 0,0 -0.5278986982688108,-0.29975465818675007 l 7.150655242752106 -12.34436890343957" fill="#ffa20f" stroke="none" /><path d="M 89.1626897886671 117.98757091392108 l -5.866124466917567 9.736486986247247 a32.367083843041314,32.367083843041314 0 0,0 -0.47474928862817284,-0.2916297884874418 l 6.032852955478049 -9.634068730931427" fill="#ff7a0b" stroke="none" /><path d="M 88.8546689885994 117.79835938074946 l -4.558575076326803 7.279744082037437 a29.58925378752235,29.58925378752235 0 0,0 -0.42935162347190736,-0.2740325201687476 l 4.683208501845634 -7.2001971330448855" fill="#ff5307" stroke="none" /><path d="M 88.24862548938628 117.40417183066458 l -10.918388480495468 16.170492145992192 a40.511433141996804,40.511433141996804 0 0,0 -0.5745738788287533,-0.3951971531027593 l 11.195119243947111 -15.980154203524332" fill="#ffe715" stroke="none" /><path d="M 85.97065885151581 115.62618273729859 l -4.792369677292768 5.3378447020055955 a28.173520278535804,28.173520278535804 0 0,0 -0.3580726312117102,-0.32709085879175304 l 4.883541857971333 -5.254561076627267" fill="#ff3e05" stroke="none" /><path d="M 84.9287848128048 114.62390073753433 l -10.282155183768346 9.976980283786647 a35.32699727110192,35.32699727110192 0 0,0 -0.41970735136158926,-0.4400614799347476 l 10.452369086508893 -9.798511687269398" fill="#ffa30f" stroke="none" /><path d="M 84.19399662182784 113.82643327865904 l -11.017499766990719 9.637649808192982 a35.63795050343465,35.63795050343465 0 0,0 -0.3999214276038196,-0.465198970092348 l 11.181763704165316 -9.446573738939104" fill="#ffa70f" stroke="none" /><path d="M 83.95833913139862 113.55231037782056 l -11.10779726184279 9.384085434759822 a35.54112167121483,35.54112167121483 0 0,0 -0.3907898648644774,-0.4707315667808835 l 11.267683126600804 -9.191492610865177" fill="#ffa60f" stroke="none" /><path d="M 83.50135304334701 112.99209946851258 l -23.546318722882994 18.54189108771959 a50.97049967065023,50.97049967065023 0 0,0 -0.5368727166731675,-0.6939803574705765 l 23.86199825677423 -18.133832736135762" fill="#99ff23" stroke="none" /><path d="M 82.44556493220864 111.52570212397912 l -7.654889055459145 5.025964703769329 a30.157382139832503,30.157382139832503 0 0,0 -0.281174702679007,-0.4363893826290377 l 7.740268621515197 -4.893453721218843" fill="#ff5b08" stroke="none" /><line stroke="#e1ed5e" stroke-width="0.3" x1="26.63291911575756" x2="22.317208475507996" y1="142.92168965132927" y2="145.44649492493687" /><path d="M 25.769776987707644 143.4266507060508 a86.0,86.0 0 0,1 -11.730757126820373,-40.83630448921669" fill="none" id="id81" stroke="none" /><text fill="#e1ed5e" style="font-size:6.75px; font-family:Arial;" text-anchor="middle"><textPath startOffset="21.46611528233685" xlink:href="#id81">September</textPath></text><path d="M 81.69416730710424 110.29060199501025 l -3.9431032834775976 2.2166108035737357 a25.52343088359838,25.52343088359838 0 0,0 -0.21199468846825145,-0.3848319375896553 l 3.9806743813973657 -2.148408347586258" fill="#ff1702" stroke="none" /><path d="M 81.18737489456691 109.33194174019688 l -5.461905264415319 2.7093604126134534 a27.096969982121013,27.096969982121013 0 0,0 -0.20367468891840568,-0.4196301856220435 l 5.5077332099484435 -2.614941271026125" fill="#ff2f04" stroke="none" /><path d="M 79.58551787078972 104.9243191809786 l -5.654467690536414 1.3639534684492818 a26.816646278347605,26.816646278347605 0 0,0 -0.1043798804967913,-0.4496657933049001 l 5.677108136963761 -1.2664190177958075" fill="#ff2b04" stroke="none" /><path d="M 79.1416061653843 102.43462659150553 l -12.623998268857868 1.473494177939777 a33.70970170320881,33.70970170320881 0 0,0 -0.06231109700974463,-0.5769233704904796 l 12.647491667368664 -1.2559744855645154" fill="#ff8d0d" stroke="none" /><line stroke="#e1ed5e" stroke-width="0.3" x1="15.007084014347285" x2="10.007500721073583" y1="101.09737516637583" y2="101.16192664675087" /><path d="M 14.007167355692545 101.11028546245083 a86.0,86.0 0 0,1 10.666146001902534,-42.60595125391555" fill="none" id="id82" stroke="none" /><text fill="#e1ed5e" style="font-size:6.75px; font-family:Arial;" text-anchor="middle"><textPath startOffset="22.20632615414155" xlink:href="#id82">October</textPath></text><path d="M 79.12142395522702 97.74499172005258 l -26.235255971946568 -2.8335610300440326 a47.38783287851699,47.38783287851699 0 0,0 0.0945717784696938,-0.8102332439165008 l 26.182593840473285 3.284738012285395" fill="#c2ff1e" stroke="none" /><path d="M 79.81627453868168 94.20196356495316 l -13.856657023343864 -3.9805041167086865 a35.41705090806437,35.41705090806437 0 0,0 0.17336495119254675,-0.5845004310874719 l 13.78608617503961 4.2184339345426975" fill="#ffa40f" stroke="none" /><line stroke="#e1ed5e" stroke-width="0.3" x1="26.266209847984243" x2="21.928928074336255" y1="57.711370442889674" y2="55.22380399835377" /><path d="M 25.398753493254645 57.213857153982495 a86.0,86.0 0 0,1 29.58750427330803,-30.492523968695096" fill="none" id="id83" stroke="none" /><text fill="#e1ed5e" style="font-size:6.75px; font-family:Arial;" text-anchor="middle"><textPath startOffset="21.46611528233685" xlink:href="#id83">November</textPath></text><path d="M 82.7489923806493 88.02491185347247 l -51.75302285805211 -35.92526443958256 a84.0,84.0 0 0,0 0.834749520784487,-1.1806939986728553 l 51.12696071746375 36.810784938587204" fill="#4dd2ff" stroke="none" /><path d="M 84.07557802195018 86.31012108654704 l -45.87939236090869 -39.44151485745526 a81.50249364825446,81.50249364825446 0 0,0 0.9237265060466517,-1.0559790786837369 l 45.19367399128419 40.22540949234194" fill="#4aeaff" stroke="none" /><line stroke="#e1ed5e" stroke-width="0.3" x1="56.762969772571076" x2="54.21961505331055" y1="26.818313649435495" y2="22.513508569990535" /><path d="M 56.25429882871897 25.957352633546506 a86.0,86.0 0 0,1 42.265352541879196,-11.944610805530505" fill="none" id="id84" stroke="none" /><text fill="#e1ed5e" style="font-size:6.75px; font-family:Arial;" text-anchor="middle"><textPath startOffset="22.20632615414155" xlink:href="#id84">December</textPath></text></svg>