<?xml version="1.0" encoding="utf-8" ?>
<svg baseProfile="full" height="200mm" version="1.1" viewBox="0,0,200,200" width="200mm" xmlns="http://www.w3.org/2000/svg" xmlns:ev="http://www.w3.org/2001/xml-events" xmlns:xlink="http://www.w3.org/1999/xlink"><defs /><rect fill="#1a1a1a" height="200" width="200" x="0" y="0" /><text alignment-baseline="middle" fill="#e1ed5e" style="dominant-baseline: central; font-size:9.0px; font-family:Arial;" text-anchor="middle" x="100.0" y="100.0">2019</text><line stroke="#e1ed5e" stroke-width="0.3" x1="100.0" x2="100.0" y1="15.0" y2="10.0" /><path d="M 100.0 14.0 a86.0,86.0 0 0,1 42.46469731375804,11.215312516191453" fill="none" id="id25" stroke="none" /><text fill="#e1ed5e" style="font-size:6.75px; font-family:Arial;" text-anchor="middle"><textPath startOffset="22.20632615414155" xlink:href="#id25">January</textPath></text><path d="M 100.0 79.0 l 0.0 -13.090356728146688 a34.09035672814669,34.09035672814669 0 0,0 0.5868094518410442,0.005050854214351574 l -0.22532897256851578 13.088417250540894" fill="#ff8c0c" stroke="none" /><path d="M 100.36148047927253 79.00311137660856 l 0.28780995519622016 -16.717676113852537 a37.72015338500176,37.72015338500176 0 0,0 0.6490980357001801,0.01676428723639514 l -0.575534626091268 16.710245034473783" fill="#ffbd11" stroke="none" /><path d="M 100.72285384407766 79.0124445844662 l 0.61107260928267 -17.742065502327208 a38.752585671464445,38.752585671464445 0 0,0 0.666469123041296,0.028699562393199353 l -0.9163825647132976 17.728918213409813" fill="#ffcb12" stroke="none" /><path d="M 101.08401301168833 79.027996857942 l 0.8752705546294379 -16.933539195484407 a37.956144851610816,37.956144851610816 0 0,0 0.6521913115334361,0.03934196096891289 l -1.166623915002486 16.91596396513519" fill="#ffc011" stroke="none" /><path d="M 101.44485096284872 79.0497635885617 l 0.9188582586235122 -13.323379533076931 a34.35502686937971,34.35502686937971 0 0,0 0.5896137489735629,0.045765374722816846 l -1.1480621969594162 13.30558889616565" fill="#ff8f0d" stroke="none" /><path d="M 101.80526077348638 79.07773832637324 l 1.4368014064585815 -16.65196266404571 a37.71383435499986,37.71383435499986 0 0,0 0.6462981593069123,0.06137379777747073 l -1.723224692855738 16.62476332175306" fill="#ffbd11" stroke="none" /><path d="M 102.16513564639614 79.11191278185805 l 1.4885333670845171 -14.360585144182329 a35.437525316626605,35.437525316626605 0 0,0 0.6062066209023497,0.06811437717938465 l -1.735506691496592 14.332834813532342" fill="#ff9e0e" stroke="none" /><path d="M 102.52436894288641 79.15227682838746 l 2.0101014560474058 -16.600599853132216 a37.72185466230996,37.72185466230996 0 0,0 0.6439394909431313,0.08360182711155396 l -2.295555675498383 16.563539702856527" fill="#ffbd11" stroke="none" /><path d="M 102.88285421437855 79.19881850522331 l 2.3479040738946297 -16.941258607465073 a38.10318381896249,38.10318381896249 0 0,0 0.6488990703852334,0.09563085515656376 l -2.639172124708519 16.89833326814754" fill="#ffc212" stroke="none" /><path d="M 103.2404852339499 79.25152402106235 l 2.510273776038264 -16.073011102476208 a37.26785666063569,37.26785666063569 0 0,0 0.63296933431674,0.10444536365280048 l -2.786572316493879 16.027419475883782" fill="#ffb711" stroke="none" /><path d="M 103.59715602781102 79.31037775812273 l 2.1773023403694602 -12.52310508088028 a33.71097188841781,33.71097188841781 0 0,0 0.5708469559944919,0.10431863244607696 l -2.392544417466853 12.483770967083464" fill="#ff860c" stroke="none" /><path d="M 103.95276090670814 79.375362276772 l 1.7520927569594744 -9.142034952950228 a30.30841727201534,30.30841727201534 0 0,0 0.5115391027185234,0.10260993169530955 l -1.909198269145123 9.110521065177709" fill="#ff5608" stroke="none" /><path d="M 104.307194497241 79.44645832069477 l 2.0133816733882894 -9.607674825653461 a30.816370068321135,30.816370068321135 0 0,0 0.5182393002288128,0.11326703842651559 l -2.17846369777063 9.571594289131074" fill="#ff5d08" stroke="none" /><path d="M 104.66035177308747 79.52364482259891 l 3.9998189988356567 -17.574148573599196 a39.02357484269936,39.02357484269936 0 0,0 0.6536937752241323,0.15470819659673718 l -4.301736461022313 17.50269446486159" fill="#ffce13" stroke="none" /><path d="M 105.01212808612495 79.60689891045804 l 2.0902219775951405 -8.50459273111588 a29.757689503389052,29.757689503389052 0 0,0 0.4963740060146722,0.12653678636141447 l -2.2363048722948378 8.467352948585594" fill="#ff4e07" stroke="none" /><path d="M 105.36241919743992 79.69619591428918 l 4.329373033559636 -16.392366700708532 a37.954443574302616,37.954443574302616 0 0,0 0.630228313699947,0.1722652051466725 l -4.610899236483294 16.31541495473557" fill="#ffc011" stroke="none" /><path d="M 105.71112130821622 79.79150937346287 l 4.568002539171401 -16.1636273356756 a37.796710863870814,37.796710863870814 0 0,0 0.6245632575067803,0.18232714151841464 l -4.845556014401608 16.08260186523848" fill="#ffbe11" stroke="none" /><path d="M 106.0581310904928 79.89281104454417 l 2.690573310365379 -8.9301246773817 a30.32664524317464,30.32664524317464 0 0,0 0.4985334064074668,0.15489675610707432 l -2.843892089483564 8.882487786392105" fill="#ff5608" stroke="none" /><path d="M 106.40334571778207 80.00007090966166 l 2.7405856250473395 -8.559824907584792 a29.987848019227133,29.987848019227133 0 0,0 0.49025444518973194,0.16162918260839806 l -2.8875228924794887 8.511382000717157" fill="#ff5107" stroke="none" /><path d="M 106.74666289553966 80.11325718540242 l 1.9100236606861163 -5.630064803589495 a26.94523507331695,26.94523507331695 0 0,0 0.43794731596516817,0.15279121921928068 l -2.006652980714558 5.5963527311980075" fill="#ff2503" stroke="none" /><path d="M 107.08798089147638 80.2323363322302 l 2.0133795584440395 -5.6151124779054795 a26.96516432178445,26.96516432178445 0 0,0 0.4355743012569534,0.1604256911156777 l -2.1097361854735697 5.579623518983477" fill="#ff2503" stroke="none" /><path d="M 107.4271985657038 80.35727306442388 l 1.9452138965640033 -5.144511091696388 a26.499986497799142,26.499986497799142 0 0,0 0.4252829322399917,0.16500317054234448 l -2.0334799938036623 5.110265217263496" fill="#ff1e03" stroke="none" /><path d="M 107.76421540070413 80.48803036053334 l 1.6676692534247533 -4.190959441767266 a25.510572223272394,25.510572223272394 0 0,0 0.4066095247218906,0.16586623449121 l -1.7395626477350312 4.161632321092477" fill="#ff0f01" stroke="none" /><path d="M 108.09893153111575 80.62456947434976 l 3.60425682921252 -8.62262232032809 a30.34560233318031,30.34560233318031 0 0,0 0.4802065016643773,0.20559936305801574 l -3.752147088667212 8.559303429307283" fill="#ff5708" stroke="none" /><path d="M 108.43124777332544 80.76684994638697 l 5.281186302237421 -12.047309169750035 a34.15403310739651,34.15403310739651 0 0,0 0.5364100402522366,0.24067154908380878 l -5.487778460956437 11.954617290149693" fill="#ff8c0c" stroke="none" /><path d="M 108.76106565485865 80.91482961587045 l 5.523976323428239 -12.033470982158326 a34.240798250114764,34.240798250114764 0 0,0 0.5335397738062928,0.250504077789359 l -5.73029430853413 11.936601921728963" fill="#ff8e0d" stroke="none" /><path d="M 109.08828744355905 81.06846463323043 l 2.823915961738701 -5.882413516787435 a27.525127595798118,27.525127595798118 0 0,0 0.4253664182876458,0.20872545410767565 l -2.9247536470367783 5.832932902544927" fill="#ff2d04" stroke="none" /><path d="M 109.41281617654863 81.2277094730956 l 5.889378414261854 -11.745382098382887 a34.13920769085361,34.13920769085361 0 0,0 0.5230443826934023,0.26792364796960205 l -6.090683284544012 11.642265925100784" fill="#ff8c0c" stroke="none" /><path d="M 110.05341064243156 81.56283822128135 l 3.2430594618002853 -5.947515135097912 a27.77424320164187,27.77424320164187 0 0,0 0.4177721129358791,0.23248972853654723 l -3.3449556638081996 5.890810009001185" fill="#ff3104" stroke="none" /><path d="M 110.36928655335952 81.73862282372117 l 3.389238254126614 -5.968796192523637 a27.863924819745616,27.863924819745616 0 0,0 0.41504412999794604,0.24042034933971687 l -3.4914791165898884 5.9095716857938685" fill="#ff3204" stroke="none" /><line stroke="#e1ed5e" stroke-width="0.3" x1="143.23703022742887" x2="145.7803849466894" y1="26.818313649435467" y2="22.513508569990506" /><path d="M 143.74570117128098 25.957352633546478 a86.0,86.0 0 0,1 28.547481713284135,27.462654790039114" fill="none" id="id26" stroke="none" /><text fill="#e1ed5e" style="font-size:6.75px; font-family:Arial;" text-anchor="middle"><textPath startOffset="19.985693538727396" xlink:href="#id26">February</textPath></text><path d="M 110.68208982089419 81.91981866633111 l 4.522777140476047 -7.655115450502195 a29.89136129189058,29.89136129189058 0 0,0 0.4407380642077661,0.26553975223332305 l -4.653877270901451 7.5761290888102595" fill="#ff5007" stroke="none" /><path d="M 110.99172775467656 82.1063720568725 l 6.992519293322517 -11.38324578377767 a34.35940158245794,34.35940158245794 0 0,0 0.5012886943245364,0.3139069343977115 l -7.187427140019317 11.261194508057017" fill="#ff8f0d" stroke="none" /><path d="M 111.2981086023043 82.29822771554956 l 8.154764244914217 -12.776809356161474 a36.15740865761119,36.15740865761119 0 0,0 0.5217565278785303,0.3393649593342268 l -8.373487798577028 12.63454547266772" fill="#ffa80f" stroke="none" /><path d="M 111.60114157652 82.49532879139004 l 5.7903891269158105 -8.736972751174369 a31.48156949582782,31.48156949582782 0 0,0 0.4491300206506774,0.30325459481654904 l -5.93992384197303 8.63600624405915" fill="#ff6709" stroke="none" /><path d="M 111.90073688211348 82.69761687909136 l 4.381497838032926 -6.370223540612833 a28.73157624692825,28.73157624692825 0 0,0 0.4050726208282614,0.2837792573760284 l -4.490501598444839 6.293859440472869" fill="#ff3f05" stroke="none" /><path d="M 112.19680574252982 82.90503203632743 l 5.753861000748413 -8.064576213773263 a30.906780805271257,30.906780805271257 0 0,0 0.4304206096632572,0.31271887785035307 l -5.891826926765458 7.964338101106237" fill="#ff5f08" stroke="none" /><path d="M 112.48926042617603 83.11751280151076 l 7.507808111232311 -10.148757412483691 a33.62396370608409,33.62396370608409 0 0,0 0.4623356593343008,0.3482216333871761 l -7.681389924324995 10.018019189590666" fill="#ff850c" stroke="none" /><path d="M 112.77801427241765 83.33499621200491 l 7.407952436933734 -9.661403782375828 a33.17458345710351,33.17458345710351 0 0,0 0.45017506102004856,0.35136877568464137 l -7.573160053113213 9.532456617467961" fill="#ff7f0b" stroke="none" /><path d="M 113.06298171725822 83.55741782278167 l 6.822239046509232 -8.587260441975113 a31.967405687127005,31.967405687127005 0 0,0 0.42790138549340756,0.3459998285222871 l -6.969043830567131 8.468554516188698" fill="#ff6e0a" stroke="none" /><path d="M 113.34407831869373 83.78471172551755 l 7.5555888039415455 -9.18130481651411 a32.8904701466339,32.8904701466339 0 0,0 0.4340640908100352,0.36351619303842214 l -7.712510431710698 9.049887466081868" fill="#ff7b0b" stroke="none" /><path d="M 113.6212207817346 84.01681056812373 l 6.777058774001368 -7.95222512809377 a31.44827306851017,31.44827306851017 0 0,0 0.40898659032667056,0.35466914091050383 l -6.912939162974803 7.834390993763594" fill="#ff6609" stroke="none" /><path d="M 113.89432698308785 84.25364557470407 l 7.207209427414063 -8.167885655745154 a31.89303556479706,31.89303556479706 0 0,0 0.4085179113876537,0.3667714143930733 l -7.346738326397707 8.042615232582783" fill="#ff6d0a" stroke="none" /><path d="M 114.16331599549186 84.49514656593476 l 9.64238915774978 -10.555708189573455 a35.29680537927682,35.29680537927682 0 0,0 0.44506265674572115,0.4136372347645746 l -9.822659698290346 10.388166368734241" fill="#ff9c0e" stroke="none" /><path d="M 114.42810811169701 84.74124197986012 l 9.043025220919885 -9.563647052531607 a34.1620534147066,34.1620534147066 0 0,0 0.4237993974827902,0.4076946846026177 l -9.206307862015095 9.406569281166682" fill="#ff8d0d" stroke="none" /><path d="M 114.68862486808459 84.99185889309781 l 11.671761051371856 -11.92565256436264 a37.6868569576841,37.6868569576841 0 0,0 0.45971540746541945,0.45774124340868755 l -11.875312259004597 11.722975470303835" fill="#ffbd11" stroke="none" /><path d="M 114.94478906791727 85.2469230424477 l 7.480725476837821 -7.384762552121519 a31.51170640814453,31.51170640814453 0 0,0 0.37774393402979617,0.38929832864693303 l -7.606733674570727 7.254900027924472" fill="#ff6709" stroke="none" /><path d="M 115.19652480421416 85.50635884689758 l 9.591825417764632 -9.148175480866215 a34.25489454781129,34.25489454781129 0 0,0 0.4032823483178464,0.4301934911369016 l -9.747875088052941 8.981712572851256" fill="#ff8e0d" stroke="none" /><path d="M 115.4437574822437 85.77008943001952 l 6.955490833026152 -6.408803857356461 a30.45788663552159,30.45788663552159 0 0,0 0.3519428516907225,0.38862408712610164 l -7.06477732533291 6.288126982960813" fill="#ff5808" stroke="none" /><path d="M 115.68641384162765 86.03803664274999 l 6.4322786949471995 -5.725160661269036 a29.611136615268286,29.611136615268286 0 0,0 0.33560435443532133,0.3836537921982761 l -6.529874912960369 5.613591312867811" fill="#ff4c07" stroke="none" /><path d="M 115.9244219780498 86.31012108654704 l 5.919110174128539 -5.08853016272122 a28.805703329642732,28.805703329642732 0 0,0 0.3200030884687837,0.3787827225771374 l -6.00582387608444 4.985888490514976" fill="#ff4006" stroke="none" /><path d="M 116.15771136456269 86.58626213691792 l 13.696128291315397 -11.37019163752212 a38.800707515325,38.800707515325 0 0,0 0.42219143694066563,0.5175567812118274 l -13.88981822033247 11.13275068670219" fill="#ffcb13" stroke="none" /><path d="M 116.38621287248628 86.86637796730983 l 13.788548963216913 -11.051582929586067 a38.67092436067079,38.67092436067079 0 0,0 0.4118378301392139,0.5229922214903447 l -13.97674087395009 10.812598314142683" fill="#ffca12" stroke="none" /><path d="M 116.60985879189232 87.15038557335679 l 3.0155297091056696 -2.3328551157225648 a24.81256244767897,24.81256244767897 0 0,0 0.2584335424761453,0.34006824865926816 l -3.0552391918059287 2.2806020911822658" fill="#ff0500" stroke="none" /><path d="M 116.82858285166822 87.43820079747576 l 8.043885628914177 -6.004407915338738 a31.037779158002756,31.037779158002756 0 0,0 0.31590161098145364,0.43088944236132837 l -8.146049852409257 5.865056029305913" fill="#ff6108" stroke="none" /><path d="M 117.04232023915458 87.72973835380427 l 4.230517984657177 -3.045921085992651 a26.212956711944045,26.212956711944045 0 0,0 0.2604911077814203,0.3684461985388445 l -4.282321712242481 2.972648387122013" fill="#ff1a02" stroke="none" /><path d="M 117.2510076193507 88.02491185347247 l 8.434670398485157 -5.855073728879842 a31.26769463422538,31.26769463422538 0 0,0 0.3031113163080624,0.4447784547101516 l -8.534206180461952 5.7090172508992865" fill="#ff6409" stroke="none" /><path d="M 117.45458315368197 88.32363383020206 l 13.991637812799397 -9.35980452692587 a37.83365288542032,37.83365288542032 0 0,0 0.3574440013889402,0.544411736938713 l -14.150678449546263 9.117574726009483" fill="#ffbf11" stroke="none" /><path d="M 117.65298651832404 88.62581576622439 l 13.69753312229949 -8.825603821741854 a37.29459101833599,37.29459101833599 0 0,0 0.34306122828742647,0.5426404768185333 l -13.84742194683287 8.588515697209115" fill="#ffb711" stroke="none" /><line stroke="#e1ed5e" stroke-width="0.3" x1="172.23445277983987" x2="176.4835382374775" y1="55.19839476539836" y2="52.563006222186495" /><path d="M 173.08426987136738 54.67131705675599 a86.0,86.0 0 0,1 12.851231095245387,41.99856678651699" fill="none" id="id27" stroke="none" /><text fill="#e1ed5e" style="font-size:6.75px; font-family:Arial;" text-anchor="middle"><textPath startOffset="22.20632615414155" xlink:href="#id27">March</textPath></text><path d="M 117.84615892207809 88.93136811851018 l 13.881707457209092 -8.609780423970788 a37.3349355945019,37.3349355945019 0 0,0 0.3340306938194397,0.5490586331819152 l -14.027853949314757 8.369554017581791" fill="#ffb811" stroke="none" /><path d="M 118.03404312379186 89.2402003453031 l 11.304349371424108 -6.744607053908808 a34.163511652399336,34.163511652399336 0 0,0 0.2969627875364639,0.5076056658017213 l -11.418771833430899 6.549021975753191" fill="#ff8d0d" stroke="none" /><path d="M 118.21658344932153 89.55222093294921 l 8.845215691288976 -5.073007218949175 a31.19672706651184,31.19672706651184 0 0,0 0.26315532459610025,0.46812395879626 l -8.93122865717751 4.919999750218122" fill="#ff6309" stroke="none" /><path d="M 118.3937258080291 89.86733742301442 l 15.403309335622701 -8.485313834496079 a38.58586049526073,38.58586049526073 0 0,0 0.3154704634153554,0.5845188570487272 l -15.547087898256523 8.218913994114892" fill="#ffc912" stroke="none" /><path d="M 118.56541770881063 90.18545643968196 l 6.36403986371182 -3.364327560071989 a28.19859037023035,28.19859037023035 0 0,0 0.2231590341768698,0.4310722239357478 l -6.421008331048807 3.2542826138758967" fill="#ff3705" stroke="none" /><path d="M 118.73160827565052 90.50648371742162 l 14.012882187469652 -7.1019809540607035 a36.70983770354567,36.70983770354567 0 0,0 0.2808127549133365,0.5661013784787141 l -14.133054955336396 6.859719987083039" fill="#ffaf10" stroke="none" /><path d="M 118.89224826269711 90.83032412892265 l 13.937585484427647 -6.764845535614852 a36.49256028732683,36.49256028732683 0 0,0 0.2694224980136073,0.5674724921200666 l -14.05196617628301 6.523930627854245" fill="#ffad10" stroke="none" /><path d="M 119.04729006885535 91.15688171328212 l 7.973986547881175 -3.70209651896418 a29.79147200993762,29.79147200993762 0 0,0 0.21194175678742766,0.46698556713662764 l -8.03653062163195 3.56428894298549" fill="#ff4f07" stroke="none" /><path d="M 119.196687751892 91.48605970444005 l 10.543266999700489 -4.676053854485926 a32.53368799114256,32.53368799114256 0 0,0 0.22263777178127614,0.5138786731625978 l -10.622195481324445 4.493876036736725" fill="#ff760a" stroke="none" /><path d="M 119.34039704204932 91.81776055985345 l 9.24025357931633 -3.909225188565524 a31.033161405309066,31.033161405309066 0 0,0 0.20390015529966232,0.4937603992733746 l -9.30617542150219 3.749590218838846" fill="#ff6008" stroke="none" /><path d="M 119.47837535516314 92.15188598940014 l 8.546478430792861 -3.4434975140889077 a30.214117901217897,30.214117901217897 0 0,0 0.190214346246466,0.4840747635267074 l -8.604486326921029 3.295873745666416" fill="#ff5507" stroke="none" /><path d="M 119.61058180528143 92.48833698450437 l 8.399768911145477 -3.217458517807398 a29.994896168075396,29.994896168075396 0 0,0 0.18053415447690063,0.4837417780635547 l -8.453907654124002 3.0723936027145102" fill="#ff5207" stroke="none" /><path d="M 119.7369772167798 92.82701384747503 l 9.247903412182232 -3.360954536598208 a30.83970187140504,30.83970187140504 0 0,0 0.1770300499686585,0.5004877903843055 l -9.304386542960701 3.201269119787288" fill="#ff5e08" stroke="none" /><path d="M 119.85752413597 93.16781622104841 l 12.472648976425504 -4.291342134789695 a34.19024601009964,34.19024601009964 0 0,0 0.18668314924414123,0.5581588547602473 l -12.544669419441414 4.076010177107134" fill="#ff8d0d" stroke="none" /><path d="M 119.97218684219823 93.5106431181261 l 12.52640901105153 -4.070077010760005 a34.171045880478516,34.171045880478516 0 0,0 0.17694827873366986,0.5609743990633411 l -12.594612773553406 3.853852445270244" fill="#ff8d0d" stroke="none" /><path d="M 120.08093135843002 93.85539295169968 l 12.24159270079442 -3.745831079699681 a33.801868704598846,33.801868704598846 0 0,0 0.1654587033065364,0.5578444936221952 l -12.30425730121266 3.5345571993309557" fill="#ff880c" stroke="none" /><path d="M 120.18372546131832 94.20196356495316 l 12.650675146405705 -3.6340702100498654 a34.16229645432205,34.16229645432205 0 0,0 0.15749344021962863,0.5665877002043423 l -12.711355357191698 3.4157712064265713" fill="#ff8d0d" stroke="none" /><path d="M 120.28053869075195 94.5502522615342 l 26.37728874192736 -7.088054802692625 a48.31303502470902,48.31303502470902 0 0,0 0.2089047999391486,0.8049954117966319 l -26.495389873736812 6.632962965347142" fill="#bbff1f" stroke="none" /><path d="M 120.37134235888165 94.90015583598534 l 12.405192416746692 -3.1055659973453755 a33.78801544651778,33.78801544651778 0 0,0 0.13638645019740434,0.5654098867060217 l -12.456811667204915 2.8915708789799477" fill="#ff870c" stroke="none" /><path d="M 120.45610955862082 95.25157060432595 l 13.136743307325265 -3.0494018378797403 a34.4860252221112,34.4860252221112 0 0,0 0.1292497026175931,0.579401073514828 l -13.187287396944896 2.8228225948149483" fill="#ff910d" stroke="none" /><path d="M 120.53481517161879 95.60439243477599 l 9.822555378599896 -2.1025803432445467 a31.045070346466474,31.045070346466474 0 0,0 0.10735785080613554,0.5235150078953895 l -9.857292525321027 1.933189679185746" fill="#ff6108" stroke="none" /><path d="M 120.6074358757038 95.95851677861258 l 9.927171955044939 -1.9468942732193142 a31.116280953795467,31.116280953795467 0 0,0 0.09855604296472088,0.5264903224151252 l -9.95921372191952 1.7757258733416257" fill="#ff6209" stroke="none" /><path d="M 120.67395015179393 96.31383870115 l 12.777529559669137 -2.278231040122594 a33.979044584267236,33.979044584267236 0 0,0 0.09771101189358312,0.5766959232991726 l -12.814852433082944 2.057949328507584" fill="#ff8a0c" stroke="none" /><path d="M 120.73433829027371 96.67025291283417 l 9.536690174626562 -1.5315061366130815 a30.65888039750479,30.65888039750479 0 0,0 0.07919350358638141,0.5217862412920565 l -9.561639571652243 1.3671207829289422" fill="#ff5b08" stroke="none" /><path d="M 120.78858239683441 97.02765380044208 l 13.163554574098162 -1.8821216696792111 a34.29742648051632,34.29742648051632 0 0,0 0.07853130891442575,0.5851494677311753 l -13.194001882070424 1.655253859883372" fill="#ff8e0d" stroke="none" /><path d="M 120.83666639777658 97.38593545837742 l 12.804786905051037 -1.6064248845054587 a33.90516054116821,33.90516054116821 0 0,0 0.0676644433160479,0.5797076283527414 l -12.830541701370674 1.3857735178278645" fill="#ff890c" stroke="none" /><path d="M 120.87857604477298 97.74499172005257 l 13.017083410130882 -1.4059211129946874 a34.09278712430126,34.09278712430126 0 0,0 0.057994873789711736,0.5840004645283783 l -13.039355409602821 1.181645117761874" fill="#ff8c0c" stroke="none" /><path d="M 120.91429891909075 98.10471618934814 l 12.806263407237035 -1.160521985679591 a33.858739974615865,33.858739974615865 0 0,0 0.04760460833200194,0.5808967997016701 l -12.824342499388532 0.939911268770152" fill="#ff880c" stroke="none" /><path d="M 120.94382443527127 98.46500227214037 l 8.507143507617732 -0.6234986353675437 a29.52996138370554,29.52996138370554 0 0,0 0.032791487958592644,0.5072698048633176 l -8.516615586580741 0.4769697662511908" fill="#ff4b07" stroke="none" /><path d="M 120.96714384426684 98.82574320788733 l 6.213050274348616 -0.3479594807275691 a27.22278631416921,27.22278631416921 0 0,0 0.022175411793618524,0.4680878945153289 l -6.218119294375731 0.24096047958924047" fill="#ff2904" stroke="none" /><path d="M 120.98425023603335 99.18683210126433 l 9.078735884301203 -0.35181321701627005 a30.085549944640977,30.085549944640977 0 0,0 0.015599079060342939,0.5176574917207118 l -9.08344665781719 0.195485577870559" fill="#ff5307" stroke="none" /><line stroke="#e1ed5e" stroke-width="0.3" x1="184.98032266829074" x2="189.97916517819016" y1="98.17113171792111" y2="98.06355123074" /><path d="M 185.9800911702706 98.14961562048488 a86.0,86.0 0 0,1 -9.607161424134198,41.387399972396054" fill="none" id="id28" stroke="none" /><text fill="#e1ed5e" style="font-size:6.75px; font-family:Arial;" text-anchor="middle"><textPath startOffset="21.466115282336823" xlink:href="#id28">April</textPath></text><path d="M 120.99513854157772 99.54816195383933 l 6.768301277412133 -0.14566115003034588 a27.769868488563635,27.769868488563635 0 0,0 0.00617151326562389,0.4779905036688122 l -6.769805797795472 0.02913438830107104" fill="#ff3104" stroke="none" /><path d="M 120.99980553446 99.90962569577887 l 13.227551619128215 -0.056925802106411516 a34.22767411088007,34.22767411088007 0 0,0 -0.0025356231137287463,0.5891895130579176 l -13.226571698724984 -0.1707731891551908" fill="#ff8d0d" stroke="none" /><path d="M 120.99824983174949 100.27111621757518 l 12.816841057412923 0.16548300437373248 a33.817909319219034,33.817909319219034 0 0,0 -0.012525408514713707,0.5820065160310545 l -12.812093586213201 -0.38607933619490176" fill="#ff880c" stroke="none" /><path d="M 120.9904718944345 100.63252640178507 l 12.929185529871802 0.38960778215709246 a33.93505441386946,33.93505441386946 0 0,0 -0.02261992301773978,0.5837197037194013 l -12.92056347400286 -0.6121047328904999" fill="#ff890c" stroke="none" /><path d="M 120.9764740272857 100.99374915477107 l 6.6530390065207685 0.31518413822975744 a27.66050066160784,27.66050066160784 0 0,0 -0.026624745459476407,0.475402715671286 l -6.6466279101737635 -0.42965857023646675" fill="#ff2f04" stroke="none" /><path d="M 120.95626037817324 101.35467743843564 l 13.103594699174174 0.8470568594320684 a34.130944343928064,34.130944343928064 0 0,0 -0.042945571695359,0.5859582053676045 l -13.087072568814477 -1.072488201296443" fill="#ff8c0c" stroke="none" /><path d="M 120.92983693683757 101.71520430193887 l 13.03620477360734 1.068319575356703 a34.079906024682025,34.079906024682025 0 0,0 -0.052946223471170645,0.5842571640667247 l -13.015883953859094 -1.2925581279719986" fill="#ff8b0c" stroke="none" /><path d="M 120.89721153311464 102.0752229133903 l 12.848040045427373 1.2758901852611475 a33.91123653155464,33.91123653155464 0 0,0 -0.0626836264480192,0.5803725304226465 l -12.824174117478304 -1.4968590375685853" fill="#ff890c" stroke="none" /><path d="M 120.8583938346157 102.4346265915055 l 9.863393763008172 1.1512718058883902 a30.93035564797062,30.93035564797062 0 0,0 -0.066277110600805,0.5282937821192215 l -9.84211514316052 -1.320883342295007" fill="#ff5f08" stroke="none" /><path d="M 120.81339534386255 102.79330883721812 l 13.074001848067262 1.7546260135197578 a34.19121816856148,34.19121816856148 0 0,0 -0.08330600592823569,0.5826420114345439 l -13.041861791122427 -1.979413496934711" fill="#ff8d0d" stroke="none" /><path d="M 120.76222939487914 103.15116336523771 l 9.4685415999554 1.437076955684138 a30.576976047095677,30.576976047095677 0 0,0 -0.08345802971220756,0.5196932306848481 l -9.4424018158819 -1.5998494160621912" fill="#ff5a08" stroke="none" /><path d="M 120.70491114924044 103.5080841355445 l 8.441250825227044 1.4302219357853776 a29.561556533714995,29.561556533714995 0 0,0 -0.08932313962168653,0.500971603309004 l -8.415381243266168 -1.5753122898276" fill="#ff4b07" stroke="none" /><path d="M 120.64145759157962 103.86396538481128 l 10.182690138082167 1.9061426279246445 a31.359563608868246,31.359563608868246 0 0,0 -0.1038898543868042,0.5297321293040775 l -10.148370350719699 -2.081138484296667" fill="#ff6509" stroke="none" /><path d="M 120.5718875245553 104.21870165774334 l 61.715662573665874 12.656104973230008 a84.0,84.0 0 0,0 -0.30266384510222766,1.4139447223353239 l -61.488664689839204 -13.716563514981502" fill="#4dd2ff" stroke="none" /><path d="M 120.49622156327973 104.57218783832717 l 12.750944890719422 2.844412809284559 a34.064351489292754,34.064351489292754 0 0,0 -0.1325905148894057,0.5711964679273852 l -12.700093809899464 -3.0634779345605088" fill="#ff8b0c" stroke="none" /><path d="M 120.41448212921028 104.9243191809786 l 12.808538633703156 3.0896366645520117 a34.17590667278766,34.17590667278766 0 0,0 -0.14286942521803278,0.570692334928542 l -12.753457894190063 -3.30965683887795" fill="#ff8d0d" stroke="none" /><path d="M 120.32669344350535 105.2749913415812 l 12.44152007175456 3.22870568383484 a33.85363614269126,33.85363614269126 0 0,0 -0.15123212997006683,0.5627910153518799 l -12.384099865442716 -3.442387632362268" fill="#ff880c" stroke="none" /><path d="M 120.23288151984713 105.62410040840565 l 8.48601318138 2.3588429632387657 a29.80775566417326,29.80775566417326 0 0,0 -0.1416682615802175,0.4931658036906168 l -8.444152282913683 -2.5045662424339645" fill="#ff4f07" stroke="none" /><path d="M 120.13307415673323 105.97154293290107 l 12.354232841952719 3.664310340510245 a33.886203451162544,33.886203451162544 0 0,0 -0.17067871935920415,0.5577879302704898 l -12.289327350087381 -3.876425243332792" fill="#ff890c" stroke="none" /><path d="M 120.02730092923936 106.31721596034902 l 12.178535428521549 3.8414781230160653 a33.77003051497394,33.77003051497394 0 0,0 -0.1796368615209709,0.5528654113729268 l -12.110606315984331 -4.050542434366787" fill="#ff870c" stroke="none" /><path d="M 119.9155931802556 106.66101706037122 l 4.734944436923397 1.5836608726033323 a25.992762820339713,25.992762820339713 0 0,0 -0.14557082079951614,0.42309694543417414 l -4.70698278518065 -1.6649305211268068" fill="#ff1702" stroke="none" /><path d="M 119.79798401119884 107.00284435728193 l 9.413507313749788 3.3296989500060246 a30.985039561448517,30.985039561448517 0 0,0 -0.18218574560153053,0.5012969262311595 l -9.35479730714303 -3.491243673243314" fill="#ff6008" stroke="none" /><path d="M 119.67450827220406 107.3425965602758 l 16.012041218859046 5.975750811657654 a38.09078879857417,38.09078879857417 0 0,0 -0.23454080411672457,0.6123120294826029 l -15.906806135148814 -6.250486407973402" fill="#ffc212" stroke="none" /><path d="M 119.54520255179757 107.68017299344265 l 14.405272039713342 5.660467369903302 a36.47749183116848,36.47749183116848 0 0,0 -0.23466732308753255,0.5824250509761617 l -14.305702102368416 -5.907591788722278" fill="#ffac0f" stroke="none" /><path d="M 119.41010516605496 108.01547362559984 l 9.421819913910088 3.890774850471708 a31.193567551510895,31.193567551510895 0 0,0 -0.20921825632103525,0.49453015586911125 l -9.353450676396744 -4.052379532006983" fill="#ff6309" stroke="none" /><path d="M 119.26925614724726 108.34839909993367 l 15.17465908338698 6.5744162237236 a37.53763063379331,37.53763063379331 0 0,0 -0.26197497273556614,0.5906844041457165 l -15.05924302592014 -6.834648964362004" fill="#ffbb11" stroke="none" /><path d="M 119.12269723197855 108.67885076344098 l 12.207846345106628 5.540540400076014 a34.4063082282412,34.4063082282412 0 0,0 -0.24940540253194668,0.5371970489075972 l -12.110666325734849 -5.749857516262441" fill="#ff900d" stroke="none" /><path d="M 118.97047184881838 109.00673069616215 l 11.951711223038524 5.674389398538433 a34.2303475466501,34.2303475466501 0 0,0 -0.25729280405644295,0.5300993839675024 l -11.852265162367368 -5.879277738471211" fill="#ff8e0d" stroke="none" /><path d="M 118.81262510543309 109.33194174019688 l 9.17185962176255 4.549671253207163 a31.238286840755045,31.238286840755045 0 0,0 -0.24309535186258113,0.4796501916868863 l -9.092185600113698 -4.706875656596743" fill="#ff6309" stroke="none" /><path d="M 118.64920377521936 109.65438752849418 l 15.188607630707901 7.862893550444523 a38.10318381896249,38.10318381896249 0 0,0 -0.306544634993312,0.5798669250453989 l -15.051010487489696 -8.123175490576058" fill="#ffc212" stroke="none" /><line stroke="#e1ed5e" stroke-width="0.3" x1="174.80103733775053" x2="179.2010983576182" y1="140.37084112569926" y2="142.7455964860345" /><path d="M 175.68104954172406 140.8457921977663 a86.0,86.0 0 0,1 -30.038265399797805,32.042727171017184" fill="none" id="id29" stroke="none" /><text fill="#e1ed5e" style="font-size:6.75px; font-family:Arial;" text-anchor="middle"><textPath startOffset="22.206326154141568" xlink:href="#id29">May</textPath></text><path d="M 118.48025628344425 109.97397251340804 l 7.399317325430475 3.9934829089974593 a29.408198536361425,29.408198536361425 0 0,0 -0.2442611228702391,0.443404888448691 l -7.329479793108726 -4.120258315843956" fill="#ff4906" stroke="none" /><path d="M 118.30583269289576 110.29060199501023 l 14.698365391556752 8.262668558117184 a37.86160244119792,37.86160244119792 0 0,0 -0.3242539819772209,0.5653641490267615 l -14.553959413427151 -8.514452553002261" fill="#ffbf11" stroke="none" /><path d="M 118.12598468904814 110.60418214915192 l 11.275553035136634 6.596497805123692 a34.06337933083093,34.06337933083093 0 0,0 -0.30043758525788244,0.5035506740298339 l -11.160334574180522 -6.789610573039631" fill="#ff8b0c" stroke="none" /><path d="M 117.94076556474637 110.91462005526583 l 8.71793428402079 5.303727983817953 a31.204504334206476,31.204504334206476 0 0,0 -0.28312197510955794,0.456482771876025 l -8.625347669243272 -5.453007087059249" fill="#ff6309" stroke="none" /><path d="M 117.75023020441432 111.22182372390056 l 6.921314065595169 4.375704736637536 a29.18849072398801,29.18849072398801 0 0,0 -0.2721411680533777,0.42236913628156764 l -6.844968034164741 -4.494195472840559" fill="#ff4606" stroke="none" /><path d="M 117.55443506779139 111.5257021239791 l 12.913853381326351 8.478838924244247 a36.448570116929055,36.448570116929055 0 0,0 -0.3488594955105872,0.5214976119104057 l -12.765990780405044 -8.69987345036046" fill="#ffac0f" stroke="none" /><path d="M 117.35343817320211 111.8261652097733 l 13.8147605849371 9.414597809396748 a37.717722988847186,37.717722988847186 0 0,0 -0.3702427238490815,0.5333622577117992 l -13.650656953925878 -9.651001329295564" fill="#ffbd11" stroke="none" /><path d="M 117.14729908036423 112.12312394758627 l 14.554601687231088 10.2900893858033 a38.82476843725527,38.82476843725527 0 0,0 -0.39050360239458104,0.5423753493158194 l -14.375318292460905 -10.539098340570254" fill="#ffcc13" stroke="none" /><path d="M 116.93607887273984 112.41649034213513 l 13.371764623198152 9.803354575095014 a37.5804056061138,37.5804056061138 0 0,0 -0.38696853835003797,0.5184075946146239 l -13.201034818153023 -10.032075049218953" fill="#ffbb11" stroke="none" /><path d="M 116.71984013943494 112.70617746262582 l 13.206646433487393 10.03633957445938 a37.587453754962056,37.587453754962056 0 0,0 -0.39590897755851057,0.511765722561624 l -13.031930638710815 -10.262183291134255" fill="#ffbb11" stroke="none" /><path d="M 116.498646956653 112.99209946851258 l 9.983127173387803 7.861358666818642 a33.70684021495504,33.70684021495504 0 0,0 -0.3628815625633548,0.45275054488876776 l -9.846327698769596 -8.03203704528566" fill="#ff860c" stroke="none" /><path d="M 116.27256486870786 113.27417163493432 l 10.022037274405122 8.175370261880953 a33.93359617617672,33.93359617617672 0 0,0 -0.37311443309887454,0.4494403705738494 l -9.879826841412704 -8.34667188956857" fill="#ff890c" stroke="none" /><path d="M 116.0416608686014 113.55231037782055 l 9.978966715385086 8.430427203553641 a34.06337933083093,34.06337933083093 0 0,0 -0.3822519280305782,0.44464535021564494 l -9.832372277783726 -8.600949652930817" fill="#ff8b0c" stroke="none" /><path d="M 115.80600337817218 113.82643327865902 l 12.36189867512686 10.813673965502488 a37.42413113337474,37.42413113337474 0 0,0 -0.42831232035746714,0.4812134324293471 l -12.173927505121057 -11.0248615676727" fill="#ffb911" stroke="none" /><path d="M 115.56566222782051 114.09645910891815 l 7.076507447041422 6.408573975277736 a30.547082174394426,30.547082174394426 0 0,0 -0.356315119231795,0.3867096888353905 l -6.965145919813903 -6.529434918914465" fill="#ff5a08" stroke="none" /><path d="M 115.32070863581623 114.36230785411682 l 6.451652141905926 6.048063208584635 a29.843239448030026,29.843239448030026 0 0,0 -0.3545567965672576,0.3717513837013768 l -6.3465887939597065 -6.158221708868517" fill="#ff4f07" stroke="none" /><path d="M 115.07121518719521 114.62390073753431 l 7.157136755415508 6.944712564722748 a30.97264454106019,30.97264454106019 0 0,0 -0.3745615927630821,0.37942891594026706 l -7.03653453759689 -7.066881974643679" fill="#ff6008" stroke="none" /><path d="M 114.81725581225074 114.88116024355365 l 6.283201946178687 6.310300381423352 a29.904971510356187,29.904971510356187 0 0,0 -0.3679024197095732,0.36006995088081184 l -6.173649574093321 -6.417520435226734" fill="#ff5007" stroke="none" /><path d="M 114.55890576462653 115.13401014063108 l 6.831284789368601 7.101133488138579 a30.853555129486107,30.853555129486107 0 0,0 -0.3859106340077946,0.3649025917816421 l -6.708038320969998 -7.217670716666144" fill="#ff5e08" stroke="none" /><path d="M 114.29624159901734 115.38237550388516 l 5.0845947670801115 5.470888656336907 a28.468850422618885,28.468850422618885 0 0,0 -0.3618261430455924,0.33051960285709997 l -4.989669074567655 -5.55760102578059" fill="#ff3b05" stroke="none" /><path d="M 114.0293411484842 115.62618273729858 l 16.23952105366268 18.087928781898512 a45.308336258810186,45.308336258810186 0 0,0 -0.584817667620487,0.5160335960908052 l -15.925761033135606 -18.364785519761607" fill="#e0ff1b" stroke="none" /><path d="M 113.75828350139079 115.86535959552629 l 5.3147438637445275 6.128694945695802 a29.11217628473441,29.11217628473441 0 0,0 -0.38141736894787565,0.32505215649048413 l -5.208461018219604 -6.219271492409233" fill="#ff4506" stroke="none" /><path d="M 113.48314897796784 116.09983520530334 l 6.01864525953413 7.186688880766499 a30.374037968188816,30.374037968188816 0 0,0 -0.4037286339828198,0.3322411800623982 l -5.894046497006619 -7.289225179686076" fill="#ff5708" stroke="none" /><path d="M 113.20401910651253 116.32954008644616 l 10.001846960735811 12.36938234989975 a36.907185871297024,36.907185871297024 0 0,0 -0.4974429726551745,0.39519878247447027 l -9.787446495363287 -12.539715046379346" fill="#ffb210" stroke="none" /><path d="M 112.92097659922987 116.55440617244103 l 5.8221332271542705 7.459340050048638 a30.46250438821528,30.46250438821528 0 0,0 -0.4161341603390402,0.31907392927706757 l -5.692870338321737 -7.558453321153077" fill="#ff5808" stroke="none" /><path d="M 112.63410532772338 116.77436683061366 l 6.187235022501779 8.214823863065506 a31.284221328076477,31.284221328076477 0 0,0 -0.4329364241281489,0.3202760165218844 l -6.044913627955066 -8.32010982832716" fill="#ff6409" stroke="none" /><path d="M 112.34349029814194 116.9893568818739 l 5.84291651416732 8.042084652922348 a30.940563311819826,30.940563311819826 0 0,0 -0.4335696306490469,0.309340419480419 l -5.7036195556693885 -8.141469334246986" fill="#ff5f08" stroke="none" /><path d="M 112.04921762599082 117.19931262002967 l 5.5347463427426735 7.900416074821226 a30.646242337501015,30.646242337501015 0 0,0 -0.43465582344778064,0.29896023877078526 l -5.397933634672009 -7.994517102957106" fill="#ff5b08" stroke="none" /><path d="M 111.7513745106137 117.40417183066458 l 5.566712562377425 8.244484241399276 a30.947854500283547,30.947854500283547 0 0,0 -0.4440653133642713,0.29430227555640814 l -5.42397255027319 -8.339084538047002" fill="#ff5f08" stroke="none" /><path d="M 111.45004920935366 117.60387380957326 l 8.759640797701222 13.467506418570792 a37.0656477005752,37.0656477005752 0 0,0 -0.5378370177753624,0.3432730316219925 l -8.526521977878929 -13.616293879016593" fill="#ffb410" stroke="none" /><path d="M 111.1453310114006 117.79835938074945 l 6.904492510656147 11.026019677715084 a34.009424536199404,34.009424536199404 0 0,0 -0.49883857883247196,0.3064273980370888 l -6.713674731891366 -11.143235542580552" fill="#ff8a0c" stroke="none" /><line stroke="#e1ed5e" stroke-width="0.3" x1="143.8653032363475" x2="146.44561519142675" y1="172.8068346515853" y2="177.08958963109032" /><path d="M 144.38136562736335 173.6633856474863 a86.0,86.0 0 0,1 -40.68145358897372,12.25698825130547" fill="none" id="id30" stroke="none" /><text fill="#e1ed5e" style="font-size:6.75px; font-family:Arial;" text-anchor="middle"><textPath startOffset="21.466115282336833" xlink:href="#id30">June</textPath></text><path d="M 110.8373102113329 117.98757091392108 l 4.138853543522701 6.8695940380663485 a29.020064270476087,29.020064270476087 0 0,0 -0.43009411360921207,0.2541071833420139 l -4.019991558885107 -6.939819793702112" fill="#ff4306" stroke="none" /><path d="M 110.5260780823613 118.17145234162733 l 4.584269291566578 7.913947654680573 a30.145823769274394,30.145823769274394 0 0,0 -0.4512560416213175,0.2562349574918343 l -4.447364483024062 -7.991685777967036" fill="#ff5407" stroke="none" /><path d="M 110.21172684928248 118.3499491758327 l 5.637236280613447 10.129824344908437 a32.59274661769868,32.59274661769868 0 0,0 -0.4925806797620371,0.2685942612865656 l -5.46203278898276 -10.225359257954773" fill="#ff770a" stroke="none" /><path d="M 109.89434966115114 118.52300852407294 l 2.312538044267319 4.329254915499208 a25.908185034160567,25.908185034160567 0 0,0 -0.3951727316889774,0.20673569620295615 l -2.237674410051846 -4.36842003064688" fill="#ff1502" stroke="none" /><path d="M 109.57404056367764 118.69057910512821 l 3.972855457905866 7.755865323042532 a29.714185412222193,29.714185412222193 0 0,0 -0.4572391858261678,0.22926921990303245 l -3.8387623643969375 -7.823102383854867" fill="#ff4d07" stroke="none" /><path d="M 109.2508944713604 118.85261126421891 l 6.736436423590999 13.728339199334767 a36.29205260457454,36.29205260457454 0 0,0 -0.5631961998142858,0.27036840128756073 l -6.4991275557764805 -13.842261877121887" fill="#ffaa0f" stroke="none" /><path d="M 108.59647513512805 119.15986991738527 l 15.16243151734398 33.79410874073866 a58.03972347492642,58.03972347492642 0 0,0 -0.9150358329109161,0.401124818723799 l -14.578475009775312 -34.05009811275691" fill="#4fff2b" stroke="none" /><path d="M 108.2653958097858 119.30500536409082 l 1.378049572780036 3.2186304209418237 a24.501228700278144,24.501228700278144 0 0,0 -0.3891361451867933,0.162658940247956 l -1.3224419680957804 -3.241874404209753" fill="#ff0000" stroke="none" /><path d="M 107.93186726928326 119.44442032107085 l 3.667880832794323 8.99155446998507 a30.71089087521266,30.71089087521266 0 0,0 -0.4911971895696236,0.1954574988844303 l -3.512562567182833 -9.053358813275569" fill="#ff5c08" stroke="none" /><path d="M 107.59598834532513 119.57807347666477 l 5.849054906520738 15.075487418221963 a37.1703977748373,37.1703977748373 0 0,0 -0.5984961139932623,0.226300019035502 l -5.588688571767201 -15.173935687364096" fill="#ffb610" stroke="none" /><path d="M 107.2578585660854 119.70592522655815 l 5.673694025138838 15.404735322371952 a37.41635386568011,37.41635386568011 0 0,0 -0.6062882539546166,0.2173933971652678 l -5.407686210554487 -15.50011626057718" fill="#ffb911" stroke="none" /><path d="M 106.91757812671514 119.82793768551818 l 2.5721455389319066 7.37257180617392 a28.808376765412763,28.808376765412763 0 0,0 -0.46961806246422555,0.15931994427850238 l -2.444857743530454 -7.415754737350546" fill="#ff4006" stroke="none" /><path d="M 106.2309692047433 120.05430185196036 l 4.897119645604799 15.761322572957509 a37.50457724609111,37.50457724609111 0 0,0 -0.6181558456148124,0.18624528547401972 l -4.62508882554974 -15.843283227537254" fill="#ffba11" stroke="none" /><path d="M 105.88484417918355 120.15858648285463 l 2.543529830787976 8.71288423354204 a30.076557478869056,30.076557478869056 0 0,0 -0.49822366274328084,0.1408029837129051 l -2.3931749999400904 -8.755376010593464" fill="#ff5307" stroke="none" /><path d="M 105.53697534728816 120.25689768951611 l 2.2302806913167377 8.159430907532128 a29.458750776376547,29.458750776376547 0 0,0 -0.4902911875798947,0.12949035882711035 l -2.0894990609253443 -8.196612615662822" fill="#ff4a06" stroke="none" /><path d="M 105.18746579009965 120.34920634021253 l 2.3239403272428225 9.116270478671773 a30.407820474737385,30.407820474737385 0 0,0 -0.5083126426559385,0.12493088037967705 l -2.1666743998436737 -9.154922617365479" fill="#ff5808" stroke="none" /><path d="M 104.48393922423573 120.51570834832081 l 5.114988063005344 23.402994121457187 a44.95544273716616,44.95544273716616 0 0,0 -0.7574104521729543,0.1587227244167296 l -4.711386149403012 -23.48757282660046" fill="#e4ff1a" stroke="none" /><path d="M 104.13013068566511 120.58985236759428 l 1.8097772293559327 9.022243799695094 a30.201965920445033,30.201965920445033 0 0,0 -0.5106036193028433,0.09785839888624603 l -1.6542059954813855 -9.052059396929808" fill="#ff5507" stroke="none" /><path d="M 103.7750983002368 120.6578951692458 l 1.784010179427696 9.762367052845462 a30.92403661796873,30.92403661796873 0 0,0 -0.524458449891693,0.0911838240596705 l -1.615702758063953 -9.79162945542614" fill="#ff5f08" stroke="none" /><path d="M 103.41894727170886 120.7198165907248 l 1.575975930030347 9.550873302969844 a30.68002484404958,30.68002484404958 0 0,0 -0.5218002179949622,0.08149446268733014 l -1.4113398484268678 -9.576586073004279" fill="#ff5b08" stroke="none" /><path d="M 103.06178313531737 120.77559828337769 l 2.4450136719840794 16.59053551526012 a37.76973346655505,37.76973346655505 0 0,0 -0.6440124606127269,0.08925425878601831 l -2.1590726201845216 -16.630164339538744" fill="#ffbe11" stroke="none" /><path d="M 102.70371172650421 120.8252237178851 l 1.1024099635032012 8.491265505018688 a29.562528692176826,29.562528692176826 0 0,0 -0.5051990882323336,0.061172573993342236 l -0.9560834522194872 -8.508983607737381" fill="#ff4b07" stroke="none" /><path d="M 101.98527174616119 120.90594882070398 l 1.0765946470703105 11.337104170155424 a32.38810726148362,32.38810726148362 0 0,0 -0.555464803229512,0.04792784049664069 l -0.8812855260992565 -11.353956262930728" fill="#ff740a" stroke="none" /><path d="M 101.62511606390274 120.93702456842531 l 0.5815427463770413 7.492249346945349 a28.51478490994032,28.51478490994032 0 0,0 -0.4896901574715954,0.03377190030820316 l -0.45248982812651584 -7.501149591769837" fill="#ff3c05" stroke="none" /><path d="M 101.26447882468166 120.96189622390904 l 0.4219335939373772 6.994603655559765 a28.007318192865437,28.007318192865437 0 0,0 -0.4814750494935545,0.024886760454827024 l -0.30147047603034305 -7.000830222776794" fill="#ff3505" stroke="none" /><path d="M 100.90346689309514 120.98055641714683 l 0.29868915157751036 6.936241542169876 a27.94266965515379,27.94266965515379 0 0,0 -0.4807198983945393,0.01655696528724529 l -0.17924890150831876 -6.940355305883215" fill="#ff3404" stroke="none" /><line stroke="#e1ed5e" stroke-width="0.3" x1="102.19456741930631" x2="102.32365962044197" y1="184.97166512339345" y2="189.96999836594603" /><path d="M 102.22038585953345 185.97133177190398 a86.0,86.0 0 0,1 -42.740103519485714,-10.115201625700543" fill="none" id="id31" stroke="none" /><text fill="#e1ed5e" style="font-size:6.75px; font-family:Arial;" text-anchor="middle"><textPath startOffset="22.20632615414155" xlink:href="#id31">July</textPath></text><path d="M 100.18074693466247 120.99922214144158 l 0.04907877856449268 5.701984243500645 a26.70219545785963,26.70219545785963 0 0,0 -0.4596514264538923,0.0 l 0.04907877856448874 -5.701984243500645" fill="#ff2103" stroke="none" /><path d="M 99.81925306533755 120.99922214144158 l -0.12640996456619444 14.686339946924555 a35.686883962085815,35.686883962085815 0 0,0 -0.6142227812390796,-0.010574402204289129 l 0.37919243569794203 -14.681988067441106" fill="#ffa20e" stroke="none" /><path d="M 99.45781275523022 120.99299961872073 l -0.24740063151187758 9.579128637018046 a30.582322918635736,30.582322918635736 0 0,0 -0.5261319461436772,-0.018121048032136967 l 0.41225292933019786 -9.573450790559816" fill="#ff5a08" stroke="none" /><path d="M 99.09653310690486 120.98055641714683 l -0.7125314091664681 16.54660015021936 a37.56193459533904,37.56193459533904 0 0,0 -0.6457288839233115,-0.033376807520693344 l 0.9972483615032685 -16.531883535936466" fill="#ffbb11" stroke="none" /><path d="M 98.73552117531835 120.96189622390904 l -1.0590925404703657 17.55710533977927 a38.58902001026168,38.58902001026168 0 0,0 -0.6626970305117807,-0.04570346719759078 l 1.3611523317610765 -17.536273528065394" fill="#ffc912" stroke="none" /><path d="M 98.37488393609728 120.93702456842531 l -0.7665944631171284 9.876345120703283 a30.906051686424888,30.906051686424888 0 0,0 -0.5300471490971206,-0.0457346983461871 l 0.9364859299557907 -9.861686170078432" fill="#ff5f08" stroke="none" /><path d="M 98.01472825383883 120.90594882070398 l -0.9073980919979401 9.555376037559986 a30.59836353325592,30.59836353325592 0 0,0 -0.5239130535129012,-0.054305730147841354 l 1.0717437421164349 -9.538340938956383" fill="#ff5a08" stroke="none" /><path d="M 97.65516085044442 120.86867818915974 l -1.836914444588139 16.348232846758126 a37.451108530690504,37.451108530690504 0 0,0 -0.6400083727614766,-0.07749610094527347 l 2.1180502404010046 -16.314191217087505" fill="#ffb911" stroke="none" /><path d="M 96.22490169976321 120.6578951692458 l -2.259186990131177 12.362604705399697 a33.56733547568253,33.56733547568253 0 0,0 -0.5674995803049397,-0.10876264522582361 l 2.471654185007812 -12.321884861825406" fill="#ff840c" stroke="none" /><path d="M 95.51606077576429 120.51570834832081 l -2.7802232562497258 12.7205670318068 a34.020847398125895,34.020847398125895 0 0,0 -0.5710315813533168,-0.12996492879679603 l 2.9987749869959046 -12.670825369432317" fill="#ff8b0c" stroke="none" /><path d="M 95.16358092515715 120.4354850818985 l -3.8488430360394283 16.262646645877833 a37.711890038076206,37.711890038076206 0 0,0 -0.6304111963805663,-0.15493973424213733 l 4.128207517163205 -16.193985653321665" fill="#ffbd11" stroke="none" /><path d="M 94.81253420990036 120.34920634021253 l -3.7961474290705133 14.891392147482364 a36.36763792498177,36.36763792498177 0 0,0 -0.6052779536739281,-0.15985940885099806 l 4.0519158255559296 -14.823841389327784" fill="#ffab0f" stroke="none" /><path d="M 94.46302465271185 120.25689768951611 l -4.407566263344917 16.124980383029754 a37.716507790769896,37.716507790769896 0 0,0 -0.6247808337308718,-0.17656930437941182 l 4.684478265180403 -16.04672228531182" fill="#ffbd11" stroke="none" /><path d="M 94.11515582081647 120.15858648285463 l -2.6993590026629466 9.2466784585285 a30.632632119035403,30.632632119035403 0 0,0 -0.504891455960175,-0.15211965399303345 l 2.858125433063367 -9.19884343542974" fill="#ff5b08" stroke="none" /><path d="M 93.76903079525671 120.05430185196036 l -4.027869911282091 12.963652421807744 a34.57497772136858,34.57497772136858 0 0,0 -0.5668298487344514,-0.1814810176681202 l 4.250421105107482 -12.892398557479916" fill="#ff920d" stroke="none" /><path d="M 93.42475214034765 119.94407469862007 l -1.6196573771570613 4.912752858247294 a26.17285517539359,26.17285517539359 0 0,0 -0.426655261999419,-0.14474462973420066 l 1.7039823720937062 -4.88414524161497" fill="#ff1902" stroke="none" /><path d="M 93.08242187328487 119.8279376855182 l -2.3920921488342346 6.856482600742985 a28.26178067024925,28.26178067024925 0 0,0 -0.4579491020885102,-0.16420425496030958 l 2.5097608115524714 -6.8142908047427175" fill="#ff3805" stroke="none" /><path d="M 92.7421414339146 119.70592522655815 l -2.754277486221276 7.478181849710955 a28.969268990845507,28.969268990845507 0 0,0 -0.4664463108862177,-0.17637008255291647 l 2.882594017867777 -7.429663517051406" fill="#ff4306" stroke="none" /><path d="M 92.40401165467489 119.57807347666478 l -5.439302826091278 14.01938306771948 a36.03759012719073,36.03759012719073 0 0,0 -0.5763936663793039,-0.2293589352618963 l 5.67981756851244 -13.923677288051516" fill="#ffa60f" stroke="none" /><path d="M 92.06813273071674 119.44442032107085 l -5.986698277893543 14.675973979240824 a36.85007156166455,36.85007156166455 0 0,0 -0.5852643135893376,-0.24464053054668441 l 6.238434050980342 -14.570748405674166" fill="#ffb110" stroke="none" /><path d="M 91.7346041902142 119.30500536409082 l -5.075997676662488 11.855713220662013 a33.8966541546272,33.8966541546272 0 0,0 -0.5344038756606542,-0.23426695440739434 l 5.279322226980886 -11.766581712960166" fill="#ff890c" stroke="none" /><path d="M 91.40352486487194 119.15986991738527 l -14.284733253239786 31.83789013920589 a55.89562798736194,55.89562798736194 0 0,0 -0.874452509072702,-0.40141825772813144 l 14.830653758079906 -31.587284811143682" fill="#65ff29" stroke="none" /><path d="M 91.07499286063937 119.00905698771935 l -7.07270758306871 15.063909687097375 a37.64165158920904,37.64165158920904 0 0,0 -0.5841398765938944,-0.28042263888691454 l 7.330960127662846 -14.939932771710899" fill="#ffbc11" stroke="none" /><path d="M 90.42595943632237 118.69057910512821 l -11.35080981629716 22.159213486481665 a45.89722124706327,45.89722124706327 0 0,0 -0.7000617863899327,-0.36623923967587063 l 11.730562505213587 -21.960544827861078" fill="#d8ff1c" stroke="none" /><path d="M 90.10565033884886 118.52300852407294 l -6.092870723415474 11.406337981870854 a33.93165185925306,33.93165185925306 0 0,0 -0.5128158217019958,-0.27962807407032686 l 6.288309356986112 -11.299769256040761" fill="#ff890c" stroke="none" /><line stroke="#e1ed5e" stroke-width="0.3" x1="58.666819895761336" x2="56.23545636021788" y1="174.27360380694188" y2="178.64263932499728" /><path d="M 58.180547188652646 175.14741091055294 a86.0,86.0 0 0,1 -31.652253787137756,-30.449443065178592" fill="none" id="id32" stroke="none" /><text fill="#e1ed5e" style="font-size:6.75px; font-family:Arial;" text-anchor="middle"><textPath startOffset="22.20632615414155" xlink:href="#id32">August</textPath></text><path d="M 89.7882731507175 118.34994917583269 l -7.553936798422817 13.57403682788974 a36.53436310118549,36.53436310118549 0 0,0 -0.5468867662193336,-0.31053657872718954 l 7.786472331563357 -13.441997083367918" fill="#ffad10" stroke="none" /><path d="M 89.4739219176387 118.17145234162733 l -8.19360017755245 14.144832858711183 a37.34660149604385,37.34660149604385 0 0,0 -0.5534982044508733,-0.32701649538423494 l 8.435866253031705 -14.0016977910332" fill="#ffb811" stroke="none" /><path d="M 89.1626897886671 117.98757091392108 l -19.97922774514091 33.16115981392591 a59.714752504658264,59.714752504658264 0 0,0 -0.8758755163013815,-0.5380342797319209 l 20.547082461374604 -32.81233706736561" fill="#3dff2e" stroke="none" /><path d="M 88.8546689885994 117.79835938074946 l -6.525266535814394 10.420420778961487 a33.29488806675488,33.29488806675488 0 0,0 -0.4831218234643304,-0.30835120585287645 l 6.703670161325648 -10.30655514428481" fill="#ff810b" stroke="none" /><path d="M 88.54995079064634 117.60387380957326 l -7.316419643929622 11.248626603665949 a34.41870324862953,34.41870324862953 0 0,0 -0.49386791073205466,-0.3273087214391421 l 7.508962253401639 -11.121019861135487" fill="#ff900d" stroke="none" /><path d="M 88.24862548938628 117.40417183066458 l -7.359767665413853 10.900057773406992 a34.152088790472845,34.152088790472845 0 0,0 -0.4843792629519095,-0.33316047386424597 l 7.546303812988652 -10.771756510177642" fill="#ff8c0c" stroke="none" /><path d="M 87.95078237400918 117.19931262002967 l -4.621213379998726 6.596419458390041 a29.054089816640115,29.054089816640115 0 0,0 -0.40713450701243475,-0.29047966066176645 l 4.734075214860048 -6.515895535884058" fill="#ff4406" stroke="none" /><path d="M 87.65650970185807 116.9893568818739 l -9.89228722663368 13.615565290846527 a37.829764251573,37.829764251573 0 0,0 -0.5235189550966489,-0.38728680740991106 l 10.125191152148894 -13.443268534696848" fill="#ffbe11" stroke="none" /><path d="M 87.36589467227662 116.77436683061367 l -7.689337477568792 10.209173042913598 a33.78096729766952,33.78096729766952 0 0,0 -0.46146614482868564,-0.35383256192874224 l 7.863932350890964 -10.075301139157489" fill="#ff870c" stroke="none" /><path d="M 87.07902340077011 116.55440617244103 l -7.576967906885492 9.707641161861467 a33.31457427560692,33.31457427560692 0 0,0 -0.44902098247721844,-0.35672942494957194 l 7.742946382080068 -9.575777822906762" fill="#ff810b" stroke="none" /><path d="M 86.79598089348748 116.32954008644617 l -3.0371836693805156 3.7561148676759335 a25.830412357214225,25.830412357214225 0 0,0 -0.34333522290032803,-0.28254151430400115 l 3.1013890208255326 -3.703278234514756" fill="#ff1402" stroke="none" /><path d="M 86.51685102203217 116.09983520530335 l -6.1508151463587435 7.344509090307832 a30.579892522481163,30.579892522481163 0 0,0 -0.40064686454750886,-0.34143994981549075 l 6.276327487483309 -7.237544750269387" fill="#ff5a08" stroke="none" /><path d="M 86.24171649860922 115.8653595955263 l -10.790945881897246 12.44357530318787 a37.47079473954254,37.47079473954254 0 0,0 -0.4836545455628863,-0.4267689029094872 l 11.00354278036672 -12.255983258506093" fill="#ffba11" stroke="none" /><path d="M 85.97065885151581 115.62618273729859 l -8.867618252172473 9.876944454232115 a34.273608598201506,34.273608598201506 0 0,0 -0.43560197982174603,-0.3979120805439072 l 9.036319781461074 -9.722839607101632" fill="#ff8e0d" stroke="none" /><path d="M 85.70375840098266 115.38237550388516 l -6.541590683871217 7.038577488711476 a30.609057276336042,30.609057276336042 0 0,0 -0.38285249950345235,-0.3620109347286577 l 6.661779017765486 -6.924931917236887" fill="#ff5a08" stroke="none" /><path d="M 85.44109423537348 115.13401014063109 l -6.910982831086557 7.183979753582421 a30.96851286759742,30.96851286759742 0 0,0 -0.3809865130568868,-0.3728754900577625 l 7.0336192965192375 -7.063954160602087" fill="#ff6008" stroke="none" /><path d="M 85.18274418774928 114.88116024355367 l -9.204959445059481 9.244658948527377 a34.045880478518,34.045880478518 0 0,0 -0.4117271678932597,-0.4170774473284225 l 9.362727238008276 -9.084841007218289" fill="#ff8b0c" stroke="none" /><path d="M 84.9287848128048 114.62390073753433 l -5.319755170312128 5.161864560511766 a28.41246523183279,28.41246523183279 0 0,0 -0.33755828259597287,-0.3539285097616478 l 5.407820004287058 -5.069528934167619" fill="#ff3b05" stroke="none" /><path d="M 84.67929136418377 114.36230785411684 l -5.7409881012100845 5.381855399537006 a28.869136669277093,28.869136669277093 0 0,0 -0.3367427964381702,-0.3654677980236136 l 5.832777305643986 -5.282236346712051" fill="#ff4106" stroke="none" /><path d="M 84.4343377721795 114.09645910891817 l -6.298275377105597 5.70379724361439 a29.497151035618806,29.497151035618806 0 0,0 -0.3375894862855938,-0.37928536660342993 l 6.395523713039524 -5.594537707270093" fill="#ff4a06" stroke="none" /><path d="M 84.19399662182784 113.82643327865904 l -6.426804376472103 5.621900728491512 a29.53871080986201,29.53871080986201 0 0,0 -0.33147706952221206,-0.3855827187727669 l 6.522623955565098 -5.510440910557217" fill="#ff4b07" stroke="none" /><path d="M 83.95833913139862 113.55231037782056 l -9.595217427930178 8.106228263465365 a33.56101644568065,33.56101644568065 0 0,0 -0.36901775928316904,-0.44450566305647266 l 9.733331187106883 -7.939861343295128" fill="#ff840c" stroke="none" /><path d="M 83.72743513129214 113.27417163493433 l -10.032960270532511 8.184280579740038 a33.94769247387324,33.94769247387324 0 0,0 -0.36547453311489264,-0.4559856743392626 l 10.172352715702266 -8.01036707182252" fill="#ff8a0c" stroke="none" /><path d="M 83.50135304334701 112.99209946851258 l -8.630097715425823 6.795895944460006 a31.98466149982447,31.98466149982447 0 0,0 -0.33689471796899445,-0.43548183683992536 l 8.745799250612885 -6.646336113506829" fill="#ff6e0a" stroke="none" /><path d="M 83.28015986056508 112.70617746262583 l -5.7168814978894 4.344521851836313 a28.18036239907105,28.18036239907105 0 0,0 -0.2901755175832656,-0.3887375256081458 l 5.79081828216775 -4.2454714467188595" fill="#ff3705" stroke="none" /><path d="M 83.06392112726016 112.41649034213515 l -5.997605219877164 4.397074898393932 a28.43676919337852,28.43676919337852 0 0,0 -0.28602001396154003,-0.39725678337521914 l 6.072405026214311 -4.293184509567575" fill="#ff3b05" stroke="none" /><path d="M 82.6465618267979 111.8261652097733 l -7.474342597752724 5.093677086536643 a30.044962328859604,30.044962328859604 0 0,0 -0.28756876791201763,-0.42987629018566775 l 7.560914471075471 -4.964263882145154" fill="#ff5207" stroke="none" /><path d="M 82.44556493220864 111.52570212397912 l -10.145351083998706 6.6611254697625375 a33.13666927709217,33.13666927709217 0 0,0 -0.30895231849228166,-0.47950085923118413 l 10.258508265868034 -6.485503010609905" fill="#ff7e0b" stroke="none" /><path d="M 82.24976979558568 111.22182372390057 l -10.725448396198612 6.780705933154638 a33.689098323026656,33.689098323026656 0 0,0 -0.3056649756304546,-0.4928292665633388 l 10.840578011497023 -6.595080335226035" fill="#ff860c" stroke="none" /><path d="M 82.05923443525364 110.91462005526583 l -8.790606230085219 5.347939401502864 a31.289568199616536,31.289568199616536 0 0,0 -0.27597268674825837,-0.46254609690936577 l 8.88135979253171 -5.195831210707388" fill="#ff6409" stroke="none" /><line stroke="#e1ed5e" stroke-width="0.3" x1="26.63291911575756" x2="22.317208475507996" y1="142.92168965132927" y2="145.44649492493687" /><path d="M 25.769776987707644 143.4266507060508 a86.0,86.0 0 0,1 -11.730757126820373,-40.83630448921669" fill="none" id="id33" stroke="none" /><text fill="#e1ed5e" style="font-size:6.75px; font-family:Arial;" text-anchor="middle"><textPath startOffset="21.46611528233685" xlink:href="#id33">September</textPath></text><path d="M 81.87401531095188 110.60418214915194 l -7.921836451457945 4.634484588183932 a30.17790499851476,30.17790499851476 0 0,0 -0.25844933210886084,-0.4506281952908377 l 8.000437779719183 -4.497436547034786" fill="#ff5407" stroke="none" /><path d="M 81.69416730710424 110.29060199501025 l -9.402309897623 5.28549728457495 a31.786098133995843,31.786098133995843 0 0,0 -0.2640116840980002,-0.4792578940153848 l 9.491897991172516 -5.122868872161743" fill="#ff6b09" stroke="none" /><path d="M 81.51974371655577 109.97397251340807 l -7.378998931803582 3.9825168760354277 a29.38510977289298,29.38510977289298 0 0,0 -0.23640669484126936,-0.4471923744505967 l 7.446458134869737 -3.854909486498705" fill="#ff4906" stroke="none" /><path d="M 81.35079622478065 109.6543875284942 l -11.5675755409508 5.988344509692417 a34.02570819043504,34.02570819043504 0 0,0 -0.26478697590215305,-0.5224498238018683 l 11.66894118663922 -5.788340474187864" fill="#ff8b0c" stroke="none" /><path d="M 81.18737489456691 109.33194174019688 l -14.917172058240501 7.399614875426949 a37.65161621344279,37.65161621344279 0 0,0 -0.2830088096421139,-0.5830819723032449 l 15.042334124497334 -7.14174394715842" fill="#ffbc11" stroke="none" /><path d="M 81.02952815118164 109.00673069616217 l -14.545489652947905 6.905853960405062 a37.10161756366288,37.10161756366288 0 0,0 -0.268943235690038,-0.5792798033628817 l 14.662207505477769 -6.654454089763354" fill="#ffb510" stroke="none" /><path d="M 80.87730276802145 108.67885076344099 l -8.26493395257532 3.7510465952546004 a30.0763144392536,30.0763144392536 0 0,0 -0.20990247711895343,-0.473274673267624 l 8.32827751442555 -3.608223585494281" fill="#ff5307" stroke="none" /><path d="M 80.73074385275274 108.34839909993369 l -8.585853107655202 3.719818129375545 a30.3570251951068,30.3570251951068 0 0,0 -0.2036074863167214,-0.481267952973584 l 8.648611575164232 -3.571475650735801" fill="#ff5708" stroke="none" /><path d="M 80.58989483394504 108.01547362559985 l -8.94715715395367 3.6947611348871754 a30.68002484404958,30.68002484404958 0 0,0 -0.19737100718807105,-0.48985865356229813 l 9.009430775399128 -3.540203113482072" fill="#ff5b08" stroke="none" /><path d="M 80.45479744820244 107.68017299344265 l -9.176368431685866 3.605800288850516 a30.85938808025708,30.85938808025708 0 0,0 -0.19001406700100573,-0.49606676942116906 l 9.23707677828038 -3.4473099525961888" fill="#ff5e08" stroke="none" /><path d="M 80.32549172779594 107.34259656027581 l -12.10927552310324 4.519224753839771 a33.92508978963571,33.92508978963571 0 0,0 -0.1994726443923517,-0.5488630472759055 l 12.185272428500816 -4.3101139095577485" fill="#ff890c" stroke="none" /><path d="M 80.20201598880116 107.00284435728193 l -8.805400790268825 3.114602537453306 a30.34001242202479,30.34001242202479 0 0,0 -0.1699173166726887,-0.49385925878371073 l 8.857708937884741 -2.9625705755803" fill="#ff5708" stroke="none" /><path d="M 80.0844068197444 106.66101706037122 l -15.764555308757867 5.272650978074165 a37.62293753881883,37.62293753881883 0 0,0 -0.20013207917227166,-0.6159432053291555 l 15.852979638946389 -5.000508872767206" fill="#ffbc11" stroke="none" /><path d="M 79.97269907076064 106.31721596034903 l -8.478363386938122 2.6743320377939 a29.890146093813293,29.890146093813293 0 0,0 -0.15055129631456726,-0.4920103471957154 l 8.52314145575882 -2.527994718046137" fill="#ff5007" stroke="none" /><path d="M 79.86692584326677 105.97154293290107 l -7.991187822704407 2.3702153380385003 a29.335286651724232,29.335286651724232 0 0,0 -0.13942274318566023,-0.4853488595748283 l 8.030803202776172 -2.232309002959076" fill="#ff4806" stroke="none" /><path d="M 79.76711848015287 105.62410040840567 l -12.110833381373443 3.3664282025030157 a33.57000891145257,33.57000891145257 0 0,0 -0.14996510062891444,-0.5580759278269547 l 12.16698655834413 -3.1574613415005217" fill="#ff840c" stroke="none" /><path d="M 79.67330655649465 105.27499134158121 l -12.637245764263112 3.27949856543052 a34.055845102751746,34.055845102751746 0 0,0 -0.14236751819721732,-0.5686874658728431 l 12.691824596755389 -3.061483260160285" fill="#ff8b0c" stroke="none" /><path d="M 79.58551787078972 104.9243191809786 l -9.076760873399516 2.1894686030796895 a30.3370959466393,30.3370959466393 0 0,0 -0.11808271685660693,-0.5086972537064393 l 9.113104156186678 -2.032902692024676" fill="#ff5708" stroke="none" /><path d="M 79.50377843672027 104.57218783832718 l -8.566099674324882 1.910879848362619 a29.776646593394723,29.776646593394723 0 0,0 -0.1072894565738961,-0.5012206226139896 l 8.597723169623219 -1.7631454063324652" fill="#ff4e07" stroke="none" /><path d="M 79.4281124754447 104.21870165774334 l -12.004718588246066 2.4618220446969303 a33.254543490588965,33.254543490588965 0 0,0 -0.11016765807161377,-0.5617425150432453 l 12.045316179293346 -2.254815802585731" fill="#ff800b" stroke="none" /><path d="M 79.35854240842038 103.8639653848113 l -9.494447785288855 1.777307509776829 a30.659366476735705,30.659366476735705 0 0,0 -0.09264027993216636,-0.5195758877842349 l 9.52363450756021 -1.6136128712593805" fill="#ff5b08" stroke="none" /><path d="M 79.29508885075956 103.50808413554451 l -12.656963936426394 2.1445006003401903 a33.83735248845562,33.83735248845562 0 0,0 -0.09235703246175661,-0.5751073293010387 l 12.692002723249441 -1.9263140413459372" fill="#ff880c" stroke="none" /><path d="M 79.23777060512086 103.15116336523772 l -12.583873203645835 1.9099028085059961 a33.727984661499825,33.727984661499825 0 0,0 -0.082177349643011,-0.5747481920044442 l 12.614884604305447 -1.693009144521152" fill="#ff870c" stroke="none" /><path d="M 79.18660465613746 102.79330883721812 l -12.845165866129319 1.7239145625498373 a33.96033053387703,33.96033053387703 0 0,0 -0.0727696961667927,-0.5800460771920428 l 12.87293707154296 -1.5025507310703858" fill="#ff8a0c" stroke="none" /><path d="M 79.1416061653843 102.43462659150553 l -7.192777125298987 0.8395529682138766 a28.24160838216629,28.24160838216629 0 0,0 -0.052203535204966525,-0.48333990135429206 l 7.206162962005005 -0.7156167449748024" fill="#ff3805" stroke="none" /><path d="M 79.10278846688536 102.07522291339032 l -8.668629985472728 0.8608488048775623 a29.711268936836703,29.711268936836703 0 0,0 -0.046159149723080384,-0.5093623708142894 l 8.682163731472885 -0.7115050455147071" fill="#ff4d07" stroke="none" /><path d="M 79.07016306316243 101.71520430193888 l -4.129738288030612 0.33843287450772097 a25.14358240393184,25.14358240393184 0 0,0 -0.03163714164851158,-0.4316636619678466 l 4.13495198834346 -0.26729607604311345" fill="#ff0a01" stroke="none" /><path d="M 79.04373962182676 101.35467743843564 l -11.69690096157126 0.7561238286941919 a32.72131457427561,32.72131457427561 0 0,0 -0.03149605577633831,-0.5623832337400729 l 11.70818336823513 -0.5546688786186815" fill="#ff780b" stroke="none" /><path d="M 79.0235259727143 100.99374915477108 l -10.091838405439457 0.4780954069042586 a31.103156814560773,31.103156814560773 0 0,0 -0.020732278904689917,-0.5350079967195717 l 10.098572817195349 -0.3043101631706901" fill="#ff6109" stroke="none" /><path d="M 79.0095281055655 100.63252640178507 l -9.57530301088698 0.288541962750443 a30.579649482865705,30.579649482865705 0 0,0 -0.011326028418674935,-0.5262760358417041 l 9.578851101990663 -0.1236761111186101" fill="#ff5a08" stroke="none" /><line stroke="#e1ed5e" stroke-width="0.3" x1="15.007084014347285" x2="10.007500721073583" y1="101.09737516637583" y2="101.16192664675087" /><path d="M 14.007167355692545 101.11028546245083 a86.0,86.0 0 0,1 10.666146001902526,-42.60595125391555" fill="none" id="id34" stroke="none" /><text fill="#e1ed5e" style="font-size:6.75px; font-family:Arial;" text-anchor="middle"><textPath startOffset="22.20632615414155" xlink:href="#id34">October</textPath></text><path d="M 79.00175016825051 100.2711162175752 l -9.69865964657361 0.1252230038216108 a30.699468013286165,30.699468013286165 0 0,0 -0.0022742497904326107,-0.5284555576663044 l 9.699378193653546 0.04174203204836898" fill="#ff5c08" stroke="none" /><path d="M 79.00019446554 99.90962569577889 l -12.589335499041667 -0.05417918915797224 a33.589452080689156,33.589452080689156 0 0,0 0.00746484446573385,-0.5781604304183032 l 12.586537647458218 0.2708758776367474" fill="#ff850c" stroke="none" /><path d="M 79.00486145842228 99.54816195383935 l -12.704141589955697 -0.27340684143551536 a33.70708325457049,33.70708325457049 0 0,0 0.01747681054689397,-0.5799702582432092 l 12.697553084953158 0.49204724710371905" fill="#ff860c" stroke="none" /><path d="M 79.01574976396665 99.18683210126434 l -6.953005600608386 -0.2694383116169282 a27.958224190543056,27.958224190543056 0 0,0 0.02277449219519525,-0.4807335349404292 l 6.947337500179692 0.3890829531803664" fill="#ff3404" stroke="none" /><path d="M 79.03285615573316 98.82574320788736 l -6.431443699083573 -0.36019052012198527 a27.4415219680808,27.4415219680808 0 0,0 0.030472384487383656,-0.4713943006231903 l 6.424290723591776 0.4708438849981875" fill="#ff2c04" stroke="none" /><path d="M 79.05617556472873 98.46500227214037 l -12.520870872994893 -0.9176694734178376 a33.5544543760633,33.5544543760633 0 0,0 0.047176789790876375,-0.5756763298753416 l 12.50321959938452 1.1330597205009572" fill="#ff840c" stroke="none" /><path d="M 79.08570108090925 98.10471618934814 l -6.213366252055922 -0.5630641750282557 a27.238826928789393,27.238826928789393 0 0,0 0.04633567575907946,-0.4665939314853633 l 6.202753450614614 0.6699336372180495" fill="#ff2904" stroke="none" /><path d="M 79.12142395522702 97.74499172005258 l -11.887201246707667 -1.2838872334609248 a32.95633388242283,32.95633388242283 0 0,0 0.06577087234800967,-0.5634846686828779 l 11.863340021356068 1.4883156404686646" fill="#ff7c0b" stroke="none" /><path d="M 79.16333360222342 97.38593545837743 l -11.255643774708705 -1.412077091551478 a32.343874051470394,32.343874051470394 0 0,0 0.07405823192210502,-0.5518198485339351 l 11.229669543728766 1.6056152821500729" fill="#ff730a" stroke="none" /><path d="M 79.21141760316559 97.0276538004421 l -6.017707437123593 -0.8604102718186951 a27.078906861818474,27.078906861818474 0 0,0 0.06994624330284246,-0.46085834989837177 l 6.002005300381449 0.9638677341091584" fill="#ff2703" stroke="none" /><path d="M 79.26566170972629 96.67025291283419 l -8.179447971725656 -1.3135453216394042 a29.284248332478192,29.284248332478192 0 0,0 0.08421053540847005,-0.49701534686589177 l 8.155625574796963 1.4541464568211246" fill="#ff4706" stroke="none" /><path d="M 79.32604984820605 96.31383870115002 l -9.556289545778055 -1.7038845709509987 a30.707002241365345,30.707002241365345 0 0,0 0.09725971547536535,-0.5195652891315734 l 9.525544106392829 1.868127937545144" fill="#ff5c08" stroke="none" /><path d="M 79.3925641242962 95.95851677861259 l -5.841491031494229 -1.1456198691610717 a26.952769301396128,26.952769301396128 0 0,0 0.09320614684324317,-0.45450627349695677 l 5.820905588735991 1.246001798821431" fill="#ff2503" stroke="none" /><path d="M 79.46518482838121 95.60439243477599 l -9.47462716311345 -2.028104099686195 a30.689260349436957,30.689260349436957 0 0,0 0.11501985944078562,-0.5156114767450574 l 9.438312916670627 2.190893745981212" fill="#ff5c08" stroke="none" /><path d="M 79.54389044137918 95.25157060432595 l -9.49702567668102 -2.2045226031564034 a30.749534174070373,30.749534174070373 0 0,0 0.12412151929620598,-0.5145638299220191 l 9.457671357124 2.367671664737819" fill="#ff5c08" stroke="none" /><path d="M 79.62865764111835 94.90015583598534 l -12.55278065729411 -3.142513833868521 a33.940158245794066,33.940158245794066 0 0,0 0.14675670788668266,-0.5655134613162166 l 12.49682761753712 3.3581237207336017" fill="#ff890c" stroke="none" /><path d="M 79.71946130924805 94.55025226153421 l -8.81230195331651 -2.368025000374566 a30.12492236234506,30.12492236234506 0 0,0 0.13888052477791818,-0.49962714019936716 l 8.770234657972232 2.519363443992876" fill="#ff5307" stroke="none" /><path d="M 79.81627453868168 94.20196356495316 l -12.722621671233393 -3.6547377807183916 a34.23715265588291,34.23715265588291 0 0,0 0.16758939965290587,-0.5650281424762711 l 12.65782637446878 3.873195309941202" fill="#ff8e0d" stroke="none" /><path d="M 79.91906864156998 93.8553929516997 l -8.847347695761536 -2.707218805731234 a30.2522751208447,30.2522751208447 0 0,0 0.15665566775845044,-0.4966412768158825 l 8.799436544234883 2.859110248973531" fill="#ff5507" stroke="none" /><path d="M 80.02781315780177 93.51064311812611 l -5.015371408148584 -1.6295929544308405 a26.27347357619292,26.27347357619292 0 0,0 0.14345655153629092,-0.4289168295989799 l 4.9865775628405205 1.7156828869521425" fill="#ff1b02" stroke="none" /><path d="M 80.14247586403 93.16781622104843 l -6.583808370368478 -2.265226442317494 a27.96259890362129,27.96259890362129 0 0,0 0.1605145309705973,-0.45379619417308475 l 6.543840758588072 2.3782202629171896" fill="#ff3404" stroke="none" /><path d="M 80.2630227832202 92.82701384747504 l -8.68095937550199 -3.1549107397341825 a30.23647754583997,30.23647754583997 0 0,0 0.18198819150798765,-0.4876378744051352 l 8.625366595492375 3.303871751168659" fill="#ff5507" stroke="none" /><path d="M 80.38941819471856 92.48833698450439 l -7.05049503444297 -2.7006308796456793 a28.55002565418163,28.55002565418163 0 0,0 0.17973797821552395,-0.45741354960004255 l 7.002963506345755 2.821593434141485" fill="#ff3d05" stroke="none" /><path d="M 80.52162464483688 92.15188598940014 l -6.799626210909611 -2.7396659505555974 a28.33080392103913,28.33080392103913 0 0,0 0.1861445968658453,-0.4507639061676292 l 6.751459927157563 2.856304427176538" fill="#ff3905" stroke="none" /><path d="M 81.10775173730289 90.83032412892265 l -11.930634395533438 -5.7907374930796145 a34.2616996570441,34.2616996570441 0 0,0 0.26208566614769646,-0.5283487102696243 l 11.82918871643233 5.995245791848202" fill="#ff8e0d" stroke="none" /><path d="M 81.26839172434947 90.50648371742162 l -6.931541253146783 -3.5130298894651326 a28.770948664632336,28.770948664632336 0 0,0 0.22768858414745277,-0.43982187275212165 l 6.8700432358392165 3.6318244844775895" fill="#ff4006" stroke="none" /><path d="M 81.43458229118936 90.18545643968196 l -8.920270062522702 -4.715669772239057 a31.09003267532608,31.09003267532608 0 0,0 0.25418603835173725,-0.47096812489695355 l 8.83777592495249 4.868518880468484" fill="#ff6109" stroke="none" /><path d="M 81.6062741919709 89.86733742301443 l -7.982225740869627 -4.397216794992934 a30.113256460803107,30.113256460803107 0 0,0 0.25401587037298495,-0.4518658895410434 l 7.9053522292042135 4.533966194468763" fill="#ff5307" stroke="none" /><line stroke="#e1ed5e" stroke-width="0.3" x1="26.266209847984243" x2="21.928928074336255" y1="57.71137044288968" y2="55.22380399835378" /><path d="M 25.398753493254645 57.2138571539825 a86.0,86.0 0 0,1 29.58750427330803,-30.4925239686951" fill="none" id="id35" stroke="none" /><text fill="#e1ed5e" style="font-size:6.75px; font-family:Arial;" text-anchor="middle"><textPath startOffset="21.46611528233685" xlink:href="#id35">November</textPath></text><path d="M 81.78341655067845 89.55222093294921 l -8.090879337018164 -4.640371780279162 a30.32713132240555,30.32713132240555 0 0,0 0.2636154487606244,-0.450604254135129 l 8.009804213787215 4.778955446768181" fill="#ff5608" stroke="none" /><path d="M 81.96595687620814 89.24020034530311 l -9.813925109739916 -5.85536295339622 a32.42796575841862,32.42796575841862 0 0,0 0.29012868855820834,-0.47689527978748397 l 9.711680622895491 6.023426006390778" fill="#ff740a" stroke="none" /><path d="M 82.15384107792192 88.93136811851018 l -10.814393513851426 -6.707355983382343 a33.72555426534525,33.72555426534525 0 0,0 0.3102307802559033,-0.49071059228181496 l 10.697335137349562 6.892514223378374" fill="#ff870c" stroke="none" /><path d="M 82.34701348167596 88.62581576622439 l -10.863842550201737 -6.999798392439745 a33.92363155194297,33.92363155194297 0 0,0 0.320502982894462,-0.4881480313940166 l 10.741742931949354 7.185764487811431" fill="#ff890c" stroke="none" /><path d="M 82.54541684631803 88.32363383020207 l -6.370303025087408 -4.261459015009563 a28.664254273446574,28.664254273446574 0 0,0 0.2778733752344752,-0.40774489038302186 l 6.296005184184192 4.370481928662998" fill="#ff3e05" stroke="none" /><path d="M 82.7489923806493 88.02491185347247 l -7.691967392771978 -5.339513469655915 a30.36358726472415,30.36358726472415 0 0,0 0.30173797522055285,-0.42678696740046834 l 7.598916797747546 5.47112693738817" fill="#ff5708" stroke="none" /><path d="M 82.95767976084542 87.72973835380427 l -13.658997224741432 -9.834310552807267 a37.83097944965029,37.83097944965029 0 0,0 0.3850426054104132,-0.5251976810602207 l 13.487692006817385 10.06797067753899" fill="#ffbf11" stroke="none" /><path d="M 83.17141714833178 87.43820079747577 l -10.514837348582812 -7.84886502828763 a34.12122275930977,34.12122275930977 0 0,0 0.3553872555444651,-0.4676479702706742 l 10.378174152814239 8.028697774439332" fill="#ff8c0c" stroke="none" /><path d="M 83.39014120810768 87.1503855733568 l -9.12194372959721 -7.056860700349515 a32.532958872296184,32.532958872296184 0 0,0 0.3464696903806289,-0.4399813222354701 l 8.99911995862261 7.21283441653803" fill="#ff760a" stroke="none" /><path d="M 86.37877921826538 84.01681056812373 l -6.0340888274587225 -7.080421521936381 a30.30282736085982,30.30282736085982 0 0,0 0.3999142958043596,-0.334916721816699 l 5.911316994695253 7.183239401146892" fill="#ff5608" stroke="none" /><path d="M 86.65592168130627 83.78471172551755 l -4.930190028963902 -5.991005947232369 a28.75879668385947,28.75879668385947 0 0,0 0.3849523813908291,-0.3112713874410297 l 4.826334249008572 6.074983431937536" fill="#ff4006" stroke="none" /><path d="M 86.93701828274178 83.55741782278169 l -4.462892714908314 -5.617513811264128 a28.17452944830007,28.17452944830007 0 0,0 0.38232493649845656,-0.29841067727469883 l 4.365535223250432 5.6935028777620476" fill="#ff3705" stroke="none" /><path d="M 87.22198572758235 83.33499621200491 l -6.189092636458464 -8.071774692995241 a31.17145094650428,31.17145094650428 0 0,0 0.42861315970165653,-0.3228225458046055 l 6.049233322998417 8.177113828305702" fill="#ff6209" stroke="none" /><path d="M 87.51073957382395 83.11751280151077 l -2.819005459808323 -3.810619841663188 a25.740001620264103,25.740001620264103 0 0,0 0.35846590623368974,-0.26044072571875837 l 2.752994237220852 3.8585798021986144" fill="#ff1302" stroke="none" /><path d="M 87.80319425747018 82.90503203632743 l -8.731295623406439 -12.237730280725799 a36.0332154141125,36.0332154141125 0 0,0 0.5080149059425131,-0.3558969067066129 l 8.519349577880265 12.386212030196354" fill="#ffa60f" stroke="none" /><path d="M 88.09926311788651 82.69761687909137 l -2.625841075131958 -3.8176886647109125 a25.633550268693796,25.633550268693796 0 0,0 0.3656995869616528,-0.2469219935642904 l 2.5597367937637676 3.8623225705738684" fill="#ff1101" stroke="none" /><path d="M 88.39885842347998 82.49532879139004 l -6.215467893716556 -9.37836342824947 a32.251032918365695,32.251032918365695 0 0,0 0.4653869727038639,-0.30270063262743474 l 6.053113895228403 9.48396298503644" fill="#ff720a" stroke="none" /><path d="M 88.70189139769569 82.29822771554957 l -4.157405143300004 -6.513784008580857 a28.727444573465476,28.727444573465476 0 0,0 0.4191208961237039,-0.26245346670243963 l 4.044665094804058 6.584381816606228" fill="#ff3f05" stroke="none" /><path d="M 89.00827224532344 82.1063720568725 l -5.099878083053771 -8.302181696107679 a30.74345818368394,30.74345818368394 0 0,0 0.45330194615809866,-0.27310935053016183 l 4.956214070678026 8.38873765609646" fill="#ff5c08" stroke="none" /><line stroke="#e1ed5e" stroke-width="0.3" x1="56.76296977257108" x2="54.21961505331056" y1="26.818313649435495" y2="22.513508569990535" /><path d="M 56.25429882871898 25.957352633546506 a86.0,86.0 0 0,1 42.26535254187918,-11.944610805530505" fill="none" id="id36" stroke="none" /><text fill="#e1ed5e" style="font-size:6.75px; font-family:Arial;" text-anchor="middle"><textPath startOffset="22.20632615414155" xlink:href="#id36">December</textPath></text><path d="M 89.3179101791058 81.91981866633112 l -4.790430008099347 -8.108136578600192 a30.417542059355675,30.417542059355675 0 0,0 0.45308126412094946,-0.2624539125508872 l 4.650152011513074 8.189394648541127" fill="#ff5808" stroke="none" /><path d="M 89.63071344664047 81.73862282372117 l -3.5904900263867368 -6.3232212054427706 a28.271502254867542,28.271502254867542 0 0,0 0.42525173943133343,-0.23665213258324932 l 3.4811141978833575 6.384088735586204" fill="#ff3805" stroke="none" /><path d="M 89.94658935756843 81.56283822128135 l -7.8515012930701875 -14.399033790103037 a37.40055629067538,37.40055629067538 0 0,0 0.5678739350418496,-0.30333858937956365 l 7.602482311500033 14.532051105984351" fill="#ffb911" stroke="none" /><path d="M 90.26544431104013 81.39251694778311 l -7.638646518046933 -14.60117854044769 a37.478572007237176,37.478572007237176 0 0,0 0.5742065468322788,-0.29413089559077105 l 7.386179483625889 14.730501961350967" fill="#ffba11" stroke="none" /><path d="M 90.58718382345135 81.22770947309562 l -7.338138051923597 -14.634691345661821 a37.371391536820504,37.371391536820504 0 0,0 0.5775281116905567,-0.28339053622950305 l 7.085138673222615 14.758837042026153" fill="#ffb811" stroke="none" /><path d="M 90.91171255644093 81.06846463323043 l -7.376596924488181 -15.36596486737694 a38.044854311252735,38.044854311252735 0 0,0 0.5928145370749487,-0.27833437393179505 l 7.1110041761136245 15.490664223948743" fill="#ffc112" stroke="none" /><path d="M 91.23893434514133 80.91482961587045 l -3.9284313266318693 -8.557723930483519 a30.41632686127839,30.41632686127839 0 0,0 0.4777070709242373,-0.21433323789681902 l 3.780542137240858 8.624077498896867" fill="#ff5808" stroke="none" /><path d="M 91.56875222667455 80.76684994638697 l -3.846016630687291 -8.773436264170451 a30.57940644325025,30.57940644325025 0 0,0 0.4839063542011314,-0.2071834468268316 l 3.694426518695851 8.838339238960069" fill="#ff5a08" stroke="none" /><path d="M 91.90106846888425 80.62456947434976 l -6.292007188811749 -15.052645856473717 a37.314763306418946,37.314763306418946 0 0,0 0.594754913388097,-0.24261546257752487 l 6.031968405835272 15.158722205234819" fill="#ffb811" stroke="none" /><path d="M 92.23578459929587 80.48803036053334 l -3.632138525388326 -9.127796303447097 a30.823904296400315,30.823904296400315 0 0,0 0.49467498420598455,-0.19192620863493898 l 3.4744803761826644 9.188965215972587" fill="#ff5d08" stroke="none" /><path d="M 92.57280143429618 80.3572730644239 l -5.785442621393592 -15.300771698529251 a37.35802435797035,37.35802435797035 0 0,0 0.6034524826877354,-0.22225664211888702 l 5.521207812933288 15.398091608454461" fill="#ffb811" stroke="none" /><path d="M 92.91201910852362 80.23233633223022 l -2.0274069339530834 -5.654233413112531 a27.006724096027654,27.006724096027654 0 0,0 0.43894671167961474,-0.1531398887604046 l 1.9297782182101821 5.688294155045146" fill="#ff2603" stroke="none" /><path d="M 93.25333710446033 80.11325718540243 l -5.2173113802381605 -15.378762983854402 a37.239664065242636,37.239664065242636 0 0,0 0.6088103032152318,-0.2007151850181971 l 4.95181825478052 15.466291893131832" fill="#ffb710" stroke="none" /><path d="M 93.59665428221793 80.00007090966166 l -2.916147328239175 -9.108166629173402 a30.563608868245524,30.563608868245524 0 0,0 0.5024288020984021,-0.1561070745100571 l 2.758933153430044 9.157013838565986" fill="#ff5a08" stroke="none" /><path d="M 93.94186890950719 79.89281104454417 l -1.4170469622356956 -4.703237781226357 a25.912073668007885,25.912073668007885 0 0,0 0.42817824008905164,-0.12499696970242762 l 1.3358785044232226 4.726933079847483" fill="#ff1502" stroke="none" /><path d="M 94.28887869178378 79.79150937346287 l -2.689735285685945 -9.517481309747836 a30.890254111420163,30.890254111420163 0 0,0 0.5129284195746586,-0.14020271305305662 l 2.525508976887565 9.562370563627189" fill="#ff5e08" stroke="none" /><path d="M 94.63758080256005 79.69619591428918 l -4.325401131694002 -16.377327832175766 a37.938889038913345,37.938889038913345 0 0,0 0.632840743023685,-0.16132519618366284 l 4.042851499985316 16.44935602452829" fill="#ffc011" stroke="none" /><path d="M 94.98787191387505 79.60689891045804 l -2.326832274720371 -9.467301110707979 a30.74904809483946,30.74904809483946 0 0,0 0.5150850842006839,-0.12190399769868325 l 2.1635235035571534 9.505951020547533" fill="#ff5c08" stroke="none" /><path d="M 95.33964822691252 79.52364482259891 l -3.683378134393466 -16.183790967896492 a37.59766141881126,37.59766141881126 0 0,0 0.6322803659459835,-0.13819199831876086 l 3.404255044293962 16.24479646431112" fill="#ffbb11" stroke="none" /><path d="M 95.692805502759 79.44645832069477 l -1.5577662117698459 -7.433519145869539 a28.594987983041236,28.594987983041236 0 0,0 0.4826202029558758,-0.09680907245780634 l 1.4295795993468337 7.459232174404557" fill="#ff3d05" stroke="none" /><path d="M 96.04723909329186 79.375362276772 l -1.8866333522132082 -9.844038211347785 a31.023196781075313,31.023196781075313 0 0,0 0.525333339730257,-0.0960013099895033 l 1.716904891380058 9.875055002688024" fill="#ff6008" stroke="none" /><path d="M 96.40284397218896 79.31037775812273 l -1.657414163953902 -9.53288450248577 a30.675893170586804,30.675893170586804 0 0,0 0.5210092937881872,-0.08597099765494322 l 1.493075664026829 9.560001763080338" fill="#ff5b08" stroke="none" /><path d="M 96.75951476605007 79.25152402106235 l -0.7764653508492786 -4.9716235432235365 a26.031892198428345,26.031892198428345 0 0,0 0.4433243880140675,-0.06533449078972448 l 0.6907719824065618 4.984252518174229" fill="#ff1702" stroke="none" /><path d="M 97.11714578562143 79.19881850522333 l -1.3682983853591335 -9.872931801721565 a30.967297669520132,30.967297669520132 0 0,0 0.5286342910683774,-0.0686319028864185 l 1.1981493657828988 9.895022027772121" fill="#ff6008" stroke="none" /><path d="M 97.47563105711357 79.15227682838746 l -1.1890341868766479 -9.819743520233537 a30.89146930949745,30.89146930949745 0 0,0 0.5284402073085307,-0.0593764145033397 l 1.019827276058399 9.838755888207475" fill="#ff5e08" stroke="none" /><path d="M 97.83486435360386 79.11191278185805 l -1.105249305692618 -10.662862594094578 a31.71999135859145,31.71999135859145 0 0,0 0.5435822789938995,-0.05161968726966863 l 0.921541899608482 10.680307825879428" fill="#ff6a09" stroke="none" /><path d="M 98.19473922651362 79.07773832637324 l -0.886295658912021 -10.27181777186976 a31.309983527314955,31.309983527314955 0 0,0 0.5373535825784775,-0.04170898000286684 l 0.7093518869712097 10.285552014061087" fill="#ff6409" stroke="none" /><path d="M 98.55514903715128 79.0497635885617 l -0.9020194912634767 -13.079218601506259 a34.110285976614186,34.110285976614186 0 0,0 0.5861088431093336,-0.03535568601017489 l 0.6767485993145201 13.09280755689674" fill="#ff8c0c" stroke="none" /><path d="M 98.91598698831166 79.02799685794201 l -0.6640524277536821 -12.847179370708 a33.86432988577138,33.86432988577138 0 0,0 0.5824006282494535,-0.02507939616468951 l 0.4428109671149044 12.856706493396882" fill="#ff880c" stroke="none" /><path d="M 99.27714615592234 79.0124445844662 l -0.35177416554031876 -10.213516679088725 a31.21957279036483,31.21957279036483 0 0,0 0.5372343841444065,-0.013875179146628959 l 0.1759131462010332 10.218058650377715" fill="#ff6309" stroke="none" /></svg>