<?xml version="1.0" encoding="utf-8" ?>
<svg baseProfile="full" height="200mm" version="1.1" viewBox="0,0,200,200" width="200mm" xmlns="http://www.w3.org/2000/svg" xmlns:ev="http://www.w3.org/2001/xml-events" xmlns:xlink="http://www.w3.org/1999/xlink"><defs /><rect fill="#1a1a1a" height="200" width="200" x="0" y="0" /><text alignment-baseline="middle" fill="#e1ed5e" style="dominant-baseline: central; font-size:9.0px; font-family:Arial;" text-anchor="middle" x="100.0" y="100.0">2022</text><line stroke="#e1ed5e" stroke-width="0.3" x1="100.0" x2="100.0" y1="15.0" y2="10.0" /><path d="M 100.0 14.0 a86.0,86.0 0 0,1 42.46469731375804,11.215312516191453" fill="none" id="id61" stroke="none" /><text fill="#e1ed5e" style="font-size:6.75px; font-family:Arial;" text-anchor="middle"><textPath startOffset="22.20632615414155" xlink:href="#id61">January</textPath></text><path d="M 100.0 79.0 l 0.0 -3.549919760543826 a24.549919760543826,24.549919760543826 0 0,0 0.4225865124354046,0.003637335527854915 l -0.06110603316287626 3.54939380162453" fill="#ff1502" stroke="none" /><path d="M 100.36148047927253 79.00311137660856 l 0.5053604733754672 -29.354275493612995 a50.358625290755334,50.358625290755334 0 0,0 0.8665840889657659,0.022381310345887816 l -1.010571197536101 29.34122739112475" fill="#9bff22" stroke="none" /><path d="M 100.72285384407766 79.0124445844662 l 0.1554480949124856 -4.513326632962391 a25.5160028128888,25.5160028128888 0 0,0 0.4388256350787807,0.018896754940736296 l -0.2331145623805978 4.50998215149746" fill="#ff2303" stroke="none" /><path d="M 101.08401301168833 79.027996857942 l 0.2646100148680293 -5.119313147901462 a26.126147243909916,26.126147243909916 0 0,0 0.44891930681938447,0.027080038532795146 l -0.3526913705270257 5.113999839988362" fill="#ff2c04" stroke="none" /><path d="M 101.44485096284872 79.0497635885617 l 0.5282163989930891 -7.659100294666536 a28.677293135469444,28.677293135469444 0 0,0 0.4921703708835798,0.038201893171871615 l -0.6599769592390101 7.6488731393062" fill="#ff5107" stroke="none" /><path d="M 101.80526077348638 79.07773832637324 l 0.9784911168791441 -11.340326834404163 a32.38246272020772,32.38246272020772 0 0,0 0.5549349836161742,0.05269776336764951 l -1.1735512275855626 11.321803526521334" fill="#ff840c" stroke="none" /><path d="M 102.16513564639614 79.11191278185805 l 1.2815496932956159 -12.363715784966676 a33.429957265727836,33.429957265727836 0 0,0 0.5718644642903058,0.06425563574046021 l -1.4941808610956469 12.339824195755615" fill="#ff920d" stroke="none" /><path d="M 102.52436894288641 79.15227682838746 l 1.1700944752367015 -9.663328244117798 a30.73391153825348,30.73391153825348 0 0,0 0.5246502200860305,0.06811465612930494 l -1.336259423830578 9.641755264824356" fill="#ff6d0a" stroke="none" /><path d="M 102.88285421437855 79.19881850522331 l 1.3120879239895062 -9.467346252850268 a30.55783551813051,30.55783551813051 0 0,0 0.5204014224877357,0.07669364209082538 l -1.4748583269058977 9.443358126598474" fill="#ff6b09" stroke="none" /><path d="M 103.2404852339499 79.25152402106235 l 1.4839539747674089 -9.501596574714284 a30.616779963576697,30.616779963576697 0 0,0 0.5200052959562038,0.08580532941008147 l -1.647288476862488 9.474644982364579" fill="#ff6c09" stroke="none" /><path d="M 103.59715602781102 79.31037775812273 l 0.5426100051688239 -3.120908835983302 a24.167727510413098,24.167727510413098 0 0,0 0.40924580069326383,0.07478705424336711 l -0.5962509269649885 3.1111063003891966" fill="#ff0f01" stroke="none" /><path d="M 103.95276090670814 79.375362276772 l 0.5145476581347458 -2.6847965993476985 a23.733659099514956,23.733659099514956 0 0,0 0.40057171481544374,0.08035091760893712 l -0.5606857824173149 2.6755417256615535" fill="#ff0901" stroke="none" /><path d="M 104.307194497241 79.44645832069477 l 0.6750855641377932 -3.221447113310386 a24.291422492291602,24.291422492291602 0 0,0 0.4085091711339731,0.08928428230739423 l -0.7304374594252936 3.2093493329071214" fill="#ff1101" stroke="none" /><path d="M 104.66035177308747 79.52364482259891 l 0.7633221308738998 -3.3538358964241284 a24.43960403180728,24.43960403180728 0 0,0 0.4093939904002379,0.09689033053840305 l -0.8209398082366618 3.3401996537448566" fill="#ff1302" stroke="none" /><path d="M 105.01212808612495 79.60689891045804 l 0.9024583991540002 -3.6718785008709625 a24.78115364503507,24.78115364503507 0 0,0 0.4133627547612608,0.10537537009431015 l -0.965530042600286 3.655800134607782" fill="#ff1902" stroke="none" /><path d="M 105.36241919743992 79.69619591428918 l 1.1418955128779773 -4.3235752234542595 a25.47182603364648,25.47182603364648 0 0,0 0.4229561668218553,0.11560989765417973 l -1.2161495689235435 4.303278784973788" fill="#ff2303" stroke="none" /><path d="M 105.71112130821622 79.79150937346287 l 1.3406513749718563 -4.743821621438262 a25.92962368596621,25.92962368596621 0 0,0 0.42846824141812384,0.1250816290427402 l -1.4221098341134073 4.720041663476819" fill="#ff2904" stroke="none" /><path d="M 106.0581310904928 79.89281104454417 l 1.4152643648176952 -4.697321266284744 a25.905894444544618,25.905894444544618 0 0,0 0.4258616045366164,0.13231727351759598 l -1.4959113420650298 4.672263857884627" fill="#ff2904" stroke="none" /><path d="M 106.40334571778207 80.00007090966166 l 1.5683438095386946 -4.898496249068607 a26.143439297499054,26.143439297499054 0 0,0 0.42740437126162145,0.14090850138755465 l -1.6524310030427336 4.870774023421816" fill="#ff2c04" stroke="none" /><path d="M 106.74666289553966 80.11325718540242 l 2.506464116050905 -7.388157378201861 a28.801745433563532,28.801745433563532 0 0,0 0.46812162051731737,0.16331844158952452 l -2.633267740631496 7.343918083440128" fill="#ff5207" stroke="none" /><path d="M 107.08798089147638 80.2323363322302 l 2.5896859688001714 -7.222372918350432 a28.672623018806686,28.672623018806686 0 0,0 0.4631552616399663,0.17058399159004098 l -2.7136235562127142 7.176725658954067" fill="#ff5107" stroke="none" /><path d="M 107.4271985657038 80.35727306442388 l 2.150747998203138 -5.688087542323287 a27.081122991759678,27.081122991759678 0 0,0 0.43460925518750454,0.1686216389528591 l -2.2483404183903093 5.650223199479881" fill="#ff3a05" stroke="none" /><path d="M 107.76421540070413 80.48803036053334 l 2.8739501580889435 -7.222420468253149 a28.773219856109918,28.773219856109918 0 0,0 0.4586124195104613,0.18707952099039468 l -2.997846447187792 7.171880061079174" fill="#ff5207" stroke="none" /><path d="M 108.09893153111575 80.62456947434976 l 3.000280356782002 -7.177702810174798 a28.779530824573108,28.779530824573108 0 0,0 0.455424073151425,0.19498882051093683 l -3.123388187723742 7.124994461701071" fill="#ff5207" stroke="none" /><path d="M 108.43124777332544 80.76684994638697 l 3.127188854781083 -7.133664447660792 a28.78899727726789,28.78899727726789 0 0,0 0.4521488615930537,0.20286601437383733 l -3.249519834840917 7.078778102770424" fill="#ff5207" stroke="none" /><path d="M 108.76106565485865 80.91482961587045 l 3.528554117855372 -7.686628453873656 a29.45783371499666,29.45783371499666 0 0,0 0.45901166854572456,0.21551213305673422 l -3.660343997700694 7.624751338176918" fill="#ff5c08" stroke="none" /><path d="M 109.08828744355905 81.06846463323043 l 4.190203222248095 -8.728484985602131 a30.68216159685533,30.68216159685533 0 0,0 0.47415442992422124,0.232665519533735 l -4.3398289191827475 8.655064305933564" fill="#ff6d0a" stroke="none" /><path d="M 109.41281617654863 81.2277094730956 l 3.519488159582833 -7.019031605259111 a28.851980742530515,28.851980742530515 0 0,0 0.4420391531523991,0.22642962313851522 l -3.639787800323988 6.9574094568080955" fill="#ff5307" stroke="none" /><path d="M 109.73455568895987 81.39251694778311 l 2.3577966014154876 -4.5068991028702055 a26.086388142591822,26.086388142591822 0 0,0 0.39608447987859674,0.2115746118769419 l -2.4350261278223955 4.4656457644915095" fill="#ff2c04" stroke="none" /><path d="M 110.05341064243156 81.56283822128135 l 3.6785221495717906 -6.7461193410330464 a28.683856542671162,28.683856542671162 0 0,0 0.43145425306396756,0.24010382470448963 l -3.7941004917077934 6.681800118768377" fill="#ff5107" stroke="none" /><path d="M 110.36928655335952 81.73862282372117 l 4.752270259592472 -8.369235357461891 a30.624353125732522,30.624353125732522 0 0,0 0.4561617963745128,0.2642383556667478 l -4.8956287884323135 8.286192844405091" fill="#ff6c09" stroke="none" /><line stroke="#e1ed5e" stroke-width="0.3" x1="143.23703022742887" x2="145.7803849466894" y1="26.818313649435467" y2="22.513508569990506" /><path d="M 143.74570117128098 25.957352633546478 a86.0,86.0 0 0,1 28.547481713284135,27.462654790039114" fill="none" id="id62" stroke="none" /><text fill="#e1ed5e" style="font-size:6.75px; font-family:Arial;" text-anchor="middle"><textPath startOffset="19.985693538727396" xlink:href="#id62">February</textPath></text><path d="M 110.68208982089419 81.91981866633111 l 2.2702578846043533 -3.842569657816474 a25.463116897167275,25.463116897167275 0 0,0 0.3754450906522684,0.22620146623420267 l -2.336065041474259 3.802921582123659" fill="#ff2203" stroke="none" /><path d="M 110.99172775467656 82.1063720568725 l 4.105290771414325 -6.683075427408491 a28.843271606051317,28.843271606051317 0 0,0 0.42081076204852547,0.2635116605895331 l -4.219720685835114 6.611419425496014" fill="#ff5307" stroke="none" /><path d="M 111.2981086023043 82.29822771554956 l 2.328587737978305 -3.6484097766283194 a25.328188391424295,25.328188391424295 0 0,0 0.3654893457023511,0.23772443719237532 l -2.391044109464936 3.6077864152764163" fill="#ff2103" stroke="none" /><path d="M 111.60114157652 82.49532879139004 l 2.050631833870528 -3.0941468807227577 a24.711985430678517,24.711985430678517 0 0,0 0.35255213461548646,0.2380447750511944 l -2.103588662892556 3.058390193372893" fill="#ff1702" stroke="none" /><path d="M 111.90073688211348 82.69761687909136 l 4.182356853615924 -6.080694107134092 a28.380172740222505,28.380172740222505 0 0,0 0.4001183524579434,0.28030847577618667 l -4.286406345657518 6.007800788593969" fill="#ff4c07" stroke="none" /><path d="M 112.19680574252982 82.90503203632743 l 2.7352038987331784 -3.8336449731188043 a25.70937088660091,25.70937088660091 0 0,0 0.35803932997066595,0.2601307999222345 l -2.800788545057633 3.785994938379897" fill="#ff2603" stroke="none" /><path d="M 112.48926042617603 83.11751280151076 l 2.959928522960186 -4.001114052565133 a25.976955949440125,25.976955949440125 0 0,0 0.3571879020976139,0.26902652257812126 l -3.028362578816183 3.9495709404811623" fill="#ff2a04" stroke="none" /><path d="M 112.77801427241765 83.33499621200491 l 2.91400504591422 -3.8004265837472104 a25.789015308606356,25.789015308606356 0 0,0 0.3499537998784709,0.273144491680338 l -2.978991400952121 3.7497037028436457" fill="#ff2703" stroke="none" /><path d="M 113.06298171725822 83.55741782278167 l 4.8831213744878035 -6.146462287034362 a28.85008745199156,28.85008745199156 0 0,0 0.38617435875581174,0.3122594748206853 l -4.9881991318081065 6.061496714949549" fill="#ff5307" stroke="none" /><path d="M 113.34407831869373 83.78471172551755 l 6.202485636222919 -7.537058027364514 a30.761048702645198,30.761048702645198 0 0,0 0.40596156205579226,0.339981133392205 l -6.331304735237829 7.42917573657849" fill="#ff6e0a" stroke="none" /><path d="M 113.6212207817346 84.01681056812373 l 6.247388380806157 -7.3307079846195435 a30.63167384914982,30.63167384914982 0 0,0 0.39836667076345517,0.34545965131570866 l -6.372648850216376 7.222083339884164" fill="#ff6c09" stroke="none" /><path d="M 113.89432698308785 84.25364557470407 l 4.643384415596209 -5.262318702436665 a28.01804936980472,28.01804936980472 0 0,0 0.3588832109271698,0.3222088902456477 l -4.733278614119369 5.181610803421719" fill="#ff4706" stroke="none" /><path d="M 114.16331599549186 84.49514656593476 l 6.4909132953488635 -7.105727170787066 a30.62410068699399,30.62410068699399 0 0,0 0.3861438298947059,0.35887860641227354 l -6.612265009038416 6.992943978300154" fill="#ff6c09" stroke="none" /><path d="M 114.42810811169701 84.74124197986012 l 3.2052345210962625 -3.3897651429127205 a25.665194107358587,25.665194107358587 0 0,0 0.318391100995556,0.3062919868967832 l -3.2631088657042393 3.3340900692536306" fill="#ff2503" stroke="none" /><path d="M 114.68862486808459 84.99185889309781 l 5.371270890653552 -5.488110165130568 a28.6791864260084,28.6791864260084 0 0,0 0.34983718298431876,0.34833487094269344 l -5.464943873805191 5.394839443537758" fill="#ff5107" stroke="none" /><path d="M 114.94478906791727 85.2469230424477 l 3.444872822227202 -3.4006819115568154 a25.840639030635245,25.840639030635245 0 0,0 0.3097624901313877,0.3192374749719985 l -3.502899576061699 3.3408802410347027" fill="#ff2803" stroke="none" /><path d="M 115.19652480421416 85.50635884689758 l 3.413662453540452 -3.2557705960322 a25.71732270686453,25.71732270686453 0 0,0 0.3027696459318067,0.32297354827697927 l -3.4691994214427213 3.196527630877164" fill="#ff2603" stroke="none" /><path d="M 115.4437574822437 85.77008943001952 l 7.168045104153953 -6.604651809054325 a30.74691213328765,30.74691213328765 0 0,0 0.3552825600267725,0.39231187648488486 l -7.280671304796761 6.480287145299894" fill="#ff6e0a" stroke="none" /><path d="M 115.68641384162765 86.03803664274999 l 12.632797226935505 -11.244039189759237 a37.91200706828468,37.91200706828468 0 0,0 0.429684102397423,0.49120320744781665 l -12.824473192910776 11.024920426108473" fill="#ffcd13" stroke="none" /><path d="M 115.9244219780498 86.31012108654704 l 5.874090923846882 -5.04982809328474 a28.746335130456732,28.746335130456732 0 0,0 0.31934356605133246,0.3780020560589541 l -5.960145103385332 4.947967087596679" fill="#ff5207" stroke="none" /><path d="M 116.15771136456269 86.58626213691792 l 7.440178528654062 -6.1766547369314475 a30.669918318036746,30.669918318036746 0 0,0 0.33372012302689363,0.4091014113194529 l -7.545397143757365 6.0476691560038915" fill="#ff6d0a" stroke="none" /><path d="M 116.38621287248628 86.86637796730983 l 3.8676414378341755 -3.099931704645133 a25.95663463098866,25.95663463098866 0 0,0 0.27643311508257196,0.35104198393251185 l -3.9204286335107112 3.0328973267595827" fill="#ff2a04" stroke="none" /><path d="M 116.60985879189232 87.15038557335679 l 6.124633975993087 -4.7381007919371925 a28.743432084963665,28.743432084963665 0 0,0 0.299375245595987,0.3939427308324845 l -6.205285161813187 4.631973285223676" fill="#ff5207" stroke="none" /><path d="M 116.82858285166822 87.43820079747576 l 4.1667626569445995 -3.110305620055573 a26.199606916821434,26.199606916821434 0 0,0 0.2666588350272065,0.3637223512998805 l -4.219684104485432 3.0381208250841962" fill="#ff2d04" stroke="none" /><path d="M 117.04232023915458 87.72973835380427 l 7.907131806327189 -5.693037965081916 a30.743377990948268,30.743377990948268 0 0,0 0.30551214339571237,0.4321252606290822 l -8.003956569526784 5.556086204121041" fill="#ff6e0a" stroke="none" /><path d="M 117.2510076193507 88.02491185347247 l 8.016917351079634 -5.565083156934926 a30.75915541210624,30.75915541210624 0 0,0 0.29818149993323806,0.43754455748748683 l -8.111523316681605 5.426260576177035" fill="#ff6e0a" stroke="none" /><path d="M 117.45458315368197 88.32363383020206 l 13.017526710172193 -8.708166053282829 a36.66167799635767,36.66167799635767 0 0,0 0.34637144132865194,0.5275474683222129 l -13.165494786858769 8.482800520982941" fill="#ffbd11" stroke="none" /><path d="M 117.65298651832404 88.62581576622439 l 6.685825802119 -4.307815810616267 a28.953461115418598,28.953461115418598 0 0,0 0.2663337943173649,0.4212761024110198 l -6.75898719268232 4.192092060491041" fill="#ff5507" stroke="none" /><line stroke="#e1ed5e" stroke-width="0.3" x1="172.23445277983987" x2="176.4835382374775" y1="55.19839476539836" y2="52.563006222186495" /><path d="M 173.08426987136738 54.67131705675599 a86.0,86.0 0 0,1 12.851231095245387,41.99856678651699" fill="none" id="id63" stroke="none" /><text fill="#e1ed5e" style="font-size:6.75px; font-family:Arial;" text-anchor="middle"><textPath startOffset="22.20632615414155" xlink:href="#id63">March</textPath></text><path d="M 117.84615892207809 88.93136811851018 l 8.20328856778694 -5.087883716094041 a30.6530049225554,30.6530049225554 0 0,0 0.27424835047632234,0.45079217943462274 l -8.289652716549485 4.945923763452336" fill="#ff6c0a" stroke="none" /><path d="M 118.03404312379186 89.2402003453031 l 6.665497321471457 -3.976890555581186 a28.761733893506914,28.761733893506914 0 0,0 0.2500083937008844,0.4273453862463276 l -6.732965389642668 3.861565756980962" fill="#ff5207" stroke="none" /><path d="M 118.21658344932153 89.55222093294921 l 8.47242974625068 -4.859202846471914 a30.766981013000596,30.766981013000596 0 0,0 0.2595302660454217,0.4616753841295058 l -8.554817653588536 4.712643952407615" fill="#ff6e0a" stroke="none" /><path d="M 118.3937258080291 89.86733742301442 l 5.540991468162176 -3.052399360239201 a27.326114787500675,27.326114787500675 0 0,0 0.22341298042097177,0.41395032216876537 l -5.592712547801613 2.956568054737977" fill="#ff3d05" stroke="none" /><path d="M 118.56541770881063 90.18545643968196 l 4.596022434534176 -2.429671289675735 a26.19872338123659,26.19872338123659 0 0,0 0.20733241377185818,0.4005002308253636 l -4.63716428146615 2.3501983365900267" fill="#ff2d04" stroke="none" /><path d="M 118.73160827565052 90.50648371742162 l 13.677990884610143 -6.932252013021324 a36.33439117185669,36.33439117185669 0 0,0 0.2779407679615648,0.5603116280349616 l -13.795291665525115 6.695780796487412" fill="#ffb911" stroke="none" /><path d="M 118.89224826269711 90.83032412892265 l 8.723884007564108 -4.234286336591777 a30.697181701797724,30.697181701797724 0 0,0 0.2266355473816434,0.47735226205630815 l -8.795477748787508 4.0834916588949275" fill="#ff6d0a" stroke="none" /><path d="M 119.04729006885535 91.15688171328212 l 7.294609402785995 -3.386680917392969 a29.042445770749563,29.042445770749563 0 0,0 0.2066130527556013,0.45524447414898433 l -7.351824772504943 3.260614434401922" fill="#ff5607" stroke="none" /><path d="M 119.196687751892 91.48605970444005 l 6.294707183037443 -2.7917712590356145 a27.886023909554808,27.886023909554808 0 0,0 0.1908324143501026,0.44046752308941794 l -6.341830307230226 2.6830045913595937" fill="#ff4506" stroke="none" /><path d="M 119.34039704204932 91.81776055985345 l 6.550256543407063 -2.771182376246822 a28.11233523864476,28.11233523864476 0 0,0 0.18470917113894825,0.4472879089129964 l -6.596987401432209 2.6580198968805226" fill="#ff4906" stroke="none" /><path d="M 119.47837535516314 92.15188598940014 l 6.4254743924507185 -2.588914870190965 a27.927423862673326,27.927423862673326 0 0,0 0.17581836046824428,0.4474385499663646 l -6.469086302800663 2.4779273153288157" fill="#ff4606" stroke="none" /><path d="M 119.61058180528143 92.48833698450437 l 5.863007267580909 -2.245774005522301 a27.278403865918968,27.278403865918968 0 0,0 0.16418405150722307,0.4399316308645878 l -5.900795907589758 2.14451923762838" fill="#ff3d05" stroke="none" /><path d="M 119.7369772167798 92.82701384747503 l 16.016208778808824 -5.820751705011517 a38.04112948304153,38.04112948304153 0 0,0 0.2183686172236085,0.6173574867253832 l -16.11403047684224 5.544196591859519" fill="#ffcf13" stroke="none" /><path d="M 119.85752413597 93.16781622104841 l 6.561646768623201 -2.2576015171292974 a27.939162264014858,27.939162264014858 0 0,0 0.15255142642578967,0.45610934790105667 l -6.599535488820761 2.144319066305927" fill="#ff4606" stroke="none" /><path d="M 119.97218684219823 93.5106431181261 l 12.108011478980414 -3.9341314117348594 a33.73111668079122,33.73111668079122 0 0,0 0.17467018882908722,0.55375223152161 l -12.173937151577707 3.7251290137868303" fill="#ff960d" stroke="none" /><path d="M 120.08093135843002 93.85539295169968 l 6.442718139604599 -1.9714210752584245 a27.7375899313006,27.7375899313006 0 0,0 0.1357743177748345,0.45776350250781556 l -6.475698354491136 1.8602281860040788" fill="#ff4306" stroke="none" /><path d="M 120.18372546131832 94.20196356495316 l 14.873361658967339 -4.27256568543758 a36.47487332984727,36.47487332984727 0 0,0 0.16815477524977845,0.6049421947624447 l -14.94470320478348 4.015912187256183" fill="#ffbb11" stroke="none" /><path d="M 120.28053869075195 94.5502522615342 l 4.38407865601366 -1.1780812682141213 a25.539605834941128,25.539605834941128 0 0,0 0.11043285201901311,0.42554282722473036 l -4.403707839902976 1.1024420154405405" fill="#ff2403" stroke="none" /><path d="M 120.37134235888165 94.90015583598534 l 14.997168291456262 -3.754451711650854 a36.45997944427415,36.45997944427415 0 0,0 0.14717192190662878,0.610122630005353 l -15.05957301362371 3.4957438499860944" fill="#ffbb11" stroke="none" /><path d="M 120.45610955862082 95.25157060432595 l 9.45229957720845 -2.194140437139902 a30.703618889630174,30.703618889630174 0 0,0 0.115073673617341,0.5158527151466488 l -9.48866763782783 2.0311095524432896" fill="#ff6d0a" stroke="none" /><path d="M 120.53481517161879 95.60439243477599 l 7.812701277000243 -1.6723583120183696 a28.9896860743973,28.9896860743973 0 0,0 0.10025006732980674,0.4888549313868876 l -7.840330640245047 1.537627724468071" fill="#ff5507" stroke="none" /><path d="M 120.6074358757038 95.95851677861258 l 6.6684922802551805 -1.3078094637857258 a27.795524621792673,27.795524621792673 0 0,0 0.08803805708401057,0.47030282126438233 l -6.69001606124905 1.1928285650587802" fill="#ff4406" stroke="none" /><path d="M 120.67395015179393 96.31383870115 l 7.901547787268819 -1.408844436626289 a29.026163472114533,29.026163472114533 0 0,0 0.08346837996622364,0.4926351034347305 l -7.924628028755265 1.2726235448757213" fill="#ff5607" stroke="none" /><path d="M 120.73433829027371 96.67025291283417 l 6.782835548932408 -1.0892620056448583 a27.869741610919778,27.869741610919778 0 0,0 0.07198901113151955,0.47431763757838263 l -6.800580453503228 0.972345255674393" fill="#ff4506" stroke="none" /><path d="M 120.78858239683441 97.02765380044208 l 9.465860216372342 -1.3534262751829176 a30.562126976685477,30.562126976685477 0 0,0 0.06997854011149877,0.5214214058684347 l -9.487754755541676 1.1902865272498186" fill="#ff6b09" stroke="none" /><path d="M 120.83666639777658 97.38593545837742 l 15.26346522593518 -1.9148784391760463 a36.3831118483925,36.3831118483925 0 0,0 0.07260968448557484,0.6220754346853604 l -15.294165263424345 1.6518592661658331" fill="#ffba11" stroke="none" /><path d="M 120.87857604477298 97.74499172005257 l 9.583637477171202 -1.0350888785083585 a30.639373230674913,30.639373230674913 0 0,0 0.052120308528318435,0.5248443940453941 l -9.60003491138175 0.8699689537585296" fill="#ff6c0a" stroke="none" /><path d="M 120.91429891909075 98.10471618934814 l 9.747863129998809 -0.883365359279284 a30.787807208929117,30.787807208929117 0 0,0 0.04328694761473871,0.5282104027174991 l -9.761624561433042 0.7154410393540158" fill="#ff6e0a" stroke="none" /><path d="M 120.94382443527127 98.46500227214037 l 8.52899067050956 -0.6250998398420549 a29.55186714509818,29.55186714509818 0 0,0 0.032815813168558104,0.5076461050948905 l -8.538487074682532 0.4781946704941291" fill="#ff5d08" stroke="none" /><path d="M 120.96714384426684 98.82574320788733 l 7.75211048664317 -0.43415395343117547 a28.76425828089219,28.76425828089219 0 0,0 0.02343107957265881,0.494593056736075 l -7.758435174449326 0.30064979007210063" fill="#ff5207" stroke="none" /><path d="M 120.98425023603335 99.18683210126433 l 6.975326873929835 -0.27030329095714023 a27.980562217133375,27.980562217133375 0 0,0 0.014507662415380077,0.48143868670868767 l -6.97894623080086 0.15019445682345337" fill="#ff4706" stroke="none" /><line stroke="#e1ed5e" stroke-width="0.3" x1="184.98032266829074" x2="189.97916517819016" y1="98.17113171792111" y2="98.06355123074" /><path d="M 185.9800911702706 98.14961562048488 a86.0,86.0 0 0,1 -9.607161424134198,41.387399972396054" fill="none" id="id64" stroke="none" /><text fill="#e1ed5e" style="font-size:6.75px; font-family:Arial;" text-anchor="middle"><textPath startOffset="21.466115282336823" xlink:href="#id64">April</textPath></text><path d="M 120.99513854157772 99.54816195383933 l 15.350779334318112 -0.3303653428019068 a36.35433383220036,36.35433383220036 0 0,0 0.008079305582622468,0.6257511210812506 l -15.35419164701845 0.06607796366019358" fill="#ffb911" stroke="none" /><path d="M 120.99980553446 99.90962569577887 l 7.538129584825754 -0.03244092976191752 a28.53819939054076,28.53819939054076 0 0,0 -0.0021141406735508436,0.4912518375625651 l -7.5375711468627 -0.09732038600433227" fill="#ff4f07" stroke="none" /><path d="M 120.99824983174949 100.27111621757518 l 13.209270655743078 0.1705498089510812 a34.21037162588579,34.21037162588579 0 0,0 -0.012670767906130441,0.5887607957714291 l -13.20437782515194 -0.3979004205126252" fill="#ff9d0e" stroke="none" /><path d="M 120.9904718944345 100.63252640178507 l 9.640298469124513 0.2905005344080059 a30.64467444418399,30.64467444418399 0 0,0 -0.020426670556562672,0.5271216031946511 l -9.633869665716748 -0.4563993846166631" fill="#ff6c0a" stroke="none" /><path d="M 120.9764740272857 100.99374915477107 l 3.078193580700341 0.14582776233334857 a24.0816459005752,24.0816459005752 0 0,0 -0.02317990191833312,0.413892720129176 l -3.075227327894478 -0.1987921987979479" fill="#ff0e01" stroke="none" /><path d="M 120.95626037817324 101.35467743843564 l 6.696727886224275 0.4328971875277695 a27.710705205647415,27.710705205647415 0 0,0 -0.03486724730339319,0.47573588729784244 l -6.688284080256545 -0.5481062113223819" fill="#ff4306" stroke="none" /><path d="M 120.92983693683757 101.71520430193887 l 9.646290209305624 0.7905154022309245 a30.678627454515947,30.678627454515947 0 0,0 -0.04766202887470397,0.5259465170195488 l -9.631253584153844 -0.9564433077990442" fill="#ff6d0a" stroke="none" /><path d="M 120.89721153311464 102.0752229133903 l 9.637533662389753 0.9570669585781154 a30.684938422979137,30.684938422979137 0 0,0 -0.056719937531523455,0.5251561777122571 l -9.619631423357179 -1.1228194581751636" fill="#ff6d0a" stroke="none" /><path d="M 120.8583938346157 102.4346265915055 l 7.7836133577114035 0.90851636079633 a28.836455760111072,28.836455760111072 0 0,0 -0.061790332755953865,0.492529748115658 l -7.766821515708601 -1.0423638631993832" fill="#ff5307" stroke="none" /><path d="M 120.81339534386255 102.79330883721812 l 4.154497673174026 0.557563764727177 a25.191745253250147,25.191745253250147 0 0,0 -0.061379026306220524,0.4292847670281712 l -4.1442845958512065 -0.6289940037357575" fill="#ff1f03" stroke="none" /><path d="M 120.76222939487914 103.15116336523771 l 3.942873113234411 0.5984250087935863 a24.988027191258407,24.988027191258407 0 0,0 -0.06820332764644263,0.4247021863595758 l -3.9319880312266773 -0.666206424846367" fill="#ff1c02" stroke="none" /><path d="M 120.70491114924044 103.5080841355445 l 9.535531425013065 1.6156285953104192 a30.67143295046791,30.67143295046791 0 0,0 -0.09267673996486775,0.519780375010231 l -9.506308242709009 -1.7795277210538687" fill="#ff6d0a" stroke="none" /><path d="M 120.64145759157962 103.86396538481128 l 5.137381473459197 0.9616890713238628 a26.226617861843884,26.226617861843884 0 0,0 -0.08688512202238684,0.443025365329703 l -5.120066418461145 -1.0499781637215109" fill="#ff2e04" stroke="none" /><path d="M 120.5718875245553 104.21870165774334 l 6.901561189095262 1.4153114338535961 a28.045186534196432,28.045186534196432 0 0,0 -0.10105076182201321,0.4720755177016278 l -6.8761763885488065 -1.533900770971393" fill="#ff4806" stroke="none" /><path d="M 120.49622156327973 104.57218783832717 l 7.7051315620361835 1.718819671805664 a28.89451666997241,28.89451666997241 0 0,0 -0.11246768763398819,0.4845078547743655 l -7.674403308471643 -1.8511961839285938" fill="#ff5407" stroke="none" /><path d="M 120.41448212921028 104.9243191809786 l 7.846183512351352 1.8926324813337043 a29.071223786941705,29.071223786941705 0 0,0 -0.12152973943284648,0.48545089793945945 l -7.812442458623445 -2.02741121867056" fill="#ff5608" stroke="none" /><path d="M 120.32669344350535 105.2749913415812 l 14.81097174583117 3.8436033847219835 a36.3015741358481,36.3015741358481 0 0,0 -0.16216764292883315,0.603486127182123 l -14.74261602656056 -4.097980445079655" fill="#ffb811" stroke="none" /><path d="M 120.23288151984713 105.62410040840565 l 5.0741207102882075 1.4104448904639826 a26.26650318253124,26.26650318253124 0 0,0 -0.12483763908911051,0.43457619882883736 l -5.049090434312998 -1.497578564797402" fill="#ff2e04" stroke="none" /><path d="M 120.13307415673323 105.97154293290107 l 7.282186057436114 2.1599228388482405 a28.59575542292504,28.59575542292504 0 0,0 -0.1440316830337162,0.47070387377159184 l -7.2439276018962655 -2.2849536851718897" fill="#ff4f07" stroke="none" /><path d="M 120.02730092923936 106.31721596034902 l 9.204442878854751 2.903359452472686 a30.651490290124237,30.651490290124237 0 0,0 -0.16304804682414958,0.5018102894792686 l -9.153102581014354 -3.06136864192975" fill="#ff6c0a" stroke="none" /><path d="M 119.9155931802556 106.66101706037122 l 15.877100583830233 5.3102931407020115 a37.74161091977857,37.74161091977857 0 0,0 -0.21136949995900214,0.6143387067506311 l -15.783340252928001 -5.582804550541943" fill="#ffcb12" stroke="none" /><path d="M 119.79798401119884 107.00284435728193 l 3.2946067263988548 1.1653518919085248 a24.49463567680629,24.49463567680629 0 0,0 -0.14402348769530451,0.3962907825108182 l -3.2740589776983233 -1.221890471425473" fill="#ff1402" stroke="none" /><path d="M 119.67450827220406 107.3425965602758 l 19.661500489217573 7.337742009336478 a41.98611586938098,41.98611586938098 0 0,0 -0.2585259504552765,0.6749296779864723 l -19.53228025916879 -7.675095254156095" fill="#fdff18" stroke="none" /><path d="M 119.54520255179757 107.68017299344265 l 7.4233872136812185 2.9169765750592593 a28.97592816314755,28.97592816314755 0 0,0 -0.1864081973479443,0.4626498585925998 l -7.372076402075882 -3.0443258014946726" fill="#ff5507" stroke="none" /><path d="M 119.41010516605496 108.01547362559984 l 6.393620533610269 2.6402688867894795 a27.91732631313222,27.91732631313222 0 0,0 -0.18724419137803852,0.4425899573777162 l -6.347225361039921 -2.749933369833359" fill="#ff4606" stroke="none" /><path d="M 119.26925614724726 108.34839909993367 l 12.299862794098987 5.328911645311887 a34.40462323518275,34.40462323518275 0 0,0 -0.24010972674179182,0.5413840466861175 l -12.206311982625923 -5.539844028490692" fill="#ff9f0e" stroke="none" /><path d="M 119.12269723197855 108.67885076344098 l 6.37894478428394 2.895088968853715 a28.005174994139814,28.005174994139814 0 0,0 -0.20300469018811937,0.43725404252014943 l -6.328165477255989 -3.004463078652695" fill="#ff4706" stroke="none" /><path d="M 118.97047184881838 109.00673069616215 l 6.28985442139368 2.986273896771121 a27.96276528606718,27.96276528606718 0 0,0 -0.21018244935489938,0.4330380996561839 l -6.237518715424069 -3.0941009523925804" fill="#ff4606" stroke="none" /><path d="M 118.81262510543309 109.33194174019688 l 15.457996992004011 7.667889331822155 a38.25532375268216,38.25532375268216 0 0,0 -0.29770170930572226,0.5873937154286781 l -15.323716612912017 -7.932837258953528" fill="#ffd213" stroke="none" /><path d="M 118.64920377521936 109.65438752849418 l 23.664896577287795 12.250929591024034 a47.64793811644638,47.64793811644638 0 0,0 -0.38333331585853,0.7251221706724439 l -23.450510753204373 -12.656466776782613" fill="#b9ff1f" stroke="none" /><line stroke="#e1ed5e" stroke-width="0.3" x1="174.80103733775053" x2="179.2010983576182" y1="140.37084112569926" y2="142.7455964860345" /><path d="M 175.68104954172406 140.8457921977663 a86.0,86.0 0 0,1 -30.038265399797805,32.042727171017184" fill="none" id="id65" stroke="none" /><text fill="#e1ed5e" style="font-size:6.75px; font-family:Arial;" text-anchor="middle"><textPath startOffset="22.206326154141568" xlink:href="#id65">May</textPath></text><path d="M 118.48025628344425 109.97397251340804 l 5.181629405643053 2.7965753544689798 a26.888133576155358,26.888133576155358 0 0,0 -0.22332975245240191,0.40540837121279105 l -5.132723243739142 -2.8853542440795774" fill="#ff3705" stroke="none" /><path d="M 118.30583269289576 110.29060199501023 l 2.598929383501869 1.4609850503623505 a23.981427721379756,23.981427721379756 0 0,0 -0.20538151929076848,0.3580999905432338 l -2.573395868058721 -1.5055048867639005" fill="#ff0d01" stroke="none" /><path d="M 118.12598468904814 110.60418214915192 l 8.380177958890183 4.902626535488171 a30.708920103139256,30.708920103139256 0 0,0 -0.27085139475030895,0.4539625169446416 l -8.294545688441644 -5.046151146318916" fill="#ff6d0a" stroke="none" /><path d="M 117.94076556474637 110.91462005526583 l 5.975187083994337 3.635123403489603 a27.994067689644602,27.994067689644602 0 0,0 -0.2539933225907589,0.4095181092508452 l -5.911729121735617 -3.73743784410572" fill="#ff4706" stroke="none" /><path d="M 117.75023020441432 111.22182372390056 l 12.311550366692567 7.783451053417237 a35.565588993671,35.565588993671 0 0,0 -0.3315985407662614,0.5146482991070401 l -12.175746962549255 -7.994220952445732" fill="#ffaf10" stroke="none" /><path d="M 117.55443506779139 111.5257021239791 l 12.321456254269986 8.089889191644751 a35.73989794262428,35.73989794262428 0 0,0 -0.34207659520977335,0.5113580962766869 l -12.180376553649491 -8.300784202127245" fill="#ffb110" stroke="none" /><path d="M 117.35343817320211 111.8261652097733 l 10.681140960378745 7.279072675141657 a33.9256207288267,33.9256207288267 0 0,0 -0.3330188895715088,0.4797385481502067 l -10.554261163645098 -7.461852485478881" fill="#ff990e" stroke="none" /><path d="M 117.14729908036423 112.12312394758627 l 42.9880583428919 30.392515877542998 a73.64673001676914,73.64673001676914 0 0,0 -0.740746552619043,1.0288321740634925 l -42.45853199789725 -31.127981657057624" fill="#40ffc6" stroke="none" /><path d="M 116.93607887273984 112.41649034213513 l 5.63192289674701 4.128979132688478 a27.983339043257182,27.983339043257182 0 0,0 -0.2881467518264654,0.3860196623407492 l -5.560014878225456 -4.225311674538542" fill="#ff4706" stroke="none" /><path d="M 116.71984013943494 112.70617746262582 l 13.432289274102132 10.207815973283294 a37.87085955390468,37.87085955390468 0 0,0 -0.3988940933055094,0.5156243870622721 l -13.254588363578554 -10.43751835445882" fill="#ffcd13" stroke="none" /><path d="M 116.498646956653 112.99209946851258 l 2.2094781901415788 1.7398857309479587 a23.81229376656629,23.81229376656629 0 0,0 -0.2563587187384997,0.31984691858126096 l -2.179201559348225 -1.77766048310747" fill="#ff0a01" stroke="none" /><path d="M 116.27256486870786 113.27417163493432 l 3.657138580276867 2.983271881170259 a25.71959465551128,25.71959465551128 0 0,0 -0.28279796605115226,0.3406483678584455 l -3.6052446143321712 -3.0457815061424727" fill="#ff2603" stroke="none" /><path d="M 116.0416608686014 113.55231037782055 l 5.271918191657424 4.4538201003652675 a27.901422672604987,27.901422672604987 0 0,0 -0.3131037736395715,0.3642104247873679 l -5.194471908447071 -4.543907624314166" fill="#ff4606" stroke="none" /><path d="M 115.80600337817218 113.82643327865902 l 4.766871812248959 4.169860873938545 a27.33330929154871,27.33330929154871 0 0,0 -0.31282471419279256,0.3514618826276282 l -4.69438824840783 -4.251296926307038" fill="#ff3d05" stroke="none" /><path d="M 115.56566222782051 114.09645910891815 l 20.01072220466953 18.12196122268941 a47.99693467246074,47.99693467246074 0 0,0 -0.5598581692006581,0.6076154693359944 l -19.695817627473147 -18.463727946826744" fill="#b5ff1f" stroke="none" /><path d="M 115.32070863581623 114.36230785411682 l 10.397606008670396 9.747174363281863 a35.2519338610505,35.2519338610505 0 0,0 -0.41881554997877274,0.4391264297502398 l -10.228283907312662 -9.924707909614607" fill="#ffab0f" stroke="none" /><path d="M 115.07121518719521 114.62390073753431 l 12.396791696047073 12.028854274531833 a38.27349934185614,38.27349934185614 0 0,0 -0.46285304618072165,0.468867692110346 l -12.187898024810815 -12.240462460622844" fill="#ffd213" stroke="none" /><path d="M 114.81725581225074 114.88116024355365 l 8.724954378732592 8.762583697871145 a33.36558538740331,33.36558538740331 0 0,0 -0.41047621780214993,0.4017373729111019 l -8.572828208554649 -8.911471173704818" fill="#ff910d" stroke="none" /><path d="M 114.55890576462653 115.13401014063108 l 14.572644131137803 15.148291198662411 a42.01981644097441,42.01981644097441 0 0,0 -0.525576191643808,0.49696509401105776 l -14.309732105103189 -15.396890929419394" fill="#fdff18" stroke="none" /><path d="M 114.29624159901734 115.38237550388516 l 11.626668076245132 12.509985437020719 a38.07861663571286,38.07861663571286 0 0,0 -0.4839619017023968,0.44208772257920337 l -11.409606625075872 -12.708265926186504" fill="#ffd013" stroke="none" /><path d="M 114.0293411484842 115.62618273729858 l 17.840891294200155 19.871569492026513 a47.7053679294614,47.7053679294614 0 0,0 -0.6157573706993018,0.5433342867602662 l -17.496191570594263 -20.175726920559068" fill="#b9ff1f" stroke="none" /><path d="M 113.75828350139079 115.86535959552629 l 4.602550491476637 5.307429418536227 a28.02511765448349,28.02511765448349 0 0,0 -0.3671751137970712,0.31291459767184165 l -4.510509901102519 -5.385868406431015" fill="#ff4706" stroke="none" /><path d="M 113.48314897796784 116.09983520530334 l 12.218037582191638 14.589202561428335 a40.029589426423115,40.029589426423115 0 0,0 -0.5320692452860131,0.43785676578059385 l -11.965098208360933 -14.797354446066107" fill="#ffe815" stroke="none" /><path d="M 113.20401910651253 116.32954008644616 l 4.495383726532487 5.559485197212693 a28.14956995257758,28.14956995257758 0 0,0 -0.3794059456336131,0.30142302941309673 l -4.399020288181523 -5.636042140630916" fill="#ff4906" stroke="none" /><path d="M 112.92097659922987 116.55440617244103 l 10.141883650063582 12.993821326694311 a37.483239870895616,37.483239870895616 0 0,0 -0.5120411753308189,0.3926113386878434 l -9.91671374623927 -13.166472007209526" fill="#ffc812" stroke="none" /><path d="M 112.63410532772338 116.77436683061366 l 9.20495990263858 12.221472756692071 a36.300185722786196,36.300185722786196 0 0,0 -0.5023514070304343,0.371627561395129 l -8.993223525189581 -12.378110266826969" fill="#ffb811" stroke="none" /><path d="M 112.34349029814194 116.9893568818739 l 10.814140033346334 14.884386827341423 a39.398113921996426,39.398113921996426 0 0,0 -0.5520851553114262,0.39389809954468097 l -10.556327550186023 -15.068329188730324" fill="#ffe015" stroke="none" /><path d="M 112.04921762599082 117.19931262002967 l 15.516743425424885 22.14893359075893 a48.04338340034981,48.04338340034981 0 0,0 -0.6813995707246401,0.4686728380774191 l -15.133186970077361 -22.412747218201442" fill="#b5ff20" stroke="none" /><path d="M 111.7513745106137 117.40417183066458 l 4.281722078219426 6.341371106262989 a28.651544384139633,28.651544384139633 0 0,0 -0.41111596395791256,0.2724652434429813 l -4.171931415521549 -6.414134370797289" fill="#ff5007" stroke="none" /><path d="M 111.45004920935366 117.60387380957326 l 3.7841312550744455 5.817911161357613 a27.940298238338233,27.940298238338233 0 0,0 -0.4054246347360833,0.2587611838912542 l -3.6834248182914315 -5.882186774072676" fill="#ff4606" stroke="none" /><path d="M 111.1453310114006 117.79835938074945 l 3.7027844693387197 5.913102861398667 a27.976775636055464,27.976775636055464 0 0,0 -0.4103537530824808,0.2520727910141205 l -3.6004515163239303 -5.975964119241166" fill="#ff4706" stroke="none" /><line stroke="#e1ed5e" stroke-width="0.3" x1="143.8653032363475" x2="146.44561519142675" y1="172.8068346515853" y2="177.08958963109032" /><path d="M 144.38136562736335 173.6633856474863 a86.0,86.0 0 0,1 -40.68145358897372,12.25698825130547" fill="none" id="id66" stroke="none" /><text fill="#e1ed5e" style="font-size:6.75px; font-family:Arial;" text-anchor="middle"><textPath startOffset="21.466115282336833" xlink:href="#id66">June</textPath></text><path d="M 110.8373102113329 117.98757091392108 l 9.175533294382095 15.229383729659098 a38.77989145134243,38.77989145134243 0 0,0 -0.574740389413788,0.3395667526841078 l -8.912025033939926 -15.385069054636956" fill="#ffd914" stroke="none" /><path d="M 110.5260780823613 118.17145234162733 l 3.566834539193308 6.157522615002467 a28.115995600353415,28.115995600353415 0 0,0 -0.42087132791472714,0.23898172405691614 l -3.4603144443573823 -6.218007504854012" fill="#ff4906" stroke="none" /><path d="M 110.21172684928248 118.3499491758327 l 9.620604631154745 17.287732880837325 a40.78438125462053,40.78438125462053 0 0,0 -0.616382487727067,0.33610087801455535 l -9.321599331559026 -17.45077441061165" fill="#fff216" stroke="none" /><path d="M 109.89434966115114 118.52300852407294 l 3.0990722848825745 5.80170949233661 a27.577543771074126,27.577543771074126 0 0,0 -0.42063515027851506,0.22005643018078083 l -2.998746232077564 -5.854195341462108" fill="#ff4106" stroke="none" /><path d="M 109.57404056367764 118.69057910512821 l 12.254049165660833 23.922530280249386 a47.878414684722046,47.878414684722046 0 0,0 -0.7367486957958221,0.3694210907240614 l -11.84044656218225 -24.12991921188275" fill="#b7ff1f" stroke="none" /><path d="M 109.2508944713604 118.85261126421891 l 6.425033867322883 13.093724745761445 a35.58515299590689,35.58515299590689 0 0,0 -0.5522262175542677,0.2651021431580278 l -6.198694981768383 -13.20238116541903" fill="#ffaf10" stroke="none" /><path d="M 108.92500713936063 119.00905698771935 l 10.226017484245517 21.78003289859139 a45.06119836275447,45.06119836275447 0 0,0 -0.7049545624398859,0.32361006377830037 l -9.849594926038213 -21.95283003270377" fill="#d8ff1c" stroke="none" /><path d="M 108.59647513512805 119.15986991738527 l 2.8580514259759937 6.370040357021501 a27.981824410826015,27.981824410826015 0 0,0 -0.4411525498943574,0.19338831359530334 l -2.7479782014238836 -6.418293223911259" fill="#ff4706" stroke="none" /><path d="M 108.2653958097858 119.30500536409082 l 8.878778922015407 20.73764870560094 a43.558430552299896,43.558430552299896 0 0,0 -0.6918085604137968,0.2891760343603036 l -8.520498902104148 -20.887409782981216" fill="#eaff1a" stroke="none" /><path d="M 107.93186726928326 119.44442032107085 l 7.910080223345047 19.391010894967902 a41.94231774824645,41.94231774824645 0 0,0 -0.6708352644567216,0.26693919618935624 l -7.5751238828464595 -19.524296935563328" fill="#feff18" stroke="none" /><path d="M 107.59598834532513 119.57807347666477 l 9.64381022720311 24.856176265645953 a47.6614435889576,47.6614435889576 0 0,0 -0.7674168285228976,0.29017137929963466 l -9.214523177919938 -25.01849589505222" fill="#b9ff1f" stroke="none" /><path d="M 107.2578585660854 119.70592522655815 l 2.5506785686578044 6.925387246567021 a28.380172740222505,28.380172740222505 0 0,0 -0.4598675071165208,0.16489212674977338 l -2.431091500911549 -6.968266914356754" fill="#ff4c07" stroke="none" /><path d="M 106.91757812671514 119.82793768551818 l 2.384940219660813 6.835982939823466 a28.24006924033971,28.24006924033971 0 0,0 -0.4603538307103188,0.15617701387444027 l -2.266916656013267 -6.8760229405960285" fill="#ff4a06" stroke="none" /><path d="M 106.57524785965236 119.94407469862006 l 6.2148634000685865 18.85095475309443 a40.84900557168358,40.84900557168358 0 0,0 -0.6696876520281859,0.21441283814040316 l -5.88945440294946 -18.955140437894542" fill="#fff316" stroke="none" /><path d="M 106.2309692047433 120.05430185196036 l 6.003754564707857 19.32301417796789 a41.23422708667664,41.23422708667664 0 0,0 -0.6796284716339361,0.20476648342594123 l -5.670251118633675 -19.42349603049956" fill="#fff817" stroke="none" /><path d="M 105.88484417918355 120.15858648285463 l 1.9877535547687317 6.809067618501745 a28.093276113885935,28.093276113885935 0 0,0 -0.4653702450405864,0.13151827970620414 l -1.8702521416235407 -6.842274691546468" fill="#ff4806" stroke="none" /><path d="M 105.53697534728816 120.25689768951611 l 2.1140924462905333 7.734358870075255 a29.01808543248165,29.01808543248165 0 0,0 -0.48295705666498884,0.12755334819360512 l -1.980644946814046 -7.769603567572444" fill="#ff5507" stroke="none" /><path d="M 105.18746579009965 120.34920634021253 l 15.562397370298964 61.04761902063758 a84.0,84.0 0 0,0 -1.4041868610271577,0.3451149667438802 l -14.509257224528596 -61.306455245695496" fill="#4dd2ff" stroke="none" /><path d="M 104.83641907484287 120.43548508189849 l 6.1400490827790755 25.943757042462874 a47.66043383400349,47.66043383400349 0 0,0 -0.7999686951276621,0.18207027053659075 l -5.692560238258551 -26.045604046577147" fill="#b9ff1f" stroke="none" /><path d="M 104.48393922423573 120.51570834832081 l 1.5839333326528438 7.247090709938938 a28.418164770370904,28.418164770370904 0 0,0 -0.47878996886971736,0.10033509316431946 l -1.4589519023537483 -7.273281783829799" fill="#ff4d07" stroke="none" /><path d="M 104.13013068566511 120.58985236759428 l 2.6708560722460444 13.31496177917743 a34.58019437782867,34.58019437782867 0 0,0 -0.5846232808826033,0.11204444319628636 l -2.4412651767917373 -13.358963420722185" fill="#ffa20e" stroke="none" /><path d="M 103.7750983002368 120.6578951692458 l 2.479679389226755 13.569171661774332 a34.79388376999225,34.79388376999225 0 0,0 -0.5900894043411756,0.10259460675299108 l -2.2457410134135296 -13.609844847048329" fill="#ffa50f" stroke="none" /><path d="M 103.41894727170886 120.7198165907248 l 1.1653769374726142 7.0625237783863986 a28.158026650318252,28.158026650318252 0 0,0 -0.47890653671663225,0.07479535182476466 l -1.0436345371474647 -7.081537437558269" fill="#ff4906" stroke="none" /><path d="M 103.06178313531737 120.77559828337769 l 1.2110069360710634 8.217235679426558 a29.305991813772337,29.305991813772337 0 0,0 -0.4996970369249837,0.06925345606803258 l -1.0693813079592487 -8.236863700987193" fill="#ff5908" stroke="none" /><path d="M 102.70371172650421 120.8252237178851 l 3.088605144718577 23.78984877878959 a44.98950576101264,44.98950576101264 0 0,0 -0.7688333270523513,0.09309500884536108 l -2.6786443946148455 -23.8394893163603" fill="#d9ff1c" stroke="none" /><path d="M 102.34483914955558 120.86867818915974 l 1.1218308508115618 9.984107870552574 a31.046935574027657,31.046935574027657 0 0,0 -0.5315936194145842,0.05510185220749484 l -0.9498046347913749 -10.001939091215826" fill="#ff720a" stroke="none" /><path d="M 101.98527174616119 120.90594882070398 l 2.123221863409184 22.358635636286404 a43.459222128058556,43.459222128058556 0 0,0 -0.7453374188548955,0.06431084871509887 l -1.7380401268127466 -22.39187073728017" fill="#ebff1a" stroke="none" /><path d="M 101.62511606390274 120.93702456842531 l 0.6461413100562556 8.324498652012615 a29.349537496168338,29.349537496168338 0 0,0 -0.5040255321444487,0.0347605516767176 l -0.5027530171328769 -8.334387548205617" fill="#ff5a08" stroke="none" /><path d="M 101.26447882468166 120.96189622390904 l 1.0267938636408076 17.021674062753753 a38.05261544564453,38.05261544564453 0 0,0 -0.654164200188152,0.03381281701996894 l -0.7336415950391761 -17.036826686535925" fill="#ffcf13" stroke="none" /><path d="M 100.90346689309514 120.98055641714683 l 0.34655786026513263 8.0478618471442 a29.055320146414466,29.055320146414466 0 0,0 -0.49986170687985754,0.017216247875057784 l -0.2079758017106228 -8.05263489344535" fill="#ff5608" stroke="none" /><line stroke="#e1ed5e" stroke-width="0.3" x1="102.19456741930631" x2="102.32365962044197" y1="184.97166512339345" y2="189.96999836594603" /><path d="M 102.22038585953345 185.97133177190398 a86.0,86.0 0 0,1 -42.740103519485714,-10.115201625700543" fill="none" id="id67" stroke="none" /><text fill="#e1ed5e" style="font-size:6.75px; font-family:Arial;" text-anchor="middle"><textPath startOffset="22.20632615414155" xlink:href="#id67">July</textPath></text><path d="M 100.54218724476979 120.99299961872073 l 0.515862761438262 19.973739439008234 a40.98039993508718,40.98039993508718 0 0,0 -0.7053318314695428,0.012142927128819236 l -0.17197124007605122 -19.979659843416215" fill="#fff417" stroke="none" /><path d="M 100.18074693466247 120.99922214144158 l 0.22948691208501143 26.661844387159295 a47.66283200201951,47.66283200201951 0 0,0 -0.8204676934949153,0.0 l 0.22948691208499303 -26.661844387159295" fill="#b9ff1f" stroke="none" /><path d="M 99.81925306533755 120.99922214144158 l -0.04389694121726888 5.099957139924568 a26.100146053841577,26.100146053841577 0 0,0 -0.4492211849308171,-0.0077337500874895505 l 0.1316778160407539 -5.098445912557919" fill="#ff2c04" stroke="none" /><path d="M 99.45781275523022 120.99299961872073 l -0.2451031647455446 9.490172802267395 a30.493337420436717,30.493337420436717 0 0,0 -0.5246010580724677,-0.018068321151601497 l 0.40842457449265546 -9.4845476826897" fill="#ff6a09" stroke="none" /><path d="M 99.09653310690486 120.98055641714683 l -0.13318747475278692 3.0929161316970513 a24.095782469932743,24.095782469932743 0 0,0 -0.41423166535994344,-0.021411045576423482 l 0.18640720852621928 -3.090165279358426" fill="#ff0e01" stroke="none" /><path d="M 98.73552117531835 120.96189622390904 l -0.5783738319425048 9.587991516469833 a30.605420220342957,30.605420220342957 0 0,0 -0.5255930596888188,-0.03624797465022333 l 0.7433296524102536 -9.576615197303324" fill="#ff6c09" stroke="none" /><path d="M 98.37488393609728 120.93702456842531 l -1.350615160870099 17.400518912917303 a38.45285706557998,38.45285706557998 0 0,0 -0.6594769033924255,-0.05690244215878945 l 1.649936382004066 -17.37469221847985" fill="#ffd413" stroke="none" /><path d="M 98.01472825383883 120.90594882070398 l -2.0272140229648 21.34762291090139 a42.44366108296219,42.44366108296219 0 0,0 -0.7267312860072824,-0.07532866921960242 l 2.3943779055776764 -21.309564873226027" fill="#f8ff18" stroke="none" /><path d="M 97.65516085044442 120.86867818915974 l -2.6094733520667788 23.223878549533186 a44.37002109666601,44.37002109666601 0 0,0 -0.7582468481059411,-0.09181313367622619 l 3.008847623224109 -23.175519887131614" fill="#e0ff1b" stroke="none" /><path d="M 97.2962882734958 120.8252237178851 l -0.27333364130739557 2.10534065967548 a23.123009791016788,23.123009791016788 0 0,0 -0.3942708900890521,-0.05464235276180758 l 0.30953312258327814 -2.100323741421067" fill="#ff0000" stroke="none" /><path d="M 96.93821686468263 120.77559828337769 l -1.515479320918878 10.283220001769692 a31.39429127824158,31.39429127824158 0 0,0 -0.5339483300959904,-0.08339174795896714 l 1.692263514623386 -10.25560994646362" fill="#ff770a" stroke="none" /><path d="M 96.58105272829116 120.7198165907248 l -3.19337652454098 19.352792141934486 a40.61448998359148,40.61448998359148 0 0,0 -0.6888043990854408,-0.11975747392515909 l 3.5260298950984703 -19.29495608948832" fill="#fff016" stroke="none" /><path d="M 96.22490169976321 120.6578951692458 l -1.7541658377738907 9.599054409770538 a30.758019437782863,30.758019437782863 0 0,0 -0.5200044291450582,-0.09966008646662006 l 1.919137881490644 -9.567437124955449" fill="#ff6e0a" stroke="none" /><path d="M 95.86986931433489 120.58985236759428 l -4.639319098873433 23.128298497552706 a44.58901170233867,44.58901170233867 0 0,0 -0.75123681270059,-0.15742897824012755 l 5.0367473730034105 -23.045013538586037" fill="#deff1b" stroke="none" /><path d="M 95.51606077576429 120.51570834832081 l -4.270734014363382 19.540214327250794 a41.00147856975423,41.00147856975423 0 0,0 -0.6881997638542255,-0.1566320256671505 l 4.6064539276104695 -19.463805568005956" fill="#fff517" stroke="none" /><path d="M 95.16358092515715 120.4354850818985 l -6.142142053402335 25.952600542020495 a47.66952162859049,47.66952162859049 0 0,0 -0.7968680469323415,-0.19585077823271052 l 6.587963385077887 -25.843028505473754" fill="#b9ff1f" stroke="none" /><path d="M 94.81253420990036 120.34920634021253 l -1.7355157760646984 6.808019573109565 a28.02574875132981,28.02574875132981 0 0,0 -0.46644128742636937,-0.12319138342819459 l 1.8524475063025565 -6.777136840377789" fill="#ff4706" stroke="none" /><path d="M 94.46302465271185 120.25689768951611 l -5.325416344044248 19.482913914040807 a41.19762346959014,41.19762346959014 0 0,0 -0.6824461501539151,-0.1928660988038409 l 5.659993662302778 -19.388359021898445" fill="#fff717" stroke="none" /><path d="M 94.11515582081647 120.15858648285463 l -7.097841446118991 24.313719493084513 a46.32856704953208,46.32856704953208 0 0,0 -0.7635941168650513,-0.2300646435533856 l 7.515310537424289 -24.187939480425403" fill="#c9ff1d" stroke="none" /><path d="M 93.76903079525671 120.05430185196036 l -1.2291386988566613 3.9559685941045863 a25.142519699237273,25.142519699237273 0 0,0 -0.41219204109894964,-0.13197087496424642 l 1.2970520850465515 -3.9342248724806335" fill="#ff1e03" stroke="none" /><path d="M 93.42475214034765 119.94407469862007 l -5.267090605931268 15.97616557296554 a37.8220126579996,37.8220126579996 0 0,0 -0.6165533187649823,-0.20916836093340266 l 5.541313657633476 -15.883134225134015" fill="#ffcc13" stroke="none" /><path d="M 93.08242187328487 119.8279376855182 l -3.4866253541660015 9.993756339110478 a31.5845038677221,31.5845038677221 0 0,0 -0.5117899454000273,-0.1835096658063684 l 3.6581348601957555 -9.932259132264152" fill="#ff790b" stroke="none" /><path d="M 92.7421414339146 119.70592522655815 l -9.247763879623635 25.108748243770115 a47.7576227483366,47.7576227483366 0 0,0 -0.7689654493766068,-0.29075693519629026 l 9.678599549760525 -24.94584305846719" fill="#b8ff1f" stroke="none" /><path d="M 92.40401165467489 119.57807347666478 l -2.620156458754565 6.753250971142594 a28.243729602048358,28.243729602048358 0 0,0 -0.45173683368098677,-0.17975540890740727 l 2.73601436847741 -6.707148717829121" fill="#ff4a06" stroke="none" /><path d="M 92.06813273071674 119.44442032107085 l -4.642738443529756 11.381350024146876 a33.29187327575326,33.29187327575326 0 0,0 -0.5287519002027363,-0.22101833716779262 l 4.837961803229954 -11.29974664395911" fill="#ff900d" stroke="none" /><path d="M 91.7346041902142 119.30500536409082 l -2.7310874378247845 6.378842447519145 a27.93890982527633,27.93890982527633 0 0,0 -0.4404759721786001,-0.19309172180749992 l 2.840484084661129 -6.330886172417193" fill="#ff4606" stroke="none" /><path d="M 91.40352486487194 119.15986991738527 l -7.350123937489202 16.381995679076084 a38.95533637461909,38.95533637461909 0 0,0 -0.6094321302241884,-0.2797604002275192 l 7.63102406348081 -16.253048208514493" fill="#ffdb14" stroke="none" /><path d="M 91.07499286063937 119.00905698771935 l -3.1464999294754517 6.701618893667189 a28.403523323536305,28.403523323536305 0 0,0 -0.44077849691905446,-0.21160046458629483 l 3.261391094394748 -6.6464641525813315" fill="#ff4d07" stroke="none" /><path d="M 90.7491055286396 118.85261126421891 l -7.241938497008635 14.758513536843774 a37.43956796913035,37.43956796913035 0 0,0 -0.5761166708223906,-0.28887685873624414 l 7.494909075513785 -14.631668837198228" fill="#ffc712" stroke="none" /><path d="M 90.42595943632237 118.69057910512821 l -15.401317120661941 30.066671856289204 a54.781730647865984,54.781730647865984 0 0,0 -0.8355755572311699,-0.4371336398036628 l 15.916583580419607 -29.797108797540826" fill="#6aff28" stroke="none" /><path d="M 90.10565033884886 118.52300852407294 l -3.3171467795990384 6.20996226920947 a28.04039019816441,28.04039019816441 0 0,0 -0.42378000929521525,-0.23107865009981826 l 3.4235496007628954 -6.1519429673498855" fill="#ff4806" stroke="none" /><line stroke="#e1ed5e" stroke-width="0.3" x1="58.666819895761336" x2="56.23545636021788" y1="174.27360380694188" y2="178.64263932499728" /><path d="M 58.180547188652646 175.14741091055294 a86.0,86.0 0 0,1 -31.652253787137756,-30.449443065178592" fill="none" id="id68" stroke="none" /><text fill="#e1ed5e" style="font-size:6.75px; font-family:Arial;" text-anchor="middle"><textPath startOffset="22.20632615414155" xlink:href="#id68">August</textPath></text><path d="M 89.7882731507175 118.34994917583269 l -3.455158773469341 6.208743028810025 a28.105393173335255,28.105393173335255 0 0,0 -0.42071261905724866,-0.23889160502559395 l 3.561520159447797 -6.148348257989798" fill="#ff4906" stroke="none" /><path d="M 89.4739219176387 118.17145234162733 l -9.686659148273225 16.722340807769214 a40.32532140860816,40.32532140860816 0 0,0 -0.5976445539745657,-0.353098936825157 l 9.973071573276172 -16.55312329865031" fill="#ffec16" stroke="none" /><path d="M 89.1626897886671 117.98757091392108 l -3.5823434110043797 5.945908614489487 a27.941686651400133,27.941686651400133 0 0,0 -0.4098390798859523,-0.25175663670059334 l 3.684161690822641 -5.883363510960516" fill="#ff4606" stroke="none" /><path d="M 88.8546689885994 117.79835938074946 l -10.371480876804467 16.56257169635547 a40.541913846264805,40.541913846264805 0 0,0 -0.5882789966096521,-0.37546748909366795 l 10.655041675461044 -16.381589778438" fill="#ffef16" stroke="none" /><path d="M 88.54995079064634 117.60387380957326 l -6.8482686718884445 10.528868069448508 a33.56008943543879,33.56008943543879 0 0,0 -0.481547812354639,-0.31914363202902213 l 7.028491182983045 -10.409426416328168" fill="#ff940d" stroke="none" /><path d="M 88.24862548938628 117.40417183066458 l -15.048217872568285 22.286905192487005 a47.89154149912548,47.89154149912548 0 0,0 -0.6792459962053176,-0.4671915898856779 l 15.429620753396494 -22.024572813236226" fill="#b7ff1f" stroke="none" /><path d="M 87.95078237400918 117.19931262002967 l -3.9398566946702522 5.623836258346133 a27.866586126688183,27.866586126688183 0 0,0 -0.3904940363442699,-0.27860712667192955 l 4.036078058863409 -5.555184869829986" fill="#ff4506" stroke="none" /><path d="M 87.65650970185807 116.9893568818739 l -11.694180435063874 16.09565852554964 a40.89532808020339,40.89532808020339 0 0,0 -0.5659427133224203,-0.41867088953651854 l 11.969508118804859 -15.891977687273354" fill="#fff316" stroke="none" /><path d="M 87.36589467227662 116.77436683061367 l -4.1804622423882325 5.550421288753515 a27.948628716709642,27.948628716709642 0 0,0 -0.38179326937266406,-0.29274279845476237 l 4.275384240254383 -5.477639148471386" fill="#ff4606" stroke="none" /><path d="M 87.07902340077011 116.55440617244103 l -8.82832830167183 11.310889034366234 a35.34836545916803,35.34836545916803 0 0,0 -0.476432856566955,-0.37850707557710783 l 9.021718650956144 -11.157248044783994" fill="#ffac0f" stroke="none" /><path d="M 86.79598089348748 116.32954008644617 l -3.047026389317285 3.768287456072739 a25.846066463513587,25.846066463513587 0 0,0 -0.34354329569457037,-0.2827127440481389 l 3.111439813556544 -3.7152795931674243" fill="#ff2803" stroke="none" /><path d="M 86.51685102203217 116.09983520530335 l -11.041097424555506 13.18385262311583 a38.196505526605236,38.196505526605236 0 0,0 -0.5004370164040169,-0.42648328212871794 l 11.26639991753658 -12.99184495076416" fill="#ffd113" stroke="none" /><path d="M 86.24171649860922 115.8653595955263 l -4.543176614354202 5.238962453814015 a27.934492147352096,27.934492147352096 0 0,0 -0.3605646530576505,-0.31815638419001635 l 4.63268362031844 -5.1599829278517095" fill="#ff4606" stroke="none" /><path d="M 85.97065885151581 115.62618273729859 l -30.2698738254651 33.715238287066306 a66.3098505202041,66.3098505202041 0 0,0 -0.8427680466013332,-0.7698486287327931 l 30.84574142153329 -33.18919689174694" fill="#37ff74" stroke="none" /><path d="M 85.70375840098266 115.38237550388516 l -4.587373556722013 4.93589186621899 a27.738473466885445,27.738473466885445 0 0,0 -0.3469477613548537,-0.3280607637483983 l 4.6716571524676835 -4.85619646572466" fill="#ff4306" stroke="none" /><path d="M 85.44109423537348 115.13401014063109 l -16.187821004163965 16.82727061995123 a44.349573558845265,44.349573558845265 0 0,0 -0.5456054495733758,-0.5339897671324689 l 16.475076406113136 -16.54613074989619" fill="#e0ff1b" stroke="none" /><path d="M 85.18274418774928 114.88116024355367 l -4.493081213051452 4.5124591466820885 a27.367893398726988,27.367893398726988 0 0,0 -0.33096824290892873,-0.3352690826926825 l 4.5700900810159135 -4.434449570008741" fill="#ff3e05" stroke="none" /><path d="M 84.9287848128048 114.62390073753433 l -4.970112237123152 4.822599047742753 a27.925278133395842,27.925278133395842 0 0,0 -0.3317701878667961,-0.3478597155786037 l 5.052388976368905 -4.736332215581649" fill="#ff4606" stroke="none" /><path d="M 84.67929136418377 114.36230785411684 l -10.436005159401176 9.78317142041817 a35.3045673380335,35.3045673380335 0 0,0 -0.41180859921942325,-0.446936901266559 l 10.602860166616331 -9.60208326435027" fill="#ffab0f" stroke="none" /><path d="M 84.4343377721795 114.09645910891817 l -19.763077951455184 17.89769147830585 a47.66283200201951,47.66283200201951 0 0,0 -0.5454923748754089,-0.6128664658974723 l 20.068229175978928 -17.55485084266751" fill="#b9ff1f" stroke="none" /><path d="M 84.19399662182784 113.82643327865904 l -4.824822502913443 4.220553723911697 a27.410303106799617,27.410303106799617 0 0,0 -0.307592535335836,-0.35779960954750917 l 4.896757547820062 -4.13687701520266" fill="#ff3f05" stroke="none" /><path d="M 83.95833913139862 113.55231037782056 l -15.015874672305921 12.685706038821584 a40.657152130402636,40.657152130402636 0 0,0 -0.44704281237367105,-0.5384918658516505 l 15.232013484573127 -12.42535291585617" fill="#fff016" stroke="none" /><path d="M 83.72743513129214 113.27417163493433 l -4.914524480684423 4.0089710495572115 a27.34227086676644,27.34227086676644 0 0,0 -0.29436179460571926,-0.3672615989656624 l 4.982804187345003 -3.9237816170132915" fill="#ff3e05" stroke="none" /><path d="M 83.50135304334701 112.99209946851258 l -11.147645986398976 8.77837594049845 a35.18907661515714,35.18907661515714 0 0,0 -0.370646850269707,-0.4791110176718173 l 11.297099653886752 -8.58518692871338" fill="#ffaa0f" stroke="none" /><path d="M 83.28015986056508 112.70617746262583 l -7.632395936637533 5.800209596933287 a30.58623487621486,30.58623487621486 0 0,0 -0.31494898505711016,-0.4219256337115552 l 7.731106188389727 -5.667971083712424" fill="#ff6b09" stroke="none" /><path d="M 83.06392112726016 112.41649034213515 l -11.393632365933376 8.353109789843817 a35.12760778232568,35.12760778232568 0 0,0 -0.3533171718633837,-0.4907266497251155 l 11.535729330172368 -8.155749534667564" fill="#ffa90f" stroke="none" /><path d="M 82.85270091963577 112.12312394758628 l -6.304873998457008 4.457539849219488 a28.72146991471177,28.72146991471177 0 0,0 -0.28193417872327375,-0.40614721209554755 l 6.380669084342416 -4.348351374936929" fill="#ff5107" stroke="none" /><path d="M 82.6465618267979 111.8261652097733 l -22.059122953082642 15.033034365991595 a47.69451306370472,47.69451306370472 0 0,0 -0.45649757213104764,-0.6824019319319766 l 22.31462363062442 -14.651095519853797" fill="#b9ff1f" stroke="none" /><path d="M 82.44556493220864 111.52570212397912 l -16.04859653669922 10.537014861235889 a40.198597161867326,40.198597161867326 0 0,0 -0.3747947534932818,-0.5816897805214502 l 16.227596153569547 -10.25920348079299" fill="#ffeb16" stroke="none" /><path d="M 82.24976979558568 111.22182372390057 l -5.394084754113778 3.410179336569433 a27.38165130997674,27.38165130997674 0 0,0 -0.2484367999444193,-0.4005592255096178 l 5.451986193726153 -3.316823779694551" fill="#ff3e05" stroke="none" /><path d="M 82.05923443525364 110.91462005526583 l -14.951878038684232 9.096271132687239 a38.501451522746535,38.501451522746535 0 0,0 -0.3395811969233376,-0.5691576187174683 l 15.106240111305802 -8.83755142008366" fill="#ffd513" stroke="none" /><line stroke="#e1ed5e" stroke-width="0.3" x1="26.63291911575756" x2="22.317208475507996" y1="142.92168965132927" y2="145.44649492493687" /><path d="M 25.769776987707644 143.4266507060508 a86.0,86.0 0 0,1 -11.730757126820373,-40.83630448921669" fill="none" id="id69" stroke="none" /><text fill="#e1ed5e" style="font-size:6.75px; font-family:Arial;" text-anchor="middle"><textPath startOffset="21.46611528233685" xlink:href="#id69">September</textPath></text><path d="M 81.87401531095188 110.60418214915194 l -6.44029874858352 3.7677457085241164 a28.46145801402838,28.46145801402838 0 0,0 -0.24374935287694907,-0.42499754243506244 l 6.504200097612846 -3.6563283202307457" fill="#ff4e07" stroke="none" /><path d="M 81.69416730710424 110.29060199501025 l -6.0171140140108506 3.3825134598118765 a27.902684866297626,27.902684866297626 0 0,0 -0.2317564990629744,-0.42070536402498915 l 6.0744469225253415 -3.2784375773890657" fill="#ff4606" stroke="none" /><path d="M 81.51974371655577 109.97397251340807 l -23.49382984148305 12.679846506434151 a47.69716367045926,47.69716367045926 0 0,0 -0.38372934128148467,-0.7258713015265854 l 23.708611690989418 -12.27356018982144" fill="#b9ff1f" stroke="none" /><path d="M 81.35079622478065 109.6543875284942 l -2.8582958958755915 1.4796929982906404 a24.2185939162264,24.2185939162264 0 0,0 -0.1884683254140927,-0.3718658860366752 l 2.8833428910759507 -1.4302729005512802" fill="#ff1001" stroke="none" /><path d="M 81.18737489456691 109.33194174019688 l -19.80472120450369 9.824067796253232 a43.10744874592041,43.10744874592041 0 0,0 -0.3240176381043549,-0.6675723053492263 l 19.970892099222763 -9.48170653493872" fill="#efff19" stroke="none" /><path d="M 81.02952815118164 109.00673069616217 l -5.773339293250081 2.741044748189202 a27.390991543302256,27.390991543302256 0 0,0 -0.1985525801341073,-0.42766459354210434 l 5.819666490224015 -2.6412600873682717" fill="#ff3e05" stroke="none" /><path d="M 80.87730276802145 108.67885076344099 l -20.72134125007953 9.404396573671374 a43.755585207089915,43.755585207089915 0 0,0 -0.30537005261425026,-0.6885288533056405 l 20.88015238742506 -9.046319383873037" fill="#e8ff1a" stroke="none" /><path d="M 80.73074385275274 108.34839909993369 l -7.022205826045043 3.0423684417147765 a28.652932797201537,28.652932797201537 0 0,0 -0.19217797478326418,-0.45425196393161726 l 7.073534782020616 -2.9210419521169992" fill="#ff5007" stroke="none" /><path d="M 80.58989483394504 108.01547362559985 l -6.003264824073375 2.4790700747466117 a27.494996303575615,27.494996303575615 0 0,0 -0.17688105341027865,-0.4390042686546968 l 6.045048491741041 -2.3753664382491095" fill="#ff4006" stroke="none" /><path d="M 80.45479744820244 107.68017299344265 l -4.159333571040134 1.6343857925424214 a25.46892298815341,25.46892298815341 0 0,0 -0.15682273499812446,-0.4094146751877057 l 4.186850585631768 -1.562547550521558" fill="#ff2303" stroke="none" /><path d="M 80.32549172779594 107.34259656027581 l -2.3652879572334258 0.882733889892454 a23.524639824014137,23.524639824014137 0 0,0 -0.13832010889790824,-0.3805975335641158 l 2.3801323271365584 -0.8418885593222211" fill="#ff0601" stroke="none" /><path d="M 80.20201598880116 107.00284435728193 l -9.353579720756379 3.3085016601101467 a30.92147352097946,30.92147352097946 0 0,0 -0.173173752705398,-0.5033239861986822 l 9.409144304405006 -3.147004970822169" fill="#ff700a" stroke="none" /><path d="M 80.0844068197444 106.66101706037122 l -20.843639688646313 6.971413721382408 a42.978578769902086,42.978578769902086 0 0,0 -0.22862096613840852,-0.7036229837372815 l 20.96055290580097 -6.611591837667322" fill="#f1ff19" stroke="none" /><path d="M 79.97269907076064 106.31721596034903 l -6.543477034166089 2.0640104077160495 a27.861284913179105,27.861284913179105 0 0,0 -0.14033228701872436,-0.4586140335489799 l 6.578036093690943 -1.9510694016150218" fill="#ff4506" stroke="none" /><path d="M 79.86692584326677 105.97154293290107 l -16.76080208427224 4.971314785656642 a38.482518617356966,38.482518617356966 0 0,0 -0.18289708138951463,-0.6366887341598042 l 16.84389180254786 -4.682068575992242" fill="#ffd513" stroke="none" /><path d="M 79.76711848015287 105.62410040840567 l -6.177962380444852 1.7172779227166306 a27.412196397338572,27.412196397338572 0 0,0 -0.12245670836816493,-0.45570696685160583 l 6.206607165154789 -1.610680022689486" fill="#ff3f05" stroke="none" /><path d="M 79.67330655649465 105.27499134158121 l -3.055534136461583 0.792943336236055 a24.15674642528715,24.15674642528715 0 0,0 -0.1009851914087355,-0.403385641051656 l 3.0687306421653795 -0.7402298557870071" fill="#ff0f01" stroke="none" /><path d="M 79.58551787078972 104.9243191809786 l -9.482512654451211 2.2873428114726697 a30.75448529544348,30.75448529544348 0 0,0 -0.11970734395936253,-0.5156961047446688 l 9.52048056434113 -2.1237780493794265" fill="#ff6e0a" stroke="none" /><path d="M 79.50377843672027 104.57218783832718 l -10.965639301178756 2.4461563560649418 a32.235164716276884,32.235164716276884 0 0,0 -0.11614784405395621,-0.5426040598117875 l 11.006121183957154 -2.25703847683699" fill="#ff820c" stroke="none" /><path d="M 79.4281124754447 104.21870165774334 l -14.97751419742171 3.0714568071654527 a36.289204637660255,36.289204637660255 0 0,0 -0.12022106661437047,-0.6130046286110432 l 15.028165197011747 -2.813188451486455" fill="#ffb811" stroke="none" /><path d="M 79.35854240842038 103.8639653848113 l -6.229644181864005 1.1661545397953417 a27.337853188842207,27.337853188842207 0 0,0 -0.08260400207814252,-0.46328711167224584 l 6.248794626281336 -1.0587486773898822" fill="#ff3e05" stroke="none" /><path d="M 79.29508885075956 103.50808413554451 l -6.834685234301822 1.1580175673815494 a27.932093979336088,27.932093979336088 0 0,0 -0.07623898209100463,-0.4747402142564842 l 6.853605970754118 -1.040198123431851" fill="#ff4606" stroke="none" /><path d="M 79.23777060512086 103.15116336523772 l -15.331981150721804 2.3269937153563127 a36.507564146486594,36.507564146486594 0 0,0 -0.08894972212511296,-0.6221141493707729 l 15.369764923863515 -2.0627340940051395" fill="#ffbb11" stroke="none" /><path d="M 79.18660465613746 102.79330883721812 l -26.45455517747018 3.5503934625299998 a47.69173623758091,47.69173623758091 0 0,0 -0.10219315009945443,-0.8145799550299093 l 26.51174983681648 -3.0944957532126818" fill="#b9ff1f" stroke="none" /><path d="M 79.1416061653843 102.43462659150553 l -3.0419352915554136 0.35505977158074853 a24.062586775816367,24.062586775816367 0 0,0 -0.044478773265162655,-0.41181819962833355 l 3.047596366321628 -0.30264525006763293" fill="#ff0e01" stroke="none" /><path d="M 79.10278846688536 102.07522291339032 l -6.791276604311344 0.6744159524875089 a27.824681296092606,27.824681296092606 0 0,0 -0.04322816479746343,-0.4770191963951405 l 6.801879365385883 -0.5574153675438025" fill="#ff4506" stroke="none" /><path d="M 79.07016306316243 101.71520430193888 l -6.8772321624982595 0.5635905442621073 a27.90028669828161,27.90028669828161 0 0,0 -0.03510578994382234,-0.47899061210345767 l 6.885914511106416 -0.4451267956618886" fill="#ff4606" stroke="none" /><path d="M 79.04373962182676 101.35467743843564 l -14.335736159095223 0.9267062914678859 a35.36565751275717,35.36565751275717 0 0,0 -0.03404138055212401,-0.6078317174641993 l 14.34956389053488 -0.6798028576682491" fill="#ffac0f" stroke="none" /><path d="M 79.0235259727143 100.99374915477108 l -6.629809930007267 0.3140836732459245 a27.637245532735896,27.637245532735896 0 0,0 -0.018422023396475213,-0.4753905674421417 l 6.634234086254943 -0.19991585878978588" fill="#ff4206" stroke="none" /><path d="M 79.0095281055655 100.63252640178507 l -9.974754199136148 0.30057901575538337 a30.979281992102273,30.979281992102273 0 0,0 -0.011474043495145183,-0.5331537148312013 l 9.9784503053163 -0.12883548513405327" fill="#ff710a" stroke="none" /><line stroke="#e1ed5e" stroke-width="0.3" x1="15.007084014347285" x2="10.007500721073583" y1="101.09737516637583" y2="101.16192664675087" /><path d="M 14.007167355692545 101.11028546245083 a86.0,86.0 0 0,1 10.666146001902526,-42.60595125391555" fill="none" id="id70" stroke="none" /><text fill="#e1ed5e" style="font-size:6.75px; font-family:Arial;" text-anchor="middle"><textPath startOffset="22.20632615414155" xlink:href="#id70">October</textPath></text><path d="M 79.00175016825051 100.2711162175752 l -26.695443528324162 0.3446748054663329 a47.69766854793631,47.69766854793631 0 0,0 -0.003533494868781495,-0.8210597662791256 l 26.697421320482448 0.11489443901646808" fill="#b9ff1f" stroke="none" /><path d="M 79.00019446554 99.90962569577889 l -16.222951520640937 -0.06981673966861288 a37.223101750842964,37.223101750842964 0 0,0 0.008272378615606377,-0.6407048402597855 l 16.219346134907614 0.3490578379888703" fill="#ffc512" stroke="none" /><path d="M 79.00486145842228 99.54816195383935 l -10.141145192877325 -0.21824839215549222 a31.14349339151445,31.14349339151445 0 0,0 0.01614761294120991,-0.5358606607536466 l 10.13588588548047 0.39277920033413316" fill="#ff730a" stroke="none" /><path d="M 79.01574976396665 99.18683210126434 l -6.928912982064611 -0.26850469026873064 a27.934113489244304,27.934113489244304 0 0,0 0.02275485185699613,-0.4803189584427859 l 6.923264521974116 0.38773475533452545" fill="#ff4606" stroke="none" /><path d="M 79.03285615573316 98.82574320788736 l -7.41689226161357 -0.4153801862216387 a28.428514758650532,28.428514758650532 0 0,0 0.03156838870447847,-0.4883490007586978 l 7.408643281904679 0.5429882512333484" fill="#ff4d07" stroke="none" /><path d="M 79.05617556472873 98.46500227214037 l -6.31019931415567 -0.4624819903120484 a27.327124542454786,27.327124542454786 0 0,0 0.03842130751642225,-0.46883726930362973 l 6.301303522819751 0.5710331768234562" fill="#ff3d05" stroke="none" /><path d="M 79.08570108090925 98.10471618934814 l -6.979100933349676 -0.6324561517961675 a28.00769938152509,28.00769938152509 0 0,0 0.04764359642553059,-0.4797645141051886 l 6.967180211241916 0.7524961966057867" fill="#ff4706" stroke="none" /><path d="M 79.12142395522702 97.74499172005258 l -32.83697790086245 -3.546585595497709 a54.027948574622684,54.027948574622684 0 0,0 0.10782344060488992,-0.923765392437173 l 32.77106410725397 4.111294726259744" fill="#72ff27" stroke="none" /><path d="M 79.16333360222342 97.38593545837743 l -3.1449681541376826 -0.39455206410276517 a24.169620800952053,24.169620800952053 0 0,0 0.05534152711260842,-0.4123586577254087 l 3.1377106279672407 0.44862906389283386" fill="#ff1001" stroke="none" /><path d="M 79.21141760316559 97.0276538004421 l -13.178209709345214 -1.8842170571724002 a34.31223065688166,34.31223065688166 0 0,0 0.08863029981367286,-0.5839629377417521 l 13.143823516092239 2.110779107306244" fill="#ff9e0e" stroke="none" /><path d="M 79.26566170972629 96.67025291283419 l -6.391520510005997 -1.026420351728141 a27.473412791431507,27.473412791431507 0 0,0 0.07900325029338295,-0.46628165534913774 l 6.372905398192391 1.1362877953931074" fill="#ff3f06" stroke="none" /><path d="M 79.32604984820605 96.31383870115002 l -12.931206215381863 -2.305631558004546 a34.13514488180458,34.13514488180458 0 0,0 0.10811783100215351,-0.5775697764522116 l 12.88960266046985 2.5278794119193297" fill="#ff9c0e" stroke="none" /><path d="M 79.3925641242962 95.95851677861259 l -9.91944264857291 -1.9453784193009382 a31.108404406859123,31.108404406859123 0 0,0 0.10757686814224739,-0.5245830142086907 l 9.884486484515667 2.115837089673031" fill="#ff730a" stroke="none" /><path d="M 79.46518482838121 95.60439243477599 l -10.05135492253311 -2.151556338296235 a31.27905299410375,31.27905299410375 0 0,0 0.1172303352331756,-0.5255206062915959 l 10.012830200297897 2.3242551141377903" fill="#ff750a" stroke="none" /><path d="M 79.54389044137918 95.25157060432595 l -26.010514346663975 -6.037760531461871 a47.70208622586054,47.70208622586054 0 0,0 0.1925510605277789,-0.7982484562106791 l 25.90273048587538 6.484594219331948" fill="#b9ff1f" stroke="none" /><path d="M 79.62865764111835 94.90015583598534 l -6.986475263995545 -1.749022449008433 a28.202077210191312,28.202077210191312 0 0,0 0.12194533616962763,-0.46990512489489844 l 6.95533359595561 1.869023999452195" fill="#ff4a06" stroke="none" /><path d="M 79.71946130924805 94.55025226153421 l -9.067409747675251 -2.436577081094469 a30.389080221424834,30.389080221424834 0 0,0 0.14009833313114622,-0.5040082447912975 l 9.024124643977744 2.592296629304709" fill="#ff6909" stroke="none" /><path d="M 79.81627453868168 94.20196356495316 l -2.9923112703611534 -0.8595801505428365 a24.11332696226041,24.11332696226041 0 0,0 0.11803370536845939,-0.39795097680437147 l 2.977071667880987 0.9109605140937471" fill="#ff0f01" stroke="none" /><path d="M 79.91906864156998 93.8553929516997 l -9.47024046657803 -2.897819094212753 a30.903676589913267,30.903676589913267 0 0,0 0.16002882669304772,-0.5073351124373576 l 9.41895615611678 3.060404373076525" fill="#ff700a" stroke="none" /><path d="M 80.02781315780177 93.51064311812611 l -3.896195197276232 -1.265950559963101 a25.09670206819452,25.09670206819452 0 0,0 0.1370312274544162,-0.40970592842486037 l 3.8738266760500433 1.3328295913102834" fill="#ff1d02" stroke="none" /><path d="M 80.14247586403 93.16781622104843 l -9.717209620645484 -3.3433051115666292 a31.27627616797995,31.27627616797995 0 0,0 0.1795361302757885,-0.5075728168849707 l 9.658220409559886 3.510075554878211" fill="#ff750a" stroke="none" /><path d="M 80.2630227832202 92.82701384747504 l -37.622170747389454 -13.672980762703832 a61.029715645792386,61.029715645792386 0 0,0 0.3673274296513612,-0.9842548877575374 l 37.381238729236465 14.31855878749071" fill="#30ff35" stroke="none" /><path d="M 80.38941819471856 92.48833698450439 l -2.4230195890728297 -0.9281166063190422 a23.594691573955533,23.594691573955533 0 0,0 0.14854144831566835,-0.37802178377308976 l 2.40668459087547 0.9696873949878955" fill="#ff0701" stroke="none" /><path d="M 80.52162464483688 92.15188598940014 l -13.632650055187737 -5.492788281819601 a35.69761445392091,35.69761445392091 0 0,0 0.2345474583113685,-0.5679752744384957 l 13.536080909990167 5.726638126711409" fill="#ffb110" stroke="none" /><path d="M 80.65960295795067 91.81776055985345 l -6.5311924593395805 -2.7631170350747607 a28.091635262085504,28.091635262085504 0 0,0 0.19223947442250916,-0.4437152117330974 l 6.482662275074393 2.875131391394456" fill="#ff4806" stroke="none" /><path d="M 80.803312248108 91.48605970444005 l -6.408934034551611 -2.8424321129553523 a28.010981085125948,28.010981085125948 0 0,0 0.19927503208100947,-0.4390761182840226 l 6.35905668550725 2.952330240081447" fill="#ff4706" stroke="none" /><path d="M 80.95270993114464 91.15688171328213 l -5.7107410910445076 -2.651335638317482 a27.29620079698516,27.29620079698516 0 0,0 0.20152629870584765,-0.42446578068830887 l 5.664256598496908 2.7492438346463217" fill="#ff3d05" stroke="none" /><path d="M 81.10775173730289 90.83032412892265 l -14.587308781065795 -7.080199852010496 a37.21477127247155,37.21477127247155 0 0,0 0.284675255959597,-0.5738879448949604 l 14.463273512152785 7.3302473854044194" fill="#ffc412" stroke="none" /><path d="M 81.26839172434947 90.50648371742162 l -9.065707959514878 -4.594663995756977 a31.16356227122739,31.16356227122739 0 0,0 0.24662333707644593,-0.476397788600126 l 8.985275189278317 4.750034506617439" fill="#ff730a" stroke="none" /><path d="M 81.43458229118936 90.18545643968196 l -23.598077896727645 -12.475041881082955 a47.69261977316576,47.69261977316576 0 0,0 0.38992554962406734,-0.7224728240256076 l 23.379844247885107 12.879395688441036" fill="#b9ff1f" stroke="none" /><path d="M 81.6062741919709 89.86733742301443 l -8.265607085338097 -4.553324783884348 a30.436791143006545,30.436791143006545 0 0,0 0.2567449987886622,-0.45672070446820107 l 8.186004445257005 4.694928998287335" fill="#ff6909" stroke="none" /><line stroke="#e1ed5e" stroke-width="0.3" x1="26.266209847984243" x2="21.928928074336255" y1="57.71137044288968" y2="55.22380399835378" /><path d="M 25.398753493254645 57.2138571539825 a86.0,86.0 0 0,1 29.58750427330803,-30.4925239686951" fill="none" id="id71" stroke="none" /><text fill="#e1ed5e" style="font-size:6.75px; font-family:Arial;" text-anchor="middle"><textPath startOffset="21.46611528233685" xlink:href="#id71">November</textPath></text><path d="M 81.78341655067845 89.55222093294921 l -3.872763502082332 -2.2211507202356895 a25.46450531022918,25.46450531022918 0 0,0 0.22134757565625585,-0.3783547576673895 l 3.8339562519557515 2.2874848902569695" fill="#ff2203" stroke="none" /><path d="M 81.96595687620814 89.24020034530311 l -11.346542095352916 -6.769780846232776 a34.212643574532535,34.212643574532535 0 0,0 0.3060959631675826,-0.5031412809331218 l 11.228330333899116 6.964089900372973" fill="#ff9d0e" stroke="none" /><path d="M 82.15384107792192 88.93136811851018 l -9.346179852728614 -5.796733332911712 a31.997872302060976,31.997872302060976 0 0,0 0.29433837655256434,-0.4655726261921372 l 9.245013879930088 5.956753606818065" fill="#ff7f0b" stroke="none" /><path d="M 82.34701348167596 88.62581576622439 l -5.82034913749607 -3.7501712996868224 a27.92388972033394,27.92388972033394 0 0,0 0.26381874640041125,-0.4018140503316461 l 5.7549337557377385 3.8498034139961375" fill="#ff4606" stroke="none" /><path d="M 82.54541684631803 88.32363383020207 l -22.189478610837266 -14.84380778938171 a47.6966587929822,47.6966587929822 0 0,0 0.4623748952189107,-0.6784781046683932 l 21.930679249949616 15.223563917320517" fill="#b9ff1f" stroke="none" /><path d="M 82.7489923806493 88.02491185347247 l -3.174458304176907 -2.203605658799513 a24.864332209379903,24.864332209379903 0 0,0 0.24708915948102572,-0.3494900931026551 l 3.136056524892003 2.257922252233955" fill="#ff1a02" stroke="none" /><path d="M 82.95767976084542 87.72973835380427 l -10.59945313178647 -7.631476313583259 a34.06092789267747,34.06092789267747 0 0,0 0.34667113062582844,-0.4728590325767777 l 10.466519388647008 7.8127977898315395" fill="#ff9b0e" stroke="none" /><path d="M 83.17141714833178 87.43820079747577 l -5.885963163804352 -4.393613415275488 a28.34495753619791,28.34495753619791 0 0,0 0.2952249612615451,-0.3884814431392184 l 5.809462262318697 4.494279634295733" fill="#ff4c07" stroke="none" /><path d="M 83.39014120810768 87.1503855733568 l -5.880343452280313 -4.549114294392481 a28.434573288375194,28.434573288375194 0 0,0 0.3028226802855611,-0.3845540518380058 l 5.8011666914007805 4.649660740183533" fill="#ff4d07" stroke="none" /><path d="M 83.6137871275137 86.86637796730984 l -5.897783861009013 -4.727099828603621 a28.558394489622962,28.558394489622962 0 0,0 0.3107445811788614,-0.38093611367241453 l 5.8155407877537595 4.827920111884118" fill="#ff4f07" stroke="none" /><path d="M 83.84228863543731 86.58626213691792 l -18.344159693729363 -15.228873935071771 a44.841702879604746,44.841702879604746 0 0,0 0.4981473026178879,-0.5896492825520548 l 18.079301777624348 15.542382167252942" fill="#daff1b" stroke="none" /><path d="M 84.07557802195018 86.31012108654704 l -20.24308287511843 -17.402537673100692 a47.69514416055103,47.69514416055103 0 0,0 0.5405634465732785,-0.6179574652735225 l 19.940527564967304 17.748410694577156" fill="#b9ff1f" stroke="none" /><path d="M 84.31358615837235 86.03803664274999 l -4.853183748341319 -4.3196599518830405 a27.497142032853098,27.497142032853098 0 0,0 0.31773125615026937,-0.3508467888455296 l 4.778108851575005 4.402559527998126" fill="#ff4006" stroke="none" /><path d="M 84.5562425177563 85.77008943001954 l -8.481595727925457 -7.8149601117391505 a32.53304242773941,32.53304242773941 0 0,0 0.383011009707558,-0.4085694404856559 l 8.34581739624744 7.9597989691028594" fill="#ff860c" stroke="none" /><path d="M 84.80347519578584 85.50635884689758 l -4.970882209799114 -4.740964390963248 a27.869236733442722,27.869236733442722 0 0,0 0.33408013472025566,-0.3442989453021344 l 4.888537811375742 4.825827531815504" fill="#ff4506" stroke="none" /><path d="M 85.05521093208273 85.24692304244772 l -6.948940220602296 -6.8597990498278145 a30.764456625615317,30.764456625615317 0 0,0 0.37527392451372127,-0.3736623790201955 l 6.829830495921261 6.978397279498122" fill="#ff6e0a" stroke="none" /><path d="M 85.31137513191541 84.99185889309783 l -5.035169176637806 -5.144697354501835 a28.19866928722119,28.19866928722119 0 0,0 0.34982027891203443,-0.3365268311511329 l 4.945865654113344 5.230607272415279" fill="#ff4a06" stroke="none" /><path d="M 85.57189188830299 84.74124197986013 l -11.498988054905572 -12.161003705263024 a37.73668836437729,37.73668836437729 0 0,0 0.4758275033608329,-0.44222980681921664 l 11.287952667749883 12.357138098156886" fill="#ffcb12" stroke="none" /><path d="M 85.83668400450813 84.49514656593477 l -9.246757124255865 -10.122602220950204 a34.71020032817036,34.71020032817036 0 0,0 0.44460297650573977,-0.39916894214618887 l 9.071143160154154 10.280270171865675" fill="#ffa30f" stroke="none" /><path d="M 86.10567301691215 84.25364557470407 l -4.837631243959878 -5.4824574258974685 a28.311635622712274,28.311635622712274 0 0,0 0.36819444090550657,-0.3192945909049873 l 4.742543004407598 5.564917010222135" fill="#ff4b07" stroke="none" /><path d="M 86.37877921826538 84.01681056812373 l -7.819530579978225 -9.175465292783052 a33.0554643971222,33.0554643971222 0 0,0 0.43624156285613724,-0.3653397632562907 l 7.660431480162977 9.308706213433155" fill="#ff8d0d" stroke="none" /><path d="M 86.65592168130627 83.78471172551755 l -3.0704445342478355 -3.7311039447280074 a25.832056113525308,25.832056113525308 0 0,0 0.3457763419810992,-0.27959375474928505 l 3.0057647937022356 3.783403796741429" fill="#ff2803" stroke="none" /><path d="M 86.93701828274178 83.55741782278169 l -1.754167568395771 -2.2079985274611955 a23.81999314809138,23.81999314809138 0 0,0 0.3232344087395995,-0.25228958308049076 l 1.7159006044967458 2.237866499764908" fill="#ff0a01" stroke="none" /><path d="M 87.22198572758235 83.33499621200491 l -6.824126412673616 -8.89998164757458 a32.21509583656395,32.21509583656395 0 0,0 0.44296346808809134,-0.33363090056817524 l 6.669916790827134 9.016129137648608" fill="#ff820c" stroke="none" /><path d="M 87.51073957382395 83.11751280151077 l -2.1283470723920344 -2.877015209666994 a24.578697776735968,24.578697776735968 0 0,0 0.3422931087014917,-0.24869050051479633 l 2.078508647336761 2.913224944998458" fill="#ff1602" stroke="none" /><path d="M 87.80319425747018 82.90503203632743 l -1.992224843932698 -2.7922900964722626 a24.430137579112497,24.430137579112497 0 0,0 0.34442871394582064,-0.2412943251081016 l 1.943864990403217 2.8261692643443066" fill="#ff1302" stroke="none" /><path d="M 88.09926311788651 82.69761687909137 l -2.3096629577612546 -3.3579999096878725 a25.07562343352747,25.07562343352747 0 0,0 0.357739955500679,-0.24154761487081164 l 2.2515183078540386 3.39725943685735" fill="#ff1d02" stroke="none" /><path d="M 88.39885842347998 82.49532879139004 l -8.487505821830819 -12.806584404849405 a36.36380028489514,36.36380028489514 0 0,0 0.5247347882913275,-0.3413021027524114 l 8.265804007755202 12.950785431761352" fill="#ffb911" stroke="none" /><path d="M 88.70189139769569 82.29822771554957 l -2.5318324115010724 -3.966851655297604 a25.70596296363079,25.70596296363079 0 0,0 0.3750387962802357,-0.23484925982455931 l 2.463174462848594 4.009845256445094" fill="#ff2603" stroke="none" /><path d="M 89.00827224532344 82.1063720568725 l -6.996039129863074 -11.388975787911967 a34.366126327557296,34.366126327557296 0 0,0 0.506716968960389,-0.30529130410377253 l 6.798960094685039 11.50771370147436" fill="#ff9f0e" stroke="none" /><line stroke="#e1ed5e" stroke-width="0.3" x1="56.76296977257108" x2="54.21961505331056" y1="26.818313649435495" y2="22.513508569990535" /><path d="M 56.25429882871898 25.957352633546506 a86.0,86.0 0 0,1 42.26535254187918,-11.944610805530505" fill="none" id="id72" stroke="none" /><text fill="#e1ed5e" style="font-size:6.75px; font-family:Arial;" text-anchor="middle"><textPath startOffset="22.20632615414155" xlink:href="#id72">December</textPath></text><path d="M 89.3179101791058 81.91981866633112 l -2.1929561172665832 -3.7117310303274738 a25.311148776573685,25.311148776573685 0 0,0 0.3770195258270764,-0.21839404428557832 l 2.1287398589741846 3.748929232003099" fill="#ff2003" stroke="none" /><path d="M 89.63071344664047 81.73862282372117 l -7.156420044694041 -12.603189717589524 a35.49326529508285,35.49326529508285 0 0,0 0.5338794050900879,-0.29710331091366843 l 6.938416550531907 12.724508426063377" fill="#ffae10" stroke="none" /><path d="M 89.94658935756843 81.56283822128135 l -5.835591054008839 -10.702013492127834 a33.189635586649594,33.189635586649594 0 0,0 0.5039371290820808,-0.26918576190766735 l 5.650508878398455 10.800877980537251" fill="#ff8f0d" stroke="none" /><path d="M 90.26544431104013 81.39251694778311 l -7.742908552323236 -14.800474132129004 a37.703492670260914,37.703492670260914 0 0,0 0.5776525403776345,-0.29589606732781765 l 7.4869955243568365 14.931562724769327" fill="#ffcb12" stroke="none" /><path d="M 90.58718382345135 81.22770947309562 l -6.012928042192986 -11.99178120641947 a34.41484700409311,34.41484700409311 0 0,0 0.5318384140127816,-0.2609708000071974 l 5.8056183611697785 12.093507166561496" fill="#ffa00e" stroke="none" /><path d="M 90.91171255644093 81.06846463323043 l -4.553238728056556 -9.484713214549345 a31.521015524982417,31.521015524982417 0 0,0 0.4911601467494075,-0.23060627463739353 l 4.38930037000754 9.561684471826746" fill="#ff780b" stroke="none" /><path d="M 91.23893434514133 80.91482961587045 l -6.577184013141645 -14.327786422758658 a36.76530409852323,36.76530409852323 0 0,0 0.5774216529380832,-0.259072264236132 l 6.329580241736787 14.438879017511319" fill="#ffbf11" stroke="none" /><path d="M 91.56875222667455 80.76684994638697 l -4.450530448586846 -10.15243795902384 a32.08508988622225,32.08508988622225 0 0,0 0.5077331667595031,-0.2173848444937208 l 4.275113524037035 10.227542331480347" fill="#ff800b" stroke="none" /><path d="M 91.90106846888425 80.62456947434976 l -7.675479939915193 -18.3623886379937 a40.90201770677437,40.90201770677437 0 0,0 0.6519316710875743,-0.26593929766602936 l 7.358264399239238 18.491788821843308" fill="#fff316" stroke="none" /><path d="M 92.23578459929587 80.48803036053334 l -2.451619250713691 -6.161075899970435 a27.630934564272707,27.630934564272707 0 0,0 0.4434328626167715,-0.17204506155244773 l 2.345203223097242 6.202363665413435" fill="#ff4206" stroke="none" /><path d="M 92.57280143429618 80.3572730644239 l -1.1025379119454772 -2.9158842259137887 a24.117365982076848,24.117365982076848 0 0,0 0.3895731808062804,-0.14348309023426886 l 1.0521824053666287 2.9344305839543803" fill="#ff0f01" stroke="none" /><path d="M 92.91201910852362 80.23233633223022 l -1.0906945478255907 -3.041837064150947 a24.231468291891307,24.231468291891307 0 0,0 0.39383981885677904,-0.13740297955157463 l 1.0381727249055253 3.060160896874731" fill="#ff1001" stroke="none" /><path d="M 93.25333710446033 80.11325718540243 l -5.2115443560994485 -15.361763864789486 a37.22171333778106,37.22171333778106 0 0,0 0.6085168368775745,-0.20061843378066313 l 4.946344696979465 15.44919602282938" fill="#ffc412" stroke="none" /><path d="M 93.59665428221793 80.00007090966166 l -2.128213684320522 -6.647169253613416 a27.979552462179267,27.979552462179267 0 0,0 0.459950036902468,-0.14290871538764724 l 2.0134782747073254 6.682818103883592" fill="#ff4706" stroke="none" /><path d="M 93.94186890950719 79.89281104454417 l -2.7910580449728895 -9.263637689185398 a30.674967092807297,30.674967092807297 0 0,0 0.5068816024864894,-0.1479726393745382 l 2.631186224762979 9.310308657478634" fill="#ff6d0a" stroke="none" /><path d="M 94.28887869178378 79.79150937346287 l -1.8725044168556666 -6.625754543462137 a27.885266593339225,27.885266593339225 0 0,0 0.4630310152693637,-0.12656386757105198 l 1.7581755123625817 6.657004951859485" fill="#ff4506" stroke="none" /><path d="M 94.63758080256005 79.69619591428918 l -1.8007198144032526 -6.818091047853151 a28.051876160767414,28.051876160767414 0 0,0 0.4679201368964734,-0.119283261571363 l 1.6830907888217779 6.848077305593377" fill="#ff4806" stroke="none" /><path d="M 94.98787191387505 79.60689891045804 l -2.959582752214388 -12.041805239545548 a33.400169494581576,33.400169494581576 0 0,0 0.5594946895062081,-0.1324143164576998 l 2.751864375745646 12.090965468144118" fill="#ff920d" stroke="none" /><path d="M 95.33964822691252 79.52364482259891 l -2.2549529008748905 -9.907667651456148 a31.161037883842116,31.161037883842116 0 0,0 0.5240355834098388,-0.11453388142647154 l 2.0840745933115308 9.945015030978489" fill="#ff730a" stroke="none" /><path d="M 95.692805502759 79.44645832069477 l -1.900786416216942 -9.070380465566915 a30.26740474945455,30.26740474945455 0 0,0 0.5108469019743155,-0.10247108273790778 l 1.7443731047754902 9.101755504382034" fill="#ff6709" stroke="none" /><path d="M 96.04723909329186 79.375362276772 l -1.9144080844259843 -9.98896066005345 a31.17075677527543,31.17075677527543 0 0,0 0.5278320565810947,-0.09645793452259771 l 1.7421809067419964 10.020434075926785" fill="#ff730a" stroke="none" /><path d="M 96.40284397218896 79.31037775812273 l -0.6121631942602738 -3.520955205085516 a24.573775221334678,24.573775221334678 0 0,0 0.417368948398001,-0.06886945264081622 l 0.5514650397233871 3.530970920665959" fill="#ff1502" stroke="none" /><path d="M 96.75951476605007 79.25152402106235 l -0.3890288445092513 -2.49090955602818 a23.52110568167475,23.52110568167475 0 0,0 0.40056557173251567,-0.05903295276462056 l 0.3460942923480862 2.49723699295377" fill="#ff0601" stroke="none" /><path d="M 97.11714578562143 79.19881850522333 l -0.47131825604086774 -3.400788196922774 a24.43329306334409,24.43329306334409 0 0,0 0.4170940808219046,-0.0541507823709572 l 0.41270944671110593 3.408397302457868" fill="#ff1302" stroke="none" /><path d="M 97.47563105711357 79.15227682838746 l -0.8493005400206197 -7.014023285996165 a28.065255413909377,28.065255413909377 0 0,0 0.4800940104371619,-0.05394415597078932 l 0.7284398260737398 7.027603395437553" fill="#ff4806" stroke="none" /><path d="M 97.83486435360386 79.11191278185805 l -1.8369889647062154 -17.722301038004854 a38.817252384644505,38.817252384644505 0 0,0 0.6652073223157214,-0.06316945065057311 l 1.5316565153002573 17.751296033170608" fill="#ffd914" stroke="none" /><path d="M 98.19473922651362 79.07773832637324 l -2.1662000837878317 -25.10540618622883 a46.19868731855966,46.19868731855966 0 0,0 0.7928790546757539,-0.061542674522567765 l 1.7337308397497437 25.13897412293986" fill="#caff1d" stroke="none" /><path d="M 98.55514903715128 79.0497635885617 l -0.7001809059040812 -10.15257343950808 a31.176689085630827,31.176689085630827 0 0,0 0.5357015530296724,-0.03231498061623178 l 0.525317304034786 10.163121689504617" fill="#ff740a" stroke="none" /><path d="M 98.91598698831166 79.02799685794201 l -0.36770321815901846 -7.113819634475828 a28.123316323770712,28.123316323770712 0 0,0 0.4836663578068933,-0.02082769078637739 l 0.24519602796280088 7.119095051786397" fill="#ff4906" stroke="none" /><path d="M 99.27714615592234 79.0124445844662 l -0.3238215952964675 -9.401933366907569 a30.407508249337347,30.407508249337347 0 0,0 0.5232601700667862,-0.013514266424951396 l 0.16193479003480224 9.40611442547488" fill="#ff6909" stroke="none" /><path d="M 99.63851952072746 79.00311137660856 l -0.12404796314433919 -7.20542716813342 a28.206494888115543,28.206494888115543 0 0,0 0.4855284424168732,-0.00417909659068181 l 1.7650821795604925e-15 7.206494888115543" fill="#ff4a06" stroke="none" /></svg>