<?xml version="1.0" encoding="utf-8" ?>
<svg baseProfile="full" height="200mm" version="1.1" viewBox="0,0,200,200" width="200mm" xmlns="http://www.w3.org/2000/svg" xmlns:ev="http://www.w3.org/2001/xml-events" xmlns:xlink="http://www.w3.org/1999/xlink"><defs /><rect fill="#1a1a1a" height="200" width="200" x="0" y="0" /><text alignment-baseline="middle" fill="#e1ed5e" style="dominant-baseline: central; font-size:9.0px; font-family:Arial;" text-anchor="middle" x="100.0" y="100.0">2020</text><line stroke="#e1ed5e" stroke-width="0.3" x1="100.0" x2="100.0" y1="15.0" y2="10.0" /><path d="M 100.0 14.0 a86.0,86.0 0 0,1 42.35913384403234,11.155469271406648" fill="none" id="id37" stroke="none" /><text fill="#e1ed5e" style="font-size:6.75px; font-family:Arial;" text-anchor="middle"><textPath startOffset="22.145653131862478" xlink:href="#id37">January</textPath></text><path d="M 100.0 79.0 l 0.0 -32.45578359379903 a53.45578359379903,53.45578359379903 0 0,0 0.9176396084674304,0.007876832392131192 l -0.5571466836185757 32.45100115960134" fill="#83ff25" stroke="none" /><path d="M 100.36049292484886 79.00309439819443 l 0.1854503394541918 -10.801552549124414 a31.80314441724722,31.80314441724722 0 0,0 0.5457823723172062,0.01405741788753447 l -0.3708460258421393 10.796777413886835" fill="#ff6609" stroke="none" /><path d="M 100.72087961077811 79.0123766808444 l 0.3937095478810862 -11.46242391176001 a32.46918345572083,32.46918345572083 0 0,0 0.5568839740512458,0.02391499397002403 l -0.5904192825331682 11.453976349364156" fill="#ff700a" stroke="none" /><path d="M 101.08105385017728 79.02784411241856 l 0.6020103220573393 -11.678839419561973 a32.69434506998054,32.69434506998054 0 0,0 0.5602497488934611,0.03370323367057709 l -0.8024044230832628 11.666784208066705" fill="#ff730a" stroke="none" /><path d="M 101.44090949804482 79.04949213459386 l 0.8060821351433785 -11.720257334273938 a32.74794451766773,32.74794451766773 0 0,0 0.5605060293823902,0.043386711562076526 l -1.0071571593010022 11.704692855716807" fill="#ff740a" stroke="none" /><path d="M 101.80034050326958 79.07731436759882 l 0.9425996659935255 -10.95443692622172 a31.994916211636223,31.994916211636223 0 0,0 0.5468090189436271,0.05178338260915494 l -1.1305082483221656 10.93664178810738" fill="#ff6909" stroke="none" /><path d="M 102.15924093988457 79.11130261209362 l 1.106363092934641 -10.703059312452329 a31.760089123203414,31.760089123203414 0 0,0 0.5418333188001341,0.06071355352770609 l -1.2899323133355718 10.682489998417651" fill="#ff6609" stroke="none" /><path d="M 102.51750503828377 79.15144685158666 l 0.9048197201865322 -7.493205272352287 a28.547636979853134,28.547636979853134 0 0,0 0.486019683471813,0.0629249784784724 l -1.033317225549137 7.476568697673417" fill="#ff3705" stroke="none" /><path d="M 102.87502721639298 79.19773525538626 l 1.5407581157581245 -11.148158197828943 a32.25412665536936,32.25412665536936 0 0,0 0.5478208199295389,0.08051079528363664 l -1.7319040412953453 11.120066329246423" fill="#ff6d0a" stroke="none" /><path d="M 103.23170211078529 79.25015418208739 l 2.402124402060521 -15.423361829005156 a36.609301449821125,36.609301449821125 0 0,0 0.6201310534863447,0.10204232886363619 l -2.6665329585999356 15.37985350164585" fill="#ffaa0f" stroke="none" /><path d="M 103.58742460773223 79.30868818359171 l 2.015229150028621 -11.623306211058367 a32.79671122826837,32.79671122826837 0 0,0 0.5538978250677588,0.10093863503469803 l -2.2144617086474336 11.586999402092303" fill="#ff750a" stroke="none" /><path d="M 103.94208987418118 79.37332000966035 l 2.2492237514091524 -11.768889098862703 a32.981892926630266,32.981892926630266 0 0,0 0.5552007173050224,0.1110556927639526 l -2.450920954245132 11.728544009435891" fill="#ff770b" stroke="none" /><path d="M 104.29559338865022 79.4440306129975 l 2.2177588159817163 -10.612778772201262 a31.842025983807194,31.842025983807194 0 0,0 0.5340932515469993,0.11640313832595797 l -2.39961448414785 10.573144175741584" fill="#ff6709" stroke="none" /><path d="M 104.64783097203109 79.52079915486377 l 2.082670509308725 -9.176630542512404 a30.40999811711542,30.40999811711542 0 0,0 0.5080900259107829,0.11990786265752944 l -2.239892688959393 9.139526536208647" fill="#ff5207" stroke="none" /><path d="M 104.9986988182912 79.60360301121754 l 2.2205458557330933 -9.060584854522318 a30.328720266114352,30.328720266114352 0 0,0 0.5046044916299077,0.12826848853180786 l -2.3757556405883955 9.021131134155244" fill="#ff5107" stroke="none" /><path d="M 105.3480935250658 79.69241777938227 l 2.136988478461774 -8.114493328786969 a29.39116927132367,29.39116927132367 0 0,0 0.486799777183005,0.13267944397368384 l -2.2759696565794716 8.076613390669143" fill="#ff4306" stroke="none" /><path d="M 105.69591212413111 79.78721728523813 l 2.410565207620416 -8.554245518461014 a29.88740350216532,29.88740350216532 0 0,0 0.4926297846754998,0.14339735065562975 l -2.5570550046775202 8.511604473502867" fill="#ff4b06" stroke="none" /><path d="M 106.04205211174951 79.88797359093562 l 3.2054515465972058 -10.669905682007139 a32.14099667357058,32.14099667357058 0 0,0 0.5270501558755145,0.16328148554436797 l -3.3881423353443507 10.613307608656124" fill="#ff6b09" stroke="none" /><path d="M 106.38641147887787 79.99465700312896 l 2.7643185065010525 -8.659188349835 a30.089719450197702,30.089719450197702 0 0,0 0.4907164162976756,0.161308232903568 l -2.9125576604464705 8.61045919552941" fill="#ff4e07" stroke="none" /><path d="M 106.72888874123014 80.10723608172694 l 3.0474198001167236 -9.009155148032717 a30.510606916462685,30.510606916462685 0 0,0 0.49469931173613746,0.17208210030806884 l -3.201624883897879 8.955514615156057" fill="#ff5407" stroke="none" /><path d="M 107.06938296918511 80.22567764915836 l 3.9036973321650352 -10.919336205554297 a32.59615263917655,32.59615263917655 0 0,0 0.5252805555921609,0.1928902959072657 l -4.0905670394113205 10.850715060638308" fill="#ff720a" stroke="none" /><path d="M 107.40779381753099 80.34994680014964 l 2.725908187546865 -7.2307953248429495 a28.727546601393335,28.727546601393335 0 0,0 0.45995228561420387,0.1779194249760446 l -2.8496327356545947 7.1829360117288665" fill="#ff3a05" stroke="none" /><path d="M 107.74402155503746 80.48000691201159 l 3.5146118455240747 -8.859117765105472 a30.53081654427917,30.53081654427917 0 0,0 0.4855061895797688,0.19745114065489733 l -3.666172496294283 8.797479367871281" fill="#ff5407" stroke="none" /><path d="M 108.07796709384702 80.6158196554323 l 4.520714235871208 -10.848068457858654 a32.75233791501914,32.75233791501914 0 0,0 0.517120307561238,0.22072790942365472 l -4.706269618602876 10.768865898775598" fill="#ff740a" stroke="none" /><path d="M 108.4095320186766 80.7573450057729 l 3.224718349135407 -7.37878665639843 a29.052658005397603,29.052658005397603 0 0,0 0.4552781124283519,0.2036401087853986 l -3.350909864419391 7.322342796703179" fill="#ff3e05" stroke="none" /><path d="M 108.73861861582097 80.90454125486305 l 3.2599568578424547 -7.123594062928294 a28.834086487165003,28.834086487165003 0 0,0 0.448316888726881,0.20983494077093864 l -3.3817624604408407 7.066582890586822" fill="#ff3b05" stroke="none" /><path d="M 109.06512990194946 81.05736502329252 l 4.150038810004582 -8.67198497620874 a30.6138517542208,30.6138517542208 0 0,0 0.47209438672451876,0.23092502149836786 l -4.298293445991169 8.599466204613151" fill="#ff5507" stroke="none" /><path d="M 109.3889696526874 81.21577127319529 l 10.919423366131477 -21.84616136399166 a45.423115546350346,45.423115546350346 0 0,0 0.6944821860424684,0.3546075525747722 l -11.292832773887525 21.65549585974405" fill="#e1ff1b" stroke="none" /><path d="M 109.71004243097381 81.37971332152246 l 7.092338990200396 -13.60049517365816 a36.33866817297433,36.33866817297433 0 0,0 0.5506366967648295,0.29318302629198373 l -7.324764502751785 13.476741679643604" fill="#ffa60f" stroke="none" /><path d="M 110.02825361518725 81.54914285379988 l 4.797612702050138 -8.827067005391978 a31.04660139333459,31.04660139333459 0 0,0 0.46607721558331644,0.25852517482674503 l -4.948434105789555 8.743408915132088" fill="#ff5c08" stroke="none" /><path d="M 110.34350942703115 81.72400993836675 l 7.559251094369458 -13.356472370300713 a36.347235297809576,36.347235297809576 0 0,0 0.5403752682107896,0.31198580656491565 l -7.787418830440644 13.224739666459627" fill="#ffa60f" stroke="none" /><line stroke="#e1ed5e" stroke-width="0.3" x1="143.13028292997686" x2="145.6673583964461" y1="26.7553504044142" y2="22.446841604673864" /><path d="M 143.63769802327073 25.89364864446614 a86.0,86.0 0 0,1 29.32050498858742,28.57503671076992" fill="none" id="id38" stroke="none" /><text fill="#e1ed5e" style="font-size:6.75px; font-family:Arial;" text-anchor="middle"><textPath startOffset="20.669276256404974" xlink:href="#id38">February</textPath></text><path d="M 110.65571695917076 81.90426304109057 l 4.819026203610831 -8.183760033489092 a30.497207054540887,30.497207054540887 0 0,0 0.4488422722401963,0.269516888194279 l -4.9588012324084625 8.099829144758889" fill="#ff5407" stroke="none" /><path d="M 110.96478420261332 82.08984904055464 l 6.402833880695057 -10.458547952468436 a33.26285068725287,33.26285068725287 0 0,0 0.4844272818511281,0.3023184519619644 l -6.581425291335898 10.347093703664928" fill="#ff7b0b" stroke="none" /><path d="M 111.27062007382361 82.28071324371311 l 5.098883319450167 -8.016291480184227 a30.500502102554442,30.500502102554442 0 0,0 0.4393733385427655,0.28479648968534205 l -5.235742290249939 7.92758114879499" fill="#ff5407" stroke="none" /><path d="M 111.5731344415666 82.4767994020092 l 5.365882246364964 -8.124629629336845 a30.73664721019268,30.73664721019268 0 0,0 0.43778310819150423,0.29456001283060124 l -5.50456164265347 8.031319942449125" fill="#ff5708" stroke="none" /><path d="M 111.8722381534696 82.67804972795209 l 6.343956375590364 -9.256021943419565 a32.22139584510136,32.22139584510136 0 0,0 0.4535620371926358,0.31662152736341986 l -6.501913503956761 9.145755600251018" fill="#ff6c0a" stroke="none" /><path d="M 112.16784306229584 82.88440491214696 l 5.783410249844121 -8.13509079271393 a30.981359442666164,30.981359442666164 0 0,0 0.4308164419851573,0.31187788038062547 l -5.922207702203247 8.034612140960231" fill="#ff5b08" stroke="none" /><path d="M 112.45986205192187 83.09580414077388 l 6.732767359318481 -9.134291988326568 a32.3474863490868,32.3474863490868 0 0,0 0.44415719071471266,0.3333038362752096 l -6.888577538943959 9.017369124787344" fill="#ff6e0a" stroke="none" /><path d="M 112.7482090630111 83.31218511350987 l 7.4415893486503 -9.741279335610523 a33.25845728990146,33.25845728990146 0 0,0 0.4507155334038108,0.350479124903335 l -7.607714826689337 9.612099159086396" fill="#ff7b0b" stroke="none" /><path d="M 113.03279911837588 83.53348406188908 l 6.049881027596459 -7.643827044347666 a30.748289713173914,30.748289713173914 0 0,0 0.4110742214222321,0.3311322943604226 l -6.1802060193739505 7.538846456193835" fill="#ff5708" stroke="none" /><path d="M 113.31354834802062 83.75963576809568 l 6.127424216157359 -7.474461238470748 a30.665034833364714,30.665034833364714 0 0,0 0.4042318421759496,0.33722457974684167 l -6.254830392495201 7.368174474812037" fill="#ff5608" stroke="none" /><path d="M 113.59037401385872 83.9905735841838 l 10.060641212020837 -11.851410050638048 a36.54581685809326,36.54581685809326 0 0,0 0.4747832746531541,0.41010648459425847 l -10.262603966436851 11.67695943357907" fill="#ffa90f" stroke="none" /><path d="M 113.86319453409587 84.22622945171908 l 10.256078267635266 -11.669534386248872 a36.535931714052595,36.535931714052595 0 0,0 0.4675467918647098,0.418083224322012 l -10.45489008632335 11.491755632043475" fill="#ffa90f" stroke="none" /><path d="M 114.13192950727249 84.46653392183569 l 5.481559008129577 -6.025193577736046 a29.145578359379904,29.145578359379904 0 0,0 0.3671929681775189,0.33986832947239815 l -5.58418174762106 5.930207502131271" fill="#ff4006" stroke="none" /><path d="M 114.39649973595853 84.71141617570332 l 6.154030018514457 -6.535366618338079 a29.97680913826649,29.97680913826649 0 0,0 0.37160896212642436,0.3559929795823094 l -6.265311466506193 6.428761508450189" fill="#ff4c07" stroke="none" /><path d="M 114.65682725009322 84.96080404539774 l 6.34181679923069 -6.507262719577477 a30.086424402184143,30.086424402184143 0 0,0 0.36677941625515253,0.3636445682865962 l -6.452588135615805 6.397438141062219" fill="#ff4e07" stroke="none" /><path d="M 114.91283532996326 85.21462403516908 l 8.058247396806541 -7.989373901287379 a32.3474863490868,32.3474863490868 0 0,0 0.38757402452496087,0.39768509257060813 l -8.194208222482313 7.849866116649031" fill="#ff6e0a" stroke="none" /><path d="M 115.16444852881244 85.47280134310134 l 7.040512181246587 -6.744651406805478 a30.749827402246908,30.749827402246908 0 0,0 0.3618876407658199,0.3843121336644009 l -7.155255655748667 6.62279781319658" fill="#ff5708" stroke="none" /><path d="M 115.41159269507618 85.73525988315684 l 8.605845742050635 -7.96544234102514 a32.72641687064583,32.72641687064583 0 0,0 0.37807161790599264,0.41556693647793946 l -8.741315060798504 7.816537828989529" fill="#ff740a" stroke="none" /><path d="M 115.6541949942343 86.00192230759917 l 7.762907404879448 -6.941639669905711 a31.413889411912383,31.413889411912383 0 0,0 0.35600752943159697,0.40507121709236266 l -7.880925998269636 6.807356175002052" fill="#ff6108" stroke="none" /><path d="M 115.8921839302757 86.27271002978787 l 11.497803399167235 -9.931528729677936 a36.19324672064269,36.19324672064269 0 0,0 0.40209910591687253,0.4736717357062546 l -11.66659706859122 9.732690211522128" fill="#ffa40f" stroke="none" /><path d="M 116.1254893667686 86.54754324733833 l 7.529546584173483 -6.281415558121634 a30.805623548609802,30.805623548609802 0 0,0 0.3352725355891527,0.4089779788670281 l -7.636265939001263 6.151235297556113" fill="#ff5808" stroke="none" /><path d="M 116.35404254752997 86.82634096563983 l 13.281607934320093 -10.698723196192967 a38.0547291784347,38.0547291784347 0 0,0 0.40543430428857125,0.5122529989748406 l -13.463308669250223 10.469150253303448" fill="#ffbd11" stroke="none" /><path d="M 116.57777611688842 87.10902102172516 l 6.3118255099741045 -4.908113693291157 a28.995543839829285,28.995543839829285 0 0,0 0.30217225880395954,0.39555318663419986 l -6.395149746132371 4.799039593416072" fill="#ff3e05" stroke="none" /><path d="M 116.7966241395341 87.39550010848427 l 7.237458331300749 -5.43112365877232 a30.04864118496203,30.04864118496203 0 0,0 0.30606398398636453,0.41523457556759125 l -7.329624334870939 5.306082773935853" fill="#ff4d07" stroke="none" /><path d="M 117.01052211995028 87.68569379921539 l 11.876119561620971 -8.59739470238883 a35.66142597125463,35.66142597125463 0 0,0 0.3547206404898393,0.49895900373179786 l -12.021955300640771 8.392258471947528" fill="#ff9d0e" stroke="none" /><path d="M 117.21940702142032 87.97951657250589 l 8.077800030153517 -5.638931774612453 a30.85131488106446,30.85131488106446 0 0,0 0.2994197431191918,0.43686235347833724 l -8.173409510088034 5.499434686064067" fill="#ff5908" stroke="none" /><path d="M 117.42321728460499 88.27688183743584 l 7.367477724564033 -4.957167813170712 a29.879934726667923,29.879934726667923 0 0,0 0.28268632365870866,0.4280231237951095 l -7.4514884871434655 4.829964811036547" fill="#ff4b06" stroke="none" /><path d="M 117.62189284568427 88.57770195909679 l 7.586973447514791 -4.917784525466387 a30.041392079332205,30.041392079332205 0 0,0 0.2767846612514715,0.43515146019758305 l -7.670275800392153 4.7868193905901295" fill="#ff4d07" stroke="none" /><path d="M 117.81537515405839 88.88188828441811 l 9.743872312235576 -6.080896976515355 a32.485658695788615,32.485658695788615 0 0,0 0.291182936300731,0.4756254432000324 l -9.846823212991708 5.91273441719077" fill="#ff700a" stroke="none" /><line stroke="#e1ed5e" stroke-width="0.3" x1="172.87174338648825" x2="177.1583165268699" y1="56.24261187166439" y2="53.66864786411523" /><path d="M 173.72905801456457 55.72781907015455 a86.0,86.0 0 0,1 12.242430191666344,42.057860355516425" fill="none" id="id39" stroke="none" /><text fill="#e1ed5e" style="font-size:6.75px; font-family:Arial;" text-anchor="middle"><textPath startOffset="22.145653131862474" xlink:href="#id39">March</textPath></text><path d="M 118.00360718960297 89.18935116829356 l 9.248699230960922 -5.553578151479147 a31.78798719638486,31.78798719638486 0 0,0 0.27689802667986335,0.47023338499315914 l -9.342670967770554 5.393993598192432" fill="#ff6609" stroke="none" /><path d="M 118.18653347947321 89.5 l 10.145292202000324 -5.857387183832299 a32.714774367664596,32.714774367664596 0 0,0 0.27662154278814977,0.48876376074236355 l -10.24434710980985 5.682366652990816" fill="#ff730a" stroke="none" /><path d="M 118.36410011445183 89.81374322990088 l 17.39093612378453 -9.6464591090882 a40.887152450888095,40.887152450888095 0 0,0 0.3351863540669944,0.6167051386574228 l -17.553967827466867 9.346499136956176" fill="#ffe315" stroke="none" /><path d="M 118.53625476483649 90.13048839642627 l 11.207882321511368 -5.967566049722504 a33.69757735517479,33.69757735517479 0 0,0 0.26748163048572693,0.5129312952313528 l -11.30867202097204 5.7742885113866524" fill="#ff810b" stroke="none" /><path d="M 118.70294669586156 90.45014215332178 l 7.878878944493988 -4.023011728293744 a29.846544906797213,29.846544906797213 0 0,0 0.2290794618289221,0.4583123779057238 l -7.946778319534647 3.887167494224271" fill="#ff4a06" stroke="none" /><path d="M 118.8641267826498 90.77261029715802 l 8.328212628525021 -4.0737461286684375 a30.271166760810893,30.271166760810893 0 0,0 0.22432483017793517,0.4687526180246697 l -8.396916716662869 3.930181008578663" fill="#ff5007" stroke="none" /><path d="M 119.0197475246899 91.09779779509293 l 44.371850582087916 -20.768266538496576 a69.99165254503232,69.99165254503232 0 0,0 0.49999215296296795,1.0925730884411065 l -44.72182719990593 20.003504467840784" fill="#3bff99" stroke="none" /><path d="M 119.16976305983485 91.42560881287824 l 9.690959111651901 -4.334642746618344 a31.616205359944768,31.616205359944768 0 0,0 0.2173480396747372,0.49733484953075485 l -9.76394103334361 4.167645827311739" fill="#ff6409" stroke="none" /><path d="M 119.31412917781788 91.75594674310238 l 9.371185252661189 -4.000001739240765 a31.18916713738781,31.18916713738781 0 0,0 0.2059586386851298,0.4942257562345306 l -9.438469735882801 3.8385434735649575" fill="#ff5e08" stroke="none" /><path d="M 119.4528033332814 92.08871423366111 l 10.629063182430109 -4.3227474633853396 a32.47445553254252,32.47445553254252 0 0,0 0.20558081658332733,0.5181979531189669 l -10.701702673979561 4.139648493052808" fill="#ff700a" stroke="none" /><path d="M 119.58574465831526 92.42381321644754 l 10.859252388850626 -4.200592107318291 a32.64338166070419,32.64338166070419 0 0,0 0.1976779297036182,0.5243641940897047 l -10.929761002368684 4.013559633034427" fill="#ff720a" stroke="none" /><path d="M 119.71291397450082 92.76114493625339 l 9.245261386710439 -3.394988041413829 a30.84889851252118,30.84889851252118 0 0,0 0.17827700370529634,0.4986725085311273 l -9.302178560459678 3.235780576501785" fill="#ff5908" stroke="none" /><path d="M 119.83427380445688 93.10060997987247 l 8.682240798919509 -3.0201340422631913 a30.192524948220672,30.192524948220672 0 0,0 0.16607984719331256,0.4909855577721171 l -8.732806067685186 2.8706468100169125" fill="#ff4f07" stroke="none" /><path d="M 119.94978838288452 93.4421083053983 l 4.48441392664915 -1.4741159294681447 a25.720485784221427,25.720485784221427 0 0,0 0.1342796556809587,0.4206291088953385 l -4.509058298107367 1.396917786881419" fill="#ff0d01" stroke="none" /><path d="M 120.05942366710727 93.78553927170692 l 8.611673954703544 -2.6679186044674177 a30.015471034958892,30.015471034958892 0 0,0 0.14825310059859376,0.4934863551849112 l -8.656203375305765 2.519694645691783" fill="#ff4d07" stroke="none" /><path d="M 120.16314734710363 94.1308016681162 l 9.048507127116608 -2.6338885503477787 a30.424056988639933,30.424056988639933 0 0,0 0.14166238902657444,0.5027098427514863 l -9.092388008217764 2.478170783693279" fill="#ff5307" stroke="none" /><path d="M 120.26092885502905 94.47779374421319 l 8.770876793829602 -2.3905414725149208 a30.090817799535554,30.090817799535554 0 0,0 0.13155493358026776,0.49953551068019525 l -8.8106212082146 2.239625457461927" fill="#ff4e07" stroke="none" /><path d="M 120.35273937422433 94.82641323984039 l 9.578761584186916 -2.434883737244516 a30.883386681729743,30.883386681729743 0 0,0 0.12619903812919328,0.5149351410944574 l -9.6191481488324 2.270092771541963" fill="#ff5908" stroke="none" /><path d="M 120.43855184770803 95.1765574152323 l 11.272011643200806 -2.660164055698945 a32.5816544279169,32.5816544279169 0 0,0 0.12379343503949206,0.5454567162056705 l -11.316015939797964 2.4662730055542483" fill="#ff720a" stroke="none" /><path d="M 120.51834098615036 95.52812308129327 l 11.228446292709641 -2.4471876085497883 a32.49202912194816,32.49202912194816 0 0,0 0.11409698130542247,0.5459953591186214 l -11.268800984839428 2.2540757981457626" fill="#ff700a" stroke="none" /><path d="M 120.592083275326 95.88100663000786 l 11.394165453408226 -2.2791522028962325 a32.61987698487416,32.61987698487416 0 0,0 0.10511942956506165,0.5500292747272743 l -11.431611175255446 2.083220363135644" fill="#ff720a" stroke="none" /><path d="M 120.65975698304385 96.23510406497455 l 59.48016605413457 -10.839267643643746 a81.4597376514153,81.4597376514153 0 0,0 0.23889108620462488,1.3778603023925442 l -59.657471957831426 9.816614308330609" fill="#4aebff" stroke="none" /><path d="M 120.7213421655516 96.59031103205396 l 11.245248138547018 -1.8504013018791272 a32.396472729555015,32.396472729555015 0 0,0 0.08558609366757595,0.5495241166668227 l -11.275355724352858 1.6570890032808634" fill="#ff6f0a" stroke="none" /><path d="M 120.77682067341334 96.94652285012252 l 11.249492822826292 -1.6532880473943856 a32.370332015314126,32.370332015314126 0 0,0 0.07607873266114809,0.5504678109577981 l -11.276216072042653 1.459931928236502" fill="#ff6f0a" stroke="none" /><path d="M 120.82617615685814 97.30363454192243 l 11.183629146932669 -1.4479446971261971 a32.27697232159669,32.27697232159669 0 0,0 0.06642587645685663,0.5501015468413067 l -11.206837109649188 1.2557494733614774" fill="#ff6d0a" stroke="none" /><path d="M 120.86939407059847 97.66154086499901 l 9.604051577877245 -1.0761540114357335 a30.66415615389443,30.66415615389443 0 0,0 0.05412604310445062,0.5236203678474558 l -9.621110013463362 0.9111291213053467" fill="#ff5608" stroke="none" /><path d="M 120.9064616781168 98.02013634271609 l 11.157854571007736 -1.0566604286520913 a32.207776313311996,32.207776313311996 0 0,0 0.047401223181237497,0.5508740648844931 l -11.174349416886715 0.864965316391936" fill="#ff6c0a" stroke="none" /><path d="M 120.93736805541906 98.37931529534042 l 5.8080510414617255 -0.4495798832911497 a26.825425218100797,26.825425218100797 0 0,0 0.031597845712312236,0.45942574188314794 l -5.814912848339104 0.3498107172536676" fill="#ff1d03" stroke="none" /><path d="M 120.96210409425399 98.7389718711861 l 10.056977178214598 -0.6050027733639828 a31.075158476118744,31.075158476118744 0 0,0 0.027462168985803677,0.5327587417471866 l -10.065880936656974 0.43227223824006544" fill="#ff5c08" stroke="none" /><path d="M 120.98066250479742 99.09900007780936 l 11.505149380625067 -0.4940806180150214 a32.515753467645766,32.515753467645766 0 0,0 0.019161553652163668,0.5578677274938221 l -11.511935621274079 0.2965066259570794" fill="#ff710a" stroke="none" /><path d="M 120.99303781780057 99.45929381324524 l 8.77334093701509 -0.22597014135469617 a29.77625054917467,29.77625054917467 0 0,0 0.00877487444089646,0.5110924448251329 l -8.775927243054653 0.0753307805604969" fill="#ff4906" stroke="none" /><line stroke="#e1ed5e" stroke-width="0.3" x1="184.99686870605535" x2="189.99668451229388" y1="99.2704041080226" y2="99.22748670261217" /><path d="M 185.99683186730306 99.26182062694052 a86.0,86.0 0 0,1 -10.086455211305974,41.156179273409016" fill="none" id="id40" stroke="none" /><text fill="#e1ed5e" style="font-size:6.75px; font-family:Arial;" text-anchor="middle"><textPath startOffset="21.40746469413373" xlink:href="#id40">April</textPath></text><path d="M 120.99922638620191 99.81974689727618 l 11.62999268831419 -0.09982949981917069 a32.63042113851754,32.63042113851754 0 0,0 0.0,0.5601652050859938 l -11.62999268831419 -0.09982949981916928" fill="#ff720a" stroke="none" /><path d="M 120.99922638620191 100.18025310272382 l 11.351900880902619 0.0974424161139834 a32.35231908617335,32.35231908617335 0 0,0 -0.009534025695547187,0.5553091995316128 l -11.348555423608403 -0.2922985316146673" fill="#ff6e0a" stroke="none" /><path d="M 120.99303781780057 100.54070618675476 l 11.348775020648276 0.2923041876554501 a32.35253875604092,32.35253875604092 0 0,0 -0.01906537112155635,0.555067478059446 l -11.342084962529873 -0.48707793027900664" fill="#ff6e0a" stroke="none" /><path d="M 120.98066250479742 100.90099992219065 l 11.545531416869368 0.4958147964045607 a32.55617272327873,32.55617272327873 0 0,0 -0.02877099138673034,0.5581495466704495 l -11.535318836026065 -0.6939361364517409" fill="#ff710a" stroke="none" /><path d="M 120.96210409425399 101.26102812881392 l 31.550161589172745 1.8979793752420544 a52.60719889537438,52.60719889537438 0 0,0 -0.06196636737490825,0.9009773818829414 l -31.512931260632772 -2.439300181279339" fill="#8cff24" stroke="none" /><path d="M 120.93736805541906 101.62068470465957 l 11.350875271535006 0.8786295339692413 a32.384830226573776,32.384830226573776 0 0,0 -0.04766179913581416,0.5539023524618054 l -11.33411984970145 -1.0733529338067043" fill="#ff6f0a" stroke="none" /><path d="M 120.9064616781168 101.97986365728391 l 7.801378767792846 0.7387986803729052 a28.836283185840706,28.836283185840706 0 0,0 -0.05089962035334645,0.4924076545052966 l -7.787546754957834 -0.872610857161133" fill="#ff3b05" stroke="none" /><path d="M 120.86939407059847 102.33845913500099 l 7.872685185547735 0.8821507958905037 a28.921954434193182,28.921954434193182 0 0,0 -0.059521263425661865,0.4929214460824195 l -7.856381835862409 -1.0171659188963316" fill="#ff3c05" stroke="none" /><path d="M 120.82617615685814 102.69636545807758 l 8.08425459742723 1.0466686100525187 a29.151729115671877,29.151729115671877 0 0,0 -0.06851417541693047,0.49573444301859076 l -8.065095905455092 -1.1852913612711948" fill="#ff4006" stroke="none" /><path d="M 120.77682067341334 103.0534771498775 l 11.26448895900556 1.6554919629924285 a32.38548923617649,32.38548923617649 0 0,0 -0.08555707710453665,0.5493378095170413 l -11.234410389762756 -1.8486179544409203" fill="#ff6f0a" stroke="none" /><path d="M 120.7213421655516 103.40968896794604 l 7.194097642991046 1.1837860294789533 a28.29084290466328,28.29084290466328 0 0,0 -0.08296651064677218,0.4785287859183593 l -7.17271631485204 -1.3071078483179006" fill="#ff3304" stroke="none" /><path d="M 120.65975698304385 103.76489593502545 l 8.030243833301355 1.463377927923969 a29.162492939182826,29.162492939182826 0 0,0 -0.09397781064237397,0.4917316165237483 l -8.003939730376821 -1.601012109481032" fill="#ff4006" stroke="none" /><path d="M 120.592083275326 104.11899336999214 l 11.345053599742096 2.269328456705325 a32.569792255068094,32.569792255068094 0 0,0 -0.1143700494696955,0.547302089136449 l -11.304425839448037 -2.463746997127183" fill="#ff710a" stroke="none" /><path d="M 120.51834098615036 104.47187691870673 l 11.377185913867015 2.4796047166970663 a32.64426034017448,32.64426034017448 0 0,0 -0.12403130512523038,0.5465048156934084 l -11.332943747184121 -2.6745438663294916" fill="#ff720a" stroke="none" /><path d="M 120.43855184770803 104.8234425847677 l 11.345771558549023 2.677571194883289 a32.657440532228705,32.657440532228705 0 0,0 -0.13344836903416762,0.5445148850270116 l -11.29813566299856 -2.8719419045184003" fill="#ff730a" stroke="none" /><path d="M 120.35273937422433 105.17358676015961 l 11.352637862624087 2.8857961505340155 a32.71367601832674,32.71367601832674 0 0,0 -0.14302188476325817,0.543077392077171 l -11.301426497056099 -3.0802540469839896" fill="#ff730a" stroke="none" /><path d="M 120.26092885502905 105.52220625578681 l 11.079950413314753 3.019889755499888 a32.48412100671562,32.48412100671562 0 0,0 -0.15125458741278452,0.5367491708717212 l -11.026477333827389 -3.209646850274618" fill="#ff700a" stroke="none" /><path d="M 120.16314734710363 105.8691983318838 l 10.954765895324334 3.1887726956600817 a32.40943325174167,32.40943325174167 0 0,0 -0.1600774134984465,0.5328456471791819 l -10.89841216182226 -3.376355946429987" fill="#ff6f0a" stroke="none" /><path d="M 120.05942366710727 106.21446072829308 l 22.064149014034435 6.835529765282468 a44.098725914768096,44.098725914768096 0 0,0 -0.23022744521554941,0.7211841930422708 l -21.943556853041628 -7.213282992016121" fill="#f2ff19" stroke="none" /><path d="M 119.94978838288452 106.5578916946017 l 10.861175821414756 3.5702842228628175 a32.43293792757171,32.43293792757171 0 0,0 -0.17840367389871906,0.527418761626152 l -10.798286725943672 -3.7562046589631315" fill="#ff6f0a" stroke="none" /><path d="M 119.83427380445688 106.89939002012753 l 8.05566381101746 2.802178040455778 a29.529121948157908,29.529121948157908 0 0,0 -0.1706499627800051,0.4773383176268816 l -8.006373678193512 -2.9400513144635814" fill="#ff4506" stroke="none" /><path d="M 119.71291397450082 107.23885506374661 l 10.826451624544625 3.975622998513443 a32.5333270570514,32.5333270570514 0 0,0 -0.19701147405173255,0.5225963412933853 l -10.756609466678452 -4.160887620000986" fill="#ff710a" stroke="none" /><path d="M 119.58574465831526 107.57618678355244 l 10.788979889239739 4.17340919484357 a32.568034896127536,32.568034896127536 0 0,0 -0.20617322442098537,0.5196912078593069 l -10.715747989852629 -4.358001419916443" fill="#ff710a" stroke="none" /><path d="M 119.4528033332814 107.91128576633889 l 10.667521935018971 4.338388303254772 a32.515973137513335,32.515973137513335 0 0,0 -0.21472024351995164,0.5152504182878634 l -10.591475846962535 -4.5208712309839125" fill="#ff710a" stroke="none" /><path d="M 119.31412917781788 108.2440532568976 l 10.605820322491573 4.526994034612018 a32.531569698110836,32.531569698110836 0 0,0 -0.22364078234337018,0.5117338762388944 l -10.526545658131237 -4.708389980626758" fill="#ff710a" stroke="none" /><path d="M 119.16976305983485 108.57439118712176 l 8.355865464793384 3.737472340084142 a30.153643381660704,30.153643381660704 0 0,0 -0.2154054737366489,0.4706998346132146 l -8.29047552620168 -3.8803611569120458" fill="#ff4f07" stroke="none" /><path d="M 118.8641267826498 109.22738970284198 l 8.571912251703045 4.192951826308658 a30.5424590472604,30.5424590472604 0 0,0 -0.23442077142688297,0.46899857510308907 l -8.49867156706443 -4.339482257575493" fill="#ff5407" stroke="none" /><path d="M 118.70294669586154 109.54985784667822 l 8.51334468786392 4.346974457605837 a30.558934287328185,30.558934287328185 0 0,0 -0.24256798887725564,0.46515610246033695 l -8.437468630011715 -4.492476803170677" fill="#ff5407" stroke="none" /><path d="M 118.5362547648365 109.86951160357373 l 10.36287512193442 5.517647311167573 a32.74025607230277,32.74025607230277 0 0,0 -0.26839939703007426,0.4938246600812206 l -10.266630375289008 -5.694726804723398" fill="#ff740a" stroke="none" /><line stroke="#e1ed5e" stroke-width="0.3" x1="174.33088141563837" x2="178.70328620479359" y1="141.23008692659167" y2="143.65538615756765" /><path d="M 175.20536237346943 141.71514677278685 a86.0,86.0 0 0,1 -30.301960400862466,31.63118572779886" fill="none" id="id41" stroke="none" /><text fill="#e1ed5e" style="font-size:6.75px; font-family:Arial;" text-anchor="middle"><textPath startOffset="22.145653131862474" xlink:href="#id41">May</textPath></text><path d="M 118.36410011445183 110.18625677009912 l 10.670994804889213 5.919020937456911 a33.20266114353856,33.20266114353856 0 0,0 -0.2807468957901667,0.4960528642132468 l -10.567814544077667 -6.101330571769279" fill="#ff7a0b" stroke="none" /><path d="M 118.18653347947321 110.5 l 13.372327991580693 7.720517165631076 a36.44103433126216,36.44103433126216 0 0,0 -0.3174296766310342,0.5390649876752973 l -13.237824604819897 -7.948933321599923" fill="#ffa70f" stroke="none" /><path d="M 118.00360718960297 110.81064883170644 l 54.010821568808936 32.43194649511934 a84.0,84.0 0 0,0 -0.7529281421783813,1.2298515355017718 l -53.44612546217515 -33.35433514674567" fill="#4dd2ff" stroke="none" /><path d="M 117.81537515405839 111.11811171558189 l 10.442339080132504 6.516791898061835 a33.30898135944266,33.30898135944266 0 0,0 -0.306890409667389,0.48248269713930475 l -10.328930978839225 -6.695088269879815" fill="#ff7c0b" stroke="none" /><path d="M 117.62189284568427 111.42229804090321 l 7.934626012494816 5.143128717867307 a30.455689449570073,30.455689449570073 0 0,0 -0.2881333899737828,0.4362706764517831 l -7.845168183600307 -5.278579272658151" fill="#ff5307" stroke="none" /><path d="M 117.423217284605 111.72311816256415 l 4.2487294853314035 2.8587348125033514 a26.120943952802357,26.120943952802357 0 0,0 -0.25351030769775784,0.36987911517836497 l -4.199029440818325 -2.931248662751758" fill="#ff1302" stroke="none" /><path d="M 117.21940702142032 112.02048342749411 l 7.757721301758944 5.415491963626266 a30.460961526391763,30.460961526391763 0 0,0 -0.30299214033919064,0.4261963901323585 l -7.663614062889793 -5.5478655804681285" fill="#ff5307" stroke="none" /><path d="M 117.01052211995028 112.31430620078461 l 6.939406181676823 5.023594923789189 a29.566905165380028,29.566905165380028 0 0,0 -0.3011572048586286,0.40857758730660265 l -6.852146957234364 -5.141978820364671" fill="#ff4606" stroke="none" /><path d="M 116.79662413953412 112.60449989151573 l 19.837122693213452 14.886146689803137 a45.80138705830666,45.80138705830666 0 0,0 -0.47731157105431765,0.6248161684173711 l -19.578659144804835 -15.224483771461385" fill="#ddff1b" stroke="none" /><path d="M 116.57777611688842 112.89097897827484 l 9.666120823986661 7.516434017741148 a33.24461808824452,33.24461808824452 0 0,0 -0.35418747937338335,0.4475043097961898 l -9.535666913971717 -7.681258271452019" fill="#ff7b0b" stroke="none" /><path d="M 116.35404254752997 113.17365903436017 l 9.528995146159069 7.675883967571814 a33.23605096340928,33.23605096340928 0 0,0 -0.36172405541115554,0.4412445320929065 l -9.395824271509285 -7.838330781363215" fill="#ff7b0b" stroke="none" /><path d="M 116.1254893667686 113.45245675266167 l 9.360064069980437 7.8084983493922095 a33.18948095148434,33.18948095148434 0 0,0 -0.36872792096944584,0.43436056374884136 l -9.224641585503877 -7.968025695590605" fill="#ff7a0b" stroke="none" /><path d="M 115.89218393027572 113.72728997021213 l 9.150997393354329 7.904413596416937 a33.09216720015063,33.09216720015063 0 0,0 -0.3750271268223067,0.4267120275436488 l -9.013959202573435 -8.060337901771879" fill="#ff790b" stroke="none" /><path d="M 115.6541949942343 113.99807769240083 l 7.4437581962792425 6.656254479603725 a30.985752840017575,30.985752840017575 0 0,0 -0.3579626133396912,0.39346361788046536 l -7.328397882097671 -6.783055673041865" fill="#ff5b08" stroke="none" /><path d="M 115.41159269507618 114.26474011684316 l 7.406908370209366 6.855723808744519 a31.09273206552438,31.09273206552438 0 0,0 -0.3659232068188514,0.388597764964501 l -7.288129329654255 -6.981863033653514" fill="#ff5c08" stroke="none" /><path d="M 115.16444852881244 114.52719865689866 l 8.69943603649796 8.3338629337605 a33.04713487729869,33.04713487729869 0 0,0 -0.39595691996560833,0.4062866817854934 l -8.555092315381541 -8.48197230761373" fill="#ff780b" stroke="none" /><path d="M 114.91283532996326 114.78537596483092 l 38.57840897588403 38.24868096594605 a75.32545659951045,75.32545659951045 0 0,0 -0.918282167113072,0.9104336487432916 l -37.916134888641 -38.90529462491801" fill="#42ffd4" stroke="none" /><path d="M 114.65682725009322 115.03919595460226 l 8.39626861988854 8.615311274899454 a33.03000062762819,33.03000062762819 0 0,0 -0.4094579978694109,0.39225149964426403 l -8.247138136153817 -8.758174904849298" fill="#ff780b" stroke="none" /><path d="M 114.39649973595853 115.28858382429668 l 8.245331006330685 8.756255795601282 a33.02736458921734,33.02736458921734 0 0,0 -0.4160979715364863,0.3851340704721513 l -8.093803263480233 -8.896507612205813" fill="#ff780b" stroke="none" /><path d="M 114.13192950727249 115.5334660781643 l 6.897442403395752 7.581497455397266 a31.249576350969683,31.249576350969683 0 0,0 -0.3998978124980306,0.3575910898280196 l -6.766279564074344 -7.698784075108673" fill="#ff5e08" stroke="none" /><path d="M 113.86319453409587 115.77377054828091 l 8.351299295215872 9.502245571088821 a33.650568003514714,33.650568003514714 0 0,0 -0.4371697842378234,0.3776168474249178 l -8.186950031215192 -9.644206550978458" fill="#ff810b" stroke="none" /><path d="M 113.59037401385872 116.0094264158162 l 7.989345270872264 9.41142864016459 a33.34522688759179,33.34522688759179 0 0,0 -0.43956260169906086,0.3666987559230339 l -7.826608335011308 -9.547189579999491" fill="#ff7c0b" stroke="none" /><path d="M 113.31354834802062 116.24036423190432 l 7.598908471530753 9.26943277003313 a32.9860666541141,32.9860666541141 0 0,0 -0.4409910858168012,0.35523120261296864 l -7.438666615358699 -9.398512266439505" fill="#ff770b" stroke="none" /><path d="M 113.03279911837588 116.46651593811092 l 7.646977637062904 9.661706437378584 a33.32172221176175,33.32172221176175 0 0,0 -0.45157289376641624,0.35114581350699686 l -7.479994798661258 -9.791553302506374" fill="#ff7c0b" stroke="none" /><path d="M 112.7482090630111 116.68781488649013 l 7.468659856817747 9.776715499776698 a33.303050273018265,33.303050273018265 0 0,0 -0.4572778574466335,0.34314982919767173 l -7.299729010460347 -9.903484356238383" fill="#ff7c0b" stroke="none" /><path d="M 112.45986205192187 116.90419585922612 l 7.139676388023054 9.686342234906034 a33.033295675641746,33.033295675641746 0 0,0 -0.45934998224851803,0.33253396308741595 l -6.972345395400569 -9.807476969366526" fill="#ff780b" stroke="none" /><path d="M 112.16784306229584 117.11559508785304 l 5.720405978668611 8.04646739506453 a30.87262285821879,30.87262285821879 0 0,0 -0.4345761364395575,0.30336789411841614 l -5.581434751055295 -8.143480104988068" fill="#ff5908" stroke="none" /><path d="M 111.8722381534696 117.32195027204791 l 6.87200881004038 10.026466226320336 a33.15543212201092,33.15543212201092 0 0,0 -0.47223394368768173,0.3177400724443663 l -6.6988785782556945 -10.142955972821822" fill="#ff7a0b" stroke="none" /><path d="M 111.5731344415666 117.5232005979908 l 6.649485925144131 10.068169200671983 a33.065806816042176,33.065806816042176 0 0,0 -0.47632769727937424,0.3087498585485183 l -6.475672595607747 -10.180832900924397" fill="#ff780b" stroke="none" /><path d="M 111.27062007382361 117.71928675628689 l 6.521652028533031 10.253120206463757 a33.15147806439465,33.15147806439465 0 0,0 -0.48280529408251405,0.3013062116326474 l -6.344682605660802 -10.363562214937954" fill="#ff7a0b" stroke="none" /><path d="M 110.96478420261333 117.91015095944535 l 6.309700083204295 10.306420893543876 a33.084478754785664,33.084478754785664 0 0,0 -0.48692041187979695,0.29238171697404314 l -6.131846914767064 -10.413216611053844" fill="#ff790b" stroke="none" /><line stroke="#e1ed5e" stroke-width="0.3" x1="143.1302829299769" x2="145.6673583964461" y1="173.24464959558577" y2="177.55315839532614" /><path d="M 143.63769802327073 174.10635135553383 a86.0,86.0 0 0,1 -40.685524379131806,11.842963189579606" fill="none" id="id42" stroke="none" /><text fill="#e1ed5e" style="font-size:6.75px; font-family:Arial;" text-anchor="middle"><textPath startOffset="21.407464694133747" xlink:href="#id42">June</textPath></text><path d="M 110.65571695917076 118.09573695890943 l 6.2435336487268644 10.602885102369845 a33.304587962091254,33.304587962091254 0 0,0 -0.49514015317003385,0.2858693007193148 l -6.06060102769643 -10.70850130036533" fill="#ff7c0b" stroke="none" /><path d="M 110.34350942703117 118.27599006163325 l 4.235084897098825 7.482989215176558 a29.5983179564426,29.5983179564426 0 0,0 -0.44433532174154095,0.2464653128155214 l -4.10600538720119 -7.5545874434252225" fill="#ff4606" stroke="none" /><path d="M 110.02825361518725 118.45085714620011 l 5.880078329522651 10.81868183929686 a33.313374756794076,33.313374756794076 0 0,0 -0.5047946872145606,0.2687747382679245 l -5.693494826521537 -10.918027045287353" fill="#ff7c0b" stroke="none" /><path d="M 109.71004243097381 118.62028667847754 l 5.556982587486947 10.656246827125113 a33.01813845477939,33.01813845477939 0 0,0 -0.5048202594057917,0.25776482143935364 l -5.373235106367573 -10.750069600237302" fill="#ff780b" stroke="none" /><path d="M 109.3889696526874 118.78422872680471 l 5.578009282876003 11.159755126036872 a33.476150128663775,33.476150128663775 0 0,0 -0.5162337196824771,0.2525157810982847 l -5.385615313931457 -11.25386465723238" fill="#ff7e0b" stroke="none" /><path d="M 109.06512990194946 118.94263497670748 l 5.497414600050397 11.48748216635954 a33.73514090252934,33.73514090252934 0 0,0 -0.5245192497052767,0.24550149339159832 l -5.2994066364736145 -11.580159891321673" fill="#ff820c" stroke="none" /><path d="M 108.73861861582097 119.09545874513695 l 5.055433194710964 11.04703389087428 a33.14884202598381,33.14884202598381 0 0,0 -0.5194685534098761,0.23235167656698744 l -4.865051238445461 -11.132189318351116" fill="#ff7a0b" stroke="none" /><path d="M 108.4095320186766 119.2426549942271 l 3.1357830484922746 7.175285283993528 a28.830571769283875,28.830571769283875 0 0,0 -0.4552003029274332,0.19429794143655557 l -3.0121476703944103 -7.228057875089485" fill="#ff3b05" stroke="none" /><path d="M 108.07796709384702 119.3841803445677 l 3.126728763924155 7.503010787778388 a29.128444109709406,29.128444109709406 0 0,0 -0.46320542680481125,0.18838161457696903 l -2.997468875928903 -7.555579658934651" fill="#ff4006" stroke="none" /><path d="M 107.74402155503746 119.51999308798841 l 3.2756438379573836 8.256762280581048 a29.882790434946337,29.882790434946337 0 0,0 -0.4784487151581925,0.1850742412722196 l -3.133422860305663 -8.311776409991309" fill="#ff4b06" stroke="none" /><path d="M 107.407793817531 119.65005319985036 l 4.315285151409898 11.446806550832306 a33.23319525513086,33.23319525513086 0 0,0 -0.5355463714063255,0.19666004567059447 l -4.118149628349445 -11.519197445511622" fill="#ff7b0b" stroke="none" /><path d="M 107.06938296918513 119.77432235084164 l 4.099588412369347 11.467278420949802 a33.17805811837068,33.17805811837068 0 0,0 -0.5379493944790485,0.18712672418429646 l -3.9021332458452767 -11.535963577702688" fill="#ff7a0b" stroke="none" /><path d="M 106.72888874123015 119.89276391827305 l 3.596511424108198 10.632446967175882 a32.22425155337978,32.22425155337978 0 0,0 -0.5255273073024883,0.17275126420900222 l -3.4134613791579755 -10.692619152786904" fill="#ff6c0a" stroke="none" /><path d="M 106.38641147887787 120.00534299687104 l 3.3236088358088383 10.411157340502216 a31.92879558149752,31.92879558149752 0 0,0 -0.5235704685531316,0.16220346951706155 l -3.1443977343840825 -10.46667739782592" fill="#ff6809" stroke="none" /><path d="M 106.0420521117495 120.11202640906438 l 3.5162824456283985 11.704560652610907 a33.22133308228206,33.22133308228206 0 0,0 -0.5475824677032204,0.15939327579601303 l -3.3148399655435714 -11.763197622709438" fill="#ff7b0b" stroke="none" /><path d="M 105.69591212413111 120.21278271476187 l 2.740291537616246 9.72432794218841 a31.10305654930019,31.10305654930019 0 0,0 -0.515153407410788,0.14040735197526022 l -2.572956729270763 -9.769935788307812" fill="#ff5c08" stroke="none" /><path d="M 105.3480935250658 120.30758222061773 l 2.5442576772157124 9.660960813107737 a30.99036590723655,30.99036590723655 0 0,0 -0.5156128480474551,0.13106676968530317 l -2.37803953594286 -9.70321281462831" fill="#ff5b08" stroke="none" /><path d="M 104.9986988182912 120.39639698878246 l 1.9131926511271864 7.806478895191963 a29.03750078453524,29.03750078453524 0 0,0 -0.4851583505260222,0.11449604970644194 l -1.7789021468612856 -7.838171088544629" fill="#ff3e05" stroke="none" /><path d="M 104.64783097203107 120.47920084513623 l 2.6302606287462234 11.589413645911737 a32.88413983556141,32.88413983556141 0 0,0 -0.5515728546303115,0.1202127364620449 l -2.4309253574967755 -11.6328578405075" fill="#ff760a" stroke="none" /><path d="M 104.29559338865022 120.5559693870025 l 2.4906874781154573 11.918841221799088 a33.17630075943011,33.17630075943011 0 0,0 -0.5584732816924033,0.11171029729493667 l -2.2857177108920954 -11.959840915756887" fill="#ff7a0b" stroke="none" /><path d="M 103.94208987418118 120.62667999033965 l 2.2743365438669065 11.900289840657681 a33.11567187598067,33.11567187598067 0 0,0 -0.559284694739546,0.10192030213497218 l -2.069717115576304 -11.937578316724016" fill="#ff790b" stroke="none" /><path d="M 103.58742460773223 120.69131181640829 l 2.118801315945702 12.220682940836046 a33.403000062762814,33.403000062762814 0 0,0 -0.5658189803735406,0.09310529790108907 l -1.9087048325190885 -12.255254237232805" fill="#ff7d0b" stroke="none" /><path d="M 103.2317021107853 120.74984581791261 l 1.8481260528110692 11.86629501522294 a33.00935166007657,33.00935166007657 0 0,0 -0.5606479532055524,0.08239594214861751 l -1.6441529939978319 -11.89627203067044" fill="#ff780b" stroke="none" /><path d="M 102.875027216393 120.80226474461374 l 1.4255140280866516 10.314309388216186 a31.41235172283939,31.41235172283939 0 0,0 -0.5347910670229797,0.06923941051628653 l -1.248245139172896 -10.337260394932867" fill="#ff6108" stroke="none" /><path d="M 102.51750503828377 120.84855314841334 l 1.434955224336099 11.883487740925991 a32.96981108391389,32.96981108391389 0 0,0 -0.5624714115414469,0.06302609486631267 l -1.2307479111938529 -11.906369596299275" fill="#ff770b" stroke="none" /><path d="M 102.15924093988457 120.88869738790638 l 0.6597341849524913 6.38232977680869 a27.41633716186531,27.41633716186531 0 0,0 -0.46855882751319483,0.04437300812427601 l -0.5500757940542812 -6.39271454043815" fill="#ff2603" stroke="none" /><path d="M 101.80034050326958 120.92268563240118 l 1.0461214106584018 12.157516519113928 a33.202441473670994,33.202441473670994 0 0,0 -0.568285091180855,0.04398886014350327 l -0.8372673247023107 -12.173683146252484" fill="#ff7a0b" stroke="none" /><path d="M 101.44090949804482 120.95050786540614 l 0.8263095514740156 12.014359528413724 a33.04274147994728,33.04274147994728 0 0,0 -0.566219863932662,0.03406238096623222 l -0.6199453354088886 -12.026773887204648" fill="#ff780b" stroke="none" /><path d="M 101.08105385017728 120.97215588758144 l 0.616993860954441 11.969516071281102 a32.98540764451139,32.98540764451139 0 0,0 -0.5657378147444513,0.024295215985121597 l -0.41143028560916034 -11.978343855692057" fill="#ff770b" stroke="none" /><path d="M 100.72087961077811 120.9876233191556 l 0.41474821097101283 12.07494163242827 a33.08206238624239,33.08206238624239 0 0,0 -0.5677302298610855,0.014622716843454443 l -0.2074046670391835 -12.08028206662177" fill="#ff790b" stroke="none" /><line stroke="#e1ed5e" stroke-width="0.3" x1="101.45913802915013" x2="101.54496967792366" y1="184.9874750549273" y2="189.98673829345242" /><path d="M 101.47630435890484 185.9873277026323 a86.0,86.0 0 0,1 -42.54439059252881,-10.42667462771756" fill="none" id="id43" stroke="none" /><text fill="#e1ed5e" style="font-size:6.75px; font-family:Arial;" text-anchor="middle"><textPath startOffset="22.145653131862474" xlink:href="#id43">July</textPath></text><path d="M 100.36049292484886 120.99690560180557 l 0.20677492250007426 12.043602604336975 a33.04537751835812,33.04537751835812 0 0,0 -0.567267847348925,0.004869312215582256 l -1.4751333022378765e-15 -12.045377518358123" fill="#ff780b" stroke="none" /><path d="M 100.0 121.0 l 1.1631800292183918e-15 9.49808573401117 a30.49808573401117,30.49808573401117 0 0,0 -0.5235401965973686,-0.004493962925192632 l 0.16304727174851524 -9.496686169280412" fill="#ff5407" stroke="none" /><path d="M 99.63950707515114 120.99690560180557 l -0.20765731903990098 12.094997779035427 a33.09678026736961,33.09678026736961 0 0,0 -0.5679828074041015,-0.014629222345004638 l 0.4152534405147464 -12.089650839340376" fill="#ff790b" stroke="none" /><path d="M 99.27912038922189 120.98762331915562 l -0.41972509901378857 12.219838297532595 a33.22704449883889,33.22704449883889 0 0,0 -0.5698821657072087,-0.024473192247511384 l 0.6294330253218361 -12.210832536859256" fill="#ff7b0b" stroke="none" /><path d="M 98.91894614982273 120.97215588758144 l -0.6307674084085206 12.236719212257631 a33.2529655432122,33.2529655432122 0 0,0 -0.5698222599557173,-0.034279092165439 l 0.8407340204966843 -12.2240881422675" fill="#ff7b0b" stroke="none" /><path d="M 98.55909050195518 120.95050786540614 l -0.5244658559171487 7.625618440602018 a28.64363271198142,28.64363271198142 0 0,0 -0.4902576047122101,-0.03794903921051669 l 0.6552924554045948 -7.615491634396448" fill="#ff3805" stroke="none" /><path d="M 98.19965949673042 120.92268563240118 l -0.5615447302923959 6.526000964318694 a27.550116111215715,27.550116111215715 0 0,0 -0.4708451762432784,-0.044589527726122735 l 0.6734894699206895 -6.515399681087388" fill="#ff2803" stroke="none" /><path d="M 97.84075906011543 120.88869738790638 l -1.2588457346756898 12.178190550195337 a33.24308039917153,33.24308039917153 0 0,0 -0.567133439391492,-0.06354848481096975 l 1.467715075667981 -12.154786304877396" fill="#ff7b0b" stroke="none" /><path d="M 97.48249496171623 120.84855314841334 l -1.4773270899253246 12.23438757163162 a33.32325990083474,33.32325990083474 0 0,0 -0.5673240219736009,-0.07345145286709316 l 1.6871289337897188 -12.20722452256413" fill="#ff7c0b" stroke="none" /><path d="M 97.12497278360702 120.80226474461374 l -1.6738662399841036 12.111262276990226 a33.22638548923618,33.22638548923618 0 0,0 -0.5643341683529355,-0.08293768883349277 l 1.8815255139447244 -12.080743514857852" fill="#ff7b0b" stroke="none" /><path d="M 96.76829788921471 120.74984581791261 l -1.8870695540519307 12.116340229372142 a33.26241134751773,33.26241134751773 0 0,0 -0.5634375247150066,-0.09271343027872858 l 2.09478458182 -12.082160800597745" fill="#ff7b0b" stroke="none" /><path d="M 96.41257539226777 120.69131181640829 l -2.059322372837522 11.877624202902126 a33.05482332266365,33.05482332266365 0 0,0 -0.5582570343407254,-0.10173302817713453 l 2.2629141407293045 -11.840523000793626" fill="#ff780b" stroke="none" /><path d="M 96.05791012581884 120.62667999033965 l -1.8974797125509586 9.928415654673518 a31.108108956254313,31.108108956254313 0 0,0 -0.5236583735486553,-0.10474634061781833 l 2.0676345716305726 -9.894379917392838" fill="#ff5c08" stroke="none" /><path d="M 95.70440661134978 120.55596938700252 l -2.4841271250249832 11.887447557386631 a33.14422895876483,33.14422895876483 0 0,0 -0.5559353862598743,-0.12116352992602612 l 2.6878249279039936 -11.843052569326886" fill="#ff7a0b" stroke="none" /><path d="M 95.35216902796893 120.47920084513623 l -1.2967039044231132 5.713516660815376 a26.858815037971503,26.858815037971503 0 0,0 -0.44875688502246536,-0.10590540296365417 l 1.3945929431854664 -5.690415114205494" fill="#ff1e03" stroke="none" /><path d="M 95.00130118170881 120.39639698878247 l -2.946888721534497 12.024311612102787 a33.380154396535495,33.380154396535495 0 0,0 -0.5553737741651955,-0.1411738416205441 l 3.152867788925071 -11.971952538646981" fill="#ff7d0b" stroke="none" /><path d="M 94.6519064749342 120.30758222061772 l -3.090938255543118 11.736796013215233 a33.136979853135,33.136979853135 0 0,0 -0.5488408528463166,-0.14958901503012578 l 3.29196050932413 -11.682006504040965" fill="#ff790b" stroke="none" /><path d="M 94.30408787586889 120.21278271476187 l -3.22463294284504 11.4430847225426 a32.888752902780396,32.888752902780396 0 0,0 -0.5421005963120381,-0.15779758292769325 l 3.4205935515386847 -11.38604344531239" fill="#ff760a" stroke="none" /><path d="M 93.95794788825049 120.11202640906438 l -3.436583835689739 11.43926990069318 a32.944329379275715,32.944329379275715 0 0,0 -0.5402232578817062,-0.16736254621918065 l 3.6324477264430786 -11.378590766667351" fill="#ff770a" stroke="none" /><path d="M 93.61358852112213 120.00534299687104 l -3.6947098605705113 11.573626015031168 a33.14906169585138,33.14906169585138 0 0,0 -0.5406095190067252,-0.17770908676697567 l 3.89284211722498 -11.50849600686217" fill="#ff7a0b" stroke="none" /><path d="M 93.27111125876986 119.89276391827306 l -3.848990805630737 11.378857396001228 a33.012207368354986,33.012207368354986 0 0,0 -0.5352602886179862,-0.18619131357517582 l 4.0437568662937435 -11.311107649857462" fill="#ff780b" stroke="none" /><path d="M 92.93061703081489 119.77432235084164 l -1.5041979850644813 4.20750947654208 a25.468304776250548,25.468304776250548 0 0,0 -0.4104166964410669,-0.15071069579675372 l 1.576203833159667 -4.1810679317366075" fill="#ff0901" stroke="none" /><path d="M 92.59220618246901 119.65005319985036 l -4.369992388330931 11.591923996376092 a33.3882821816356,33.3882821816356 0 0,0 -0.5345745989123307,-0.20678493882962826 l 4.568339249736791 -11.515199169408424" fill="#ff7d0b" stroke="none" /><path d="M 92.25597844496254 119.51999308798841 l -4.868385859915442 12.27151263201129 a34.20193937111655,34.20193937111655 0 0,0 -0.5438850034104472,-0.2211932960142899 l 5.07832532451633 -12.18613207941771" fill="#ff880c" stroke="none" /><path d="M 91.92203290615298 119.3841803445677 l -4.635717826058509 11.124035208721192 a33.05130860478253,33.05130860478253 0 0,0 -0.5218406977649334,-0.2227427633098574 l 4.825993598993874 -11.042817795751931" fill="#ff780b" stroke="none" /><path d="M 91.59046798132341 119.24265499422711 l -4.8586295995266156 11.117495351797645 a33.132806125651165,33.132806125651165 0 0,0 -0.5192172581778338,-0.23223927540603967 l 5.048760260560084 -11.032452325481751" fill="#ff790b" stroke="none" /><path d="M 91.26138138417905 119.09545874513695 l -5.8104802643848075 12.696948002412503 a34.96331513211573,34.96331513211573 0 0,0 -0.5436150948144527,-0.25443931310843615 l 6.02758407307075 -12.595332457733539" fill="#ff930d" stroke="none" /><path d="M 90.93487009805054 118.94263497670748 l -2.8572825185206936 5.97062153097502 a27.619092449632838,27.619092449632838 0 0,0 -0.42591238164271233,-0.20833508860307104 l 2.9593551494254755 -5.920692692274727" fill="#ff2904" stroke="none" /><path d="M 90.6110303473126 118.78422872680471 l -3.765193095829166 7.532908394521976 a29.42148371304839,29.42148371304839 0 0,0 -0.44983035795509846,-0.22968658594006858 l 3.8939506754978455 -7.467163856909071" fill="#ff4406" stroke="none" /><path d="M 90.28995756902619 118.62028667847754 l -2.0313305568845097 3.895344183799582 a25.393177681541456,25.393177681541456 0 0,0 -0.38478062576121547,-0.20487401036291253 l 2.097899998432288 -3.859899705714096" fill="#ff0801" stroke="none" /><path d="M 89.97174638481275 118.45085714620012 l -4.333638918707667 7.973407502498158 a30.07500156907048,30.07500156907048 0 0,0 -0.45149138266018274,-0.2504346591774687 l 4.469874489523951 -7.89783992788754" fill="#ff4d07" stroke="none" /><line stroke="#e1ed5e" stroke-width="0.3" x1="58.13341422392154" x2="55.670673884152215" y1="173.97424548756322" y2="178.32567169271397" /><path d="M 57.64086615596767 174.84453072859336 a86.0,86.0 0 0,1 -31.369924170532244,-30.572349798747886" fill="none" id="id44" stroke="none" /><text fill="#e1ed5e" style="font-size:6.75px; font-family:Arial;" text-anchor="middle"><textPath startOffset="22.145653131862474" xlink:href="#id44">August</textPath></text><path d="M 89.65649057296885 118.27599006163327 l -5.974259048546539 10.555943296336142 a33.12929140777004,33.12929140777004 0 0,0 -0.49253401485492904,-0.28436464606154366 l 6.154585531261869 -10.451831752998427" fill="#ff790b" stroke="none" /><path d="M 89.34428304082925 118.09573695890944 l -6.983541859065302 11.859580824771989 a34.76297621289148,34.76297621289148 0 0,0 -0.5116236777132427,-0.30721531832454607 l 7.186098293335972 -11.737951505911521" fill="#ff900d" stroke="none" /><path d="M 89.03521579738668 117.91015095944536 l -4.194232397342664 6.850963412257557 a29.032887717316264,29.032887717316264 0 0,0 -0.4228237385131368,-0.2638732847406883 l 4.311220264645514 -6.777954330675323" fill="#ff3e05" stroke="none" /><path d="M 88.72937992617639 117.7192867562869 l -6.71818463029315 10.56210209962816 a33.517667733634596,33.517667733634596 0 0,0 -0.48283695536476656,-0.3129690809968445 l 6.8985072179149265 -10.44521917692742" fill="#ff7f0b" stroke="none" /><path d="M 88.4268655584334 117.5232005979908 l -5.172669809193264 7.832081373574247 a30.386054101550243,30.386054101550243 0 0,0 -0.4327895986599468,-0.2912001567645208 l 5.306355695950217 -7.742131542752605" fill="#ff5207" stroke="none" /><path d="M 88.1277618465304 117.32195027204791 l -3.6316644733353356 5.298707000203952 a27.423805937362708,27.423805937362708 0 0,0 -0.38602912637059306,-0.2694783107394704 l 3.722088690879694 -5.235583873659352" fill="#ff2603" stroke="none" /><path d="M 87.83215693770417 117.11559508785305 l -7.14748454113289 10.053832111115165 a33.33556141341869,33.33556141341869 0 0,0 -0.46355318869350537,-0.33557676041154844 l 7.319018740200347 -9.92965457933055" fill="#ff7c0b" stroke="none" /><path d="M 87.54013794807813 116.9041958592261 l -5.42432413729246 7.359137463851464 a30.14222054854704,30.14222054854704 0 0,0 -0.4138771048936167,-0.31058109536748607 l 5.5498542310968455 -7.264937341219963" fill="#ff4e07" stroke="none" /><path d="M 87.2517909369889 116.68781488649013 l -3.7459982508948406 4.903631958580662 a27.170746249921546,27.170746249921546 0 0,0 -0.368215437122254,-0.28632655103742455 l 3.829623632652323 -4.838604355922444" fill="#ff2203" stroke="none" /><path d="M 86.96720088162412 116.46651593811092 l -5.85615723057966 7.399063355274093 a30.436138831356306,30.436138831356306 0 0,0 -0.40690107286969446,-0.32777070128818375 l 5.9823090738046165 -7.2974443601924985" fill="#ff5307" stroke="none" /><path d="M 86.68645165197938 116.24036423190432 l -5.210914857401695 6.356468843126049 a29.219387434883572,29.219387434883572 0 0,0 -0.38517506581158434,-0.32132673912595017 l 5.319264257375172 -6.266079920088229" fill="#ff4106" stroke="none" /><path d="M 86.40962598614128 116.0094264158162 l -8.022753269923042 9.450783179043192 a33.39684930647084,33.39684930647084 0 0,0 -0.4338736096225075,-0.3747696902981545 l 8.183806359308411 -9.311669356280312" fill="#ff7d0b" stroke="none" /><path d="M 86.13680546590413 115.77377054828092 l -9.381924659280171 10.674908046105385 a35.211761752337914,35.211761752337914 0 0,0 -0.4506015166674468,-0.40293065475087203 l 9.56379120277099 -10.512281861471136" fill="#ff970d" stroke="none" /><path d="M 85.86807049272751 115.53346607816431 l -6.6142065936933125 7.270171684923383 a30.828688884704704,30.828688884704704 0 0,0 -0.3883977746817562,-0.3594951818033402 l 6.738034139689035 -7.155558756987663" fill="#ff5808" stroke="none" /><path d="M 85.60350026404147 115.28858382429668 l -3.5481488135621957 3.7680110827031332 a26.175641749827403,26.175641749827403 0 0,0 -0.32448760702917717,-0.31085178732731955 l 3.612308906456685 -3.7065471650702313" fill="#ff1302" stroke="none" /><path d="M 85.34317274990678 115.03919595460226 l -8.435517848701108 8.655584441329491 a33.08623611372623,33.08623611372623 0 0,0 -0.4033497036953174,-0.3999022910456225 l 8.58285947252639 -8.509502140055206" fill="#ff790b" stroke="none" /><path d="M 85.08716467003676 114.78537596483093 l -6.778618239170514 6.720681679279513 a30.545534425406387,30.545534425406387 0 0,0 -0.3659837917778368,-0.37553161177636546 l 6.89298883209916 -6.603327375435411" fill="#ff5407" stroke="none" /><path d="M 84.83555147118756 114.52719865689866 l -10.042057140996679 9.620063580552177 a34.90642063641499,34.90642063641499 0 0,0 -0.41080562978278273,-0.436261342799861 l 10.205718604515715 -9.44626077780783" fill="#ff920d" stroke="none" /><path d="M 84.58840730492382 114.26474011684316 l -6.031604521993979 5.582763098930624 a29.218728425280865,29.218728425280865 0 0,0 -0.3375490806880884,-0.3710255695717761 l 6.126551303523948 -5.478399953801174" fill="#ff4106" stroke="none" /><path d="M 84.3458050057657 113.99807769240083 l -9.200143220109833 8.226824798320548 a33.34193183957823,33.34193183957823 0 0,0 -0.3778576611460167,-0.4299326560100131 l 9.340011945214442 -8.067679864499235" fill="#ff7c0b" stroke="none" /><path d="M 84.1078160697243 113.72728997021213 l -6.345203544370109 5.480835696071326 a29.384579175296555,29.384579175296555 0 0,0 -0.32645628907868496,-0.384564687672024 l 6.438354396955906 -5.371104225949745" fill="#ff4306" stroke="none" /><path d="M 83.8745106332314 113.45245675266167 l -10.076617542124549 8.40627274096219 a34.12263854892362,34.12263854892362 0 0,0 -0.371373217920335,-0.4530149414222359 l 10.219437579283515 -8.232055517841463" fill="#ff870c" stroke="none" /><path d="M 83.64595745247003 113.17365903436017 l -7.01921295181596 5.6541810899687475 a30.013274336283185,30.013274336283185 0 0,0 -0.3197608093043168,-0.40400733679450185 l 7.115240191761838 -5.532853809259563" fill="#ff4d07" stroke="none" /><path d="M 83.4222238831116 112.89097897827486 l -4.460139351517499 3.4682313366517015 a26.649908993912007,26.649908993912007 0 0,0 -0.27772761366693177,-0.36355436146618525 l 4.519018942538729 -3.391156061944648" fill="#ff1b02" stroke="none" /><path d="M 83.20337586046588 112.60449989151573 l -7.391372040230139 5.546623375345545 a30.241071988953742,30.241071988953742 0 0,0 -0.30802401066939056,-0.4178937281971423 l 7.48549807048336 -5.418923337879523" fill="#ff5007" stroke="none" /><path d="M 82.98947788004972 112.3143062007846 l -5.739391943126388 4.154877157537894 a28.085451578484907,28.085451578484907 0 0,0 -0.27936318027206575,-0.3929592986622083 l 5.809870221928414 -4.055740632166181" fill="#ff3004" stroke="none" /><path d="M 82.78059297857968 112.02048342749411 l -6.822342102798343 4.762524637542279 a29.32021590409841,29.32021590409841 0 0,0 -0.2845600438117076,-0.41518160810121557 l 6.903091883425373 -4.644708294371013" fill="#ff4206" stroke="none" /><path d="M 82.576782715395 111.72311816256416 l -6.416653182483818 4.317410627308065 a28.733917027552877,28.733917027552877 0 0,0 -0.2718441470216327,-0.41160668647732296 l 6.4898217684261805 -4.206624062491681" fill="#ff3a05" stroke="none" /><path d="M 82.37810715431573 111.42229804090323 l -7.170011569474055 4.647514873710877 a29.54449883888784,29.54449883888784 0 0,0 -0.2722065635763921,-0.427953930250546 l 7.248735824676338 -4.523747268781658" fill="#ff4606" stroke="none" /><path d="M 82.18462484594161 111.1181117155819 l -14.802538378020575 9.237878738889783 a38.44859725098851,38.44859725098851 0 0,0 -0.3446313202089519,-0.5629293615121123 l 14.95893766268493 -8.982412261253113" fill="#ffc312" stroke="none" /><path d="M 81.99639281039703 110.81064883170646 l -7.5567767326723265 4.537627304138717 a29.814473106131928,29.814473106131928 0 0,0 -0.25970718808287924,-0.44103958277919353 l 7.633557630884975 -4.407236553065967" fill="#ff4a06" stroke="none" /><line stroke="#e1ed5e" stroke-width="0.3" x1="26.387840678322732" x2="22.057713659400548" y1="142.50000000000003" y2="145.00000000000006" /><path d="M 25.521815274538298 143.00000000000003 a86.0,86.0 0 0,1 -11.493303480769221,-40.785679425670985" fill="none" id="id45" stroke="none" /><text fill="#e1ed5e" style="font-size:6.75px; font-family:Arial;" text-anchor="middle"><textPath startOffset="21.40746469413373" xlink:href="#id45">September</textPath></text><path d="M 81.81346652052679 110.50000000000001 l -13.636570915104071 7.8730778886587665 a36.74615577731752,36.74615577731752 0 0,0 -0.3107091061799291,-0.548993219048401 l 13.769713386305378 -7.637827899511244" fill="#ffac0f" stroke="none" /><path d="M 81.63589988554817 110.18625677009913 l -6.660007018641028 3.694193625591926 a28.615954308667547,28.615954308667547 0 0,0 -0.23458902902058873,-0.4316173910848831 l 6.722441397276946 -3.579321401032457" fill="#ff3805" stroke="none" /><path d="M 81.4637452351635 109.86951160357371 l -6.187089199472455 3.2942765095340247 a28.00944580430553,28.00944580430553 0 0,0 -0.2223308860981521,-0.42634878951938326 l 6.242728154545556 -3.1875814769101374" fill="#ff2f04" stroke="none" /><path d="M 81.29705330413844 109.54985784667822 l -5.921875913063381 3.0237520362466057 a27.64918722148999,27.64918722148999 0 0,0 -0.21221420933260424,-0.42457057532832204 l 5.972910035607723 -2.9216496047545313" fill="#ff2a04" stroke="none" /><path d="M 81.1358732173502 109.22738970284198 l -8.946834748900002 4.376345207293615 a30.95983179564426,30.95983179564426 0 0,0 -0.22942819035592715,-0.47941667800527665 l 9.02064219721584 -4.222116027223235" fill="#ff5a08" stroke="none" /><path d="M 80.9802524753101 108.90220220490707 l -6.548222246073336 3.0648986502866866 a28.229994351346264,28.229994351346264 0 0,0 -0.20166370046456922,-0.4406715800184954 l 6.599870411392962 -2.9520380880535027" fill="#ff3204" stroke="none" /><path d="M 80.83023694016515 108.57439118712176 l -7.797003044577902 3.4875002879647656 a29.541423460741857,29.541423460741857 0 0,0 -0.20308479165334137,-0.4646977467569808 l 7.855721718248211 -3.353140471431934" fill="#ff4606" stroke="none" /><path d="M 80.68587082218212 108.24405325689762 l -6.800897679697329 2.902898813089055 a28.39452708215653,28.39452708215653 0 0,0 -0.1875041458525689,-0.44994169155860975 l 6.8497276700863825 -2.7857246120891643" fill="#ff3505" stroke="none" /><path d="M 80.5471966667186 107.91128576633889 l -6.77097879573776 2.7536981304517547 a28.309514843406767,28.309514843406767 0 0,0 -0.17921449592136496,-0.4517376012953848 l 6.817251966625249 -2.637059511942805" fill="#ff3304" stroke="none" /><path d="M 80.41425534168474 107.57618678355246 l -7.227618779221802 2.7957982107383392 a28.74951358815038,28.74951358815038 0 0,0 -0.17409790398441263,-0.4618153743939318 l 7.27454736702065 -2.6713145561502625" fill="#ff3a05" stroke="none" /><path d="M 80.28708602549918 107.23885506374661 l -4.227848649754079 1.5525245859954881 a25.50389129479696,25.50389129479696 0 0,0 -0.1473879957502055,-0.41227045575449944 l 4.253876815548227 -1.4797191738600672" fill="#ff0901" stroke="none" /><path d="M 79.64726062577567 105.17358676015961 l -4.426174727401448 1.125116307283815 a25.56693654678968,25.56693654678968 0 0,0 -0.10447438402290453,-0.42629113878441566 l 4.444836637940646 -1.0489693438913004" fill="#ff0a01" stroke="none" /><path d="M 79.56144815229197 104.8234425847677 l -3.7978873514371156 0.8962910738280452 a24.902215527521495,24.902215527521495 0 0,0 -0.09461553915458294,-0.41689352325366746 l 3.812713752149365 -0.8309632166353514" fill="#ff0000" stroke="none" /><path d="M 79.48165901384964 104.47187691870673 l -7.461663678984054 1.6262348697550104 a28.63682294608674,28.63682294608674 0 0,0 -0.10055927994103506,-0.4812125573869769 l 7.488480669749455 -1.4979058610826244" fill="#ff3805" stroke="none" /><path d="M 79.407916724674 104.11899336999214 l -4.353291941194777 0.8707803092903733 a25.439528023598818,25.439528023598818 0 0,0 -0.081980342092805,-0.42895579142473594 l 4.367598575569739 -0.7959219528323228" fill="#ff0801" stroke="none" /><path d="M 79.34024301695615 103.76489593502545 l -16.2242996270323 2.9566078519017234 a37.49149563798406,37.49149563798406 0 0,0 -0.10994860006449282,-0.6341543074685309 l 16.272663044589024 -2.6776605115125998" fill="#ffb610" stroke="none" /><path d="M 79.2786578344484 103.40968896794605 l -17.041926453295716 2.8042425126762276 a38.27110399799159,38.27110399799159 0 0,0 -0.1011058925728456,-0.649172358791196 l 17.08755383800683 -2.511281971953581" fill="#ffc011" stroke="none" /><path d="M 79.22317932658666 103.0534771498775 l -16.734383964219763 2.459378162579422 a37.91414046318961,37.91414046318961 0 0,0 -0.08910813009306197,-0.6447420401880597 l 16.774136610868037 -2.1717478141912774" fill="#ffbb11" stroke="none" /><path d="M 79.17382384314188 102.69636545807758 l -8.581391922370745 1.111032989802444 a29.653015753467646,29.653015753467646 0 0,0 -0.061025784617822314,-0.5053810398312439 l 8.599199793248228 -0.9635582730478008" fill="#ff4706" stroke="none" /><path d="M 79.13060592940153 102.33845913500099 l -12.638472565568604 1.416167212303048 a33.7175673131237,33.7175673131237 0 0,0 -0.05951569293504165,-0.575760340862239 l 12.660920650985311 -1.1990023491578778" fill="#ff820b" stroke="none" /><path d="M 79.0935383218832 101.97986365728391 l -11.005207964893321 1.0422046363469772 a32.05444674574782,32.05444674574782 0 0,0 -0.047175563111393176,-0.5482515528138243 l 11.021477150702454 -0.8531320361574906" fill="#ff6a09" stroke="none" /><path d="M 79.06263194458094 101.62068470465958 l -13.218413686654134 1.0231888184378752 a34.257955187347015,34.257955187347015 0 0,0 -0.04035267190093531,-0.5867189932454847 l 13.234030319720135 -0.7961264010380471" fill="#ff890c" stroke="none" /><path d="M 79.03789590574601 101.26102812881392 l -15.86399618204448 0.954338616534126 a36.89267557898701,36.89267557898701 0 0,0 -0.032603305687634115,-0.6324954202969895 l 15.878041077188687 -0.6818714028604059" fill="#ffae10" stroke="none" /><path d="M 79.01933749520258 100.90099992219065 l -15.849290823123443 0.6806367432461147 a36.86389882633527,36.86389882633527 0 0,0 -0.021723918404401035,-0.6324681814700327 l 15.858639428524691 -0.408462297211962" fill="#ffad10" stroke="none" /><path d="M 79.00696218219943 100.54070618675478 l -16.01828647651253 0.4125742388610626 a37.02359882005899,37.02359882005899 0 0,0 -0.01091062256007061,-0.6354890655530865 l 16.023008530671266 -0.13753825733892366" fill="#ffaf10" stroke="none" /><line stroke="#e1ed5e" stroke-width="0.3" x1="15.003131293944662" x2="10.003315487706104" y1="100.72959589197737" y2="100.7725132973878" /><path d="M 14.003168132696942 100.73817937305945 a86.0,86.0 0 0,1 10.791469493833604,-42.453326145846276" fill="none" id="id46" stroke="none" /><text fill="#e1ed5e" style="font-size:6.75px; font-family:Arial;" text-anchor="middle"><textPath startOffset="22.145653131862435" xlink:href="#id46">October</textPath></text><path d="M 79.00077361379809 100.18025310272382 l -15.785554151672923 0.13549999708196803 a36.78613569321534,36.78613569321534 0 0,0 0.0,-0.6315061996115654 l 15.785554151672923 0.13549999708196223" fill="#ffac0f" stroke="none" /><path d="M 79.00077361379809 99.81974689727619 l -7.044333469100911 -0.06046713060158141 a28.0445929831168,28.0445929831168 0 0,0 0.008264565807789954,-0.4813695252931964 l 7.042257471694454 0.18138357186383017" fill="#ff2f04" stroke="none" /><path d="M 79.00696218219943 99.45929381324524 l -4.803465650186927 -0.12372023608311523 a25.80505868323605,25.80505868323605 0 0,0 0.01520693706046133,-0.44273338029165377 l 4.8006340261296145 0.20615988093890755" fill="#ff0e01" stroke="none" /><path d="M 79.01933749520258 99.09900007780938 l -9.92586061533163 -0.42625916317198365 a30.9350091006088,30.9350091006088 0 0,0 0.02733831424065861,-0.5303559927793943 l 9.9170807116344 0.5965869493280899" fill="#ff5a08" stroke="none" /><path d="M 79.03789590574601 98.7389718711861 l -36.48227949322989 -2.1946833408209465 a57.54823322663654,57.54823322663654 0 0,0 0.0677864443798119,-0.9856000242028771 l 36.439229087685014 2.820626789178148" fill="#56ff2b" stroke="none" /><path d="M 79.06263194458094 98.37931529534042 l -15.573916871198078 -1.2055196621648832 a36.62050461306722,36.62050461306722 0 0,0 0.05389557774145208,-0.6263483091188347 l 15.550927670758883 1.4726890186593988" fill="#ffaa0f" stroke="none" /><path d="M 79.0935383218832 98.0201363427161 l -17.008724628292793 -1.6107439062036417 a38.08482395029185,38.08482395029185 0 0,0 0.06722444317115958,-0.6503355065821939 l 16.978567792639968 1.9024839350687484" fill="#ffbe11" stroke="none" /><path d="M 79.13060592940154 97.66154086499901 l -14.579628783018359 -1.6336778153327087 a35.67087177556016,35.67087177556016 0 0,0 0.07341050759231385,-0.6079443122917292 l 14.549436189166377 1.8837158045478741" fill="#ff9d0e" stroke="none" /><path d="M 79.17382384314186 97.30363454192245 l -8.993784979390059 -1.164425527430216 a30.068850812778507,30.068850812778507 0 0,0 0.07066965088066733,-0.5113303897252915 l 8.972470811954183 1.3186442253555746" fill="#ff4d07" stroke="none" /><path d="M 79.22317932658666 96.9465228501225 l -12.385721807539415 -1.8202745799532232 a33.51876608297245,33.51876608297245 0 0,0 0.08855100607855994,-0.5685609812300022 l 12.352649309322587 2.032623743114676" fill="#ff7f0b" stroke="none" /><path d="M 79.2786578344484 96.59031103205396 l -9.502538134038183 -1.5636390338161288 a30.63032699428858,30.63032699428858 0 0,0 0.08982734658170495,-0.518100264394845 l 9.474295969964244 1.7265323311315666" fill="#ff5607" stroke="none" /><path d="M 79.34024301695615 96.23510406497455 l -16.04038936538906 -2.9230932758571697 a37.304556580681606,37.304556580681606 0 0,0 0.12021607898022381,-0.6290213237042354 l 15.987846994126677 3.1980171645947193" fill="#ffb310" stroke="none" /><path d="M 79.407916724674 95.88100663000787 l -14.688321497776943 -2.9380756699906216 a35.97928826962907,35.97928826962907 0 0,0 0.126342622852974,-0.6045951868958076 l 14.635721164099603 3.1897873081718386" fill="#ffa10e" stroke="none" /><path d="M 79.48165901384962 95.52812308129327 l -9.862316871834238 -2.149446059693444 a31.093830414862236,31.093830414862236 0 0,0 0.118140473317811,-0.5205487238185031 l 9.823965536958765 2.3184291174509557" fill="#ff5c08" stroke="none" /><path d="M 79.56144815229197 95.17655741523228 l -15.463071412972353 -3.6492427497009317 a36.88784284190046,36.88784284190046 0 0,0 0.15073509694007345,-0.6150506339934575 l 15.398148789515982 3.9141492083025065" fill="#ffae10" stroke="none" /><path d="M 79.64726062577567 94.8264132398404 l -6.875793121508284 -1.747799723907554 a28.094458043055294,28.094458043055294 0 0,0 0.12282698949727423,-0.46639408537570964 l 6.844776651206284 1.865574313656048" fill="#ff3004" stroke="none" /><path d="M 79.73907114497095 94.47779374421319 l -7.449438150645583 -2.030377494138483 a28.721176175233794,28.721176175233794 0 0,0 0.1337333293240928,-0.4745724070948424 l 7.413486329246908 2.157957825136339" fill="#ff3a05" stroke="none" /><path d="M 79.83685265289637 94.1308016681162 l -12.210770649105815 -3.5543773742764553 a33.7175673131237,33.7175673131237 0 0,0 0.16653857915440942,-0.5543527662676276 l 12.147955749947778 3.7634677441348066" fill="#ff820b" stroke="none" /><path d="M 79.94057633289273 93.78553927170692 l -14.801268709116085 -4.5854708813266525 a36.495292788552064,36.495292788552064 0 0,0 0.19053199036500582,-0.5968387460994296 l 14.720372002973821 4.838878661117474" fill="#ffa80f" stroke="none" /><path d="M 80.05021161711548 93.44210830539832 l -14.77254304311818 -4.856028318261453 a36.55021025544467,36.55021025544467 0 0,0 0.20105152995709655,-0.5943731238024609 l 14.687006091588716 5.108903116538076" fill="#ffa90f" stroke="none" /><path d="M 80.16572619554312 93.10060997987247 l -14.341766320771173 -4.988810802959424 a36.184679595807445,36.184679595807445 0 0,0 0.20911269346483755,-0.5849254208253883 l 14.254013457262392 5.2342711801657344" fill="#ffa40f" stroke="none" /><path d="M 80.28708602549916 92.7611449362534 l -14.868508359289761 -5.459922219831467 a36.83929580116739,36.83929580116739 0 0,0 0.22308705027581796,-0.591764905192591 l 14.772590625199506 5.714355405218204" fill="#ffad10" stroke="none" /><path d="M 80.41425534168474 92.42381321644754 l -5.433109087992035 -2.1016433117118307 a26.825425218100797,26.825425218100797 0 0,0 0.16981940824244157,-0.4280558430189848 l 5.396231004783463 2.194600171944398" fill="#ff1d03" stroke="none" /><path d="M 80.5471966667186 92.08871423366112 l -5.4399803794215895 -2.21239266174296 a26.872654239628446,26.872654239628446 0 0,0 0.177454411035414,-0.42582598647494 l 5.401200123849697 2.305451157659164" fill="#ff1e03" stroke="none" /><path d="M 80.68587082218212 91.75594674310238 l -8.972368425980587 -3.8297705510452404 a30.755538818803743,30.755538818803743 0 0,0 0.21143132122604072,-0.4837962398253147 l 8.905303222737569 3.983228860646422" fill="#ff5708" stroke="none" /><path d="M 80.83023694016515 91.42560881287825 l -14.169478413084486 -6.337827465683347 a36.52231218226323,36.52231218226323 0 0,0 0.26090067651206017,-0.5701150632543436 l 14.058593271717378 6.580131511152362" fill="#ffa90f" stroke="none" /><path d="M 80.9802524753101 91.09779779509293 l -14.609103129672738 -6.837797921547742 a37.13013870583066,37.13013870583066 0 0,0 0.27515332083110033,-0.5749646144631111 l 14.489570550881734 7.087575038075941" fill="#ffb110" stroke="none" /><path d="M 81.1358732173502 90.77261029715801 l -14.128263660161934 -6.9108417325057045 a36.72792317830917,36.72792317830917 0 0,0 0.2818957069253381,-0.5639802482985237 l 14.007548040024847 7.152353836967999" fill="#ffab0f" stroke="none" /><path d="M 81.29705330413844 90.45014215332179 l -14.072109771542602 -7.185319517101513 a36.800414234607416,36.800414234607416 0 0,0 0.29211105291851924,-0.5601614602573044 l 13.946690649649144 7.4258272204633045" fill="#ffac10" stroke="none" /><path d="M 81.46374523516351 90.13048839642627 l -10.07939634135123 -5.366710827512844 a32.419098725914765,32.419098725914765 0 0,0 0.265766600330728,-0.48898061069250387 l 9.985784391405153 5.538946271679969" fill="#ff6f0a" stroke="none" /><path d="M 81.63589988554816 89.8137432299009 l -7.504081747222188 -4.162387648979597 a29.58118370677211,29.58118370677211 0 0,0 0.2501252975950586,-0.44194743430735095 l 7.431523084605761 4.290591853386054" fill="#ff4606" stroke="none" /><line stroke="#e1ed5e" stroke-width="0.3" x1="26.387840678322718" x2="22.05771365940052" y1="57.5" y2="55.0" /><path d="M 25.521815274538284 57.0 a86.0,86.0 0 0,1 29.574782752854787,-30.346332500585742" fill="none" id="id47" stroke="none" /><text fill="#e1ed5e" style="font-size:6.75px; font-family:Arial;" text-anchor="middle"><textPath startOffset="21.40746469413373" xlink:href="#id47">November</textPath></text><path d="M 81.81346652052679 89.5 l -4.716802768782389 -2.7232473482708848 a26.44649469654177,26.44649469654177 0 0,0 0.23036948356718345,-0.39121774667671066 l 4.669359575085426 2.8038162632411683" fill="#ff1802" stroke="none" /><path d="M 81.99639281039701 89.18935116829357 l -12.191672614838478 -7.320749110004174 a35.220768216908304,35.220768216908304 0 0,0 0.31569889975778326,-0.5156704270609402 l 12.064205750625302 7.528956653189655" fill="#ff970d" stroke="none" /><path d="M 82.18462484594161 88.88188828441811 l -11.340021689780192 -7.077012238800743 a34.36713111152953,34.36713111152953 0 0,0 0.3166396123644928,-0.4978100630786846 l 11.216864385789806 7.270635976558102" fill="#ff8b0c" stroke="none" /><path d="M 82.37810715431573 88.57770195909679 l -11.302579360718605 -7.326195387728001 a34.46927759994979,34.46927759994979 0 0,0 0.32610490796034536,-0.4937643943419797 l 11.175150013837532 7.519139660409041" fill="#ff8c0c" stroke="none" /><path d="M 82.576782715395 88.27688183743585 l -10.364661852321195 -6.973807054403445 a33.49240569886399,33.49240569886399 0 0,0 0.3250521914368461,-0.47426086160878905 l 10.243419924069036 7.150702651082269" fill="#ff7e0b" stroke="none" /><path d="M 82.78059297857968 87.97951657250589 l -4.771460616303942 -3.3308500804861945 a26.819054791941255,26.819054791941255 0 0,0 0.2667664579873297,-0.37524043123797957 l 4.71357905978664 3.412267738433692" fill="#ff1d02" stroke="none" /><path d="M 82.98947788004972 87.6856937992154 l -5.358070692649877 -3.878829978849199 a27.614699052281427,27.614699052281427 0 0,0 0.28127277890874436,-0.38160054459100806 l 5.290695894157314 3.9702368327090705" fill="#ff2904" stroke="none" /><path d="M 83.2033758604659 87.39550010848427 l -6.512517734220078 -4.887114719752737 a29.142283311366345,29.142283311366345 0 0,0 0.30370147990824337,-0.397554986148361 l 6.427664276957528 4.998190619141985" fill="#ff4006" stroke="none" /><path d="M 83.42222388311158 87.10902102172516 l -10.388032181699234 -8.077796655940254 a34.15910374694031,34.15910374694031 0 0,0 0.3639303908280077,-0.4598141601433015 l 10.247835360229665 8.254930759998237" fill="#ff880c" stroke="none" /><path d="M 83.64595745247003 86.82634096563983 l -10.088397216604298 -8.126498677527646 a33.95437143036465,33.95437143036465 0 0,0 0.36954188529346826,-0.4507810133879746 l 9.947408512072201 8.298481972614116" fill="#ff850c" stroke="none" /><path d="M 83.8745106332314 86.54754324733833 l -9.869309581374758 -8.233329066941584 a33.85266428167953,33.85266428167953 0 0,0 0.376095743651636,-0.44303984034233485 l 9.726519274216008 8.401535689733475" fill="#ff840c" stroke="none" /><path d="M 84.10781606972428 86.27271002978789 l -8.21789389327444 -7.098421017044979 a31.859160233477688,31.859160233477688 0 0,0 0.36105369748276545,-0.4108128300222967 l 8.094829131833082 7.238446124878576" fill="#ff6709" stroke="none" /><path d="M 84.34580500576568 86.00192230759919 l -4.579602830642387 -4.095109090392828 a27.14350718634281,27.14350718634281 0 0,0 0.31357510717248105,-0.34467397305611014 l 4.50863002262804 4.173120639006596" fill="#ff2203" stroke="none" /><path d="M 84.58840730492382 85.73525988315684 l -7.847179711139649 -7.263232389040125 a31.69265047385929,31.69265047385929 0 0,0 0.3729835084785576,-0.39609556065990503 l 7.72134036892482 7.396869409644541" fill="#ff6509" stroke="none" /><path d="M 84.83555147118756 85.47280134310135 l -4.801488446605828 -4.599717317785572 a27.64918722148999,27.64918722148999 0 0,0 0.3312809734466375,-0.3399234630171236 l 4.721820672008386 4.681463472870426" fill="#ff2a04" stroke="none" /><path d="M 85.08716467003674 85.21462403516908 l -10.074330199840551 -9.988225330914306 a35.186499717567315,35.186499717567315 0 0,0 0.42895372524007686,-0.4252874761143677 l 9.9013845544705 10.159692817257346" fill="#ff960d" stroke="none" /><path d="M 85.34317274990677 84.96080404539775 l -4.975146386593078 -5.104938479119257 a28.12828720266114,28.12828720266114 0 0,0 0.34869367068265034,-0.33404064874403816 l 4.886780230045128 5.189591258168863" fill="#ff3104" stroke="none" /><path d="M 85.60350026404147 84.71141617570332 l -9.311236413673045 -9.8882104003877 a34.582187911881,34.582187911881 0 0,0 0.43568654115762845,-0.40326495807311813 l 9.140120101201463 10.046593104593185" fill="#ff8e0d" stroke="none" /><path d="M 85.86807049272753 84.46653392183569 l -9.218172558154958 -10.132386427563027 a34.6981736019582,34.6981736019582 0 0,0 0.44402917867616803,-0.3970536295920158 l 9.042878352655398 10.289135587038444" fill="#ff8f0d" stroke="none" /><path d="M 86.13680546590413 84.22622945171909 l -4.434864905559948 -5.046062165605208 a27.71794389003954,27.71794389003954 0 0,0 0.3600963748564171,-0.31104267208103525 l 4.347589050940682 5.121448970150954" fill="#ff2b04" stroke="none" /><path d="M 86.40962598614128 83.9905735841838 l -9.110858907091968 -10.732568883625481 a35.07820247285508,35.07820247285508 0 0,0 0.4624069883786418,-0.3857563557799037 l 8.925277584551417 10.887387423317266" fill="#ff950d" stroke="none" /><path d="M 86.68645165197937 83.75963576809568 l -6.3521994942354105 -7.748650529776977 a31.01958199962342,31.01958199962342 0 0,0 0.4147011309665032,-0.33405387595383235 l 6.218247592913662 7.856552699524206" fill="#ff5b08" stroke="none" /><path d="M 86.96720088162412 83.53348406188908 l -5.443761392454517 -6.878014685712117 a29.771637481955686,29.771637481955686 0 0,0 0.4034624742518664,-0.31373486029921066 l 5.324888973567406 6.970450597632133" fill="#ff4906" stroke="none" /><path d="M 87.25179093698888 83.31218511350988 l -8.139288357182647 -10.6545897342184 a34.40777003703006,34.40777003703006 0 0,0 0.47244655468684715,-0.35453270239471657 l 7.955188813585048 10.792741463877121" fill="#ff8b0c" stroke="none" /><path d="M 87.54013794807813 83.09580414077388 l -5.147229776297607 -6.983205745649047 a29.67520241009226,29.67520241009226 0 0,0 0.4126534583211017,-0.2987292808972052 l 5.026595307602538 7.07053579791933" fill="#ff4806" stroke="none" /><path d="M 87.83215693770416 82.88440491214696 l -8.26437843924422 -11.6248832512636 a35.2631645013494,35.2631645013494 0 0,0 0.4963792632069477,-0.3465112764747615 l 8.063604084863508 11.76503934354349" fill="#ff970d" stroke="none" /><path d="M 88.12776184653039 82.6780497279521 l -4.894171775456428 -7.140742884486452 a29.65696981108391,29.65696981108391 0 0,0 0.4224052263947965,-0.2842130876647191 l 4.770870260964642 7.22370564620828" fill="#ff4706" stroke="none" /><path d="M 88.4268655584334 82.4767994020092 l -7.659371984596715 -11.597265409676767 a34.89829285131488,34.89829285131488 0 0,0 0.5027254760583176,-0.32586057982411254 l 7.459160876281372 11.727039831204785" fill="#ff920d" stroke="none" /><path d="M 88.72937992617638 82.28071324371311 l -8.037322771321342 -12.636006360345888 a35.97555388188037,35.97555388188037 0 0,0 0.5239340411303821,-0.3269735916594992 l 7.819224601401262 12.772115748846923" fill="#ffa10e" stroke="none" /><path d="M 89.03521579738668 82.08984904055464 l -3.367727293009606 -5.500929438599495 a27.44994665160359,27.44994665160359 0 0,0 0.40399425448841,-0.24258694212254453 l 3.272800281963762 5.557930381257963" fill="#ff2703" stroke="none" /><line stroke="#e1ed5e" stroke-width="0.3" x1="56.869717070023135" x2="54.33264160355391" y1="26.7553504044142" y2="22.446841604673864" /><path d="M 56.362301976729285 25.89364864446614 a86.0,86.0 0 0,1 42.16139366436587,-11.88097634709845" fill="none" id="id48" stroke="none" /><text fill="#e1ed5e" style="font-size:6.75px; font-family:Arial;" text-anchor="middle"><textPath startOffset="22.145653131862474" xlink:href="#id48">December</textPath></text><path d="M 89.34428304082924 81.90426304109057 l -3.3599649785272 -5.705955092045502 a27.621728488043683,27.621728488043683 0 0,0 0.4106529373658196,-0.23709058393166518 l 3.2615195733009803 5.762792573253341" fill="#ff2904" stroke="none" /><path d="M 89.65649057296885 81.72400993836675 l -6.530072014577829 -11.538011550343649 a34.257735517479446,34.257735517479446 0 0,0 0.5142833439284048,-0.28526430160971405 l 6.331044482493322 11.648408767386508" fill="#ff890c" stroke="none" /><path d="M 89.97174638481275 81.54914285379989 l -3.310651730112658 -6.091226296931689 a27.932781020523443,27.932781020523443 0 0,0 0.42326301556740065,-0.22536371540547656 l 3.2055998987586958 6.147160480059741" fill="#ff2e04" stroke="none" /><path d="M 90.28995756902619 81.37971332152246 l -3.2334305189190204 -6.200529363821982 a27.992970564237744,27.992970564237744 0 0,0 0.4279895634071311,-0.21853452062205722 l 3.126513733798308 6.255121836116873" fill="#ff2f04" stroke="none" /><path d="M 90.6110303473126 81.2157712731953 l -2.966819340032019 -5.935626073550873 a27.63578735956819,27.63578735956819 0 0,0 0.4261698328556889,-0.2084610208923814 l 2.864489257914277 5.985680844540469" fill="#ff2904" stroke="none" /><path d="M 90.93487009805054 81.0573650232925 l -3.9433191800306284 -8.240020455515607 a30.134971442917216,30.134971442917216 0 0,0 0.46854325158437166,-0.2193018998771754 l 3.8012872145747334 8.306498586963324" fill="#ff4e07" stroke="none" /><path d="M 91.26138138417902 80.90454125486306 l -2.879142560958526 -6.291446098198477 a27.9189418188665,27.9189418188665 0 0,0 0.43751188376394146,-0.19569350068111435 l 2.770717274338967 6.339943349789438" fill="#ff2e04" stroke="none" /><path d="M 91.5904679813234 80.7573450057729 l -5.28755989224265 -12.098971802684185 a34.20391639992469,34.20391639992469 0 0,0 0.5400389985722783,-0.23051053578665723 l 5.079085818499939 12.187956988130246" fill="#ff880c" stroke="none" /><path d="M 91.92203290615298 80.6158196554323 l -5.140347833845857 -12.334963523306833 a34.36317705391326,34.36317705391326 0 0,0 0.5464490322132068,-0.22223606420683364 l 4.927844340442209 12.421386844092957" fill="#ff8b0c" stroke="none" /><path d="M 92.25597844496254 80.48000691201159 l -6.591466703627678 -16.614801957882136 a38.87453712420762,38.87453712420762 0 0,0 0.6224141744706511,-0.2407631736645875 l 6.305280266663499 16.725505019684764" fill="#ffc812" stroke="none" /><path d="M 92.592206182469 80.34994680014964 l -2.2506681251719467 -5.970164597477497 a27.380311303583756,27.380311303583756 0 0,0 0.4412283036295163,-0.16202514474158328 l 2.147850669888302 6.007920591227802" fill="#ff2603" stroke="none" /><path d="M 92.93061703081487 80.22567764915836 l -3.1767779971675525 -8.886013450802379 a30.436797840959013,30.436797840959013 0 0,0 0.49350257058474545,-0.1716658116131557 l 3.0237696545378037 8.93923769498412" fill="#ff5307" stroke="none" /><path d="M 93.27111125876988 80.10723608172694 l -2.5596355475515553 -7.567107678905413 a28.98829473419946,28.98829473419946 0 0,0 0.47275389622992486,-0.15540359577631443 l 2.4293589136738682 7.609932196083756" fill="#ff3d05" stroke="none" /><path d="M 93.61358852112211 79.99465700312896 l -2.052579475391987 -6.429675972079565 a27.749356681102114,27.749356681102114 0 0,0 0.45503575737734026,-0.14097124080526327 l 1.9419030851430312 6.46396380069147" fill="#ff2b04" stroke="none" /><path d="M 93.9579478882505 79.88797359093562 l -3.7955119925824077 -12.634024999932462 a34.19183455720831,34.19183455720831 0 0,0 0.5635791042991236,-0.16404966357160575 l 3.578072875901659 12.697318357806589" fill="#ff880c" stroke="none" /><path d="M 94.30408787586887 79.78721728523814 l -3.7768977337253116 -13.402877636443801 a34.924872905290904,34.924872905290904 0 0,0 0.5784533507834647,-0.15766003302382386 l 3.5462629820071703 13.465738163611764" fill="#ff930d" stroke="none" /><path d="M 94.6519064749342 79.69241777938228 l -3.3550478554493464 -12.739663182649076 a34.174041297935105,34.174041297935105 0 0,0 0.5685823399331331,-0.14453140738705972 l 3.1358602222908334 12.795379821871398" fill="#ff880c" stroke="none" /><path d="M 95.00130118170881 79.60360301121753 l -1.1385349909984757 -4.645611289292132 a25.783091696479005,25.783091696479005 0 0,0 0.4307837073081001,-0.10166378196148916 l 1.0586191299504697 4.664471214899853" fill="#ff0d01" stroke="none" /><path d="M 95.35216902796891 79.52079915486377 l -2.5790167340567938 -11.36362359077697 a32.65260779514216,32.65260779514216 0 0,0 0.5476893171830777,-0.11936633755070401 l 2.3835650002545985 11.406221386461388" fill="#ff730a" stroke="none" /><path d="M 95.70440661134978 79.44403061299748 l -0.8974203556363312 -4.294481271545578 a25.387246595117052,25.387246595117052 0 0,0 0.4273562330507439,-0.08548321541949162 l 0.8235676370546106 4.309253883627936" fill="#ff0701" stroke="none" /><path d="M 96.05791012581881 79.37332000966035 l -1.7615654860472614 -9.217254989720699 a30.384077072742105,30.384077072742105 0 0,0 0.5131512757528497,-0.09351325641055147 l 1.6030794767433727 9.24613642006261" fill="#ff5207" stroke="none" /><path d="M 96.41257539226777 79.30868818359171 l -2.367186883411332 -13.653304888081873 a34.85699491621163,34.85699491621163 0 0,0 0.5904484413171984,-0.09715806632676247 l 2.1324609390410614 13.691928952904304" fill="#ff920d" stroke="none" /><path d="M 96.76829788921471 79.25015418208739 l -2.1195135770833766 -13.60879760132519 a34.772861356932154,34.772861356932154 0 0,0 0.5906003167715423,-0.08679790812652713 l 1.8855881547041495 13.643176582750602" fill="#ff900d" stroke="none" /><path d="M 97.12497278360702 79.19773525538626 l -1.9025499671902437 -13.765903808382541 a34.89675516224189,34.89675516224189 0 0,0 0.594112567359447,-0.07691976639265778 l 1.6659595779400025 13.796535170975593" fill="#ff920d" stroke="none" /><path d="M 97.48249496171623 79.15144685158666 l -0.8772477231250568 -7.264869583881933 a28.31764262850687,28.31764262850687 0 0,0 0.4831045097663236,-0.054132867978894814 l 0.7524073117579343 7.2788582123677985" fill="#ff3404" stroke="none" /><path d="M 97.84075906011542 79.11130261209362 l -1.4434014546677116 -13.963599725665356 a35.03800288708969,35.03800288708969 0 0,0 0.5988168825854083,-0.05670858136840399 l 1.2034850086972877 13.986320062538944" fill="#ff940d" stroke="none" /><path d="M 98.1996594967304 79.07731436759882 l -0.8434847047107863 -9.802570836101346 a30.83879369861294,30.83879369861294 0 0,0 0.527829458048197,-0.040857338279727644 l 0.6750862518873718 9.815605941376127" fill="#ff5908" stroke="none" /><path d="M 98.5590905019552 79.04949213459386 l -0.9652034721050178 -14.033846651363131 a35.06699930960899,35.06699930960899 0 0,0 0.6009075121585287,-0.03614910374646919 l 0.7241516078140058 14.048347732934294" fill="#ff950d" stroke="none" /><path d="M 98.9189461498227 79.02784411241856 l -0.45318137456698904 -8.791597598221992 a29.803269942885834,29.803269942885834 0 0,0 0.51116048015654,-0.021951430406102194 l 0.3021951338096288 8.798081597053924" fill="#ff4906" stroke="none" /><path d="M 99.27912038922189 79.0123766808444 l -0.46700553542019024 -13.596356616023623 a34.60437456850562,34.60437456850562 0 0,0 0.5938550413999223,-0.015295599317608582 l 0.23353717994952397 13.602369932691277" fill="#ff8e0d" stroke="none" /><path d="M 99.63950707515114 79.00309439819443 l -0.24099229943346917 -14.036593267643575 a35.0386618966924,35.0386618966924 0 0,0 0.601485224282318,-0.005163027243263823 l 3.4384804712192525e-15 14.038661896692403" fill="#ff940d" stroke="none" /></svg>