<?xml version="1.0" encoding="utf-8" ?>
<svg baseProfile="full" height="200mm" version="1.1" viewBox="0,0,200,200" width="200mm" xmlns="http://www.w3.org/2000/svg" xmlns:ev="http://www.w3.org/2001/xml-events" xmlns:xlink="http://www.w3.org/1999/xlink"><defs /><rect fill="#1a1a1a" height="200" width="200" x="0" y="0" /><text alignment-baseline="middle" fill="#e1ed5e" style="dominant-baseline: central; font-size:9.0px; font-family:Arial;" text-anchor="middle" x="100.0" y="100.0">2017</text><line stroke="#e1ed5e" stroke-width="0.3" x1="100.0" x2="100.0" y1="15.0" y2="10.0" /><path d="M 100.0 14.0 a86.0,86.0 0 0,1 42.46469731375804,11.215312516191453" fill="none" id="id1" stroke="none" /><text fill="#e1ed5e" style="font-size:6.75px; font-family:Arial;" text-anchor="middle"><textPath startOffset="22.20632615414155" xlink:href="#id1">January</textPath></text><path d="M 108.43124777332544 80.76684994638697 l 4.4951125853739855 -10.2541376065245 a32.19613215395065,32.19613215395065 0 0,0 0.505660004789504,0.2268749045136999 l -4.67095470863027 10.175242371494269" fill="#ff5d08" stroke="none" /><line stroke="#e1ed5e" stroke-width="0.3" x1="143.23703022742887" x2="145.7803849466894" y1="26.818313649435467" y2="22.513508569990506" /><path d="M 143.74570117128098 25.957352633546478 a86.0,86.0 0 0,1 28.547481713284135,27.462654790039114" fill="none" id="id2" stroke="none" /><text fill="#e1ed5e" style="font-size:6.75px; font-family:Arial;" text-anchor="middle"><textPath startOffset="19.985693538727396" xlink:href="#id2">February</textPath></text><path d="M 114.68862486808459 84.99185889309781 l 35.58423040702047 -36.35828104572757 a71.87398209556662,71.87398209556662 0 0,0 0.8767400529666275,0.8729750525521175 l -36.20480626015442 35.740370142525336" fill="#3dffac" stroke="none" /><line stroke="#e1ed5e" stroke-width="0.3" x1="172.23445277983987" x2="176.4835382374775" y1="55.19839476539836" y2="52.563006222186495" /><path d="M 173.08426987136738 54.67131705675599 a86.0,86.0 0 0,1 12.851231095245387,41.99856678651699" fill="none" id="id3" stroke="none" /><text fill="#e1ed5e" style="font-size:6.75px; font-family:Arial;" text-anchor="middle"><textPath startOffset="22.20632615414155" xlink:href="#id3">March</textPath></text><path d="M 118.73160827565052 90.50648371742162 l 10.810391989563794 -5.478901270180163 a33.11952697494448,33.11952697494448 0 0,0 0.25334858972592056,0.5107352973469595 l -10.903100592243122 5.292006384334254" fill="#ff6b09" stroke="none" /><path d="M 119.196687751892 91.48605970444005 l 11.849499770073997 -5.255382328376836 a33.962626594112756,33.962626594112756 0 0,0 0.2324164266532399,0.5364491568263331 l -11.938206906569919 5.0506340269639" fill="#ff770b" stroke="none" /><path d="M 119.85752413597 93.16781622104841 l 12.865964330684355 -4.426666295293286 a34.60619023269658,34.60619023269658 0 0,0 0.18895425830142512,0.5649491817693091 l -12.940255882757551 4.204544010601663" fill="#ff800b" stroke="none" /><path d="M 120.08093135843002 93.85539295169968 l 7.550521531122507 -2.31040019959044 a28.896095520838898,28.896095520838898 0 0,0 0.14144515314472345,0.47688274025180893 l -7.589172581378932 2.1800880725921012" fill="#ff2c04" stroke="none" /><path d="M 120.28053869075195 94.5502522615342 l 14.77473980418922 -3.97023994589541 a36.29888040052202,36.29888040052202 0 0,0 0.15695578520802744,0.6048146667008301 l -14.84089192126755 3.7153288536457296" fill="#ff980e" stroke="none" /><path d="M 120.37134235888165 94.90015583598534 l 9.098144450240596 -2.2776662460680863 a30.378912301856843,30.378912301856843 0 0,0 0.12262549175954994,0.5083618299522019 l -9.136002742260965 2.120719184456478" fill="#ff4206" stroke="none" /><path d="M 120.53481517161879 95.60439243477599 l 11.843066651630362 -2.5350836096790115 a33.11135321188439,33.11135321188439 0 0,0 0.11450332302163206,0.5583588680809565 l -11.884949270566992 2.3308490854346435" fill="#ff6b09" stroke="none" /><path d="M 120.87857604477298 97.74499172005257 l 16.818751122376046 -1.8165234524616007 a37.91656427203138,37.91656427203138 0 0,0 0.06449946000245121,0.6495007600127463 l -16.847527708060728 1.5267471617444197" fill="#ffaf10" stroke="none" /><line stroke="#e1ed5e" stroke-width="0.3" x1="184.98032266829074" x2="189.97916517819016" y1="98.17113171792111" y2="98.06355123074" /><path d="M 185.9800911702706 98.14961562048488 a86.0,86.0 0 0,1 -9.607161424134198,41.387399972396054" fill="none" id="id4" stroke="none" /><text fill="#e1ed5e" style="font-size:6.75px; font-family:Arial;" text-anchor="middle"><textPath startOffset="21.466115282336823" xlink:href="#id4">April</textPath></text><path d="M 120.99980553446 99.90962569577887 l 15.517505067255993 -0.06678079572688683 a36.51764876477726,36.51764876477726 0 0,0 -0.002705266912587663,0.6286087574644715 l -15.516355503053902 -0.20033743994126937" fill="#ff9b0e" stroke="none" /><path d="M 120.99824983174949 100.27111621757518 l 16.625010017215214 0.21465169093292102 a37.62639568339833,37.62639568339833 0 0,0 -0.013935987953075156,0.647550599766239 l -16.618851966577132 -0.5007921064892749" fill="#ffab0f" stroke="none" /><path d="M 119.79798401119884 107.00284435728193 l 18.236706974911314 6.4505972154751925 a40.34393149608102,40.34393149608102 0 0,0 -0.2372141312111006,0.6527114096774908 l -18.122968582694988 -6.763556422158813" fill="#ffd013" stroke="none" /><path d="M 118.97047184881838 109.00673069616215 l 4.5673247157403996 2.1684575926434557 a26.05595326225492,26.05595326225492 0 0,0 -0.19584987467839102,0.4035087506541862 l -4.529321584447297 -2.2467552992629174" fill="#ff0000" stroke="none" /><path d="M 118.81262510543309 109.33194174019688 l 10.691318121664077 5.303393719809282 a32.93441528211312,32.93441528211312 0 0,0 -0.25629456929591804,0.5056934998929428 l -10.598444882581887 -5.4866414314049194" fill="#ff6809" stroke="none" /><line stroke="#e1ed5e" stroke-width="0.3" x1="174.80103733775053" x2="179.2010983576182" y1="140.37084112569926" y2="142.7455964860345" /><path d="M 175.68104954172406 140.8457921977663 a86.0,86.0 0 0,1 -30.038265399797805,32.042727171017184" fill="none" id="id5" stroke="none" /><text fill="#e1ed5e" style="font-size:6.75px; font-family:Arial;" text-anchor="middle"><textPath startOffset="22.206326154141568" xlink:href="#id5">May</textPath></text><path d="M 118.30583269289576 110.29060199501023 l 13.89943439073416 7.813550449759779 a36.94508849186058,36.94508849186058 0 0,0 -0.3164047817730867,0.5516784068597993 l -13.762877612808694 -8.051648702477895" fill="#ffa20e" stroke="none" /><path d="M 118.12598468904814 110.60418214915192 l 10.460666800604765 6.119767728934588 a33.11928657014859,33.11928657014859 0 0,0 -0.2921107264772528,0.4895943797534762 l -10.353775198429283 -6.298924202574168" fill="#ff6b09" stroke="none" /><path d="M 117.75023020441432 111.22182372390056 l 15.709947388330223 9.93194219305115 a39.586175579451876,39.586175579451876 0 0,0 -0.3690847931408978,0.5728277952529616 l -15.536657731812275 -10.200891588225566" fill="#ffc612" stroke="none" /><path d="M 116.93607887273984 112.41649034213513 l 13.467019192322034 9.87318936072976 a37.69851712216379,37.69851712216379 0 0,0 -0.38818474237953193,0.520036898661353 l -13.295073183247412 -10.103539138900429" fill="#ffac0f" stroke="none" /><path d="M 116.71984013943494 112.70617746262582 l 12.968725648300149 9.855532599426986 a37.28862694518007,37.28862694518007 0 0,0 -0.3927614321701178,0.5076970958537381 l -12.797157398911963 -10.077307689393978" fill="#ffa60f" stroke="none" /><path d="M 116.498646956653 112.99209946851258 l 4.487268326815004 3.5335646975813186 a26.71153714063299,26.71153714063299 0 0,0 -0.2875714328085059,0.3587895785577799 l -4.425778981951645 -3.6102821097173488" fill="#ff0a01" stroke="none" /><path d="M 116.27256486870786 113.27417163493432 l 21.16039482864168 17.261366913246203 a48.30782116935946,48.30782116935946 0 0,0 -0.5311651973539269,0.6398226976961209 l -20.860133631394213 -17.623050868056094" fill="#c7ff1e" stroke="none" /><path d="M 116.0416608686014 113.55231037782055 l 13.771166385405715 11.634152015077412 a39.0277152386113,39.0277152386113 0 0,0 -0.43796063953892017,0.509447167347899 l -13.568863236296014 -11.86947628158684" fill="#ffbe11" stroke="none" /><path d="M 115.80600337817218 113.82643327865902 l 25.378581952952214 22.20012622318265 a54.71821505162979,54.71821505162979 0 0,0 -0.6262399405094496,0.7035872118863942 l -24.992683162794428 -22.63368760480991" fill="#7bff26" stroke="none" /><path d="M 115.56566222782051 114.09645910891815 l 11.348598367192054 10.2774331400263 a36.31066023552038,36.31066023552038 0 0,0 -0.42354412632083505,0.4596734981403846 l -11.170007832875495 -10.471257892968021" fill="#ff990e" stroke="none" /><path d="M 115.07121518719521 114.62390073753431 l 14.599912618836045 14.16658645388683 a41.34329423257447,41.34329423257447 0 0,0 -0.4999770076880806,0.5064740691182926 l -14.353894986092428 -14.415801016985787" fill="#ffde14" stroke="none" /><path d="M 114.81725581225074 114.88116024355365 l 11.560838477176224 11.610698506430627 a37.38478886353403,37.38478886353403 0 0,0 -0.4599219992054711,0.4501304769717163 l -11.35926652559496 -11.807979086324913" fill="#ffa80f" stroke="none" /><path d="M 114.0293411484842 115.62618273729858 l 10.859518859518593 12.095566309349614 a37.255210678552075,37.255210678552075 0 0,0 -0.48087189278560444,0.4243135353670267 l -10.649704613826401 -12.28070298648893" fill="#ffa60f" stroke="none" /><path d="M 113.75828350139079 115.86535959552629 l 30.175475595260874 34.79683866351833 a67.0584336291966,67.0584336291966 0 0,0 -0.8785757227647006,0.7487412912333296 l -29.572034395919125 -35.3111043449746" fill="#36ff73" stroke="none" /><path d="M 113.48314897796784 116.09983520530334 l 10.666103236789565 12.736082993347326 a37.612452205237005,37.612452205237005 0 0,0 -0.49994090234127403,0.411417326823525 l -10.4452922059036 -12.917795439028028" fill="#ffab0f" stroke="none" /><path d="M 113.20401910651253 116.32954008644616 l 22.6485472544841 28.009680787984802 a57.020812186615174,57.020812186615174 0 0,0 -0.7685387451710752,0.6105736598406175 l -22.163051016595674 -28.39538836183055" fill="#61ff29" stroke="none" /><path d="M 112.92097659922987 116.55440617244103 l 13.441103373246609 17.220794646416568 a42.8453433972632,42.8453433972632 0 0,0 -0.5852903875478946,0.4487757111092523 l -13.14268425720522 -17.449609699353193" fill="#fff216" stroke="none" /><path d="M 112.63410532772338 116.77436683061366 l 13.330996826980188 17.699633269861927 a43.15835044150532,43.15835044150532 0 0,0 -0.5972602519163828,0.4418388558917257 l -13.02435160464524 -17.92648207449342" fill="#fff617" stroke="none" /><path d="M 112.34349029814194 116.9893568818739 l 11.009181125494035 15.152837860322471 a39.72993764739104,39.72993764739104 0 0,0 -0.5567349959949981,0.3972156374114823 l -10.746718801650152 -15.340097759578173" fill="#ffc812" stroke="none" /><path d="M 112.04921762599082 117.19931262002967 l 12.148302805546534 17.340748938310988 a42.17269077837731,42.17269077837731 0 0,0 -0.5981355050127476,0.41140305443849284 l -11.848010415910904 -17.547292782114575" fill="#ffe915" stroke="none" /><path d="M 111.7513745106137 117.40417183066458 l 12.630021345134935 18.705476667189476 a43.57016385685611,43.57016385685611 0 0,0 -0.625180607148395,0.4143356163614133 l -12.306166039246577 -18.920110304642208" fill="#fffb17" stroke="none" /><path d="M 111.45004920935366 117.60387380957326 l 6.792221377675421 10.442698178240704 a33.457295713162736,33.457295713162736 0 0,0 -0.48547842181418605,0.3098552984183422 l -6.611461153814305 -10.558067905482854" fill="#ff700a" stroke="none" /><path d="M 111.1453310114006 117.79835938074945 l 11.3843497030035 18.180056484901257 a42.45035831762435,42.45035831762435 0 0,0 -0.6226473015311822,0.38248082766487684 l -11.069723201540008 -18.373325779394513" fill="#ffec16" stroke="none" /><line stroke="#e1ed5e" stroke-width="0.3" x1="143.8653032363475" x2="146.44561519142675" y1="172.8068346515853" y2="177.08958963109032" /><path d="M 144.38136562736335 173.6633856474863 a86.0,86.0 0 0,1 -40.68145358897372,12.25698825130547" fill="none" id="id6" stroke="none" /><text fill="#e1ed5e" style="font-size:6.75px; font-family:Arial;" text-anchor="middle"><textPath startOffset="21.466115282336833" xlink:href="#id6">June</textPath></text><path d="M 110.8373102113329 117.98757091392108 l 12.218678736579816 20.28034133587998 a44.676747132314226,44.676747132314226 0 0,0 -0.6621351964531801,0.39120114514100346 l -11.867775669098254 -20.487661053314735" fill="#f5ff19" stroke="none" /><path d="M 110.5260780823613 118.17145234162733 l 11.990927625537356 20.7002615954826 a44.92244083370856,44.92244083370856 0 0,0 -0.6724487937612293,0.3818339749330995 l -11.632830064854929 -20.90359873621033" fill="#f1ff19" stroke="none" /><path d="M 110.21172684928248 118.3499491758327 l 20.008411598450852 35.95408899392095 a62.146482839676715,62.146482839676715 0 0,0 -0.9392321893290381,0.5121442769360505 l -19.386556597253165 -36.29317392261677" fill="#30ff35" stroke="none" /><path d="M 109.89434966115114 118.52300852407294 l 15.692287990321367 29.377209635940098 a54.30568042189134,54.30568042189134 0 0,0 -0.8283144516009796,0.43333497251899283 l -15.184282636193892 -29.642974027403806" fill="#80ff26" stroke="none" /><path d="M 109.57404056367764 118.69057910512821 l 10.79657954124117 21.077237205987203 a44.68155522823192,44.68155522823192 0 0,0 -0.6875557128885746,0.34475470786479423 l -10.432169920669836 -21.2599597547613" fill="#f5ff19" stroke="none" /><path d="M 109.2508944713604 118.85261126421891 l 10.40675324184538 21.2081625186142 a44.62385807721955,44.62385807721955 0 0,0 -0.6924928596343497,0.3324386553462699 l -10.040147714210796 -21.384155450460025" fill="#f5ff19" stroke="none" /><path d="M 108.59647513512805 119.15986991738527 l 9.726759832622388 21.67905451725792 a44.76112921566981,44.76112921566981 0 0,0 -0.7056897362991009,0.3093536420838514 l -9.352149421665533 -21.843272712636228" fill="#f3ff19" stroke="none" /><path d="M 108.2653958097858 119.30500536409082 l 9.710006006306454 22.67909757148799 a45.670340153706434,45.670340153706434 0 0,0 -0.7253505664628643,0.30319659560915113 l -9.318183980346127 -22.842879210117115" fill="#e8ff1a" stroke="none" /><path d="M 107.93186726928326 119.44442032107085 l 8.955971586099384 21.95494074618068 a44.711365422921645,44.711365422921645 0 0,0 -0.7151240622357061,0.2845626228422313 l -8.576726447821812 -22.10585021342898" fill="#f4ff19" stroke="none" /><path d="M 107.59598834532513 119.57807347666477 l 8.565161071646367 22.076041349295124 a44.679391585068956,44.679391585068956 0 0,0 -0.7194015625345048,0.27201611420581606 l -8.183889288351589 -22.220205713607573" fill="#f5ff19" stroke="none" /><path d="M 107.2578585660854 119.70592522655815 l 6.454270176129867 17.52408982962852 a39.6748849491334,39.6748849491334 0 0,0 -0.6428851086883731,0.23051572721906868 l -6.15166550681176 -17.632593097887547" fill="#ffc712" stroke="none" /><path d="M 106.57524785965236 119.94407469862006 l 5.798611973704142 17.588378844471798 a39.51958345099177,39.51958345099177 0 0,0 -0.6478928110987513,0.2074348183331901 l -5.4949978175144505 -17.685586509464695" fill="#ffc512" stroke="none" /><path d="M 105.88484417918355 120.15858648285463 l 5.3354740855418905 18.27671430296867 a40.03957902449076,40.03957902449076 0 0,0 -0.6632629326110941,0.18744472991025762 l -5.020079984826192 -18.365847826217447" fill="#ffcc13" stroke="none" /><path d="M 105.53697534728816 120.25689768951611 l 6.242043947899494 22.836375041473133 a44.67410267955949,44.67410267955949 0 0,0 -0.743525040253642,0.19637172092491811 l -5.8480284648343535 -22.940438111701635" fill="#f5ff19" stroke="none" /><path d="M 104.83641907484287 120.43548508189849 l 4.3723547927491175 18.47465857637554 a39.9850071358249,39.9850071358249 0 0,0 -0.6711385400838515,0.15274894668359384 l -4.0536961032724035 -18.547184256636815" fill="#ffcb13" stroke="none" /><path d="M 104.48393922423573 120.51570834832081 l 3.5655339938636246 16.313659009639608 a37.69875752695968,37.69875752695968 0 0,0 -0.6351496336448496,0.1331017811744928 l -3.284192898789397 -16.372616771540642" fill="#ffac0f" stroke="none" /><path d="M 104.13013068566511 120.58985236759428 l 3.735822022603282 18.624113804433286 a39.995104137252056,39.995104137252056 0 0,0 -0.6761693917762722,0.12958947323063824 l -3.414685016255306 -18.68566047601239" fill="#ffcc13" stroke="none" /><path d="M 103.7750983002368 120.6578951692458 l 2.8160033875336437 15.409586227797549 a36.66477649985881,36.66477649985881 0 0,0 -0.6218189457701013,0.10811119424194596 l -2.5503354702914924 -15.4557760005605" fill="#ff9e0e" stroke="none" /><path d="M 103.41894727170886 120.7198165907248 l 3.0257248905210883 18.336774393789597 a39.58473315067657,39.58473315067657 0 0,0 -0.6732498585737476,0.10514778182656542 l -2.709639168338824 -18.386140482963267" fill="#ffc612" stroke="none" /><path d="M 103.06178313531737 120.77559828337769 l 2.289695219927737 15.536628813411317 a36.704443291179814,36.704443291179814 0 0,0 -0.6258481770940868,0.08673685460366318 l -2.021918451646819 -15.573740233507582" fill="#ff9e0e" stroke="none" /><path d="M 102.70371172650421 120.8252237178851 l 2.085369394254948 16.062468400039396 a37.19727312274382,37.19727312274382 0 0,0 -0.6356705362390812,0.07697084935274036 l -1.8085714349644864 -16.09598477811749" fill="#ffa50f" stroke="none" /><path d="M 101.98527174616119 120.90594882070398 l 1.7646447511316465 18.582631282199674 a39.66623037648154,39.66623037648154 0 0,0 -0.6802865839934706,0.05869798896361707 l -1.4445138493966339 -18.610253523441955" fill="#ffc712" stroke="none" /><path d="M 101.62511606390274 120.93702456842531 l 1.704989583898563 21.966067285844055 a43.03213792366576,43.03213792366576 0 0,0 -0.7389995913605297,0.050965738531672126 l -1.3266272317591032 -21.99216136889201" fill="#fff417" stroke="none" /><path d="M 101.26447882468166 120.96189622390904 l 1.0351328668557458 17.15991387870827 a38.19110654893191,38.19110654893191 0 0,0 -0.6565450068884057,0.03393587753182887 l -0.7395997915538606 -17.175189563002302" fill="#ffb310" stroke="none" /><path d="M 100.90346689309514 120.98055641714683 l 0.5613838465921835 13.036609924633812 a34.04869151103954,34.04869151103954 0 0,0 -0.585766633097458,0.020174987228553067 l -0.3368968618200733 -13.044341710288458" fill="#ff780b" stroke="none" /><line stroke="#e1ed5e" stroke-width="0.3" x1="102.19456741930631" x2="102.32365962044197" y1="184.97166512339345" y2="189.96999836594603" /><path d="M 102.22038585953345 185.97133177190398 a86.0,86.0 0 0,1 -42.740103519485714,-10.115201625700543" fill="none" id="id7" stroke="none" /><text fill="#e1ed5e" style="font-size:6.75px; font-family:Arial;" text-anchor="middle"><textPath startOffset="22.20632615414155" xlink:href="#id7">July</textPath></text><path d="M 100.54218724476979 120.99299961872073 l 0.609744961395382 23.6087732892444 a44.61664593334301,44.61664593334301 0 0,0 -0.7679168734331682,0.013220385383234078 l -0.20326839806954589 -23.61577115190679" fill="#f5ff19" stroke="none" /><path d="M 99.81925306533755 120.99922214144158 l -0.15924901738270916 18.501588965096673 a39.502274305688054,39.502274305688054 0 0,0 -0.6798911559520374,-0.011704942828191024 l 0.47769986322741453 -18.496106544989324" fill="#ffc512" stroke="none" /><path d="M 99.45781275523022 120.99299961872073 l -0.4265800254671792 16.516792673329796 a37.522300406780175,37.522300406780175 0 0,0 -0.6455258807295209,-0.022233216546582328 l 0.7108262578713431 -16.50700265835712" fill="#ffaa0f" stroke="none" /><path d="M 99.09653310690486 120.98055641714683 l -0.7360935989160522 17.093767794247917 a38.109609323126946,38.109609323126946 0 0,0 -0.6551439844642557,-0.03386346067554958 l 1.0302256517937969 -17.078564526810165" fill="#ffb210" stroke="none" /><path d="M 98.73552117531835 120.96189622390904 l -1.7745734562182562 29.41798937622853 a50.47146433232338,50.47146433232338 0 0,0 -0.8667566455358955,-0.05977661298248327 l 2.280692862533082 -29.383084418729762" fill="#adff20" stroke="none" /><path d="M 98.37488393609728 120.93702456842531 l -1.4343746253909389 18.47962581824167 a39.53520976272428,39.53520976272428 0 0,0 -0.6780395450154869,-0.05850410498554967 l 1.7522584881479673 -18.452197460977455" fill="#ffc512" stroke="none" /><path d="M 98.01472825383883 120.90594882070398 l -1.5648509201418959 16.478697846668506 a37.55283181585756,37.55283181585756 0 0,0 -0.6429892488635597,-0.06664846466912441 l 1.8482727656110491 -16.449320013543623" fill="#ffaa0f" stroke="none" /><path d="M 97.65516085044442 120.86867818915974 l -1.8382870353875715 16.360448676438466 a37.46340123178838,37.46340123178838 0 0,0 -0.6402184448243649,-0.07752153774654706 l 2.1196329032633257 -16.32638160996657" fill="#ffa90f" stroke="none" /><path d="M 97.2962882734958 120.8252237178851 l -2.388014914656047 18.3935825524043 a39.547951216906185,39.547951216906185 0 0,0 -0.6743328860910524,-0.09345639347696352 l 2.70427639193393 -18.349751593434732" fill="#ffc512" stroke="none" /><path d="M 96.93821686468263 120.77559828337769 l -2.720119365365346 18.457253410865448 a39.656614184646145,39.656614184646145 0 0,0 -0.6744723979747308,-0.10533871733820653 l 3.0374276269485945 -18.407696386180135" fill="#ffc712" stroke="none" /><path d="M 96.58105272829116 120.7198165907248 l -5.047167125544774 30.587303293435827 a52.00091964374299,52.00091964374299 0 0,0 -0.8819133816913514,-0.15333194583597615 l 5.572929478708175 -30.495892769078843" fill="#9aff22" stroke="none" /><path d="M 96.22490169976321 120.6578951692458 l -3.0078425378906273 16.459358377355453 a37.73193338879179,37.73193338879179 0 0,0 -0.6379075389449835,-0.12225649807154154 l 3.290717691407306 -16.405144680935443" fill="#ffac10" stroke="none" /><path d="M 95.86986931433489 120.58985236759428 l -3.2750203642395723 16.326889130797223 a37.652118996558016,37.652118996558016 0 0,0 -0.6343638664885235,-0.13293711602701724 l 3.555575692157483 -16.268096034043666" fill="#ffab0f" stroke="none" /><path d="M 95.51606077576429 120.51570834832081 l -2.766405947672676 12.657347648414328 a33.956135664623865,33.956135664623865 0 0,0 -0.5699454107743965,-0.1297177199093016 l 2.9838715078399347 -12.60785319492734" fill="#ff770a" stroke="none" /><path d="M 95.16358092515715 120.4354850818985 l -2.968147396949344 12.541413577400768 a33.887860702592555,33.887860702592555 0 0,0 -0.5664867707964168,-0.13922866570710088 l 3.183587452488972 -12.488463653379636" fill="#ff760a" stroke="none" /><path d="M 94.46302465271185 120.25689768951611 l -4.386722586806249 16.04872426906241 a37.63745430400904,37.63745430400904 0 0,0 -0.623471298297693,-0.17619921658539958 l 4.662325053208557 -15.97083625913849" fill="#ffab0f" stroke="none" /><path d="M 94.11515582081647 120.15858648285463 l -4.900675861494714 16.787309089309744 a38.488006471849744,38.488006471849744 0 0,0 -0.634364867800618,-0.19112893089396646 l 5.188915703735578 -16.70046478931005" fill="#ffb711" stroke="none" /><path d="M 93.76903079525671 120.05430185196036 l -5.016294236631211 16.144884606887718 a37.906226865808335,37.906226865808335 0 0,0 -0.6214430856208644,-0.1989664514899717 l 5.293458667343016 -16.056145308738042" fill="#ffaf10" stroke="none" /><path d="M 93.42475214034765 119.94407469862007 l -5.874110225273223 17.817380518788735 a39.7607094612643,39.7607094612643 0 0,0 -0.6481568708799991,-0.21989000169727502 l 6.179936829090448 -17.713627530193335" fill="#ffc812" stroke="none" /><path d="M 93.08242187328487 119.8279376855182 l -5.32078955905787 15.251043339477688 a37.15255783070923,37.15255783070923 0 0,0 -0.6020137477315822,-0.21586071131333354 l 5.582522867419179 -15.157195087124396" fill="#ffa40f" stroke="none" /><path d="M 92.7421414339146 119.70592522655815 l -7.344878201489166 19.94219359868129 a42.251783956223434,42.251783956223434 0 0,0 -0.6803136372191452,-0.2572364054723641 l 7.6870620594685946 -19.812808943102294" fill="#ffea16" stroke="none" /><path d="M 92.40401165467489 119.57807347666478 l -4.654237812318299 11.995938609294843 a33.86718589014646,33.86718589014646 0 0,0 -0.5416797121082266,-0.2155455364430672 l 4.860038600468384 -11.91404622844571" fill="#ff760a" stroke="none" /><path d="M 92.06813273071674 119.44442032107085 l -6.294087320031882 15.429516812789691 a37.663898831556374,37.663898831556374 0 0,0 -0.5981897717582989,-0.2500433731095959 l 6.558748551287642 -15.318888396660123" fill="#ffac0f" stroke="none" /><path d="M 91.7346041902142 119.30500536409082 l -5.114264516087151 11.945090856937494 a33.993879217577785,33.993879217577785 0 0,0 -0.5359366951010369,-0.2349388974046471 l 5.319121885845933 -11.855287406238395" fill="#ff770b" stroke="none" /><path d="M 91.40352486487194 119.15986991738527 l -6.757597456713835 15.06136947870809 a37.50787611902709,37.50787611902709 0 0,0 -0.5867875102805388,-0.26936536585986115 l 7.015852962761794 -14.942817042514154" fill="#ffa90f" stroke="none" /><path d="M 90.42595943632237 118.69057910512821 l -20.526182097760614 40.07150666145633 a66.02276976852454,66.02276976852454 0 0,0 -1.0070330379646222,-0.5268320901424212 l 21.21290603825173 -39.71224515236919" fill="#35ff66" stroke="none" /><path d="M 90.10565033884886 118.52300852407294 l -7.904817339891346 14.79844598002734 a37.777369895214036,37.777369895214036 0 0,0 -0.5709369253495836,-0.3113203339188564 l 8.158377077109572 -14.660184994348718" fill="#ffad10" stroke="none" /><line stroke="#e1ed5e" stroke-width="0.3" x1="58.666819895761336" x2="56.23545636021788" y1="174.27360380694188" y2="178.64263932499728" /><path d="M 58.180547188652646 175.14741091055294 a86.0,86.0 0 0,1 -31.652253787137756,-30.449443065178592" fill="none" id="id8" stroke="none" /><text fill="#e1ed5e" style="font-size:6.75px; font-family:Arial;" text-anchor="middle"><textPath startOffset="22.20632615414155" xlink:href="#id8">August</textPath></text><path d="M 89.7882731507175 118.34994917583269 l -16.687802025525755 29.98712397465581 a55.31778461256668,55.31778461256668 0 0,0 -0.8280578001974954,-0.47019282993321476 l 17.20150859264446 -29.69542797892796" fill="#74ff27" stroke="none" /><path d="M 89.1626897886671 117.98757091392108 l -9.075148302842774 15.062766541556595 a38.58537041418312,38.58537041418312 0 0,0 -0.5659569840897576,-0.3476570044791679 l 9.33308448686484 -14.904321070249049" fill="#ffb811" stroke="none" /><path d="M 88.8546689885994 117.79835938074946 l -6.853882246721155 10.945198420369914 a33.91406482534401,33.91406482534401 0 0,0 -0.49210631994488796,-0.3140855365935067 l 7.041270368712967 -10.825598454952607" fill="#ff760a" stroke="none" /><path d="M 88.54995079064634 117.60387380957326 l -7.064078013155348 10.860664059240953 a33.955895259827976,33.955895259827976 0 0,0 -0.4872271604153318,-0.3229075942382651 l 7.249979872310642 -10.73745844391137" fill="#ff770a" stroke="none" /><path d="M 88.24862548938628 117.40417183066458 l -7.238814053090689 10.720921498709028 a33.93594166176953,33.93594166176953 0 0,0 -0.4813136470379661,-0.3310519152848574 l 7.422284584751545 -10.594728794059069" fill="#ff770a" stroke="none" /><path d="M 87.95078237400918 117.19931262002967 l -9.763223678357045 13.93623564912005 a38.01585145273184,38.01585145273184 0 0,0 -0.5327155329092939,-0.3800783882561386 l 10.001666539115227 -13.766112999019695" fill="#ffb010" stroke="none" /><path d="M 87.65650970185807 116.9893568818739 l -9.942317853802589 13.684426541551646 a37.914881438460185,37.914881438460185 0 0,0 -0.5246968757530825,-0.388158204951435 l 10.176399699974235 -13.511258387860442" fill="#ffaf10" stroke="none" /><path d="M 87.07902340077011 116.55440617244103 l -10.40672647244677 13.333138995131868 a37.91367941448077,37.91367941448077 0 0,0 -0.5110087086564249,-0.40597622359992624 l 10.634692673820554 -13.15202885752681" fill="#ffaf10" stroke="none" /><path d="M 86.79598089348748 116.32954008644617 l -10.526312677414762 13.017994251729824 a37.741309175831304,37.741309175831304 0 0,0 -0.501653656133569,-0.41282680659090004 l 10.748836462093019 -12.834872326281747" fill="#ffad10" stroke="none" /><path d="M 86.51685102203217 116.09983520530335 l -8.232110270725853 9.829722935431581 a33.82150897892833,33.82150897892833 0 0,0 -0.4431173692553451,-0.37763423530543155 l 8.400093116558255 -9.686564309903195" fill="#ff750a" stroke="none" /><path d="M 86.24171649860922 115.8653595955263 l -8.465141744183526 9.761575111095517 a33.920796159628786,33.920796159628786 0 0,0 -0.4378329140268683,-0.3863366406686964 l 8.631917011116983 -9.614415328654532" fill="#ff760a" stroke="none" /><path d="M 85.97065885151581 115.62618273729859 l -11.175912200639795 12.447972036239987 a37.728808126445294,37.728808126445294 0 0,0 -0.47951599462032596,-0.43802649187116843 l 11.388527744726975 -12.253752777782243" fill="#ffac10" stroke="none" /><path d="M 85.70375840098266 115.38237550388516 l -11.653167893078992 12.538498534711419 a38.11754268139114,38.11754268139114 0 0,0 -0.47676726397523933,-0.4508132064007714 l 11.867270991445048 -12.336050691564717" fill="#ffb210" stroke="none" /><path d="M 85.44109423537348 115.13401014063109 l -12.31410825290965 12.800538871895391 a38.762067939158506,38.762067939158506 0 0,0 -0.47686581419496665,-0.4667135661392619 l 12.53262401948041 -12.586675202833558" fill="#ffbb11" stroke="none" /><path d="M 85.18274418774928 114.88116024355367 l -11.978456910611882 12.030118060723533 a37.976665471002605,37.976665471002605 0 0,0 -0.45926334407099684,-0.46523134282531803 l 12.183760879738413 -11.82214622391755" fill="#ffb010" stroke="none" /><path d="M 84.67929136418377 114.36230785411684 l -9.307550609622634 8.725308365349717 a33.75780170801884,33.75780170801884 0 0,0 -0.39376641840700244,-0.42735567736866326 l 9.456363436025368 -8.56380143317971" fill="#ff740a" stroke="none" /><path d="M 84.19399662182784 113.82643327865904 l -12.598275784809898 11.020446813605792 a37.738183913484804,37.738183913484804 0 0,0 -0.42348979592419334,-0.49261430698762926 l 12.786108090304875 -10.801955407456635" fill="#ffad10" stroke="none" /><path d="M 83.72743513129214 113.27417163493433 l -12.97760302961786 10.586341576456737 a37.747800105320195,37.747800105320195 0 0,0 -0.4063857839593586,-0.5070287501601217 l 13.15790672563208 -10.361384992718358" fill="#ffad10" stroke="none" /><path d="M 83.50135304334701 112.99209946851258 l -13.583062083981295 10.696179762238335 a38.288951300857065,38.288951300857065 0 0,0 -0.40329785731518825,-0.5213168456781445 l 13.765166758514551 -10.460784922446937" fill="#ffb410" stroke="none" /><path d="M 82.85270091963577 112.12312394758628 l -10.587029756404506 7.48501984902393 a33.965751856459256,33.965751856459256 0 0,0 -0.3334128226307895,-0.4803060381030131 l 10.714303486197428 -7.301672548733904" fill="#ff770b" stroke="none" /><path d="M 82.6465618267979 111.8261652097733 l -14.401424037693259 9.814402092881299 a38.427664868082644,38.427664868082644 0 0,0 -0.3678019668953232,-0.5498140364823181 l 14.568229109999312 -9.56505114219316" fill="#ffb610" stroke="none" /><path d="M 82.44556493220864 111.52570212397912 l -13.990467689017311 9.185710764035193 a37.73650107991361,37.73650107991361 0 0,0 -0.35183920879114045,-0.5460622653679374 l 14.146511761185497 -8.943526898745807" fill="#ffad10" stroke="none" /><path d="M 82.24976979558568 111.22182372390057 l -13.811838187243806 8.731943848353174 a37.34055438109121,37.34055438109121 0 0,0 -0.33879504685711914,-0.5462454902250512 l 13.960097873768882 -8.492902026762858" fill="#ffa70f" stroke="none" /><path d="M 82.05923443525364 110.91462005526583 l -14.245785831021424 8.666705953720342 a37.67495745216708,37.67495745216708 0 0,0 -0.33229155368555996,-0.5569397573514572 l 14.392858260405216 -8.420204102482774" fill="#ffac0f" stroke="none" /><line stroke="#e1ed5e" stroke-width="0.3" x1="26.63291911575756" x2="22.317208475507996" y1="142.92168965132927" y2="145.44649492493687" /><path d="M 25.769776987707644 143.4266507060508 a86.0,86.0 0 0,1 -11.730757126820373,-40.83630448921669" fill="none" id="id9" stroke="none" /><text fill="#e1ed5e" style="font-size:6.75px; font-family:Arial;" text-anchor="middle"><textPath startOffset="21.46611528233685" xlink:href="#id9">September</textPath></text><path d="M 81.87401531095188 110.60418214915194 l -9.79541055679895 5.730575168850407 a32.34854879454167,32.34854879454167 0 0,0 -0.2770391394317021,-0.4830410912977342 l 9.89260169238303 -5.561114231694365" fill="#ff5f08" stroke="none" /><path d="M 81.69416730710424 110.29060199501025 l -11.279695083093594 6.3408671253855236 a33.93978813850369,33.93978813850369 0 0,0 -0.2818999861701258,-0.5117303582848663 l 11.387171478715238 -6.145766248702835" fill="#ff770a" stroke="none" /><path d="M 81.51974371655577 109.97397251340807 l -11.471795140424227 6.191438454917072 a34.035950056857644,34.035950056857644 0 0,0 -0.2738232567756736,-0.5179704088309626 l 11.576670905424786 -5.993053030999983" fill="#ff780b" stroke="none" /><path d="M 81.35079622478065 109.6543875284942 l -11.428506597294499 5.916350793959614 a33.869109128513536,33.869109128513536 0 0,0 -0.2635683269969418,-0.520045313898635 l 11.528653594077706 -5.718751268358294" fill="#ff760a" stroke="none" /><path d="M 81.02952815118164 109.00673069616217 l -15.076015489833981 7.157735061638006 a37.6889009303284,37.6889009303284 0 0,0 -0.2732003516669073,-0.5884492524462415 l 15.196990458340714 -6.897165741912939" fill="#ffac0f" stroke="none" /><path d="M 80.87730276802145 108.67885076344099 l -15.216473779441152 6.90600826209488 a37.71029695716216,37.71029695716216 0 0,0 -0.263180010309671,-0.5934014457546983 l 15.333094874482102 -6.643058479847485" fill="#ffac0f" stroke="none" /><path d="M 80.73074385275274 108.34839909993369 l -15.086914755649687 6.536401021626105 a37.442005204954626,37.442005204954626 0 0,0 -0.2511271283481105,-0.5935903496604583 l 15.197192865190106 -6.2757361462994865" fill="#ffa80f" stroke="none" /><path d="M 80.58989483394504 108.01547362559985 l -36.51699260838598 15.079825103195617 a60.508124155721255,60.508124155721255 0 0,0 -0.3892613995060641,-0.9661148704790169 l 36.771156622149434 -14.449010864873795" fill="#3cff2e" stroke="none" /><path d="M 80.45479744820244 107.68017299344265 l -12.033077960220115 4.728327584897454 a33.92872951789298,33.92872951789298 0 0,0 -0.20891327679943453,-0.545406642501565 l 12.112685516613059 -4.520497375562731" fill="#ff770a" stroke="none" /><path d="M 80.32549172779594 107.34259656027581 l -15.580563664203975 5.81472185150203 a37.6302421601325,37.6302421601325 0 0,0 -0.22125818853689147,-0.6088075082427764 l 15.678346113746091 -5.545666546253137" fill="#ffab0f" stroke="none" /><path d="M 80.0844068197444 106.66101706037122 l -16.622799900469772 5.559701522620936 a38.52791366796663,38.52791366796663 0 0,0 -0.2049460242328016,-0.6307590047908146 l 16.716038175718822 -5.272743617852318" fill="#ffb811" stroke="none" /><path d="M 79.86692584326677 105.97154293290107 l -14.695658304354005 4.358785638424 a36.328450190415865,36.328450190415865 0 0,0 -0.17265937235809134,-0.6010499259601728 l 14.7685103135982 -4.105178236959231" fill="#ff990e" stroke="none" /><path d="M 79.76711848015287 105.62410040840567 l -12.598203360469878 3.50190162460516 a34.07585725297454,34.07585725297454 0 0,0 -0.15222484377165252,-0.5664852727061659 l 12.656616280583304 -3.284525418723455" fill="#ff790b" stroke="none" /><path d="M 79.67330655649465 105.27499134158121 l -12.433692664602733 3.226674389120448 a33.845549458516814,33.845549458516814 0 0,0 -0.14148839542498598,-0.565175807400025 l 12.48739237432278 -3.0121707423230313" fill="#ff750a" stroke="none" /><path d="M 79.58551787078972 104.9243191809786 l -16.19974668469498 3.9076535383816733 a37.664379641148145,37.664379641148145 0 0,0 -0.14660309887829376,-0.63156231300812 l 16.264610349503826 -3.6282225680249787" fill="#ffac0f" stroke="none" /><path d="M 79.50377843672027 104.57218783832718 l -16.565885049996666 3.6954293220765093 a37.973059399064326,37.973059399064326 0 0,0 -0.13682228771448154,-0.6391881777170652 l 16.62704137643559 -3.4097273249432796" fill="#ffb010" stroke="none" /><path d="M 79.4281124754447 104.21870165774334 l -16.368458171550085 3.3566993568575634 a37.709094933182726,37.709094933182726 0 0,0 -0.1249249648537371,-0.6369897043922824 l 16.423813069379488 -3.0744459253973266" fill="#ffac0f" stroke="none" /><path d="M 79.35854240842038 103.8639653848113 l -36.335654233791075 6.801831196800496 a57.96680505842218,57.96680505842218 0 0,0 -0.17515238129464758,-0.9823475714378835 l 36.44735305742491 -6.175364874629399" fill="#57ff2a" stroke="none" /><path d="M 79.29508885075956 103.50808413554451 l -18.265511734863477 3.0947706794205345 a39.525833975684776,39.525833975684776 0 0,0 -0.10788340289967331,-0.6717900528390254 l 18.31607689212444 -2.779901396888295" fill="#ffc512" stroke="none" /><path d="M 79.23777060512086 103.15116336523772 l -12.809440987623603 1.9441380981625063 a33.956135664623865,33.956135664623865 0 0,0 -0.08273323357569465,-0.5786360429349277 l 12.841008272215896 -1.7233565832471787" fill="#ff770a" stroke="none" /><path d="M 79.18660465613746 102.79330883721812 l -10.249360990066226 1.3755386930577376 a31.34125269978402,31.34125269978402 0 0,0 -0.06715757475254418,-0.535311947704969 l 10.271520074065618 -1.1989089910653599" fill="#ff5107" stroke="none" /><path d="M 79.1416061653843 102.43462659150553 l -16.65826796836153 1.9443808802234674 a37.77135977531692,37.77135977531692 0 0,0 -0.06981891693588327,-0.6464364586029567 l 16.689269186798462 -1.6573480997357286" fill="#ffad10" stroke="none" /><path d="M 79.10278846688536 102.07522291339032 l -16.64979655208061 1.653428221914299 a37.73169298399591,37.73169298399591 0 0,0 -0.05861960555963384,-0.6468624626576204 l 16.67579075391732 -1.366584370708113" fill="#ffac10" stroke="none" /><path d="M 79.07016306316243 101.71520430193888 l -19.612108114894017 1.6072161627571355 a40.67785375756512,40.67785375756512 0 0,0 -0.05118328011541752,-0.6983551918694476 l 19.63686795367377 -1.269387834390927" fill="#ffd513" stroke="none" /><path d="M 79.04373962182676 101.35467743843564 l -16.686287779920413 1.07865321287218 a37.72111517297697,37.72111517297697 0 0,0 -0.03630863743988395,-0.6483151122521841 l 16.702382768247826 -0.7912663842845583" fill="#ffac10" stroke="none" /><path d="M 79.0235259727143 100.99374915477108 l -17.08035600454225 0.8091726626993713 a38.09951232169978,38.09951232169978 0 0,0 -0.025395805329199488,-0.6553528918223114 l 17.09175394272265 -0.515042523863063" fill="#ffb210" stroke="none" /><path d="M 79.0095281055655 100.63252640178507 l -14.827207081342905 0.44680272034144686 a35.83393752528066,35.83393752528066 0 0,0 -0.013272100943856764,-0.6167023791417475 l 14.83270124497177 -0.19151052540957048" fill="#ff920d" stroke="none" /><line stroke="#e1ed5e" stroke-width="0.3" x1="15.007084014347285" x2="10.007500721073583" y1="101.09737516637583" y2="101.16192664675087" /><path d="M 14.007167355692545 101.11028546245083 a86.0,86.0 0 0,1 10.666146001902526,-42.60595125391555" fill="none" id="id10" stroke="none" /><text fill="#e1ed5e" style="font-size:6.75px; font-family:Arial;" text-anchor="middle"><textPath startOffset="22.20632615414155" xlink:href="#id10">October</textPath></text><path d="M 79.00175016825051 100.2711162175752 l -13.131017527333446 0.16953945369016252 a34.13211197521159,34.13211197521159 0 0,0 -0.00252854376737254,-0.5875445222823723 l 13.131990368390323 0.05651454679588518" fill="#ff790b" stroke="none" /><path d="M 79.00019446554 99.90962569577889 l -16.7154310719368 -0.07193616390415915 a37.715585862671624,37.715585862671624 0 0,0 0.008381827179632212,-0.6491817521601356 l 16.71171623763945 0.3596541741247667" fill="#ffac0f" stroke="none" /><path d="M 79.00486145842228 99.54816195383935 l -12.080668957047527 -0.2599890373219592 a33.083466255561746,33.083466255561746 0 0,0 0.01715347090747202,-0.5692401897520142 l 12.07440379168441 0.4678993744989678" fill="#ff6a09" stroke="none" /><path d="M 79.03285615573316 98.82574320788736 l -16.85553284588852 -0.9439876063221837 a37.88194598142396,37.88194598142396 0 0,0 0.04206593294712152,-0.6507413638693207 l 16.836786321936984 1.2339880344445162" fill="#ffaf10" stroke="none" /><path d="M 79.05617556472873 98.46500227214037 l -18.551082524062345 -1.3596308358952982 a39.60084027200085,39.60084027200085 0 0,0 0.0556778690577368,-0.6794110293752217 l 18.52493017118511 1.6787557824782982" fill="#ffc612" stroke="none" /><path d="M 79.08570108090925 98.10471618934814 l -13.692641573805803 -1.2408468483829482 a34.74875027665631,34.74875027665631 0 0,0 0.05911072565869595,-0.5952369405692601 l 13.669253722464878 1.476359319656639" fill="#ff820c" stroke="none" /><path d="M 79.12142395522702 97.74499172005258 l -12.921376560415702 -1.3955842136729775 a33.99652367033252,33.99652367033252 0 0,0 0.06784677648232237,-0.5812697475723784 l 12.895439430929791 1.6177976995702175" fill="#ff780b" stroke="none" /><path d="M 79.21141760316559 97.0276538004421 l -10.213819604522733 -1.460369317394921 a31.3176930297873,31.3176930297873 0 0,0 0.08089525133061926,-0.532998632698952 l 10.187168459752812 1.6359670624859646" fill="#ff5007" stroke="none" /><path d="M 79.26566170972629 96.67025291283419 l -18.507947395319114 -2.972208857896875 a39.74508314953178,39.74508314953178 0 0,0 0.11429198024400836,-0.6745577370982008 l 18.454043553554882 3.2903523833109043" fill="#ffc812" stroke="none" /><path d="M 79.32604984820605 96.31383870115002 l -16.83946562116353 -3.0024734513864315 a38.10504163200513,38.10504163200513 0 0,0 0.12069186950178126,-0.6447407929072758 l 16.78528802775189 3.2918923217562797" fill="#ffb210" stroke="none" /><path d="M 79.46518482838121 95.60439243477599 l -14.451978176269478 -3.093537685786464 a35.7793656366148,35.7793656366148 0 0,0 0.1340969954813333,-0.6011305369643677 l 14.396586793786106 3.341846392300791" fill="#ff910d" stroke="none" /><path d="M 79.54389044137918 95.25157060432595 l -61.3683286758625 -14.245288187022146 a84.0,84.0 0 0,0 0.3390687989567409,-1.4056590733624128 l 61.114027076644945 15.299532492043955" fill="#4dd2ff" stroke="none" /><path d="M 79.62865764111835 94.90015583598534 l -12.59976285744749 -3.1542755477037567 a33.988590312068325,33.988590312068325 0 0,0 0.14696612737586376,-0.5663204400356174 l 12.543600398201319 3.3706924132882383" fill="#ff770b" stroke="none" /><path d="M 79.71946130924805 94.55025226153421 l -15.907954314139994 -4.27475519112491 a37.47229620923612,37.47229620923612 0 0,0 0.17275304811000317,-0.6214846287911499 l 15.83201449546363 4.547951123335003" fill="#ffa90f" stroke="none" /><path d="M 79.91906864156998 93.8553929516997 l -8.707984642987382 -2.664574807748081 a30.10653366811927,30.10653366811927 0 0,0 0.15590097329313873,-0.49424868912198416 l 8.66082818592604 2.8140736632964796" fill="#ff3e05" stroke="none" /><path d="M 80.02781315780177 93.51064311812611 l -15.979776735547969 -5.192144202783906 a37.80213158919018,37.80213158919018 0 0,0 0.20640450996248175,-0.6171232131259112 l 15.888034931813714 5.466440518832139" fill="#ffad10" stroke="none" /><path d="M 80.14247586403 93.16781622104843 l -11.723878976383636 -4.033720176814324 a33.39839653817094,33.39839653817094 0 0,0 0.19171780040803948,-0.5420120387501863 l 11.652708095165787 4.234929841991121" fill="#ff6f0a" stroke="none" /><path d="M 80.38941819471856 92.48833698450439 l -23.16110750697107 -8.871661044303 a45.802081981851344,45.802081981851344 0 0,0 0.2883490793737297,-0.7338169552685576 l 23.00496487771565 9.26902700446732" fill="#e6ff1a" stroke="none" /><path d="M 80.803312248108 91.48605970444005 l -14.641560129472925 -6.4936915361295755 a37.01696952583016,37.01696952583016 0 0,0 0.263345213342726,-0.5802462698698575 l 14.527612599166847 6.744759814841505" fill="#ffa30f" stroke="none" /><path d="M 80.95270993114464 91.15688171328213 l -7.736212643990102 -3.591704817572409 a29.529321753199675,29.529321753199675 0 0,0 0.21801330377353018,-0.4591916180713526 l 7.673241146374821 3.7243388512842923" fill="#ff3505" stroke="none" /><path d="M 81.10775173730289 90.83032412892265 l -9.343104865508955 -4.534835772583258 a31.385487182226836,31.385487182226836 0 0,0 0.2400840121144642,-0.48399471829775575 l 9.263660840441078 4.694990079379977" fill="#ff5107" stroke="none" /><path d="M 81.43458229118936 90.18545643968196 l -14.035537400943442 -7.419838076072966 a36.87609231544162,36.87609231544162 0 0,0 0.30149173252539,-0.5586183917109165 l 13.905737569199578 7.660337451116356" fill="#ffa10e" stroke="none" /><path d="M 81.6062741919709 89.86733742301443 l -11.236991556206718 -6.190189252999353 a33.82920193239664,33.82920193239664 0 0,0 0.2853611725475944,-0.5076256845068664 l 11.128772742366696 6.382698447441006" fill="#ff750a" stroke="none" /><line stroke="#e1ed5e" stroke-width="0.3" x1="26.266209847984243" x2="21.928928074336255" y1="57.71137044288968" y2="55.22380399835378" /><path d="M 25.398753493254645 57.2138571539825 a86.0,86.0 0 0,1 29.58750427330803,-30.4925239686951" fill="none" id="id11" stroke="none" /><text fill="#e1ed5e" style="font-size:6.75px; font-family:Arial;" text-anchor="middle"><textPath startOffset="21.46611528233685" xlink:href="#id11">November</textPath></text><path d="M 81.78341655067845 89.55222093294921 l -14.03749797820537 -8.050943138622626 a37.18236802539896,37.18236802539896 0 0,0 0.32320388396764316,-0.5524602057789947 l 13.896834419767401 8.291382756755512" fill="#ffa50f" stroke="none" /><path d="M 81.96595687620814 89.24020034530311 l -15.821576851325815 -9.439757683459591 a39.4236619374337,39.4236619374337 0 0,0 0.35271825008327545,-0.5797760621175786 l 15.656742802956323 9.710701518784244" fill="#ffc412" stroke="none" /><path d="M 82.15384107792192 88.93136811851018 l -8.622281607285982 -5.347753626217054 a31.146044005525493,31.146044005525493 0 0,0 0.2865026756179231,-0.45317842906118433 l 8.528951335422096 5.495379702992454" fill="#ff4e07" stroke="none" /><path d="M 82.54541684631803 88.32363383020207 l -10.824908086388131 -7.241398402826475 a34.023689412267515,34.023689412267515 0 0,0 0.3298281310487229,-0.48398208366028844 l 10.698655489670667 7.426658509757177" fill="#ff780b" stroke="none" /><path d="M 82.7489923806493 88.02491185347247 l -13.27684700991378 -9.216355169499485 a37.162174022544626,37.162174022544626 0 0,0 0.36929889234081953,-0.5223470934054134 l 13.116235497769082 9.443528763236683" fill="#ffa50f" stroke="none" /><path d="M 82.95767976084542 87.72973835380427 l -13.217296200558723 -9.516291230317213 a37.286703706813,37.286703706813 0 0,0 0.37950298277487776,-0.5176416420109035 l 13.051530605270212 9.74239531599962" fill="#ffa60f" stroke="none" /><path d="M 83.17141714833178 87.43820079747577 l -12.945957830509872 -9.66358986877438 a37.154961878668075,37.154961878668075 0 0,0 0.38698495728194066,-0.5092268419162269 l 12.777696933003824 9.885001486571634" fill="#ffa40f" stroke="none" /><path d="M 83.39014120810768 87.1503855733568 l -13.114827793019833 -10.145810540808922 a37.58119958177197,37.58119958177197 0 0,0 0.40023247299270776,-0.5082545964567556 l 12.938241239433154 10.370057531218723" fill="#ffaa0f" stroke="none" /><path d="M 84.07557802195018 86.31012108654704 l -7.568928360591741 -6.50684294248968 a30.98136672034435,30.98136672034435 0 0,0 0.35113415985336077,-0.4014070443894067 l 7.455802337160537 6.636165543082029" fill="#ff4b07" stroke="none" /><path d="M 84.31358615837235 86.03803664274999 l -13.877967104709668 -12.352324128723367 a39.57896343557533,39.57896343557533 0 0,0 0.4573374845460659,-0.5050034731105985 l 13.663285979547556 12.589380389103521" fill="#ffc612" stroke="none" /><path d="M 84.80347519578584 85.50635884689758 l -11.625030073403634 -11.087338483546725 a37.06456967541537,37.06456967541537 0 0,0 0.4443084160841831,-0.45789887858714123 l 11.432457393616334 11.285801557683989" fill="#ffa30f" stroke="none" /><path d="M 85.05521093208273 85.24692304244772 l -8.415703862322665 -8.307747012592602 a32.82551190957727,32.82551190957727 0 0,0 0.4004152853531044,-0.3986957748662359 l 8.271452776802247 8.451378638108949" fill="#ff6609" stroke="none" /><path d="M 85.31137513191541 84.99185889309783 l -13.080800629400766 -13.365342460604458 a39.70132947668074,39.70132947668074 0 0,0 0.4925172180732945,-0.4738011735656282 l 12.848800167715044 13.588526720932396" fill="#ffc812" stroke="none" /><path d="M 85.83668400450813 84.49514656593477 l -31.124618959847943 -34.0727168212002 a67.14858542765342,67.14858542765342 0 0,0 0.8601062704053353,-0.7722119019294716 l 30.533501701846635 34.603427731898954" fill="#37ff74" stroke="none" /><path d="M 86.37877921826538 84.01681056812373 l -11.969311594973258 -14.044833253723104 a39.453231727327534,39.453231727327534 0 0,0 0.5206745626587869,-0.43604997242792576 l 11.72577949535536 14.248784383544841" fill="#ffc412" stroke="none" /><path d="M 86.65592168130627 83.78471172551755 l -11.719516295479004 -14.24117354755525 a39.44337513069626,39.44337513069626 0 0,0 0.5279713665897248,-0.4269161271681261 l 11.472641530324779 14.440795771987514" fill="#ffc412" stroke="none" /><path d="M 86.93701828274178 83.55741782278169 l -8.100745479518407 -10.196536757587053 a34.02272779308397,34.02272779308397 0 0,0 0.46168427646197774,-0.360351900893219 l 7.9240286478970035 10.334467047703493" fill="#ff780b" stroke="none" /><path d="M 87.51073957382395 83.11751280151077 l -7.634729916629614 -10.320325278130717 a33.83737569545673,33.83737569545673 0 0,0 0.47123328592538255,-0.3423710228365015 l 7.455951314350449 10.450215535783887" fill="#ff750a" stroke="none" /><path d="M 87.80319425747018 82.90503203632743 l -7.537214327982766 -10.564113276225212 a33.97729128666173,33.97729128666173 0 0,0 0.47902942434647466,-0.33559072450848887 l 7.354253764052631 10.692288843497645" fill="#ff770b" stroke="none" /><path d="M 88.09926311788651 82.69761687909137 l -9.084201603031907 -13.20744572711842 a37.029951384807944,37.029951384807944 0 0,0 0.528285695297267,-0.3567008596812469 l 8.855511213328104 13.361858499098332" fill="#ffa30f" stroke="none" /><path d="M 88.39885842347998 82.49532879139004 l -10.540447561556089 -15.904216644512342 a40.07996703019943,40.07996703019943 0 0,0 0.5783596007442358,-0.37618117244298444 l 10.265120935027563 16.08329674111486" fill="#ffcd13" stroke="none" /><path d="M 88.70189139769569 82.29822771554957 l -10.058566514580026 -15.759669181510487 a39.69604057117127,39.69604057117127 0 0,0 0.5791479313172054,-0.3626623814597023 l 9.785799430890577 15.93047590429312" fill="#ffc812" stroke="none" /><path d="M 89.00827224532344 82.1063720568725 l -8.21667910141218 -13.376077178238582 a36.698192766486805,36.698192766486805 0 0,0 0.5411025038934035,-0.3260082041585375 l 7.9852145313011285 13.515531991855738" fill="#ff9e0e" stroke="none" /><line stroke="#e1ed5e" stroke-width="0.3" x1="56.76296977257108" x2="54.21961505331056" y1="26.818313649435495" y2="22.513508569990535" /><path d="M 56.25429882871898 25.957352633546506 a86.0,86.0 0 0,1 42.26535254187918,-11.944610805530505" fill="none" id="id12" stroke="none" /><text fill="#e1ed5e" style="font-size:6.75px; font-family:Arial;" text-anchor="middle"><textPath startOffset="22.20632615414155" xlink:href="#id12">December</textPath></text><path d="M 89.3179101791058 81.91981866633112 l -8.424591486705731 -14.259208103997395 a37.561967198101186,37.561967198101186 0 0,0 0.5595002892664965,-0.32409868078796916 l 8.177894464973912 14.40211094217541" fill="#ffaa0f" stroke="none" /><path d="M 89.63071344664047 81.73862282372117 l -21.380495642017166 -37.65324577785578 a64.30002900121349,64.30002900121349 0 0,0 0.9671823920691522,-0.5382359540403293 l 20.72918916087597 38.01569712945629" fill="#33ff51" stroke="none" /><path d="M 90.26544431104013 81.39251694778311 l -7.4832878492854045 -14.30421236260008 a37.143422448465614,37.143422448465614 0 0,0 0.5690717441835167,-0.29150065023725824 l 7.235955617513123 14.430905538149844" fill="#ffa40f" stroke="none" /><path d="M 90.58718382345135 81.22770947309562 l -5.729196709981051 -11.425926429276565 a33.781842187607324,33.781842187607324 0 0,0 0.5220561163427612,-0.2561706690245707 l 5.531669326627865 11.522852258435965" fill="#ff740a" stroke="none" /><path d="M 90.91171255644093 81.06846463323043 l -7.002917745749227 -14.587565126825652 a37.181406406215416,37.181406406215416 0 0,0 0.5793603005065717,-0.2720174294613256 l 6.750779233943047 14.705947538926985" fill="#ffa50f" stroke="none" /><path d="M 91.23893434514133 80.91482961587045 l -6.673050343210667 -14.53662234701107 a36.995092689404636,36.995092689404636 0 0,0 0.5810306237116551,-0.2606915042232607 l 6.421837601032237 14.64933418175086" fill="#ffa20f" stroke="none" /><path d="M 91.56875222667455 80.76684994638697 l -4.995084310707611 -11.394660513030484 a33.44142899663433,33.44142899663433 0 0,0 0.5291966675373211,-0.22657439539238583 l 4.798203885379982 11.478954436385656" fill="#ff6f0a" stroke="none" /><path d="M 91.90106846888425 80.62456947434976 l -4.941449074027998 -11.821646208765776 a33.81285440627647,33.81285440627647 0 0,0 0.5389384659543018,-0.21984653220174877 l 4.737226738485315 11.904953627151102" fill="#ff750a" stroke="none" /><path d="M 92.57280143429618 80.3572730644239 l -6.687760690961533 -17.68713410593847 a39.90927962512116,39.90927962512116 0 0,0 0.6446634768821823,-0.23743499907458843 l 6.382314888306783 17.79963237281938" fill="#ffca12" stroke="none" /><path d="M 93.94186890950719 79.89281104454417 l -4.61256943918048 -15.309309735689174 a36.98908256950752,36.98908256950752 0 0,0 0.6112177851931045,-0.17843123219311147 l 4.348361436263954 15.386439296800985" fill="#ffa20f" stroke="none" /><path d="M 94.63758080256005 79.69619591428918 l -3.236015297077549 -12.252570750454025 a33.672698410275586,33.672698410275586 0 0,0 0.5616784260528681,-0.14318433709271874 l 3.0246279823396796 12.306458083715606" fill="#ff730a" stroke="none" /><path d="M 94.98787191387505 79.60689891045804 l -4.410652824723058 -17.945848026998878 a39.479916659670764,39.479916659670764 0 0,0 0.6613380724554968,-0.15651735477406292 l 4.101091065305027 18.019111293913813" fill="#ffc512" stroke="none" /><path d="M 95.33964822691252 79.52364482259891 l -3.5621926543430633 -15.651333966219996 a37.05158781643758,37.05158781643758 0 0,0 0.62309703900189,-0.1361848787402174 l 3.2922528911876525 15.710332343056082" fill="#ffa30f" stroke="none" /><path d="M 95.692805502759 79.44645832069477 l -3.8298098565417513 -18.275505450396277 a39.67248090117455,39.67248090117455 0 0,0 0.6695838024357025,-0.13431221165123464 l 3.5146596446389125 18.338721618124723" fill="#ffc712" stroke="none" /><path d="M 96.04723909329186 79.375362276772 l -2.9945039544183114 -15.624663539815653 a36.90902777247785,36.90902777247785 0 0,0 0.6250014452972349,-0.11421501921937059 l 2.725107388018183 15.67389404038576" fill="#ffa10e" stroke="none" /><path d="M 97.11714578562143 79.19881850522333 l -1.73675525683252 -12.53152557253687 a33.65130238344183,33.65130238344183 0 0,0 0.5744522033805874,-0.07458038288743171 l 1.5207883249440752 12.55956427858844" fill="#ff730a" stroke="none" /><path d="M 97.47563105711357 79.15227682838746 l -1.5435604142563022 -12.747629583130534 a33.84074136259912,33.84074136259912 0 0,0 0.5788914797791199,-0.06504520280711396 l 1.3239022309674642 12.772310739408248" fill="#ff750a" stroke="none" /><path d="M 97.83486435360386 79.11191278185805 l -1.911879104069709 -18.444801619161165 a39.54362393058025,39.54362393058025 0 0,0 0.6776550779242403,-0.06435151503447886 l 1.5940988990552318 18.474978678710823" fill="#ffc512" stroke="none" /><path d="M 98.19473922651362 79.07773832637324 l -1.5805211071750316 -18.317617416094464 a39.38567797968389,39.38567797968389 0 0,0 0.6759516544044746,-0.05246685785768167 l 1.264979263408223 18.342109536140608" fill="#ffc312" stroke="none" /><path d="M 99.63851952072746 79.00311137660856 l -0.14054478227186318 -8.163658369325608 a29.164868082638193,29.164868082638193 0 0,0 0.502025261544397,-0.004321089921144078 l 1.99981591257265e-15 8.164868082638193" fill="#ff3004" stroke="none" /></svg>