<?xml version="1.0" encoding="utf-8" ?>
<svg baseProfile="full" height="200mm" version="1.1" viewBox="0,0,200,200" width="200mm" xmlns="http://www.w3.org/2000/svg" xmlns:ev="http://www.w3.org/2001/xml-events" xmlns:xlink="http://www.w3.org/1999/xlink"><defs /><rect fill="#1a1a1a" height="200" width="200" x="0" y="0" /><text alignment-baseline="middle" fill="#e1ed5e" style="dominant-baseline: central; font-size:9.0px; font-family:Arial;" text-anchor="middle" x="100.0" y="100.0">2018</text><line stroke="#e1ed5e" stroke-width="0.3" x1="100.0" x2="100.0" y1="15.0" y2="10.0" /><path d="M 100.0 14.0 a86.0,86.0 0 0,1 42.46469731375804,11.215312516191453" fill="none" id="id13" stroke="none" /><text fill="#e1ed5e" style="font-size:6.75px; font-family:Arial;" text-anchor="middle"><textPath startOffset="22.20632615414155" xlink:href="#id13">January</textPath></text><path d="M 100.0 79.0 l 0.0 -11.637655797643156 a32.637655797643156,32.637655797643156 0 0,0 0.5618035933363744,0.0048356208955706035 l -0.200323114063846 11.635931553356144" fill="#ff820c" stroke="none" /><path d="M 100.72285384407766 79.0124445844662 l 0.49127396379776844 -14.263795681367197 a35.27225340817963,35.27225340817963 0 0,0 0.6066141752690819,0.02612208243390061 l -0.7367289714561819 14.253225872409102" fill="#ffa60f" stroke="none" /><path d="M 101.80526077348638 79.07773832637324 l 1.0013672787077559 -11.60545254416083 a32.64857352561401,32.64857352561401 0 0,0 0.5594952975340552,0.0531308201235251 l -1.2009877033320553 11.586496179522127" fill="#ff830c" stroke="none" /><path d="M 102.88285421437855 79.19881850522331 l 2.2702873672072656 -16.381216689709362 a37.53778899868158,37.53778899868158 0 0,0 0.6392703691453562,0.09421183488724844 l -2.551926716781278 16.339710370661145" fill="#ffc412" stroke="none" /><path d="M 103.95276090670814 79.375362276772 l 2.1652934450522756 -11.298025335378847 a32.503646038628304,32.503646038628304 0 0,0 0.5485897128990799,0.1100419355434853 l -2.3594495674184808 11.259079443758154" fill="#ff810b" stroke="none" /><path d="M 105.01212808612495 79.60689891045804 l 3.93501070380098 -16.010578678783286 a37.48705367458171,37.48705367458171 0 0,0 0.6253038900758734,0.15940388455223295 l -4.210023482561878 15.940471798062184" fill="#ffc412" stroke="none" /><path d="M 105.36241919743992 79.69619591428918 l 3.7523742071384842 -14.20766783663369 a35.69483370258111,35.69483370258111 0 0,0 0.5927078026618408,0.1620094321344422 l -3.996379899024036 14.140971863672956" fill="#ffac0f" stroke="none" /><path d="M 106.0581310904928 79.89281104454417 l 3.3012462680607952 -10.956973612631467 a32.443491498239844,32.443491498239844 0 0,0 0.5333318012156119,0.16570878676387124 l -3.4893634419871256 10.898524690985075" fill="#ff800b" stroke="none" /><path d="M 106.74666289553966 80.11325718540242 l 6.774700248648963 -19.969386877168947 a42.087270466067714,42.087270466067714 0 0,0 0.6840544195202478,0.23865315520999492 l -7.1174366722324836 19.849812868786746" fill="#fffe18" stroke="none" /><path d="M 107.08798089147638 80.2323363322302 l 3.8977729179593066 -10.870495459181782 a32.54817324290161,32.54817324290161 0 0,0 0.5257578870384925,0.19364106684960697 l -4.084313130770376 10.80179112452585" fill="#ff810b" stroke="none" /><path d="M 107.4271985657038 80.35727306442388 l 5.008460430319604 -13.24588534022633 a35.161149470593834,35.161149470593834 0 0,0 0.5642809195025318,0.2189322301369134 l -5.235724514821803 13.15771040619887" fill="#ffa50f" stroke="none" /><path d="M 107.76421540070413 80.48803036053334 l 5.317642775662011 -13.363576232420936 a35.38271512647303,35.38271512647303 0 0,0 0.563960261456642,0.2300535508470234 l -5.546886906707041 13.270061795390333" fill="#ffa80f" stroke="none" /><path d="M 108.76106565485865 80.91482961587045 l 2.686442596789735 -5.8521664722923195 a27.439318771832056,27.439318771832056 0 0,0 0.42755918901140016,0.20074477218366246 l -2.7867799971007328 5.805056717468654" fill="#ff3905" stroke="none" /><path d="M 109.73455568895987 81.39251694778311 l 6.64021917612524 -12.692696999297576 a35.32470131705925,35.32470131705925 0 0,0 0.5363550473739159,0.2865022911555569 l -6.857719270027467 12.576515981640265" fill="#ffa70f" stroke="none" /><line stroke="#e1ed5e" stroke-width="0.3" x1="143.23703022742887" x2="145.7803849466894" y1="26.818313649435467" y2="22.513508569990506" /><path d="M 143.74570117128098 25.957352633546478 a86.0,86.0 0 0,1 28.547481713284135,27.462654790039114" fill="none" id="id14" stroke="none" /><text fill="#e1ed5e" style="font-size:6.75px; font-family:Arial;" text-anchor="middle"><textPath startOffset="19.985693538727396" xlink:href="#id14">February</textPath></text><path d="M 110.68208982089419 81.91981866633111 l 8.596321511262797 -14.549873136447705 a37.8995725334022,37.8995725334022 0 0,0 0.5588164443084492,0.336680655055973 l -8.845500021788883 14.39974587193312" fill="#ffc912" stroke="none" /><path d="M 111.60114157652 82.49532879139004 l 19.074167044232524 -28.78053168174076 a55.52742174438992,55.52742174438992 0 0,0 0.7921788041108253,0.5348826647456133 l -19.56675054274989 28.447937104696475" fill="#65ff29" stroke="none" /><path d="M 111.90073688211348 82.69761687909136 l 8.088232388247599 -11.75941430675078 a35.272467481277104,35.272467481277104 0 0,0 0.4972894881549734,0.3483830661301457 l -8.289453015986224 11.6184463978567" fill="#ffa60f" stroke="none" /><path d="M 112.48926042617603 83.11751280151076 l 8.417939428713652 -11.379036851938654 a35.15429913147486,35.15429913147486 0 0,0 0.48337805172103343,0.364070327078319 l -8.61256363419307 11.232449935354484" fill="#ffa50f" stroke="none" /><path d="M 112.77801427241765 83.33499621200491 l 10.07211044405307 -13.135981469794618 a37.552988188601795,37.552988188601795 0 0,0 0.5095894804873308,0.3977426724947602 l -10.296732479699832 12.960660408076631" fill="#ffc412" stroke="none" /><path d="M 113.34407831869373 83.78471172551755 l 8.184726547349056 -9.945812460284355 a33.880564201541326,33.880564201541326 0 0,0 0.4471306196204723,0.3744590351439113 l -8.354714703928645 9.803452267746623" fill="#ff930d" stroke="none" /><path d="M 114.42810811169701 84.74124197986012 l 11.628988854193482 -12.2984888643291 a37.92590352439075,37.92590352439075 0 0,0 0.4704920652020259,0.45261299395396987 l -11.838964163007928 12.096492783612824" fill="#ffc912" stroke="none" /><path d="M 114.68862486808459 84.99185889309781 l 6.558402225226355 -6.701064729747824 a30.376401669090562,30.376401669090562 0 0,0 0.37054031558850775,0.36894909771604617 l -6.672778340982183 6.587179781381661" fill="#ff6309" stroke="none" /><path d="M 114.94478906791727 85.2469230424477 l 8.096304387058382 -7.992444801409748 a32.37670069182988,32.37670069182988 0 0,0 0.38811298035818353,0.3999845423532407 l -8.232681631119675 7.851896063506394" fill="#ff7f0b" stroke="none" /><path d="M 115.19652480421416 85.50635884689758 l 8.083655593765746 -7.709762915585778 a32.17076237206584,32.17076237206584 0 0,0 0.37874589216655713,0.4040197104696372 l -8.215168807902767 7.569473788238084" fill="#ff7c0b" stroke="none" /><path d="M 115.68641384162765 86.03803664274999 l 10.606446764111706 -9.44045098938846 a35.1992544819431,35.1992544819431 0 0,0 0.3989385220331596,0.4560556941804946 l -10.767377149722714 9.256479739005016" fill="#ffa50f" stroke="none" /><path d="M 116.15771136456269 86.58626213691792 l 12.63069949179854 -10.485698635633165 a37.415981406222386,37.415981406222386 0 0,0 0.40712419865537447,0.49908612864436924 l -12.809322182530321 10.266728337380693" fill="#ffc312" stroke="none" /><path d="M 116.38621287248628 86.86637796730983 l 12.817340119319768 -10.273154749151004 a37.42625691490085,37.42625691490085 0 0,0 0.39858236369807193,0.5061591252237873 l -12.992276563611803 10.051003229974178" fill="#ffc312" stroke="none" /><path d="M 117.04232023915458 87.72973835380427 l 7.082397100732757 -5.099239087679533 a29.72711796447066,29.72711796447066 0 0,0 0.2954130651803005,0.417840830696306 l -7.16912278571694 4.976571756651434" fill="#ff5a08" stroke="none" /><path d="M 117.2510076193507 88.02491185347247 l 11.774616362265151 -8.17355553605498 a35.33347831405543,35.33347831405543 0 0,0 0.3425253203602884,0.5026136422241403 l -11.913566148294173 7.969663870560436" fill="#ffa70f" stroke="none" /><path d="M 117.45458315368197 88.32363383020206 l 11.643644410929898 -7.789097825820006 a35.00872942519674,35.00872942519674 0 0,0 0.33075474808585964,0.5037621731137011 l -11.775995794373683 7.58751758872863" fill="#ffa30f" stroke="none" /><line stroke="#e1ed5e" stroke-width="0.3" x1="172.23445277983987" x2="176.4835382374775" y1="55.19839476539836" y2="52.563006222186495" /><path d="M 173.08426987136738 54.67131705675599 a86.0,86.0 0 0,1 12.851231095245387,41.99856678651699" fill="none" id="id15" stroke="none" /><text fill="#e1ed5e" style="font-size:6.75px; font-family:Arial;" text-anchor="middle"><textPath startOffset="22.20632615414155" xlink:href="#id15">March</textPath></text><path d="M 118.03404312379186 89.2402003453031 l 14.05278047407786 -8.38442613531478 a37.36396164353771,37.36396164353771 0 0,0 0.3247823676899799,0.5551583461334814 l -14.195022516238167 8.141288376827402" fill="#ffc212" stroke="none" /><path d="M 118.21658344932153 89.55222093294921 l 9.780212855178702 -5.6092572695591185 a32.27458782433773,32.27458782433773 0 0,0 0.27224745778655757,0.484297849214599 l -9.875317954257692 5.440075910409727" fill="#ff7d0b" stroke="none" /><path d="M 118.3937258080291 89.86733742301442 l 55.1811774240873 -30.397987730956764 a84.0,84.0 0 0,0 0.6867676031261407,1.272476066670165 l -55.696253126431905 29.44363068095414" fill="#4dd2ff" stroke="none" /><path d="M 118.56541770881063 90.18545643968196 l 14.316010532042379 -7.568109222235383 a37.19334538485586,37.19334538485586 0 0,0 0.29434205486575077,0.5685751628062402 l -14.444162020068246 7.320561337168797" fill="#ffc011" stroke="none" /><path d="M 118.89224826269711 90.83032412892265 l 14.744635456353082 -7.156561045141076 a37.38965041523385,37.38965041523385 0 0,0 0.2760456634287232,0.5814225676020682 l -14.86563931362356 6.901696061898467" fill="#ffc212" stroke="none" /><path d="M 119.04729006885535 91.15688171328212 l 12.916976728867276 -5.996987115082033 a35.2412128090468,35.2412128090468 0 0,0 0.2507121686225338,0.5524110304024472 l -13.018291214453157 5.773754075837523" fill="#ffa60f" stroke="none" /><path d="M 119.34039704204932 91.81776055985345 l 8.010611965824822 -3.3890072175858776 a29.698004023215038,29.698004023215038 0 0,0 0.19512764276048256,0.47251706433029794 l -8.067761295471502 3.2506155828022765" fill="#ff5908" stroke="none" /><path d="M 119.47837535516314 92.15188598940014 l 31.791320063383896 -12.809174269186258 a55.27481548937789,55.27481548937789 0 0,0 0.3479851017521262,0.8855841274096715 l -32.007098715017726 12.260041136880801" fill="#67ff28" stroke="none" /><path d="M 119.61058180528143 92.48833698450437 l 6.045461015319979 -2.315661328730684 a27.473784540524377,27.473784540524377 0 0,0 0.16536001440082215,0.4430826267674665 l -6.084425618222426 2.2112555649338845" fill="#ff3a05" stroke="none" /><path d="M 119.85752413597 93.16781622104841 l 10.612424670249581 -3.651312982975913 a32.22299620784799,32.22299620784799 0 0,0 0.17594171180827817,0.5260433240229795 l -10.67370367582963 3.4680965560306194" fill="#ff7d0b" stroke="none" /><path d="M 120.18372546131832 94.20196356495316 l 8.84219348504364 -2.540034548640175 a30.19979136367961,30.19979136367961 0 0,0 0.13922568238761335,0.5008688557655031 l -8.884605937997618 2.38745438945572" fill="#ff6108" stroke="none" /><path d="M 120.37134235888165 94.90015583598534 l 14.934198881440617 -3.738687695096504 a36.395066804398354,36.395066804398354 0 0,0 0.1469098998728217,0.6090363795146707 l -14.996341581574258 3.481066083922427" fill="#ffb510" stroke="none" /><path d="M 120.45610955862082 95.25157060432595 l 16.49357765966232 -3.828616031535067 a37.93211164421731,37.93211164421731 0 0,0 0.14216524282215579,0.6372989077689467 l -16.557037289486516 3.544138954216156" fill="#ffc912" stroke="none" /><path d="M 120.53481517161879 95.60439243477599 l 13.985405668001691 -2.993664878072967 a35.30222364182512,35.30222364182512 0 0,0 0.12207963507788488,0.5953036563397063 l -14.034864598994572 2.7524855655698497" fill="#ffa70f" stroke="none" /><path d="M 120.6074358757038 95.95851677861258 l 16.687225030470486 -3.2726604308727234 a38.00511057045384,38.00511057045384 0 0,0 0.12037535320569008,0.6430499501972149 l -16.74108610758604 2.9849324032129454" fill="#ffca12" stroke="none" /><path d="M 120.73433829027371 96.67025291283417 l 9.223543837185154 -1.4812176687413434 a30.341721827300777,30.341721827300777 0 0,0 0.07837426628739161,0.5163884910776102 l -9.247673996911844 1.3222300652716505" fill="#ff6309" stroke="none" /><path d="M 120.78858239683441 97.02765380044208 l 56.52253450621774 -8.081577542031928 a78.09736248351976,78.09736248351976 0 0,0 0.17882065005895584,1.3324215481415411 l -56.65327115533453 7.107437651825722" fill="#45fff3" stroke="none" /><path d="M 120.98425023603335 99.18683210126433 l 9.172997756869865 -0.35546599126292516 a30.179882565615102,30.179882565615102 0 0,0 0.015647989650817516,0.5192805961030735 l -9.177757440976329 0.19751524773485252" fill="#ff6008" stroke="none" /><line stroke="#e1ed5e" stroke-width="0.3" x1="184.98032266829074" x2="189.97916517819016" y1="98.17113171792111" y2="98.06355123074" /><path d="M 185.9800911702706 98.14961562048488 a86.0,86.0 0 0,1 -9.607161424134198,41.387399972396054" fill="none" id="id16" stroke="none" /><text fill="#e1ed5e" style="font-size:6.75px; font-family:Arial;" text-anchor="middle"><textPath startOffset="21.466115282336823" xlink:href="#id16">April</textPath></text><path d="M 120.99513854157772 99.54816195383933 l 11.287173450916692 -0.24291215743297073 a32.289787014257946,32.289787014257946 0 0,0 0.0071760098174296506,0.5557898686002075 l -11.289682467851836 0.04858603077230054" fill="#ff7e0b" stroke="none" /><path d="M 120.99980553446 99.90962569577887 l 14.190132006266731 -0.06106834202668828 a35.19026341184946,35.19026341184946 0 0,0 -0.0026069327701389116,0.6057593658523449 l -14.18908077620709 -0.18320050202934132" fill="#ffa50f" stroke="none" /><path d="M 120.9904718944345 100.63252640178507 l 14.016067856086575 0.42235986940991405 a35.02243010343469,35.02243010343469 0 0,0 -0.023344729705519082,0.6024237437248677 l -14.006720993529854 -0.6635608601487879" fill="#ffa30f" stroke="none" /><path d="M 120.95626037817324 101.35467743843564 l 13.964811217306464 0.9027285568469872 a34.993958381471465,34.993958381471465 0 0,0 -0.044031466971210485,0.6007743836587845 l -13.947203191670916 -1.1429760770025417" fill="#ffa20f" stroke="none" /><path d="M 120.92983693683757 101.71520430193887 l 11.162669784075728 0.9147830101376161 a32.20009038641893,32.20009038641893 0 0,0 -0.050025759465313464,0.5520300871204312 l -11.14526942833334 -1.106794485806618" fill="#ff7c0b" stroke="none" /><path d="M 120.89721153311464 102.0752229133903 l 2.550338607312962 0.25326446575960637 a23.562883122884756,23.562883122884756 0 0,0 -0.043555090134766355,0.4032660410173124 l -2.545601215677144 -0.2971268286617099" fill="#ff0000" stroke="none" /><path d="M 120.8583938346157 102.4346265915055 l 13.878757312869896 1.6199517507857593 a34.972979217919615,34.972979217919615 0 0,0 -0.07493958485465374,0.5973422250068412 l -13.848816218768395 -1.8586117300799956" fill="#ffa20f" stroke="none" /><path d="M 120.70491114924044 103.5080841355445 l 11.621448555737105 1.969050676748424 a32.7870788196757,32.7870788196757 0 0,0 -0.09906937125780269,0.5556336461978393 l -11.585832742140115 -2.1688030736794817" fill="#ff850c" stroke="none" /><path d="M 120.64145759157962 103.86396538481128 l 14.740421370573385 2.759324416927929 a35.99646269691327,35.99646269691327 0 0,0 -0.11925125345063155,0.6080595721828935 l -14.69074018414709 -3.0126477161787673" fill="#ffb010" stroke="none" /><path d="M 120.41448212921028 104.9243191809786 l 13.664548056707682 3.2961206495054265 a35.056467725932066,35.056467725932066 0 0,0 -0.14655053462462822,0.585396537168954 l -13.605786207787993 -3.530845026071777" fill="#ffa30f" stroke="none" /><path d="M 120.32669344350535 105.2749913415812 l 16.297851244058315 4.229464297168067 a37.837705408234,37.837705408234 0 0,0 -0.1690299014837891,0.6290231440879563 l -16.222633266232748 -4.509378374431572" fill="#ffc812" stroke="none" /><path d="M 120.23288151984713 105.62410040840565 l 8.767820328877795 2.4371764270995255 a30.100247373357075,30.100247373357075 0 0,0 -0.14305839616242297,0.49800504453979794 l -8.724569295829273 -2.587738947143906" fill="#ff5f08" stroke="none" /><path d="M 120.13307415673323 105.97154293290107 l 14.401388555359683 4.271504161869863 a36.021509249317006,36.021509249317006 0 0,0 -0.18143387107145015,0.5929363883550232 l -14.3257279117821 -4.518767522776943" fill="#ffb010" stroke="none" /><path d="M 120.02730092923936 106.31721596034902 l 16.06964080650125 5.068850352755006 a37.850121647887136,37.850121647887136 0 0,0 -0.20134056609746154,0.6196625456437077 l -15.980007989387541 -5.344711798376509" fill="#ffc812" stroke="none" /><path d="M 119.9155931802556 106.66101706037122 l 10.716951185890196 3.5844171970309358 a32.300490669131335,32.300490669131335 0 0,0 -0.18089685084392684,0.5257709244913543 l -10.653663504103038 -3.7683608246115905" fill="#ff7e0b" stroke="none" /><path d="M 119.67450827220406 107.3425965602758 l 13.365391154972054 4.9880115814576556 a35.265831215255595,35.265831215255595 0 0,0 -0.2171463671915439,0.5669006435385866 l -13.277550508187003 -5.217335791829387" fill="#ffa60f" stroke="none" /><path d="M 119.26925614724726 108.34839909993367 l 12.73848349070636 5.518943922675763 a34.882640370788195,34.882640370788195 0 0,0 -0.24344580640246793,0.5489060256216328 l -12.641596599572619 -5.737398284790083" fill="#ffa10e" stroke="none" /><path d="M 119.12269723197855 108.67885076344098 l 10.228094556406718 4.642028536694693 a32.2322013510391,32.2322013510391 0 0,0 -0.23364567622655394,0.5032520004968517 l -10.146674263340334 -4.817400604470375" fill="#ff7d0b" stroke="none" /><path d="M 118.97047184881838 109.00673069616215 l 10.373320516111212 4.92500687690628 a32.483095021271396,32.483095021271396 0 0,0 -0.2441595601991692,0.5030410116831826 l -10.28700769929733 -5.102836844554738" fill="#ff800b" stroke="none" /><path d="M 118.64920377521936 109.65438752849418 l 9.554697367295912 4.946310427683278 a31.759099805635216,31.759099805635216 0 0,0 -0.2555057263427312,0.4833205443934231 l -9.468139132728286 -5.1100459871628345" fill="#ff760a" stroke="none" /><line stroke="#e1ed5e" stroke-width="0.3" x1="174.80103733775053" x2="179.2010983576182" y1="140.37084112569926" y2="142.7455964860345" /><path d="M 175.68104954172406 140.8457921977663 a86.0,86.0 0 0,1 -30.038265399797805,32.042727171017184" fill="none" id="id17" stroke="none" /><text fill="#e1ed5e" style="font-size:6.75px; font-family:Arial;" text-anchor="middle"><textPath startOffset="22.206326154141568" xlink:href="#id17">May</textPath></text><path d="M 118.30583269289576 110.29060199501023 l 9.757031467189876 5.484903591444268 a32.19302597420249,32.19302597420249 0 0,0 -0.27570721234642454,0.48071876415607834 l -9.66117225869107 -5.652042201458663" fill="#ff7c0b" stroke="none" /><path d="M 118.12598468904814 110.60418214915192 l 11.34429236932139 6.636712140124594 a34.14301781903687,34.14301781903687 0 0,0 -0.3011399934029407,0.5047279504833925 l -11.22837150022022 -6.83100218449409" fill="#ff970d" stroke="none" /><path d="M 117.94076556474637 110.91462005526583 l 11.349442954461539 6.9046584015497965 a34.28473420956057,34.28473420956057 0 0,0 -0.31106924697651533,0.5015426727306475 l -11.228909067817064 -7.098997405645715" fill="#ff990e" stroke="none" /><path d="M 117.75023020441432 111.22182372390056 l 8.234810765527737 5.206106836149615 a30.74246666576054,30.74246666576054 0 0,0 -0.28662978385471716,0.444855789755205 l -8.143976118295969 -5.347084225826276" fill="#ff6809" stroke="none" /><path d="M 117.55443506779139 111.5257021239791 l 10.93576191090277 7.180084907151604 a34.082221059356016,34.082221059356016 0 0,0 -0.32621050445885164,0.487640443343521 l -10.810548301033196 -7.3672622647009325" fill="#ff960d" stroke="none" /><path d="M 116.93607887273984 112.41649034213513 l 5.336822646699203 3.912629797508067 a27.617427588925285,27.617427588925285 0 0,0 -0.28437893137948983,0.380972051123608 l -5.268682448624624 -4.00391472814099" fill="#ff3c05" stroke="none" /><path d="M 116.27256486870786 113.27417163493432 l 21.900879961951656 17.865409781225523 a49.26342883938402,49.26342883938402 0 0,0 -0.5416725132368355,0.6524794365548386 l -21.59011144882128 -18.23975047489413" fill="#aaff21" stroke="none" /><path d="M 116.0416608686014 113.55231037782055 l 8.611548084909732 7.2752050698599495 a32.273303385752925,32.273303385752925 0 0,0 -0.36216408017844515,0.4212786449401237 l -8.485041495160505 -7.422360813961603" fill="#ff7d0b" stroke="none" /><path d="M 115.80600337817218 113.82643327865902 l 12.336590685269252 10.791535590303454 a37.39050670762372,37.39050670762372 0 0,0 -0.42792749496866167,0.48078107702551826 l -12.149004340652255 -11.002290837069836" fill="#ffc212" stroke="none" /><path d="M 115.56566222782051 114.09645910891815 l 12.104892498339167 10.962342598936152 a37.330994386527664,37.330994386527664 0 0,0 -0.4354457699081621,0.47259038165127176 l -11.91440032043528 -11.16908423538876" fill="#ffc212" stroke="none" /><path d="M 115.32070863581623 114.36230785411682 l 12.133362781264132 11.37434930149459 a37.631124869177555,37.631124869177555 0 0,0 -0.4470818628142862,0.4687635457510461 l -11.935774367070884 -11.58151996382814" fill="#ffc512" stroke="none" /><path d="M 115.07121518719521 114.62390073753431 l 8.091665028059177 7.851503989688379 a32.274801897435204,32.274801897435204 0 0,0 -0.3903089769680504,0.39538093300028987 l -7.955315426035591 -7.989625416669334" fill="#ff7d0b" stroke="none" /><path d="M 114.81725581225074 114.88116024355365 l 11.515782791846153 11.565448503206307 a37.32093295094668,37.32093295094668 0 0,0 -0.4591364192979459,0.4493616216895498 l -11.314996420172413 -11.761960227818427" fill="#ffc112" stroke="none" /><path d="M 114.55890576462653 115.13401014063108 l 5.807543611198411 6.036952592795947 a29.376894377013308,29.376894377013308 0 0,0 -0.3674408309394084,0.34743824015350183 l -5.702766945868195 -6.136025469695372" fill="#ff5507" stroke="none" /><path d="M 114.29624159901734 115.38237550388516 l 14.897933960499907 16.02978047238964 a42.883836461745474,42.883836461745474 0 0,0 -0.5450340605823426,0.497875691709123 l -14.619800350450701 -16.283848930685345" fill="#f6ff19" stroke="none" /><path d="M 113.75828350139079 115.86535959552629 l 2.1715116630968585 2.5040778813307885 a24.314493768094273,24.314493768094273 0 0,0 -0.3185598407216654,0.27148360727115545 l -2.1280863457981463 -2.5410858788248905" fill="#ff0b01" stroke="none" /><path d="M 113.48314897796784 116.09983520530334 l 10.469448107330015 12.501262835107589 a37.3061619072214,37.3061619072214 0 0,0 -0.4958697227454119,0.40806702318062626 l -10.252708256039913 -12.679624977145393" fill="#ffc112" stroke="none" /><path d="M 112.92097659922987 116.55440617244103 l 10.05584886916605 12.883593226132657 a37.3434106261808,37.3434106261808 0 0,0 -0.5101310327962887,0.3911467228450219 l -9.832589107876268 -13.054779290805051" fill="#ffc212" stroke="none" /><path d="M 112.04921762599082 117.19931262002967 l 5.508767088212343 7.863332727655295 a30.600964348334305,30.600964348334305 0 0,0 -0.4340136454786652,0.2985185429079363 l -5.372596558110795 -7.956992059928325" fill="#ff6609" stroke="none" /><path d="M 111.1453310114006 117.79835938074945 l 8.753583241519008 13.978895758456456 a37.493475867505744,37.493475867505744 0 0,0 -0.5499414492394188,0.33781895489637936 l -8.511662592347282 -14.127503180181215" fill="#ffc412" stroke="none" /><line stroke="#e1ed5e" stroke-width="0.3" x1="143.8653032363475" x2="146.44561519142675" y1="172.8068346515853" y2="177.08958963109032" /><path d="M 144.38136562736335 173.6633856474863 a86.0,86.0 0 0,1 -40.68145358897372,12.25698825130547" fill="none" id="id18" stroke="none" /><text fill="#e1ed5e" style="font-size:6.75px; font-family:Arial;" text-anchor="middle"><textPath startOffset="21.466115282336833" xlink:href="#id18">June</textPath></text><path d="M 109.89434966115114 118.52300852407294 l 7.856992883642963 14.708914798991136 a37.67586614654833,37.67586614654833 0 0,0 -0.5746629848539739,0.3006365134256275 l -7.602638996262494 -14.841980731361481" fill="#ffc612" stroke="none" /><path d="M 109.57404056367764 118.69057910512821 l 7.400514867770624 14.44739111295472 a37.23252076169247,37.23252076169247 0 0,0 -0.5729306472029244,0.2872793203526794 l -7.150730312884939 -14.572638274216702" fill="#ffc011" stroke="none" /><path d="M 109.2508944713604 118.85261126421891 l 7.299540795084316 14.875902588995258 a37.570328109496685,37.570328109496685 0 0,0 -0.5830330471409397,0.27989129348758157 l -7.042395079943144 -14.999348158982396" fill="#ffc512" stroke="none" /><path d="M 107.59598834532513 119.57807347666477 l 3.3050029347230017 8.518389886211716 a30.13706794612154,30.13706794612154 0 0,0 -0.48524953007403215,0.18347985112223822 l -3.1578831838886945 -8.574017987440586" fill="#ff6008" stroke="none" /><path d="M 106.91757812671514 119.82793768551818 l 4.597388029282414 13.177548802624855 a34.956495589414594,34.956495589414594 0 0,0 -0.5698412605096641,0.19332109458397842 l -4.369877035835523 -13.254732884106957" fill="#ffa20f" stroke="none" /><path d="M 106.57524785965236 119.94407469862006 l 3.485445292790048 10.572070096994581 a32.131801068326695,32.131801068326695 0 0,0 -0.526775869124238,0.1686569982599167 l -3.30294807857487 -10.630499941914206" fill="#ff7b0b" stroke="none" /><path d="M 106.2309692047433 120.05430185196036 l 3.3068862089762474 10.643174768768025 a32.1450736003697,32.1450736003697 0 0,0 -0.5298197343594353,0.1596303397849447 l -3.123191500176566 -10.698520477658695" fill="#ff7c0b" stroke="none" /><path d="M 105.88484417918355 120.15858648285463 l 2.4547846065695738 8.408886672540318 a29.75987114838324,29.75987114838324 0 0,0 -0.4929776958926456,0.13932042108036902 l -2.3096757425723236 -8.449895886959204" fill="#ff5a08" stroke="none" /><path d="M 105.18746579009965 120.34920634021253 l 1.7268755131790297 6.77412585710091 a27.990771070909165,27.990771070909165 0 0,0 -0.4679080115213062,0.11500040508657595 l -1.6100142169145129 -6.8028475205015155" fill="#ff4106" stroke="none" /><path d="M 104.83641907484287 120.43548508189849 l 3.806527978305234 16.08385140136211 a37.52815570929553,37.52815570929553 0 0,0 -0.6299008913320894,0.14336339208595045 l -3.5291069375802824 -16.146991527025747" fill="#ffc412" stroke="none" /><path d="M 104.48393922423573 120.51570834832081 l 2.974427206366719 13.609123143173585 a34.93037867152352,34.93037867152352 0 0,0 -0.5885079156900076,0.12332755568812641 l -2.7397278292473337 -13.658306679588254" fill="#ffa20e" stroke="none" /><path d="M 104.13013068566511 120.58985236759428 l 2.9251045850781088 14.582461464371915 a35.87294251967434,35.87294251967434 0 0,0 -0.6064788740520064,0.11623311964395262 l -2.673658096454399 -14.630651782364335" fill="#ffae10" stroke="none" /><path d="M 103.7750983002368 120.6578951692458 l 3.024201472592966 16.548876882910662 a37.82293436450872,37.82293436450872 0 0,0 -0.6414608083745204,0.11152618382652685 l -2.738891692746395 -16.598481645258193" fill="#ffc812" stroke="none" /><path d="M 103.06178313531737 120.77559828337769 l 1.0383503596333419 7.0456818774354275 a28.12178380655947,28.12178380655947 0 0,0 -0.4795050831406719,0.06645503526302889 l -0.9169166853058388 -7.062511478191059" fill="#ff4306" stroke="none" /><path d="M 102.70371172650421 120.8252237178851 l 1.7918847354356682 13.80191539146067 a34.91774835877292,34.91774835877292 0 0,0 -0.5967153492741083,0.07225391871579633 l -1.5540419631101796 -13.830714838901816" fill="#ffa10e" stroke="none" /><path d="M 102.34483914955558 120.86867818915974 l 1.3439807336547969 11.961204856370836 a33.03647397822571,33.03647397822571 0 0,0 -0.5656590078884378,0.058632869007779795 l -1.1378891291607565 -11.982567093834374" fill="#ff880c" stroke="none" /><path d="M 101.62511606390274 120.93702456842531 l 0.8725834883505302 11.241844406930175 a32.27565818982507,32.27565818982507 0 0,0 -0.5542763935057824,0.03822614528606993 l -0.6789443340658178 -11.25519889673253" fill="#ff7d0b" stroke="none" /><path d="M 101.26447882468166 120.96189622390904 l 0.6841648013975435 11.341741187763377 a32.36235779429954,32.36235779429954 0 0,0 -0.5563427284768648,0.02875656428916148 l -0.4888340045071991 -11.35183755881474" fill="#ff7f0b" stroke="none" /><path d="M 100.90346689309514 120.98055641714683 l 0.4836856689094916 11.23228149507004 a32.24269093281503,32.24269093281503 0 0,0 -0.5546965733938234,0.019104871550579793 l -0.2902687438410159 -11.238943165046715" fill="#ff7d0b" stroke="none" /><line stroke="#e1ed5e" stroke-width="0.3" x1="102.19456741930631" x2="102.32365962044197" y1="184.97166512339345" y2="189.96999836594603" /><path d="M 102.22038585953345 185.97133177190398 a86.0,86.0 0 0,1 -42.740103519485714,-10.115201625700543" fill="none" id="id19" stroke="none" /><text fill="#e1ed5e" style="font-size:6.75px; font-family:Arial;" text-anchor="middle"><textPath startOffset="22.20632615414155" xlink:href="#id19">July</textPath></text><path d="M 100.54218724476979 120.99299961872073 l 0.23444570578179313 9.077525632639313 a30.080552648390036,30.080552648390036 0 0,0 -0.5177297274968582,0.008913186776668622 l -0.07815628839226697 -9.080216296695141" fill="#ff5f08" stroke="none" /><path d="M 100.18074693466247 120.99922214144158 l 0.11991899367538081 13.932217394834895 a34.93273347559567,34.93273347559567 0 0,0 -0.6013318566756629,0.0 l 0.11991899367537119 -13.932217394834895" fill="#ffa20e" stroke="none" /><path d="M 99.45781275523022 120.99299961872073 l -0.29254588163114664 11.327111880230063 a32.33088904897177,32.33088904897177 0 0,0 -0.556213915507555,-0.01915713188095013 l 0.48748014881334467 -11.320397949923018" fill="#ff7e0b" stroke="none" /><path d="M 98.37488393609728 120.93702456842531 l -0.5172018625892942 6.663319835669046 a27.683362102945374,27.683362102945374 0 0,0 -0.4747771507330591,-0.040965770323311446 l 0.631823331063895 -6.653429813067072" fill="#ff3d05" stroke="none" /><path d="M 98.01472825383883 120.90594882070398 l -3.079096493531306 32.424494949996884 a53.5703654873391,53.5703654873391 0 0,0 -0.9172455817700879,-0.09507625494137367 l 3.6367746719069873 -32.36668932659975" fill="#7aff26" stroke="none" /><path d="M 95.86986931433489 120.58985236759428 l -2.2504140304135216 11.218941040534046 a32.44242113275251,32.44242113275251 0 0,0 -0.5465907432700726,-0.11454340465449855 l 2.443196235112982 -11.178541655153007" fill="#ff800b" stroke="none" /><path d="M 95.16358092515715 120.4354850818985 l -3.888271105805354 16.429243402494876 a37.88308890489718,37.88308890489718 0 0,0 -0.6332730439926229,-0.15564310675677437 l 4.170497434541187 -16.359879037424072" fill="#ffc912" stroke="none" /><path d="M 93.76903079525671 120.05430185196036 l -1.3021237617458592 4.190870169408486 a25.388498498090332,25.388498498090332 0 0,0 -0.4162246720515819,-0.13326199604899105 l 1.3740697788883816 -4.167835326699788" fill="#ff1b02" stroke="none" /><path d="M 92.06813273071674 119.44442032107085 l -5.445160631434179 13.348432145779098 a35.416324602775475,35.416324602775475 0 0,0 -0.562493097844184,-0.23512216051840992 l 5.6741251887758235 -13.252724942240716" fill="#ffa80f" stroke="none" /><path d="M 91.7346041902142 119.30500536409082 l -5.611943456608909 13.107490678733393 a35.258338656844224,35.258338656844224 0 0,0 -0.555871760723655,-0.24367784433602716 l 5.836735891990308 -13.008948281102914" fill="#ffa60f" stroke="none" /><path d="M 91.07499286063937 119.00905698771935 l -4.796434677598643 10.21575654794126 a32.28571962540606,32.28571962540606 0 0,0 -0.5010241443055146,-0.24052203645375853 l 4.971571489904399 -10.131680234987938" fill="#ff7e0b" stroke="none" /><path d="M 90.42595943632237 118.69057910512821 l -5.097607607560993 9.951622577983281 a32.181251953841766,32.181251953841766 0 0,0 -0.4908546556620241,-0.25679195661865395 l 5.268153165749512 -9.86240120241991" fill="#ff7c0b" stroke="none" /><line stroke="#e1ed5e" stroke-width="0.3" x1="58.666819895761336" x2="56.23545636021788" y1="174.27360380694188" y2="178.64263932499728" /><path d="M 58.180547188652646 175.14741091055294 a86.0,86.0 0 0,1 -31.652253787137756,-30.449443065178592" fill="none" id="id20" stroke="none" /><text fill="#e1ed5e" style="font-size:6.75px; font-family:Arial;" text-anchor="middle"><textPath startOffset="22.20632615414155" xlink:href="#id20">August</textPath></text><path d="M 88.8546689885994 117.79835938074946 l -5.993533431195027 9.571278040986597 a32.292998110719964,32.292998110719964 0 0,0 -0.46858400908574727,-0.2990724848835838 l 6.157399242327697 -9.466691127279212" fill="#ff7e0b" stroke="none" /><path d="M 88.54995079064634 117.60387380957326 l -6.152613668636429 9.459333548824555 a32.28422111372378,32.28422111372378 0 0,0 -0.4632406025256431,-0.30701061161600374 l 6.3145289699020335 -9.352024916117232" fill="#ff7e0b" stroke="none" /><path d="M 87.65650970185807 116.9893568818739 l -7.278327402533099 10.017758248116477 a33.38263017683117,33.38263017683117 0 0,0 -0.46197590744504374,-0.341758732043727 l 7.449688280396708 -9.890989567332982" fill="#ff8d0d" stroke="none" /><path d="M 87.36589467227662 116.77436683061367 l -7.073617022357561 9.391677817655195 a32.757536732225134,32.757536732225134 0 0,0 -0.4474855339902256,-0.3431128257016404 l 7.2342312848412735 -9.268525650126186" fill="#ff840c" stroke="none" /><path d="M 86.51685102203217 116.09983520530335 l -7.335664687824899 8.759303393319339 a32.425295284955084,32.425295284955084 0 0,0 -0.4248246745273491,-0.36204480400669636 l 7.485354838929304 -8.631734199089689" fill="#ff800b" stroke="none" /><path d="M 85.97065885151581 115.62618273729859 l -9.29150909718106 10.349083219315016 a34.90811506938687,34.90811506938687 0 0,0 -0.44366626853724933,-0.40527861708307944 l 9.468274915185162 -10.187611835645361" fill="#ffa10e" stroke="none" /><path d="M 85.70375840098266 115.38237550388516 l -11.135923637721506 11.981957481034542 a37.35775352371114,37.35775352371114 0 0,0 -0.4672639599209097,-0.4418272392510715 l 11.340523432033232 -11.78849560503754" fill="#ffc212" stroke="none" /><path d="M 85.18274418774928 114.88116024355367 l -7.930543805129724 7.964746959763177 a32.23969390945048,32.23969390945048 0 0,0 -0.38988440541166547,-0.3949508442552288 l 8.066468835596924 -7.827055621527284" fill="#ff7d0b" stroke="none" /><path d="M 84.9287848128048 114.62390073753433 l -8.244685806671358 7.9999831036423865 a32.488018702513145,32.488018702513145 0 0,0 -0.38597846785499673,-0.40469688042438456 l 8.381170825905311 -7.856879106635502" fill="#ff800b" stroke="none" /><path d="M 84.67929136418377 114.36230785411684 l -8.233425827371729 7.718376430076226 a32.28550555230859,32.28550555230859 0 0,0 -0.37659288355770243,-0.4087171971040739 l 8.365065118925163 -7.575507978170811" fill="#ff7e0b" stroke="none" /><path d="M 83.50135304334701 112.99209946851258 l -8.865614869171258 6.981357352055483 a32.284435186821256,32.284435186821256 0 0,0 -0.34005223682333224,-0.4395633555969819 l 8.98447392321266 -6.827716002345248" fill="#ff7e0b" stroke="none" /><path d="M 83.28015986056508 112.70617746262583 l -3.0050511209789312 2.2836769077333687 a24.774322781455155,24.774322781455155 0 0,0 -0.25510324651185523,-0.34175248707936645 l 3.0439156341858715 -2.2316115411446944" fill="#ff1202" stroke="none" /><path d="M 83.06392112726016 112.41649034213515 l -9.018836640816499 6.612055770963511 a32.182964538621505,32.182964538621505 0 0,0 -0.32369964056267125,-0.4495904891709174 l 9.131316073754778 -6.455831676341456" fill="#ff7c0b" stroke="none" /><path d="M 82.85270091963577 112.12312394758628 l -9.13026728077554 6.455090180714472 a32.1816801000367,32.1816801000367 0 0,0 -0.3159001115152369,-0.45507767158134443 l 9.240028299452911 -6.296971246946115" fill="#ff7c0b" stroke="none" /><path d="M 82.44556493220864 111.52570212397912 l -7.274999013693782 4.776540587052115 a29.702927704456798,29.702927704456798 0 0,0 -0.2769375613331359,-0.42981324516567715 l 7.356141438403964 -4.6506057419649895" fill="#ff5a08" stroke="none" /><path d="M 82.24976979558568 111.22182372390057 l -12.838777478735546 8.116767841181284 a36.18934255773178,36.18934255773178 0 0,0 -0.3283499725912954,-0.5294047047244941 l 12.976592090994798 -7.894566805091525" fill="#ffb210" stroke="none" /><path d="M 82.05923443525364 110.91462005526583 l -12.866493880340304 7.827586378101291 a36.06047055305615,36.06047055305615 0 0,0 -0.31805184655936936,-0.5330731891415381 l 12.999326602597906 -7.604951095073641" fill="#ffb110" stroke="none" /><line stroke="#e1ed5e" stroke-width="0.3" x1="26.63291911575756" x2="22.317208475507996" y1="142.92168965132927" y2="145.44649492493687" /><path d="M 25.769776987707644 143.4266507060508 a86.0,86.0 0 0,1 -11.730757126820373,-40.83630448921669" fill="none" id="id21" stroke="none" /><text fill="#e1ed5e" style="font-size:6.75px; font-family:Arial;" text-anchor="middle"><textPath startOffset="21.46611528233685" xlink:href="#id21">September</textPath></text><path d="M 81.87401531095188 110.60418214915194 l -9.485450749720881 5.549240454650975 a31.989442458510595,31.989442458510595 0 0,0 -0.27396368430292956,-0.477678776049835 l 9.579566430176188 -5.385141832742831" fill="#ff7a0b" stroke="none" /><path d="M 81.69416730710424 110.29060199501025 l -9.716537342024813 5.462139867324172 a32.14657211205197,32.14657211205197 0 0,0 -0.267005739600469,-0.48469297443457465 l 9.809119491076798 -5.294076374491776" fill="#ff7c0b" stroke="none" /><path d="M 81.51974371655577 109.97397251340807 l -7.513436260781197 4.0550739988065 a29.53787734630911,29.53787734630911 0 0,0 -0.23763572809618486,-0.44951724219562156 l 7.582124497102268 -3.925141741524752" fill="#ff5708" stroke="none" /><path d="M 81.35079622478065 109.6543875284942 l -13.422658779878786 6.948690736914352 a36.11463104671551,36.11463104671551 0 0,0 -0.28104290694440187,-0.5545243179488033 l 13.540280356609454 -6.716612207262863" fill="#ffb110" stroke="none" /><path d="M 81.18737489456691 109.33194174019688 l -13.602990811628377 6.747719525324967 a36.18463294958748,36.18463294958748 0 0,0 -0.27198221293733904,-0.5603639171213477 l 13.717126281180434 -6.512566652238334" fill="#ffb210" stroke="none" /><path d="M 81.02952815118164 109.00673069616217 l -11.463233724828468 5.44247185254514 a33.68961099860003,33.68961099860003 0 0,0 -0.2442101877513847,-0.526007018458262 l 11.55521852941968 -5.244344766808052" fill="#ff910d" stroke="none" /><path d="M 80.87730276802145 108.67885076344099 l -13.493856589292458 6.124197132918113 a35.81856795291751,35.81856795291751 0 0,0 -0.2499776412218388,-0.563633588785286 l 13.597275315245573 -5.89101520764013" fill="#ffae10" stroke="none" /><path d="M 80.73074385275274 108.34839909993369 l -7.972306722495114 3.453999353056576 a29.688370733828986,29.688370733828986 0 0,0 -0.199122756564704,-0.4706673766075671 l 8.030580460252127 -3.316257450782849" fill="#ff5908" stroke="none" /><path d="M 80.58989483394504 108.01547362559985 l -6.514532870283865 2.6902000766169243 a28.04814266103054,28.04814266103054 0 0,0 -0.1804395594495743,-0.44783618881327236 l 6.559875043990828 -2.577664519960847" fill="#ff4206" stroke="none" /><path d="M 80.45479744820244 107.68017299344265 l -13.478785892539776 5.296410058782387 a35.48204504369809,35.48204504369809 0 0,0 -0.21847768551766392,-0.5703762955865158 l 13.567957857650947 -5.063610196362713" fill="#ffa90f" stroke="none" /><path d="M 80.32549172779594 107.34259656027581 l -13.961458719686586 5.210466119574296 a35.902056460929956,35.902056460929956 0 0,0 -0.21109680728311828,-0.5808477511719866 l 14.04907978797493 -4.969370571396192" fill="#ffaf10" stroke="none" /><path d="M 80.20201598880116 107.00284435728193 l -13.898320398765929 4.916044710670558 a35.7421438571215,35.7421438571215 0 0,0 -0.2001716113973167,-0.5817924009749227 l 13.980882841106475 -4.67607960660634" fill="#ffac10" stroke="none" /><path d="M 80.0844068197444 106.66101706037122 l -14.310991248855535 4.786488456389857 a36.090226713604174,36.090226713604174 0 0,0 -0.1919789517376166,-0.5908504592470256 l 14.391262451609402 -4.539439097165026" fill="#ffb110" stroke="none" /><path d="M 79.97269907076064 106.31721596034903 l -14.228753125433277 4.4881787444768335 a35.91982452801979,35.91982452801979 0 0,0 -0.1809217033972436,-0.5912625947618958 l 14.303901601336651 -4.24258917716289" fill="#ffaf10" stroke="none" /><path d="M 79.86692584326677 105.97154293290107 l -8.268740822386864 2.452538566019309 a29.624791023881045,29.624791023881045 0 0,0 -0.14079867975684668,-0.49013867528504834 l 8.309732139029816 -2.3098424152296646" fill="#ff5808" stroke="none" /><path d="M 79.76711848015287 105.62410040840567 l -10.674011706894463 2.9670372725301104 a32.07871094015468,32.07871094015468 0 0,0 -0.14330312294153028,-0.5332842305356681 l 10.723502906177766 -2.7828621088189034" fill="#ff7b0b" stroke="none" /><path d="M 79.67330655649465 105.27499134158121 l -8.407937421239279 2.1819484423702393 a29.686444075951776,29.686444075951776 0 0,0 -0.12410161469909442,-0.4957242611772622 l 8.444250350233434 -2.036896341795585" fill="#ff5908" stroke="none" /><path d="M 79.58551787078972 104.9243191809786 l -14.912133655683686 3.597059446584178 a36.33983594525165,36.33983594525165 0 0,0 -0.14144750592101613,-0.6093521534825718 l 14.971841727535256 -3.339838635753032" fill="#ffb410" stroke="none" /><path d="M 79.50377843672027 104.57218783832718 l -14.303241401982799 3.1906908395236386 a35.65480203335463,35.65480203335463 0 0,0 -0.12846927952112105,-0.6001657042973002 l 14.356044720228361 -2.944011315810174" fill="#ffab0f" stroke="none" /><path d="M 79.4281124754447 104.21870165774334 l -14.630763428081453 3.000348210849561 a35.93523779103747,35.93523779103747 0 0,0 -0.1190484238884686,-0.6070253486152111 l 14.680241784945588 -2.748059135166396" fill="#ffaf10" stroke="none" /><path d="M 79.35854240842038 103.8639653848113 l -11.108183583485927 2.0793898233343735 a32.301132888423744,32.301132888423744 0 0,0 -0.09760103801167257,-0.5473984535745104 l 11.142331063836789 -1.8878726190266493" fill="#ff7e0b" stroke="none" /><path d="M 79.29508885075956 103.50808413554451 l -6.139669040479406 1.0402592603827585 a27.227172332241448,27.227172332241448 0 0,0 -0.07431494056128016,-0.4627592058142486 l 6.156665735401977 -0.9344208248752955" fill="#ff3605" stroke="none" /><path d="M 79.18660465613746 102.79330883721812 l -6.873699274412298 0.9225003710534659 a27.935326138664998,27.935326138664998 0 0,0 -0.05985940547319042,-0.477138357815715 l 6.888560189132337 -0.8040442589503423" fill="#ff4006" stroke="none" /><path d="M 79.1416061653843 102.43462659150553 l -14.466678074759914 1.6885748447758882 a35.56489133241814,35.56489133241814 0 0,0 -0.06574034423284097,-0.6086739407923387 l 14.493600720493808 -1.4393045820987673" fill="#ffaa0f" stroke="none" /><path d="M 79.10278846688536 102.07522291339032 l -8.47095011024055 0.841217965330004 a29.512616720807905,29.512616720807905 0 0,0 -0.04585052549696642,-0.5059567281963637 l 8.484175232014591 -0.6952798485850744" fill="#ff5708" stroke="none" /><path d="M 79.0235259727143 100.99374915477108 l -9.50360606134743 0.45022821654661854 a30.51426474385984,30.51426474385984 0 0,0 -0.020339744001325495,-0.5248784150533707 l 9.509947938199955 -0.2865725544792509" fill="#ff6509" stroke="none" /><path d="M 79.0095281055655 100.63252640178507 l -8.651476353102792 0.260703391294777 a29.65540347681894,29.65540347681894 0 0,0 -0.010983708061595699,-0.510369753970247 l 8.654682123849396 -0.11174382153440114" fill="#ff5908" stroke="none" /><line stroke="#e1ed5e" stroke-width="0.3" x1="15.007084014347285" x2="10.007500721073583" y1="101.09737516637583" y2="101.16192664675087" /><path d="M 14.007167355692545 101.11028546245083 a86.0,86.0 0 0,1 10.666146001902526,-42.60595125391555" fill="none" id="id22" stroke="none" /><text fill="#e1ed5e" style="font-size:6.75px; font-family:Arial;" text-anchor="middle"><textPath startOffset="22.20632615414155" xlink:href="#id22">October</textPath></text><path d="M 79.00175016825051 100.2711162175752 l -6.196043449667211 0.07999942268833539 a27.19655987930355,27.19655987930355 0 0,0 -0.0020147505676393397,-0.4681570772302108 l 6.196502497524354 0.026667132745550815" fill="#ff3605" stroke="none" /><path d="M 79.00019446554 99.90962569577889 l -8.1860794412123 -0.035229432605191145 a29.186155247169477,29.186155247169477 0 0,0 0.006486265657132803,-0.5023684232604699 l 8.18426016843745 0.1761341139261331" fill="#ff5207" stroke="none" /><path d="M 79.00486145842228 99.54816195383935 l -8.356763141652948 -0.1798465641307477 a29.35869816372854,29.35869816372854 0 0,0 0.015222213142436599,-0.5051511466330534 l 8.352429234054865 0.3236678581887955" fill="#ff5507" stroke="none" /><path d="M 79.01574976396665 99.18683210126434 l -8.640141607148239 -0.3348170993214066 a29.64662647982276,29.64662647982276 0 0,0 0.024149847958046495,-0.5097651213314381 l 8.633098150956693 0.4834933272758536" fill="#ff5908" stroke="none" /><path d="M 79.03285615573316 98.82574320788736 l -8.375116187940064 -0.46904514708665423 a29.388240251179102,29.388240251179102 0 0,0 0.03263411400370536,-0.5048352994365547 l 8.365801482931946 0.6131395107762209" fill="#ff5507" stroke="none" /><path d="M 79.08570108090925 98.10471618934814 l -8.625837127419295 -0.7816857511773686 a29.661183450450572,29.661183450450572 0 0,0 0.050456320405562124,-0.5080882607329457 l 8.611103681331505 0.9300495426147448" fill="#ff5908" stroke="none" /><path d="M 79.12142395522702 97.74499172005258 l -8.936316030254476 -0.9651743776604783 a29.988287143381402,29.988287143381402 0 0,0 0.05984754896219655,-0.5127372512258637 l 8.91837812828869 1.1188553672112036" fill="#ff5e08" stroke="none" /><path d="M 79.16333360222342 97.38593545837743 l -8.633751298748432 -1.0831475006795865 a29.701429192774523,29.701429192774523 0 0,0 0.06800778806138338,-0.5067370140112554 l 8.613827511629216 1.231602856755502" fill="#ff5908" stroke="none" /><path d="M 80.38941819471856 92.48833698450439 l -13.712587311426828 -5.252487456861617 a35.68413004770772,35.68413004770772 0 0,0 0.22465105519845324,-0.5717124316181073 l 13.620142706346684 5.487748893375488" fill="#ffac0f" stroke="none" /><path d="M 80.52162464483688 92.15188598940014 l -13.669783136655266 -5.507749727607985 a35.737648322074676,35.737648322074676 0 0,0 0.23481049667304835,-0.5686122426953191 l 13.572950953096015 5.742236540756616" fill="#ffac10" stroke="none" /><path d="M 80.65960295795067 91.81776055985345 l -10.4249742540651 -4.410438695682811 a32.31954317480597,32.31954317480597 0 0,0 0.22117231466001305,-0.5104961960787389 l 10.347511229562407 4.589234036348148" fill="#ff7e0b" stroke="none" /><path d="M 80.803312248108 91.48605970444005 l -13.537848721771802 -6.004183494422243 a35.80957688282386,35.80957688282386 0 0,0 0.2547556103246005,-0.5613202182144444 l 13.43249079448385 6.23632572147876" fill="#ffad10" stroke="none" /><path d="M 80.95270993114464 91.15688171328213 l -7.23040029206403 -3.3568704425618106 a28.97165400350672,28.97165400350672 0 0,0 0.21389607448073963,-0.4505196831563568 l 7.171546023741539 3.4808325413586987" fill="#ff4f07" stroke="none" /><path d="M 81.10775173730289 90.83032412892265 l -10.382160013799952 -5.039158963212473 a32.540466611392766,32.540466611392766 0 0,0 0.24891905404495418,-0.501805623708057 l 10.293880946801586 5.217124175419493" fill="#ff810b" stroke="none" /><path d="M 81.26839172434947 90.50648371742162 l -13.350213997581719 -6.766128785999626 a35.96692060946271,35.96692060946271 0 0,0 0.2846363296938945,-0.5498267910444976 l 13.23176823472771 6.99492829930446" fill="#ffaf10" stroke="none" /><path d="M 81.43458229118936 90.18545643968196 l -13.425376171567107 -7.0972784623622935 a36.18591738817229,36.18591738817229 0 0,0 0.29584899704278894,-0.5481632598446546 l 13.301219075305845 7.327322705539421" fill="#ffb210" stroke="none" /><path d="M 81.6062741919709 89.86733742301443 l -13.309656793572342 -7.331970842246817 a36.195550677558344,36.195550677558344 0 0,0 0.3053221534162919,-0.5431340421661797 l 13.181476998863621 7.559988394347783" fill="#ffb310" stroke="none" /><line stroke="#e1ed5e" stroke-width="0.3" x1="26.266209847984243" x2="21.928928074336255" y1="57.71137044288968" y2="55.22380399835378" /><path d="M 25.398753493254645 57.2138571539825 a86.0,86.0 0 0,1 29.58750427330803,-30.4925239686951" fill="none" id="id23" stroke="none" /><text fill="#e1ed5e" style="font-size:6.75px; font-family:Arial;" text-anchor="middle"><textPath startOffset="21.46611528233685" xlink:href="#id23">November</textPath></text><path d="M 81.78341655067845 89.55222093294921 l -9.965911923953819 -5.715761480346878 a32.488660921805554,32.488660921805554 0 0,0 0.2824043209852199,-0.4827205272693789 l 9.866047928498274 5.886461419970147" fill="#ff800b" stroke="none" /><path d="M 81.96595687620814 89.24020034530311 l -13.05361952803303 -7.788288512240304 a36.20047435880011,36.20047435880011 0 0,0 0.32388082031254434,-0.5323749098661162 l 12.91762290943427 8.011831195313494" fill="#ffb310" stroke="none" /><path d="M 82.34701348167596 88.62581576622439 l -4.909139278878255 -3.1630599462173463 a26.839914098922158,26.839914098922158 0 0,0 0.2535775839966929,-0.3862160573850165 l 4.8539650595236425 3.247094067580032" fill="#ff3004" stroke="none" /><path d="M 82.54541684631803 88.32363383020207 l -12.375831589080182 -8.278899588579966 a35.88964022127682,35.88964022127682 0 0,0 0.34791679452395696,-0.5105249652863566 l 12.231490328887483 8.490702577136737" fill="#ffae10" stroke="none" /><path d="M 82.7489923806493 88.02491185347247 l -8.207025076327028 -5.697049753750963 a30.99057738572574,30.99057738572574 0 0,0 0.307968685971061,-0.4355998658896796 l 8.107743770552089 5.837476119972428" fill="#ff6c09" stroke="none" /><path d="M 82.95767976084542 87.72973835380427 l -11.983978080448559 -8.628317303388078 a35.76697633642777,35.76697633642777 0 0,0 0.3640352419254651,-0.4965436608753014 l 11.833680226009461 8.833323407934882" fill="#ffad10" stroke="none" /><path d="M 83.17141714833178 87.43820079747577 l -5.0132012763612375 -3.742134934983272 a27.255858127302137,27.255858127302137 0 0,0 0.28388152106091624,-0.3735548054983051 l 4.948043815076212 3.827874516362604" fill="#ff3605" stroke="none" /><path d="M 83.39014120810768 87.1503855733568 l -6.265354867373817 -4.846964402318907 a28.921346825601784,28.921346825601784 0 0,0 0.3080067238701118,-0.3911372607425168 l 6.180994062909734 4.954094057014469" fill="#ff4e07" stroke="none" /><path d="M 83.6137871275137 86.86637796730984 l -9.129924397926038 -7.317674752702205 a32.70059328829869,32.70059328829869 0 0,0 0.35581594649394516,-0.4361882782504839 l 9.0026099593557 7.473747200560771" fill="#ff830c" stroke="none" /><path d="M 83.84228863543731 86.58626213691792 l -8.758837656817208 -7.271373380979933 a32.38376510404632,32.38376510404632 0 0,0 0.3597518425761924,-0.425832710037873 l 8.632375200753891 7.421065040646922" fill="#ff7f0b" stroke="none" /><path d="M 84.07557802195018 86.31012108654704 l -11.85484506761674 -10.191352234769987 a36.63333016188004,36.63333016188004 0 0,0 0.41519193536984017,-0.47463615531090847 l 11.677661268669057 10.393903946283839" fill="#ffb811" stroke="none" /><path d="M 84.31358615837235 86.03803664274999 l -11.659112099758971 -10.37739393837223 a36.60849768257377,36.60849768257377 0 0,0 0.42301356048425265,-0.46710213887116947 l 11.478754898658673 10.576548864512954" fill="#ffb811" stroke="none" /><path d="M 84.5562425177563 85.77008943001954 l -11.391537016638472 -10.496186124896154 a36.489901186576596,36.489901186576596 0 0,0 0.4295950472090802,-0.45826204371419477 l 11.209174647458934 10.6907175854884" fill="#ffb610" stroke="none" /><path d="M 84.80347519578584 85.50635884689758 l -8.184968513131103 -7.806389816562996 a32.310766177809796,32.310766177809796 0 0,0 0.387322595908924,-0.39916998170152457 l 8.049381653519063 7.946123993814642" fill="#ff7e0b" stroke="none" /><path d="M 85.05521093208273 85.24692304244772 l -11.193661840266357 -11.050069279383958 a36.72902083644816,36.72902083644816 0 0,0 0.4480314396765154,-0.4461074502906177 l 11.001794600422528 11.241112580324689" fill="#ffba11" stroke="none" /><path d="M 85.31137513191541 84.99185889309783 l -7.955581475536569 -8.128636304936796 a32.373917741562806,32.373917741562806 0 0,0 0.4016165734090489,-0.3863548254191104 l 7.814481658515093 8.264374217118219" fill="#ff7f0b" stroke="none" /><path d="M 85.57189188830299 84.74124197986013 l -5.968045439716301 -6.311635629067886 a29.686444075951776,29.686444075951776 0 0,0 0.37432077854652035,-0.34789036870682144 l 5.858516777374924 6.413430583849352" fill="#ff5908" stroke="none" /><path d="M 85.83668400450813 84.49514656593477 l -10.37877316069686 -11.361841869039374 a36.38864461147432,36.38864461147432 0 0,0 0.46610217032198353,-0.4184711306292098 l 10.181660002778905 11.538812008437866" fill="#ffb510" stroke="none" /><path d="M 86.10567301691215 84.25364557470407 l -9.874730083796894 -11.190970238634918 a35.92474820926155,35.92474820926155 0 0,0 0.46720340561916895,-0.4051541894541363 l 9.68063287953095 11.359289421508732" fill="#ffaf10" stroke="none" /><path d="M 86.37877921826538 84.01681056812373 l -9.73811849317629 -11.426743247213778 a36.013374471613226,36.013374471613226 0 0,0 0.4752778715941327,-0.3980315492002216 l 9.539983084623046 11.592675953807813" fill="#ffb010" stroke="none" /><path d="M 86.65592168130627 83.78471172551755 l -5.321588978690729 -6.466621171347109 a29.374753646038627,29.374753646038627 0 0,0 0.39319730561459554,-0.3179382094339358 l 5.209488274511632 6.557265478045181" fill="#ff5507" stroke="none" /><path d="M 86.93701828274178 83.55741782278169 l -9.419851002036715 -11.856915790788529 a36.14331684177619,36.14331684177619 0 0,0 0.49046041183163136,-0.3828121309887294 l 9.214358035045658 12.01730631100048" fill="#ffb210" stroke="none" /><path d="M 87.22198572758235 83.33499621200491 l -7.224007722269148 -9.4215042720674 a32.87227991246789,32.87227991246789 0 0,0 0.45199986949790094,-0.34043693076579584 l 7.060761699012857 9.544457792339049" fill="#ff860c" stroke="none" /><path d="M 87.51073957382395 83.11751280151077 l -7.002324121345629 -9.465464191179933 a32.77402036073016,32.77402036073016 0 0,0 0.45642455982914554,-0.3316118535420025 l 6.8383542451627015 9.584595279538602" fill="#ff840c" stroke="none" /><path d="M 87.80319425747018 82.90503203632743 l -8.70423028438373 -12.199795667902887 a35.98661533442975,35.98661533442975 0 0,0 0.5073579139193235,-0.3554366418087744 l 8.492941230880746 12.347817152475605" fill="#ffb010" stroke="none" /><path d="M 88.09926311788651 82.69761687909137 l -5.538299785338149 -8.052088343234479 a30.772865045600966,30.772865045600966 0 0,0 0.43901932892015294,-0.29642781062694573 l 5.398875762011459 8.14622806616009" fill="#ff6909" stroke="none" /><path d="M 88.39885842347998 82.49532879139004 l -7.103142795358238 -10.717753796937124 a33.85787245320974,33.85787245320974 0 0,0 0.4885738947672534,-0.3177820517236611 l 6.917601874806695 10.83843477282032" fill="#ff930d" stroke="none" /><path d="M 88.70189139769569 82.29822771554957 l -7.991354472559436 -12.52078043299387 a35.853675940902235,35.853675940902235 0 0,0 0.5230895059687891,-0.3275586006493337 l 7.774645814218404 12.656483374966134" fill="#ffae10" stroke="none" /><path d="M 89.00827224532344 82.1063720568725 l -7.83537648079821 -12.755347900796009 a35.969703559729794,35.969703559729794 0 0,0 0.5303611756665946,-0.319536674087427 l 7.614653238913968 12.888331184342055" fill="#ffb010" stroke="none" /><line stroke="#e1ed5e" stroke-width="0.3" x1="56.76296977257108" x2="54.21961505331056" y1="26.818313649435495" y2="22.513508569990535" /><path d="M 56.25429882871898 25.957352633546506 a86.0,86.0 0 0,1 42.26535254187918,-11.944610805530505" fill="none" id="id24" stroke="none" /><text fill="#e1ed5e" style="font-size:6.75px; font-family:Arial;" text-anchor="middle"><textPath startOffset="22.20632615414155" xlink:href="#id24">December</textPath></text><path d="M 89.3179101791058 81.91981866633112 l -5.884238317572277 -9.959483357285947 a32.56786796786865,32.56786796786865 0 0,0 0.485111215094632,-0.28100772754512626 l 5.711930370012323 10.05929524222112" fill="#ff820b" stroke="none" /><path d="M 89.63071344664047 81.73862282372117 l -6.5780694497517755 -11.584654999697658 a34.32198292851997,34.32198292851997 0 0,0 0.5162613153523784,-0.28729886304933405 l 6.377684045327352 11.696169260307176" fill="#ff990e" stroke="none" /><path d="M 89.94658935756843 81.56283822128135 l -5.6049544137648155 -10.279044094028054 a32.7078717736126,32.7078717736126 0 0,0 0.49662223488254476,-0.26527839875710385 l 5.427187132353966 10.374001219286907" fill="#ff830c" stroke="none" /><path d="M 90.26544431104013 81.39251694778311 l -7.252589982908011 -13.863236238372 a36.645746401533174,36.645746401533174 0 0,0 0.5614468847226217,-0.2875949010702396 l 7.012882610596625 13.986023664754745" fill="#ffb811" stroke="none" /><path d="M 90.58718382345135 81.22770947309562 l -7.038214425297079 -14.036543740384756 a36.702261699264675,36.702261699264675 0 0,0 0.567187547005437,-0.2783164660470942 l 6.795555611281217 14.15561536656668" fill="#ffb911" stroke="none" /><path d="M 90.91171255644093 81.06846463323043 l -6.8079701232363865 -14.181475659124553 a36.73094749432536,36.73094749432536 0 0,0 0.5723412542739671,-0.2687218931399832 l 6.562850657662811 14.296562534904544" fill="#ffba11" stroke="none" /><path d="M 91.56875222667455 80.76684994638697 l -8.199589863850811 -18.704697865536165 a41.42300164462507,41.42300164462507 0 0,0 0.655501726075604,-0.28065162986645426 l 7.8764043799848995 18.843069023365405" fill="#fff617" stroke="none" /><path d="M 91.90106846888425 80.62456947434976 l -3.515824411664921 -8.411061553845995 a30.116302855667158,30.116302855667158 0 0,0 0.48001963591206276,-0.1958120620638002 l 3.370520906164478 8.47033450209337" fill="#ff5f08" stroke="none" /><path d="M 92.23578459929587 80.48803036053334 l -3.2590012641124484 -8.190078512579472 a29.814673861335002,29.814673861335002 0 0,0 0.4784784295863793,-0.18564219707110552 l 3.1175396695263915 8.244963413541129" fill="#ff5b08" stroke="none" /><path d="M 92.57280143429618 80.3572730644239 l -4.2021218476390185 -11.113360074192398 a32.88127098256154,32.88127098256154 0 0,0 0.5311384889688792,-0.19562278794933496 l 4.010201032897571 11.184046129948054" fill="#ff860c" stroke="none" /><path d="M 92.91201910852362 80.23233633223022 l -5.074149614173887 -14.15129139153767 a36.033497342775206,36.033497342775206 0 0,0 0.5856610047441393,-0.20432562479995794 l 4.829806605366461 14.236537869509839" fill="#ffb010" stroke="none" /><path d="M 93.25333710446033 80.11325718540243 l -3.0256270040994315 -8.918463396652895 a30.417717776901853,30.417717776901853 0 0,0 0.49728214385680186,-0.16394610436672796 l 2.87166203800022 8.969223225278855" fill="#ff6409" stroke="none" /><path d="M 93.59665428221793 80.00007090966166 l -4.608706533561419 -14.394631795912714 a36.114416973618034,36.114416973618034 0 0,0 0.5936773807293754,-0.18445845206602035 l 4.360243780121315 14.471830382861262" fill="#ffb110" stroke="none" /><path d="M 93.94186890950719 79.89281104454417 l -3.367078513678749 -11.175473572805535 a32.67169342014054,32.67169342014054 0 0,0 0.5398760581109571,-0.15760462573886613 l 3.1742122378443707 11.2317765274631" fill="#ff830c" stroke="none" /><path d="M 94.28887869178378 79.79150937346287 l -2.3417980458356618 -8.286324401905206 a29.610876272545635,29.610876272545635 0 0,0 0.49168452657961376,-0.1343959546048038 l 2.198815630032327 8.325406897336308" fill="#ff5808" stroke="none" /><path d="M 94.63758080256005 79.69619591428918 l -3.7779570858888754 -14.30453265435329 a35.79501991219605,35.79501991219605 0 0,0 0.5970798716469364,-0.15220895382071375 l 3.531168325556938 14.367444604342866" fill="#ffad10" stroke="none" /><path d="M 94.98787191387505 79.60689891045804 l -3.5807800347263417 -14.569302294914939 a36.002884889837304,36.002884889837304 0 0,0 0.6030934335837753,-0.14273273056193445 l 3.329462914180033 14.628780937617744" fill="#ffb010" stroke="none" /><path d="M 95.33964822691252 79.52364482259891 l -3.326707483490387 -14.616674302707969 a35.99046865018417,35.99046865018417 0 0,0 0.6052521840446261,-0.1322846846189541 l 3.07461257529224 14.67177248542279" fill="#ffb010" stroke="none" /><path d="M 95.692805502759 79.44645832069477 l -3.086511468657527 -14.728552925887618 a36.04848245959795,36.04848245959795 0 0,0 0.6084187176864883,-0.12204307106178462 l 2.832526341503902 14.779499953026614" fill="#ffb110" stroke="none" /><path d="M 96.04723909329186 79.375362276772 l -2.8181815796742753 -14.704652138310589 a35.9722724368994,35.9722724368994 0 0,0 0.6091388373132067,-0.11131622900152797 l 2.5646476212581755 14.750983848662854" fill="#ffb010" stroke="none" /><path d="M 96.40284397218896 79.31037775812273 l -0.5716369998254747 -3.287862270757867 a24.337185516425862,24.337185516425862 0 0,0 0.4133506323089917,-0.06820639605586885 l 0.5149571613775973 3.297214929753363" fill="#ff0c01" stroke="none" /><path d="M 96.75951476605007 79.25152402106235 l -1.8048110506784543 -11.556009680031101 a32.69609775325188,32.69609775325188 0 0,0 0.5568161321666674,-0.08206022371469163 l 1.6056259380831375 11.585364387906763" fill="#ff830c" stroke="none" /><path d="M 97.11714578562143 79.19881850522333 l -1.5751215138256818 -11.365260276429941 a32.47388987808027,32.47388987808027 0 0,0 0.5543529156833121,-0.07197091849090592 l 1.3792538696345125 11.390689518084985" fill="#ff800b" stroke="none" /><path d="M 97.47563105711357 79.15227682838746 l -1.3542410937606977 -11.184119306293903 a32.265810827341554,32.265810827341554 0 0,0 0.5519501708303686,-0.062018032835413406 l 1.1615242194206112 11.205773292599915" fill="#ff7d0b" stroke="none" /><path d="M 97.83486435360386 79.11191278185805 l -1.469948561802392 -14.18128874106248 a35.25726829135688,35.25726829135688 0 0,0 0.6042002354998803,-0.05737609265425296 l 1.2256231992122748 14.204490378231911" fill="#ffa60f" stroke="none" /><path d="M 98.19473922651362 79.07773832637324 l -1.098865052122573 -12.735413355330087 a33.78273279599853,33.78273279599853 0 0,0 0.5797918252299382,-0.04500300440596659 l 0.8794830375303008 12.752441621924516" fill="#ff920d" stroke="none" /><path d="M 98.55514903715128 79.0497635885617 l -1.0736226730757008 -15.567452558061097 a36.60443029372188,36.60443029372188 0 0,0 0.6289651252656879,-0.03794089398527598 l 0.80549549897039 15.583626721426679" fill="#ffb811" stroke="none" /><path d="M 98.91598698831166 79.02799685794201 l -0.5927203925448777 -11.467144582935044 a32.48245280197899,32.48245280197899 0 0,0 0.5586350293293235,-0.024055999482923283 l 0.39524453082623 11.475648308942159" fill="#ff800b" stroke="none" /><path d="M 99.27714615592234 79.0124445844662 l -0.3935423516506296 -11.426226727985272 a32.43300191646392,32.43300191646392 0 0,0 0.5581153825373096,-0.014414473730171708 l 0.19680033391844087 11.431307993857803" fill="#ff800b" stroke="none" /><path d="M 99.63851952072746 79.00311137660856 l -0.25459087891896337 -14.788118959979693 a35.79031030405176,35.79031030405176 0 0,0 0.6160713581914955,-0.005302720680623338 l 3.62258123445062e-15 14.790310304051758" fill="#ffad10" stroke="none" /></svg>