<?xml version="1.0" encoding="utf-8" ?>
<svg baseProfile="full" height="200mm" version="1.1" viewBox="0,0,200,200" width="200mm" xmlns="http://www.w3.org/2000/svg" xmlns:ev="http://www.w3.org/2001/xml-events" xmlns:xlink="http://www.w3.org/1999/xlink"><defs /><rect fill="#1a1a1a" height="200" width="200" x="0" y="0" /><text alignment-baseline="middle" fill="#e1ed5e" style="dominant-baseline: central; font-size:9.0px; font-family:Arial;" text-anchor="middle" x="100.0" y="100.0">2021</text><line stroke="#e1ed5e" stroke-width="0.3" x1="100.0" x2="100.0" y1="15.0" y2="10.0" /><path d="M 100.0 14.0 a86.0,86.0 0 0,1 42.46469731375804,11.215312516191453" fill="none" id="id49" stroke="none" /><text fill="#e1ed5e" style="font-size:6.75px; font-family:Arial;" text-anchor="middle"><textPath startOffset="22.20632615414155" xlink:href="#id49">January</textPath></text><path d="M 100.0 79.0 l 0.0 -7.106044497504563 a28.106044497504563,28.106044497504563 0 0,0 0.48379935406728375,0.004164213781364305 l -0.12231887479475535 7.104991660331757" fill="#ff5007" stroke="none" /><path d="M 100.36148047927253 79.00311137660856 l 0.12684445100099337 -7.367863447351299 a28.368955237587286,28.368955237587286 0 0,0 0.4881802290577665,0.012608255044595106 l -0.25365131525362766 7.364588400164344" fill="#ff5307" stroke="none" /><path d="M 100.72285384407766 79.0124445844662 l 0.24508405834640343 -7.11584409234523 a28.120063436671057,28.120063436671057 0 0,0 0.4836104144736815,0.02082528174876666 l -0.3675353052094165 7.110571084072269" fill="#ff5007" stroke="none" /><path d="M 101.08401301168833 79.027996857942 l 0.35856430563543906 -6.937012437428507 a27.946273095575325,27.946273095575325 0 0,0 0.48019409173219413,0.028966618966468745 l -0.4779204462072451 6.929812549081734" fill="#ff4d07" stroke="none" /><path d="M 101.44485096284872 79.0497635885617 l 0.4551696202505574 -6.599927187474371 a27.61560414952122,27.61560414952122 0 0,0 0.473949269627309,0.036787585028095586 l -0.5687090792402075 6.591114340257811" fill="#ff4906" stroke="none" /><path d="M 101.80526077348638 79.07773832637324 l 0.28750128175044415 -3.3320266726170478 a24.344407082584233,24.344407082584233 0 0,0 0.4171876383289695,0.03961699314991215 l -0.34481404716965786 3.326584134951957" fill="#ff1a02" stroke="none" /><path d="M 102.16513564639614 79.11191278185805 l 0.6955701974177239 -6.710494547621237 a27.746447581741823,27.746447581741823 0 0,0 0.47464037288970123,0.053331376248331536 l -0.8109772738171503 6.697527217902305" fill="#ff4b06" stroke="none" /><path d="M 102.52436894288641 79.15227682838746 l 0.8200451970252781 -6.772415460097334 a27.82188282582819,27.82188282582819 0 0,0 0.4749397722971387,0.06166081330690242 l -0.9364996978302629 6.757296323626295" fill="#ff4c07" stroke="none" /><path d="M 102.88285421437855 79.19881850522331 l 0.4457973167722198 -3.216642329609562 a24.247387122638344,24.247387122638344 0 0,0 0.41293417993382064,0.060855764097492035 l -0.5011004771346962 3.208492081351101" fill="#ff1902" stroke="none" /><path d="M 103.2404852339499 79.25152402106235 l 0.24147662352758112 -1.5461486663310133 a22.564891899815272,22.564891899815272 0 0,0 0.38324942415702756,0.06323943879369148 l -0.26805525382348383 1.5417629645976971" fill="#ff0000" stroke="none" /><path d="M 103.59715602781102 79.31037775812273 l 1.1595081153658537 -6.6690976726714375 a27.769144911820906,27.769144911820906 0 0,0 0.4702306387354319,0.08593164359029856 l -1.2741338752041866 6.6481505477304" fill="#ff4b07" stroke="none" /><path d="M 103.95276090670814 79.375362276772 l 1.3033484832894902 -6.800585952301144 a27.924354595449937,27.924354595449937 0 0,0 0.47130139345611904,0.09453862575398658 l -1.4202162862127345 6.777143370469949" fill="#ff4d07" stroke="none" /><path d="M 104.307194497241 79.44645832069477 l 1.3752148157152408 -6.562400432789115 a27.704947071352127,27.704947071352127 0 0,0 0.46591445881854415,0.10183085475603461 l -1.4879719986873126 6.53775607993721" fill="#ff4a06" stroke="none" /><path d="M 104.66035177308747 79.52364482259891 l 1.4262684322415728 -6.2666469011083565 a27.426904777883347,27.426904777883347 0 0,0 0.4594350209901779,0.10873342571818713 l -1.5339271401942747 6.241167563249301" fill="#ff4606" stroke="none" /><path d="M 105.01212808612495 79.60689891045804 l 0.7603513573364497 -3.0936803344387034 a24.185748294874557,24.185748294874557 0 0,0 0.40343107848551757,0.10284356467362642 l -0.8134913245069922 3.0801337735962067" fill="#ff1802" stroke="none" /><path d="M 105.36241919743992 79.69619591428918 l 1.7820497271811044 -6.747400231028827 a27.978761430786562,27.978761430786562 0 0,0 0.4645834841819763,0.12698821596972432 l -1.8979311005867916 6.715725474232811" fill="#ff4e07" stroke="none" /><path d="M 105.71112130821622 79.79150937346287 l 1.9345740851351398 -6.8453846724551175 a28.113499012775634,28.113499012775634 0 0,0 0.46455519864075806,0.13561640142555006 l -2.052119501499325 6.811069942110864" fill="#ff5007" stroke="none" /><path d="M 106.0581310904928 79.89281104454417 l 1.0448204271964654 -3.4678024361553574 a24.62178180752127,24.62178180752127 0 0,0 0.4047523442800702,0.12575852360127335 l -1.1043581441872539 3.4493037776715636" fill="#ff1e03" stroke="none" /><path d="M 106.40334571778207 80.00007090966166 l 2.0920788068152874 -6.534307162505984 a27.861046846356807,27.861046846356807 0 0,0 0.4554845701268102,0.15016610146562281 l -2.204246199184515 6.497327336781125" fill="#ff4c07" stroke="none" /><path d="M 106.74666289553966 80.11325718540242 l 2.1747208957672926 -6.410297330291628 a27.769144911820906,27.769144911820906 0 0,0 0.45133851857996443,0.1574631468684271 l -2.2847414184105306 6.371913330250993" fill="#ff4b07" stroke="none" /><path d="M 107.08798089147638 80.2323363322302 l 2.2546987962092095 -6.288127487644145 a27.680135774255874,27.680135774255874 0 0,0 0.4471233942686848,0.16467931953870366 l -2.362604516250471 6.248384900299117" fill="#ff4a06" stroke="none" /><path d="M 107.4271985657038 80.35727306442388 l 1.382816210951995 -3.6571368051534177 a24.909837628966116,24.909837628966116 0 0,0 0.39976355419458853,0.1551020483280534 l -1.4455629301462505 3.6327920529348177" fill="#ff2203" stroke="none" /><path d="M 107.76421540070413 80.48803036053334 l 2.833453078411933 -7.1206487181967 a28.66368674434951,28.66368674434951 0 0,0 0.45686658620949044,0.18636735175166508 l -2.955603534209811 7.070820480261456" fill="#ff5808" stroke="none" /><path d="M 108.09893153111575 80.62456947434976 l 2.869355521669716 -6.864485562065672 a28.440051286217358,28.440051286217358 0 0,0 0.45005195103268875,0.19268875817930683 l -2.98709123049272 6.814077275923575" fill="#ff5407" stroke="none" /><path d="M 108.43124777332544 80.76684994638697 l 2.6361180616878555 -6.013446123584237 a27.56587029390676,27.56587029390676 0 0,0 0.43293890204551627,0.1942470654817377 l -2.739239082200152 5.967178727585968" fill="#ff4806" stroke="none" /><path d="M 108.76106565485865 80.91482961587045 l 2.821305316713393 -6.1459524213546635 a27.762580487925486,27.762580487925486 0 0,0 0.4325962498189456,0.2031097397724166 l -2.9266797778319367 6.096477698942244" fill="#ff4b07" stroke="none" /><path d="M 109.08828744355905 81.06846463323043 l 3.0050699767149807 -6.2597699398378825 a27.94371408287033,27.94371408287033 0 0,0 0.43183514887317437,0.211899632112606 l -3.112376392598587 6.207115147590445" fill="#ff4d07" stroke="none" /><path d="M 109.41281617654863 81.2277094730956 l 3.1269884883384877 -6.236256533259886 a27.976313679503527,27.976313679503527 0 0,0 0.4286231201098806,0.21955740993258677 l -3.233872096037124 6.181506598014798" fill="#ff4e07" stroke="none" /><path d="M 109.73455568895987 81.39251694778311 l 1.6144604354286962 -3.086021196096732 a24.482816291497862,24.482816291497862 0 0,0 0.3717365356895932,0.19856878331388178 l -1.6673420176466005 3.057773686281096" fill="#ff1c02" stroke="none" /><path d="M 110.05341064243156 81.56283822128135 l 5.915940193398554 -10.849367473219257 a33.35747235241967,33.35747235241967 0 0,0 0.5017534269321413,0.2792252388508277 l -6.10181770940273 10.74592683680825" fill="#ff980e" stroke="none" /><path d="M 110.36928655335952 81.73862282372117 l 4.136679374295671 -7.285116668597789 a29.377651289043044,29.377651289043044 0 0,0 0.437591681700325,0.25348134662949445 l -4.261467788461324 7.212831164578243" fill="#ff6109" stroke="none" /><line stroke="#e1ed5e" stroke-width="0.3" x1="143.23703022742887" x2="145.7803849466894" y1="26.818313649435467" y2="22.513508569990506" /><path d="M 143.74570117128098 25.957352633546478 a86.0,86.0 0 0,1 28.547481713284135,27.462654790039114" fill="none" id="id50" stroke="none" /><text fill="#e1ed5e" style="font-size:6.75px; font-family:Arial;" text-anchor="middle"><textPath startOffset="19.985693538727396" xlink:href="#id50">February</textPath></text><path d="M 110.68208982089419 81.91981866633111 l 3.495221956781737 -5.915906703613996 a27.871282897176783,27.871282897176783 0 0,0 0.41095268800692936,0.24759439634316768 l -3.596536711006304 5.854865697812216" fill="#ff4c07" stroke="none" /><path d="M 110.99172775467656 82.1063720568725 l 3.6033503188820095 -5.865957690536142 a27.884300483545672,27.884300483545672 0 0,0 0.40681979131691587,0.25475051600093335 l -3.703789262571189 5.803062833212264" fill="#ff4d07" stroke="none" /><path d="M 111.2981086023043 82.29822771554956 l 3.578324336601906 -5.606485545157103 a27.651096543125277,27.651096543125277 0 0,0 0.3990092393232982,0.25952670841994036 l -3.6743006017094846 5.544059912577635" fill="#ff4906" stroke="none" /><path d="M 111.60114157652 82.49532879139004 l 3.812227474862869 -5.752174307997837 a27.900767173995202,27.900767173995202 0 0,0 0.39804470798976277,0.2687615636679775 l -3.910676877259174 5.68570083203119" fill="#ff4d07" stroke="none" /><path d="M 111.90073688211348 82.69761687909136 l 1.9396700058869125 -2.8200702109826277 a24.422735123641463,24.422735123641463 0 0,0 0.3443243503003271,0.24122121170499272 l -1.9879254957708907 2.7862641565136994" fill="#ff1b02" stroke="none" /><path d="M 112.19680574252982 82.90503203632743 l 1.7670520652034905 -2.4766893137817205 a24.04244358339485,24.04244358339485 0 0,0 0.33482501106017254,0.24326460997508187 l -1.8094223926174517 2.445905468989966" fill="#ff1602" stroke="none" /><path d="M 112.48926042617603 83.11751280151076 l 5.080013747523388 -6.866961223817801 a29.541761886428578,29.541761886428578 0 0,0 0.4062046366409648,0.3059449108126948 l -5.197464537922736 6.778499723499256" fill="#ff6409" stroke="none" /><path d="M 112.77801427241765 83.33499621200491 l 2.182580357918136 -2.846507223804155 a24.586956982448953,24.586956982448953 0 0,0 0.33364201465207055,0.2604128845778827 l -2.231254927729637 2.8085159500030463" fill="#ff1e03" stroke="none" /><path d="M 113.06298171725822 83.55741782278167 l 2.3561094173113326 -2.9656722753793145 a24.787672587658108,24.787672587658108 0 0,0 0.33179669151841995,0.2682898496279914 l -2.4068095073942435 2.9246763284871955" fill="#ff2003" stroke="none" /><path d="M 113.34407831869373 83.78471172551755 l 15.011115995886826 -18.24101802924875 a44.6234701554481,44.6234701554481 0 0,0 0.5889075442053431,0.4931931321976642 l -15.322881077051287 17.979923739657263" fill="#d9ff1c" stroke="none" /><path d="M 113.6212207817346 84.01681056812373 l 1.952851123495261 -2.2914825285654263 a24.010734078137308,24.010734078137308 0 0,0 0.3122609702753699,0.27078963635210346 l -1.9920058924173951 2.2575278987936516" fill="#ff1502" stroke="none" /><path d="M 113.89432698308785 84.25364557470407 l 1.936721471678094 -2.194874408328239 a23.92717675024813,23.92717675024813 0 0,0 0.3064832211269254,0.2751636620255783 l -1.9742156804010096 2.1612117375333635" fill="#ff1402" stroke="none" /><path d="M 114.16331599549186 84.49514656593476 l 1.975716471522224 -2.1628546823336476 a23.929401978687256,23.929401978687256 0 0,0 0.30172938045049424,0.28042457547292443 l -2.012653735767565 2.128525520786085" fill="#ff1402" stroke="none" /><path d="M 114.42810811169701 84.74124197986012 l 1.9555512122908518 -2.0681355111378945 a23.846289696485904,23.846289696485904 0 0,0 0.2958265735050983,0.2845849293288148 l -1.9908610294083706 2.034167495046773" fill="#ff1302" stroke="none" /><path d="M 114.68862486808459 84.99185889309781 l 4.829367212921815 -4.934418656579727 a27.90443880091976,27.90443880091976 0 0,0 0.3403865827246473,0.3389248545639279 l -4.913589595813782 4.8505579513656825" fill="#ff4d07" stroke="none" /><path d="M 114.94478906791727 85.2469230424477 l 2.4000227897175384 -2.3692352401676744 a24.372444960917218,24.372444960917218 0 0,0 0.29216263702818784,0.3010992792783867 l -2.4404496904488355 2.3275717653391736" fill="#ff1a02" stroke="none" /><path d="M 115.19652480421416 85.50635884689758 l 6.052131661157617 -5.772202897587686 a29.36340982703264,29.36340982703264 0 0,0 0.34569497369600505,0.36876329505390026 l -6.1505939568240855 5.667170185655729" fill="#ff6109" stroke="none" /><path d="M 115.4437574822437 85.77008943001952 l 3.256658863036031 -3.0006923141093225 a25.428315855282445,25.428315855282445 0 0,0 0.2938258357480179,0.3244498265644059 l -3.3078283394000847 2.94418970027537" fill="#ff2a04" stroke="none" /><path d="M 115.68641384162765 86.03803664274999 l 2.505991003189134 -2.230500541001563 a24.354865656248123,24.354865656248123 0 0,0 0.27603124703121346,0.3155514321824857 l -2.5440141137981955 2.1870335526161293" fill="#ff1a02" stroke="none" /><path d="M 115.9244219780498 86.31012108654704 l 5.354975485118281 -4.603555851309846 a28.06176245156596,28.06176245156596 0 0,0 0.31173863556171777,0.3690002170778058 l -5.433424734167116 4.510696684602934" fill="#ff4f07" stroke="none" /><path d="M 116.15771136456269 86.58626213691792 l 3.2718684944047127 -2.7162254180797865 a25.252411547169544,25.252411547169544 0 0,0 0.2747721008207308,0.336838106187301 l -3.3181390873018524 2.6595031422843824" fill="#ff2703" stroke="none" /><path d="M 116.38621287248628 86.86637796730983 l 3.1049169628012416 -2.4886046672071864 a24.979153494844887,24.979153494844887 0 0,0 0.2660231309209086,0.3378223611976424 l -3.1472941743161145 2.4347899120565057" fill="#ff2303" stroke="none" /><path d="M 116.60985879189232 87.15038557335679 l 3.1817908557927916 -2.4614770176802088 a25.022767972251753,25.022767972251753 0 0,0 0.2606229237009967,0.3429492177147901 l -3.2236897197179015 2.4063430240843875" fill="#ff2403" stroke="none" /><path d="M 116.82858285166822 87.43820079747576 l 2.417143165769232 -1.804291386849424 a24.016297149235122,24.016297149235122 0 0,0 0.24443717189399797,0.3334120277593916 l -2.4478429501768564 1.7624169154185363" fill="#ff1502" stroke="none" /><path d="M 117.04232023915458 87.72973835380427 l 2.1450002627960685 -1.5443738931273612 a23.643126339993714,23.643126339993714 0 0,0 0.23495343312090947,0.3323249688035003 l -2.171266315720861 1.5072224239920677" fill="#ff1001" stroke="none" /><path d="M 117.2510076193507 88.02491185347247 l 2.8612347202240085 -1.9861760390247383 a24.483038814341775,24.483038814341775 0 0,0 0.2373403670801318,0.3482677024270284 l -2.894999552972874 1.9366303133273057" fill="#ff1c02" stroke="none" /><path d="M 117.45458315368197 88.32363383020206 l 1.9003145125072534 -1.2712287592577158 a23.28631095977988,23.28631095977988 0 0,0 0.22000392592961698,0.3350810727925806 l -1.9219150737947952 1.2383296224874611" fill="#ff0b01" stroke="none" /><path d="M 117.65298651832404 88.62581576622439 l 3.5135813702491157 -2.2638731290080516 a25.179757838632085,25.179757838632085 0 0,0 0.2316206832206333,0.36636829702765183 l -3.5520296497157045 2.2030571842661937" fill="#ff2603" stroke="none" /><line stroke="#e1ed5e" stroke-width="0.3" x1="172.23445277983987" x2="176.4835382374775" y1="55.19839476539836" y2="52.563006222186495" /><path d="M 173.08426987136738 54.67131705675599 a86.0,86.0 0 0,1 12.851231095245387,41.99856678651699" fill="none" id="id51" stroke="none" /><text fill="#e1ed5e" style="font-size:6.75px; font-family:Arial;" text-anchor="middle"><textPath startOffset="22.20632615414155" xlink:href="#id51">March</textPath></text><path d="M 117.84615892207809 88.93136811851018 l 1.5340093442912026 -0.9514307705575302 a22.80510530981891,22.80510530981891 0 0,0 0.2040342383873296,0.3353786407180183 l -1.550159380964756 0.9248843566324304" fill="#ff0400" stroke="none" /><path d="M 118.03404312379186 89.2402003453031 l 2.886483906493175 -1.7221866625903424 a24.361207557299632,24.361207557299632 0 0,0 0.2117572741812094,0.36196182370463476 l -2.9157008551447117 1.6722454265318112" fill="#ff1a02" stroke="none" /><path d="M 118.21658344932153 89.55222093294921 l 3.3450935431466586 -1.9185155325443908 a24.856209623583183,24.856209623583183 0 0,0 0.2096708381548215,0.37298102537659805 l -3.377622022593913 1.8606509972329999" fill="#ff2103" stroke="none" /><path d="M 118.3937258080291 89.86733742301442 l 3.7675313019267924 -2.075442671543547 a25.301366572830315,25.301366572830315 0 0,0 0.2068590342504587,0.3832783740235133 l -3.802698435395716 2.010283314187575" fill="#ff2803" stroke="none" /><path d="M 118.56541770881063 90.18545643968196 l 3.036748804862182 -1.6053667035414643 a24.434973880056656,24.434973880056656 0 0,0 0.19337438856401748,0.37353776887400797 l -3.063932626586316 1.5528562124071115" fill="#ff1b02" stroke="none" /><path d="M 118.73160827565052 90.50648371742162 l 21.351758782092414 -10.821455727481624 a44.937449888208754,44.937449888208754 0 0,0 0.3437500651404155,0.6929791554097782 l -21.534868860186236 10.452316983572896" fill="#d5ff1c" stroke="none" /><path d="M 118.89224826269711 90.83032412892265 l 6.19823384723942 -3.0084188267072958 a27.889752293221527,27.889752293221527 0 0,0 0.20590845565938512,0.43369572082181534 l -6.249100496740562 2.90128069024494" fill="#ff4d07" stroke="none" /><path d="M 119.04729006885535 91.15688171328212 l 3.3706835102970008 -1.5649130601200059 a24.716242754762163,24.716242754762163 0 0,0 0.17583568575871092,0.38743062566592995 l -3.3971215130190586 1.506660425612013" fill="#ff1f03" stroke="none" /><path d="M 119.196687751892 91.48605970444005 l 3.4167509987234594 -1.5153663165177682 a24.73771620919973,24.73771620919973 0 0,0 0.1692876017398716,0.39073912512216247 l -3.442329310306012 1.456328046809003" fill="#ff2003" stroke="none" /><path d="M 119.34039704204932 91.81776055985345 l 3.529120193375286 -1.4930462064698715 a24.83195463359671,24.83195463359671 0 0,0 0.16315577198391182,0.39509464325879 l -3.554297652245395 1.4320769927577783" fill="#ff2103" stroke="none" /><path d="M 119.47837535516314 92.15188598940014 l 3.0074429366666267 -1.211741462877012 a24.24238035865031,24.24238035865031 0 0,0 0.15261900236355938,0.3883987140648946 l -3.0278554889118863 1.159793743916333" fill="#ff1902" stroke="none" /><path d="M 119.61058180528143 92.48833698450437 l 6.627576896805693 -2.5386357606524976 a28.09714358374806,28.09714358374806 0 0,0 0.16911190596175027,0.4531358308276281 l -6.670293391269069 2.4241767927955364" fill="#ff5007" stroke="none" /><path d="M 119.7369772167798 92.82701384747503 l 4.163861738053288 -1.513267318497609 a25.43031856087766,25.43031856087766 0 0,0 0.14597840745423427,0.4127006155368774 l -4.189293226317331 1.4413690765341172" fill="#ff2a04" stroke="none" /><path d="M 119.85752413597 93.16781622104841 l 4.072091070207998 -1.401044478948567 a25.306373336818346,25.306373336818346 0 0,0 0.13817605960102444,0.4131288308262343 l -4.0956044235807925 1.3307425452000186" fill="#ff2803" stroke="none" /><path d="M 119.97218684219823 93.5106431181261 l 1.8497677542595483 -0.6010259768154378 a22.94496091721797,22.94496091721797 0 0,0 0.118816127376204,0.3766795932172958 l -1.8598393654039584 0.5690962171717229" fill="#ff0600" stroke="none" /><path d="M 120.08093135843002 93.85539295169968 l 2.3830754502421643 -0.7292023435975873 a23.492144590399022,23.492144590399022 0 0,0 0.11499304419486873,0.38769937892065615 l -2.3952743915487353 0.6880735779304012" fill="#ff0e01" stroke="none" /><path d="M 120.18372546131832 94.20196356495316 l 3.486242262551022 -1.001468222425511 a24.62723361719713,24.62723361719713 0 0,0 0.11353533421416578,0.4084470046157409 l -3.5029643673315514 0.941309914390818" fill="#ff1e03" stroke="none" /><path d="M 120.28053869075195 94.5502522615342 l 3.445371382426496 -0.9258336371565775 a24.567597495028558,24.567597495028558 0 0,0 0.10622990331821697,0.40934715138988576 l -3.4607976176150155 0.8663900602178413" fill="#ff1d03" stroke="none" /><path d="M 120.37134235888165 94.90015583598534 l 3.553941804235996 -0.8897081522798401 a24.66361610217684,24.66361610217684 0 0,0 0.09955550821065211,0.412721854237515 l -3.5687301127074678 0.828401066382919" fill="#ff1f03" stroke="none" /><path d="M 120.45610955862082 95.25157060432595 l 3.635058551391168 -0.8437977334330383 a24.731708092414088,24.731708092414088 0 0,0 0.0926916307571485,0.4155184056819767 l -3.6490445691503544 0.7811011582010978" fill="#ff2003" stroke="none" /><path d="M 120.53481517161879 95.60439243477599 l 3.647412617196352 -0.780751828523906 a24.730039171084744,24.730039171084744 0 0,0 0.08551965984066097,0.41702423307207254 l -3.66031157295201 0.7178519392884223" fill="#ff2003" stroke="none" /><path d="M 120.6074358757038 95.95851677861258 l 3.748748631090447 -0.7351960129893504 a24.82016092286934,24.82016092286934 0 0,0 0.0786140493440692,0.41995939508583296 l -3.7608484043443755 0.6705585404409542" fill="#ff2103" stroke="none" /><path d="M 120.67395015179393 96.31383870115 l 3.437613698032443 -0.612925855051665 a24.49182846667632,24.49182846667632 0 0,0 0.07042932995564731,0.4156778921740084 l -3.4476548895083137 0.5536621745618192" fill="#ff1c02" stroke="none" /><path d="M 120.73433829027371 96.67025291283417 l 3.8471935344593 -0.6178244651838348 a24.89648625833136,24.89648625833136 0 0,0 0.06430893588494915,0.42371553747837826 l -3.857258363783549 0.5515098153133738" fill="#ff2203" stroke="none" /><path d="M 120.78858239683441 97.02765380044208 l 3.64501608437945 -0.5211634684326772 a24.682085498221582,24.682085498221582 0 0,0 0.05651492487385972,0.42110183398116857 l -3.653447008311146 0.45834329238684457" fill="#ff1f03" stroke="none" /><path d="M 120.83666639777658 97.38593545837742 l 6.8636538601477275 -0.8610798790586598 a27.917456387288645,27.917456387288645 0 0,0 0.05571479724899853,0.47733035837613447 l -6.877459010400314 0.7428057823576727" fill="#ff4d07" stroke="none" /><path d="M 120.87857604477298 97.74499172005257 l 7.16860584448221 -0.7742513426356936 a28.21029644987761,28.21029644987761 0 0,0 0.047988232121240405,0.4832349485287041 l -7.180871202285679 0.6507408634025545" fill="#ff5107" stroke="none" /><path d="M 120.91429891909075 98.10471618934814 l 3.2021111951801813 -0.29017991621953604 a24.215232571692976,24.215232571692976 0 0,0 0.03404605910048661,0.4154481565313382 l -3.206631738100163 0.23501784248042873" fill="#ff1802" stroke="none" /><path d="M 120.94382443527127 98.46500227214037 l 3.6559241426806715 -0.26794701557902567 a24.66573006919401,24.66573006919401 0 0,0 0.027390011793248646,0.42371135933538534 l -3.6599947454783357 0.20497659199060508" fill="#ff1f03" stroke="none" /><path d="M 120.96714384426684 98.82574320788733 l 4.384950756920701 -0.2455774733858972 a25.39182210888078,25.39182210888078 0 0,0 0.020683926507613352,0.4366049974343528 l -4.388528291661811 0.17006136932854457" fill="#ff2904" stroke="none" /><path d="M 120.98425023603335 99.18683210126433 l 3.1322171499756353 -0.12137762415051018 a24.134568040774663,24.134568040774663 0 0,0 0.012513550048046582,0.41526380533973506 l -3.1338423944793266 0.06744367138577596" fill="#ff1702" stroke="none" /><line stroke="#e1ed5e" stroke-width="0.3" x1="184.98032266829074" x2="189.97916517819016" y1="98.17113171792111" y2="98.06355123074" /><path d="M 185.9800911702706 98.14961562048488 a86.0,86.0 0 0,1 -9.607161424134198,41.387399972396054" fill="none" id="id52" stroke="none" /><text fill="#e1ed5e" style="font-size:6.75px; font-family:Arial;" text-anchor="middle"><textPath startOffset="21.466115282336823" xlink:href="#id52">April</textPath></text><path d="M 120.99513854157772 99.54816195383933 l 3.3990282202145585 -0.07315075662993488 a24.399815270718467,24.399815270718467 0 0,0 0.00542256019988088,0.41998326335177916 l -3.399783787532155 0.014631235217693064" fill="#ff1b02" stroke="none" /><path d="M 120.99980553446 99.90962569577887 l 7.010072236058869 -0.03016839369460251 a28.01013715177824,28.01013715177824 0 0,0 -0.002075021251829226,0.4821618616467939 l -7.009552917517537 -0.0905029461558761" fill="#ff4e07" stroke="none" /><path d="M 120.99824983174949 100.27111621757518 l 3.331334358031697 0.04301209757311294 a24.331612019059257,24.331612019059257 0 0,0 -0.00901189300271248,0.41874725628246007 l -3.3301004023439775 -0.10034916964568787" fill="#ff1a02" stroke="none" /><path d="M 120.9904718944345 100.63252640178507 l 3.5181581027301525 0.10601609610410549 a24.51975508358735,24.51975508358735 0 0,0 -0.016344013056242418,0.42176635399217804 l -3.515811956822707 -0.16655969711028973" fill="#ff1d02" stroke="none" /><path d="M 120.9764740272857 100.99374915477107 l 3.95180153503088 0.18721446846365372 a24.95623364192189,24.95623364192189 0 0,0 -0.024021740476506945,0.42892431310052553 l -3.947993443666844 -0.25521049789960254" fill="#ff2303" stroke="none" /><path d="M 120.95626037817324 101.35467743843564 l 4.869650836542664 0.31478928025700725 a25.879814705581083,25.879814705581083 0 0,0 -0.0325635126500349,0.4443032582784722 l -4.863510765228291 -0.39856567503224943" fill="#ff3004" stroke="none" /><path d="M 120.92983693683757 101.71520430193887 l 3.69894727640211 0.30312946537884466 a24.711347252196088,24.711347252196088 0 0,0 -0.038391318125727734,0.4236449964204631 l -3.693181361999307 -0.3667558503478786" fill="#ff1f03" stroke="none" /><path d="M 120.89721153311464 102.0752229133903 l 6.926334287415375 0.6878280193636399 a27.960403296163776,27.960403296163776 0 0,0 -0.05168373833616574,0.47852722791551766 l -6.913468247578157 -0.8069515691639487" fill="#ff4e07" stroke="none" /><path d="M 120.8583938346157 102.4346265915055 l 3.471708387245125 0.40522360564084214 a24.495277570756965,24.495277570756965 0 0,0 -0.05248812006017123,0.41838196040155745 l -3.4642187579381054 -0.46492332032979483" fill="#ff1c02" stroke="none" /><path d="M 120.81339534386255 102.79330883721812 l 4.280898819096456 0.574527716648829 a25.319279661765275,25.319279661765275 0 0,0 -0.061689760546206875,0.4314580415789064 l -4.270375007533651 -0.6481312302081447" fill="#ff2803" stroke="none" /><path d="M 120.76222939487914 103.15116336523771 l 3.5120234632164795 0.5330333012249929 a24.55224341879859,24.55224341879859 0 0,0 -0.06701388186952761,0.417295506371311 l -3.502327826985661 -0.5934080372895089" fill="#ff1d02" stroke="none" /><path d="M 120.70491114924044 103.5080841355445 l 3.506276954738707 0.5940771477396741 a24.556248829989016,24.556248829989016 0 0,0 -0.07419911195556847,0.4161480243296398 l -3.4955314004439497 -0.6543439228025323" fill="#ff1d02" stroke="none" /><path d="M 120.64145759157962 103.86396538481128 l 6.923477204871429 1.2960362001308605 a28.04373810120904,28.04373810120904 0 0,0 -0.0929049875863826,0.4737205301478839 l -6.900142284309383 -1.4150204573466894" fill="#ff4f07" stroke="none" /><path d="M 120.5718875245553 104.21870165774334 l 4.163976682721862 0.8539116944536697 a25.250631364418243,25.250631364418243 0 0,0 -0.09098158547635399,0.42503567801611875 l -4.148661058521065 -0.9254611918859574" fill="#ff2703" stroke="none" /><path d="M 120.49622156327973 104.57218783832717 l 2.10137001736575 0.46876242079848074 a23.15301977627624,23.15301977627624 0 0,0 -0.09011974921483515,0.3882335209645426 l -2.092989702220362 -0.5048645991115877" fill="#ff0901" stroke="none" /><path d="M 120.41448212921028 104.9243191809786 l 3.5661187262625984 0.8602082940058992 a24.668400343320958,24.668400343320958 0 0,0 -0.1031241164087341,0.4119295831905888 l -3.5507832955588037 -0.9214657165938845" fill="#ff1f03" stroke="none" /><path d="M 120.32669344350535 105.2749913415812 l 3.798802886401421 0.9858294163699216 a24.924635398086302,24.924635398086302 0 0,0 -0.11134419015115758,0.414353152607886 l -3.781270619908486 -1.051073502153356" fill="#ff2203" stroke="none" /><path d="M 120.23288151984713 105.62410040840565 l 4.19848174574292 1.1670449845591182 a25.357664852340196,25.357664852340196 0 0,0 -0.12051817445895774,0.4195395757907528 l -4.177770934397863 -1.239142035854453" fill="#ff2904" stroke="none" /><path d="M 120.13307415673323 105.97154293290107 l 4.028968645333752 1.1950067363595607 a25.202455168711168,25.202455168711168 0 0,0 -0.12694023923638467,0.4148480465375926 l -4.007801633591234 -1.2641817554492105" fill="#ff2603" stroke="none" /><path d="M 120.02730092923936 106.31721596034902 l 6.6703672630875355 2.104035420681453 a27.994338029860444,27.994338029860444 0 0,0 -0.14891354693361816,0.4583087718599743 l -6.63316146513767 -2.2185430925192224" fill="#ff4e07" stroke="none" /><path d="M 119.9155931802556 106.66101706037122 l 4.027547930839669 1.3470633405678725 a25.24684847607173,25.24684847607173 0 0,0 -0.1413933747891884,0.41095533190902933 l -4.003763725107249 -1.4161913755662021" fill="#ff2703" stroke="none" /><path d="M 119.79798401119884 107.00284435728193 l 3.2468562312541214 1.148461824450517 a24.443986055235115,24.443986055235115 0 0,0 -0.14372567819752802,0.3954713386770271 l -3.226606292051367 -1.204180960133674" fill="#ff1b02" stroke="none" /><path d="M 119.67450827220406 107.3425965602758 l 3.3886975495347245 1.2646739947336565 a24.61699756637715,24.61699756637715 0 0,0 -0.15157707640787088,0.39571991589213085 l -3.366426193533347 -1.3228174774589323" fill="#ff1e03" stroke="none" /><path d="M 119.54520255179757 107.68017299344265 l 3.2653578135496937 1.2831032488453196 a24.508406418547807,24.508406418547807 0 0,0 -0.15766769694586438,0.3913182935859203 l -3.2427875023464368 -1.3391209102740533" fill="#ff1c02" stroke="none" /><path d="M 119.41010516605496 108.01547362559984 l 3.1567121800027365 1.3035757924007347 a24.41528060837039,24.41528060837039 0 0,0 -0.16375563417159125,0.3870699465493063 l -3.1338055646388363 -1.3577202646162048" fill="#ff1b02" stroke="none" /><path d="M 119.26925614724726 108.34839909993367 l 3.386482420661807 1.467192432160025 a24.69065262771222,24.69065262771222 0 0,0 -0.17231596506640234,0.38852701113850924 l -3.360725370864132 -1.5252677797912217" fill="#ff1f03" stroke="none" /><path d="M 119.12269723197855 108.67885076344098 l 3.93194027668343 1.7845141016525734 a25.3179445247018,25.3179445247018 0 0,0 -0.18352541933812502,0.39529742606654883 l -3.900640240505474 -1.8519315949979527" fill="#ff2803" stroke="none" /><path d="M 118.97047184881838 109.00673069616215 l 4.129397930407053 1.960540327771673 a25.571175521074323,25.571175521074323 0 0,0 -0.1922060371683418,0.39600136611446535 l -4.0950386366239995 -2.0313306498514136" fill="#ff2c04" stroke="none" /><path d="M 118.81262510543309 109.33194174019688 l 3.2367600020865965 1.6055843135761187 a24.61310341660868,24.61310341660868 0 0,0 -0.19153838576334567,0.3779234063624521 l -3.2086429465369792 -1.6610619316412651" fill="#ff1e03" stroke="none" /><path d="M 118.64920377521936 109.65438752849418 l 4.456569300381964 2.307092977913026 a26.01833517591667,26.01833517591667 0 0,0 -0.20932059372072173,0.395955678794249 l -4.4161961984363485 -2.3834636717934092" fill="#ff3204" stroke="none" /><line stroke="#e1ed5e" stroke-width="0.3" x1="174.80103733775053" x2="179.2010983576182" y1="140.37084112569926" y2="142.7455964860345" /><path d="M 175.68104954172406 140.8457921977663 a86.0,86.0 0 0,1 -30.038265399797805,32.042727171017184" fill="none" id="id53" stroke="none" /><text fill="#e1ed5e" style="font-size:6.75px; font-family:Arial;" text-anchor="middle"><textPath startOffset="22.206326154141568" xlink:href="#id53">May</textPath></text><path d="M 118.48025628344425 109.97397251340804 l 4.546907929655587 2.454010053529934 a26.16686917422832,26.16686917422832 0 0,0 -0.21733901308483414,0.394533439132778 l -4.503992507119244 -2.5319140110605183" fill="#ff3405" stroke="none" /><path d="M 118.30583269289576 110.29060199501023 l 29.51555838275064 16.592135909515306 a54.85952097542712,54.85952097542712 0 0,0 -0.46982739711748717,0.8191836687434937 l -29.225578989480773 -17.097739424117115" fill="#67ff28" stroke="none" /><path d="M 118.12598468904814 110.60418214915192 l 36.24310219993519 21.20317676372395 a62.98972686203936,62.98972686203936 0 0,0 -0.5555667642568876,0.9311618530351295 l -35.872754559980066 -21.823900710645184" fill="#33ff4f" stroke="none" /><path d="M 117.94076556474637 110.91462005526583 l 12.503284697069073 7.606620877956812 a35.635327444130866,35.635327444130866 0 0,0 -0.3233233311960804,0.5213001582779446 l -12.370496726205031 -7.820717367600027" fill="#ffb610" stroke="none" /><path d="M 117.75023020441432 111.22182372390056 l 5.9758132391154515 3.7779522859161365 a28.069884535368768,28.069884535368768 0 0,0 -0.2617117560758548,0.4061824572855879 l -5.909896619662546 -3.88025634312318" fill="#ff4f07" stroke="none" /><path d="M 117.55443506779139 111.5257021239791 l 3.9729483011838433 2.6085156541112764 a25.752754161706996,25.752754161706996 0 0,0 -0.24648683874401123,0.3684643801488444 l -3.927458357029111 -2.676516948465928" fill="#ff2e04" stroke="none" /><path d="M 117.35343817320211 111.8261652097733 l 5.760676798886067 3.9258338816649405 a27.97119565409354,27.97119565409354 0 0,0 -0.2745693760821512,0.3955376645980765 l -5.692246515641777 -4.024412808450034" fill="#ff4e07" stroke="none" /><path d="M 117.14729908036423 112.12312394758627 l 6.036383227229667 4.267717132352112 a28.392653920463975,28.392653920463975 0 0,0 -0.28557629790895506,0.3966405005866788 l -5.9620271369451086 -4.370991238389924" fill="#ff5407" stroke="none" /><path d="M 116.93607887273984 112.41649034213513 l 3.7502697638405422 2.749466901578878 a25.650171130663296,25.650171130663296 0 0,0 -0.26412192925470523,0.35383448642548326 l -3.702386567890747 -2.8136142675136764" fill="#ff2d04" stroke="none" /><path d="M 116.71984013943494 112.70617746262582 l 5.607129144342158 4.261115977767989 a28.04251422556752,28.04251422556752 0 0,0 -0.2953720464171844,0.3818081865467577 l -5.532950280706905 -4.357002158427999" fill="#ff4f07" stroke="none" /><path d="M 116.498646956653 112.99209946851258 l 3.5609238286989453 2.804101251684619 a25.532456546233533,25.532456546233533 0 0,0 -0.2748776707781519,0.34295215866977513 l -3.5121282458659393 -2.8649812439326445" fill="#ff2b04" stroke="none" /><path d="M 116.27256486870786 113.27417163493432 l 2.805426347558183 2.288496690418251 a24.620446670457795,24.620446670457795 0 0,0 -0.2707123628864951,0.3260904802961259 l -2.7656179847781446 -2.3364484278281448" fill="#ff1e03" stroke="none" /><path d="M 116.0416608686014 113.55231037782055 l 3.4947586329469114 2.952440777623401 a25.574958409420837,25.574958409420837 0 0,0 -0.2869966912664649,0.33384198990541214 l -3.4434194321096654 -3.0121598666903435" fill="#ff2c04" stroke="none" /><path d="M 115.80600337817218 113.82643327865902 l 2.9284013259428234 2.5616434830198855 a24.890700664389634,24.890700664389634 0 0,0 -0.2848695062256349,0.3200539101254017 l -2.8838729700688526 -2.6116715628861513" fill="#ff2203" stroke="none" /><path d="M 115.56566222782051 114.09645910891815 l 2.8123719873398727 2.5469193753765773 a24.794237011553527,24.794237011553527 0 0,0 -0.28921130557073305,0.3138817522704643 l -2.7681142737734152 -2.594952382448379" fill="#ff2103" stroke="none" /><path d="M 115.32070863581623 114.36230785411682 l 2.8268013484299797 2.649968234084944 a24.874679019627926,24.874679019627926 0 0,0 -0.29552711675944515,0.30985900042043535 l -2.7807676802915724 -2.6982343510878843" fill="#ff2203" stroke="none" /><path d="M 115.07121518719521 114.62390073753431 l 2.808555394656008 2.7251973246464942 a24.913397994468717,24.913397994468717 0 0,0 -0.30128528487704515,0.3052004029200058 l -2.7612294847234273 -2.773138221547165" fill="#ff2203" stroke="none" /><path d="M 114.81725581225074 114.88116024355365 l 2.877023232483558 2.889431369040472 a25.07750859185425,25.07750859185425 0 0,0 -0.30851312090485594,0.30194502220993913 l -2.8268601592029077 -2.9385264941729807" fill="#ff2503" stroke="none" /><path d="M 114.55890576462653 115.13401014063108 l 1.9338629952896782 2.010254249492764 a23.78943510986624,23.78943510986624 0 0,0 -0.2975539106403353,0.2813557948891049 l -1.8989732502585353 -2.043244681127793" fill="#ff1202" stroke="none" /><path d="M 114.29624159901734 115.38237550388516 l 2.4604621698934332 2.64739181611245 a24.614216030828246,24.614216030828246 0 0,0 -0.3128354927689523,0.2857678053864959 l -2.414527127657617 -2.689352388085529" fill="#ff1e03" stroke="none" /><path d="M 114.0293411484842 115.62618273729858 l 3.0875085527842017 3.4389336133572406 a25.621576945220525,25.621576945220525 0 0,0 -0.33071068388544256,0.29181372745701917 l -3.0278555159921714 -3.4915704825865483" fill="#ff2c04" stroke="none" /><path d="M 113.75828350139079 115.86535959552629 l 4.56649421384866 5.265851135156169 a27.970083039873973,27.970083039873973 0 0,0 -0.36645406987029233,0.3123001083947268 l -4.47517466740132 -5.343675633773843" fill="#ff4e07" stroke="none" /><path d="M 113.48314897796784 116.09983520530334 l 2.175366647059749 2.5975419084966496 a24.388132821413055,24.388132821413055 0 0,0 -0.32416458949885835,0.2667653881446682 l -2.1303319290161995 -2.634602415498496" fill="#ff1b02" stroke="none" /><path d="M 113.20401910651253 116.32954008644616 l 3.042991535805419 3.763297513114198 a25.83964933225486,25.83964933225486 0 0,0 -0.3482723397288495,0.27668860994401 l -2.977761703359218 -3.815120037063334" fill="#ff3004" stroke="none" /><path d="M 112.92097659922987 116.55440617244103 l 4.385931233868647 5.619272392628942 a28.128296781895823,28.128296781895823 0 0,0 -0.38424763157784875,0.29462469873432545 l -4.288554873797305 -5.693936433190639" fill="#ff5007" stroke="none" /><path d="M 112.63410532772338 116.77436683061366 l 2.145482312776287 2.8485679365147387 a24.566151096543123,24.566151096543123 0 0,0 -0.3399663203630428,0.2514989563577326 l -2.09613102199468 -2.88507684161224" fill="#ff1d03" stroke="none" /><path d="M 112.34349029814194 116.9893568818739 l 4.126995016660313 5.680321326805883 a28.02126329397387,28.02126329397387 0 0,0 -0.39266152507465035,0.2801535723306556 l -4.028606163736778 -5.750519160980758" fill="#ff4f07" stroke="none" /><path d="M 112.04921762599082 117.19931262002967 l 3.9182928583309966 5.593055574155814 a27.829003556833392,27.829003556833392 0 0,0 -0.3946989103432438,0.2714775095908989 l -3.8214370633648693 -5.6596738731118075" fill="#ff4c07" stroke="none" /><path d="M 111.7513745106137 117.40417183066458 l 3.97223247161326 5.883006828253336 a28.098478720811535,28.098478720811535 0 0,0 -0.40318012216653537,0.267205800231883 l -3.8703776507067604 -5.950510649576538" fill="#ff5007" stroke="none" /><path d="M 111.45004920935366 117.60387380957326 l 2.7209725512092535 4.183358215759506 a25.99040855900564,25.99040855900564 0 0,0 -0.3771309742935349,0.24070283112860852 l -2.648559774868788 -4.229575475711924" fill="#ff3204" stroke="none" /><path d="M 111.1453310114006 117.79835938074945 l 2.9182401193680576 4.660237219576913 a26.498539473080033,26.498539473080033 0 0,0 -0.3886714918630195,0.23875377526239114 l -2.8375894275727296 -4.709779461667682" fill="#ff3905" stroke="none" /><line stroke="#e1ed5e" stroke-width="0.3" x1="143.8653032363475" x2="146.44561519142675" y1="172.8068346515853" y2="177.08958963109032" /><path d="M 144.38136562736335 173.6633856474863 a86.0,86.0 0 0,1 -40.68145358897372,12.25698825130547" fill="none" id="id54" stroke="none" /><text fill="#e1ed5e" style="font-size:6.75px; font-family:Arial;" text-anchor="middle"><textPath startOffset="21.466115282336833" xlink:href="#id54">June</textPath></text><path d="M 110.8373102113329 117.98757091392108 l 3.71240756837601 6.161786743698618 a28.193718498006124,28.193718498006124 0 0,0 -0.41784719198861575,0.24687148617911858 l -3.605792505359012 -6.224776802171485" fill="#ff5107" stroke="none" /><path d="M 110.5260780823613 118.17145234162733 l 2.2715778942137352 3.9214861529641323 a25.531900239123754,25.531900239123754 0 0,0 -0.3821897296673102,0.21701730304433137 l -2.203739397625227 -3.960006621803092" fill="#ff2b04" stroke="none" /><path d="M 110.21172684928248 118.3499491758327 l 2.070753257996365 3.7210373525211518 a25.258419663955184,25.258419663955184 0 0,0 -0.3817355337898904,0.20815264974391814 l -2.006394912337825 -3.7561306540248403" fill="#ff2703" stroke="none" /><path d="M 109.89434966115114 118.52300852407294 l 3.3689443339160445 6.306931405433465 a28.15032654344317,28.15032654344317 0 0,0 -0.42937169946260556,0.2246269797990826 l -3.2598817319269435 -6.363987804177264" fill="#ff5007" stroke="none" /><path d="M 109.57404056367764 118.69057910512821 l 2.7552204281124655 5.378780779253359 a27.043386656400003,27.043386656400003 0 0,0 -0.41614117719237326,0.20866182519338392 l -2.6622253432373317 -5.425410445356045" fill="#ff4106" stroke="none" /><path d="M 109.2508944713604 118.85261126421891 l 13.084050662368917 26.664288697989345 a50.70145911407651,50.70145911407651 0 0,0 -0.7868077732943657,0.37771554541094254 l -12.623130221074318 -26.885558519899845" fill="#93ff23" stroke="none" /><path d="M 108.92500713936063 119.00905698771935 l 1.883974475816037 4.012610591229318 a25.43287757358265,25.43287757358265 0 0,0 -0.3978816306024266,0.18264794174794088 l -1.814624849446191 -4.0444456033113365" fill="#ff2a04" stroke="none" /><path d="M 108.59647513512805 119.15986991738527 l 2.8962855479426937 6.455256773258655 a28.075225083622673,28.075225083622673 0 0,0 -0.44262507521512073,0.19403382542239578 l -2.7847397980698205 -6.504155151975505" fill="#ff4f07" stroke="none" /><path d="M 108.2653958097858 119.30500536409082 l 1.4260673919916922 3.3307828548706944 a24.623228206006704,24.623228206006704 0 0,0 -0.39107377933382553,0.16346887147856226 l -1.3685221531604044 -3.35483676936923" fill="#ff1e03" stroke="none" /><path d="M 107.93186726928326 119.44442032107085 l 1.5646496793019546 3.8356297435023836 a25.142485262276725,25.142485262276725 0 0,0 -0.4021348045488925,0.1600177378465329 l -1.498393798711196 -3.8619943257549854" fill="#ff2603" stroke="none" /><path d="M 107.59598834532513 119.57807347666477 l 2.5473338494634694 6.565556318301129 a28.042402964145566,28.042402964145566 0 0,0 -0.4515224535056169,0.17072715667528626 l -2.4339411751975777 -6.608431725083046" fill="#ff4f07" stroke="none" /><path d="M 107.2578585660854 119.70592522655815 l 2.3907580998097657 6.491184682185099 a27.917456387288645,27.917456387288645 0 0,0 -0.45236972978889506,0.16220369055822662 l -2.278668809391136 -6.531375913783286" fill="#ff4d07" stroke="none" /><path d="M 106.91757812671514 119.82793768551818 l 2.2975437943015713 6.585477510868815 a27.97475601959614,27.97475601959614 0 0,0 -0.45602884281925066,0.15470974316045943 l -2.1838452185450934 -6.624050240927397" fill="#ff4e07" stroke="none" /><path d="M 106.57524785965236 119.94407469862006 l 2.1692137900134933 6.579670118715976 a27.928026222374495,27.928026222374495 0 0,0 -0.4578582524811446,0.14659175375740044 l -2.055634192441408 -6.616034719133083" fill="#ff4d07" stroke="none" /><path d="M 106.2309692047433 120.05430185196036 l 1.3305104525272384 4.282232403244374 a25.484169089104505,25.484169089104505 0 0,0 -0.42003374653978065,0.12655272224307337 l -1.256601731547212 -4.304500494593173" fill="#ff2b04" stroke="none" /><path d="M 105.88484417918355 120.15858648285463 l 1.9954472574999766 6.835422466167855 a28.120731005202796,28.120731005202796 0 0,0 -0.4658250403249774,0.13164680939640036 l -1.8774910490703949 -6.868758068902774" fill="#ff5007" stroke="none" /><path d="M 105.53697534728816 120.25689768951611 l 1.8424347708885336 6.74050547683498 a27.987773605965025,27.987773605965025 0 0,0 -0.46580925522442207,0.1230244579792094 l -1.7261350728526128 -6.7712212841177735" fill="#ff4e07" stroke="none" /><path d="M 105.18746579009965 120.34920634021253 l 1.2273272480424529 4.814515686068995 a25.96849005888025,25.96849005888025 0 0,0 -0.4341025302546906,0.10669184027451477 l -1.1442714330445518 -4.8349287846575395" fill="#ff3104" stroke="none" /><path d="M 104.83641907484287 120.43548508189849 l 1.617113621193314 6.832844873498582 a28.021597078239736,28.021597078239736 0 0,0 -0.47033563580530185,0.10704685942792411 l -1.4992578359951494 -6.85966846650419" fill="#ff4f07" stroke="none" /><path d="M 104.48393922423573 120.51570834832081 l 1.5069787442126525 6.894994525412013 a28.05775704037553,28.05775704037553 0 0,0 -0.47271781019165937,0.09906261327483944 l -1.3880694725916152 -6.919913119413394" fill="#ff4f07" stroke="none" /><path d="M 104.13013068566511 120.58985236759428 l 1.40881370849061 7.0233289159452825 a28.163232868390097,28.163232868390097 0 0,0 -0.476136178411292,0.09125263180617954 l -1.2877099155076144 -7.04653874609993" fill="#ff5107" stroke="none" /><path d="M 103.7750983002368 120.6578951692458 l 0.6301942160512866 3.4485157778900426 a24.5056248829989,24.5056248829989 0 0,0 -0.41560492889524686,0.07225824414220446 l -0.5707403156839898 -3.458852600553253" fill="#ff1c02" stroke="none" /><path d="M 103.41894727170886 120.7198165907248 l 2.3058394212578857 13.974058708500262 a35.1630227079264,35.1630227079264 0 0,0 -0.5980462208757445,0.09340252025906148 l -2.064957336773624 -14.01167953610643" fill="#ffaf10" stroke="none" /><path d="M 103.06178313531737 120.77559828337769 l 1.0002377892726475 6.787070664176303 a27.860379277825068,27.860379277825068 0 0,0 -0.4750478694323829,0.06583730605728383 l -0.8832613286534335 -6.80328253572619" fill="#ff4c07" stroke="none" /><path d="M 102.70371172650421 120.8252237178851 l 1.236150443661175 9.521395822583386 a30.601304407718363,30.601304407718363 0 0,0 -0.5229509033708116,0.06332207158818999 l -1.072072117238983 -9.541263422896927" fill="#ff720a" stroke="none" /><path d="M 102.34483914955558 120.86867818915974 l 0.6581512782312953 5.8574368428623975 a26.89429635097857,26.89429635097857 0 0,0 -0.46049106214479907,0.04773178142566493 l -0.5572276194808935 -5.867897992743821" fill="#ff3f05" stroke="none" /><path d="M 101.98527174616119 120.90594882070398 l 0.6238610069775705 6.569582380006824 a27.59913745907169,27.59913745907169 0 0,0 -0.47333267530080625,0.04084113490498106 l -0.5106840139352223 -6.579347767190468" fill="#ff4906" stroke="none" /><path d="M 101.62511606390274 120.93702456842531 l 0.5527186672268284 7.120897129872954 a28.142315721062314,28.142315721062314 0 0,0 -0.48329366890150605,0.033330761006104465 l -0.4300622375463923 -7.129356235395345" fill="#ff5007" stroke="none" /><path d="M 101.26447882468166 120.96189622390904 l 0.4155982008628602 6.889578684343556 a27.902102311058677,27.902102311058677 0 0,0 -0.47966627860190514,0.024793267660246098 l -0.29694385384747546 -6.895711758766004" fill="#ff4d07" stroke="none" /><path d="M 100.90346689309514 120.98055641714683 l 0.3016348343708983 7.004646997318286 a28.011138504575847,28.011138504575847 0 0,0 -0.48189782229170325,0.016597535367954438 l -0.18101666040454273 -7.008801331112334" fill="#ff4e07" stroke="none" /><line stroke="#e1ed5e" stroke-width="0.3" x1="102.19456741930631" x2="102.32365962044197" y1="184.97166512339345" y2="189.96999836594603" /><path d="M 102.22038585953345 185.97133177190398 a86.0,86.0 0 0,1 -42.740103519485714,-10.115201625700543" fill="none" id="id55" stroke="none" /><text fill="#e1ed5e" style="font-size:6.75px; font-family:Arial;" text-anchor="middle"><textPath startOffset="22.20632615414155" xlink:href="#id55">July</textPath></text><path d="M 100.54218724476979 120.99299961872073 l 0.12390082673282128 4.797327922138175 a25.798927651818857,25.798927651818857 0 0,0 -0.4440367814719063,0.007644495880321856 l -0.04130435536824707 -4.798749895297656" fill="#ff2f04" stroke="none" /><path d="M 100.18074693466247 120.99922214144158 l 0.06101231311373823 7.088425144421874 a28.08868771567938,28.08868771567938 0 0,0 -0.48351849555238247,0.0 l 0.06101231311373334 -7.088425144421874" fill="#ff4f07" stroke="none" /><path d="M 99.81925306533755 120.99922214144158 l -0.06206282961746523 7.2104744033280594 a28.210741495565436,28.210741495565436 0 0,0 -0.4855475787864263,-0.008359141901329015 l 0.18617009829655948 -7.208337784147571" fill="#ff5107" stroke="none" /><path d="M 99.45781275523022 120.99299961872073 l -0.17672787402059795 6.842743402248559 a27.8450252015951,27.8450252015951 0 0,0 -0.4790400434496656,-0.016499107686378398 l 0.29448826914490667 -6.838687496136087" fill="#ff4c07" stroke="none" /><path d="M 99.09653310690486 120.98055641714683 l -0.30780969648846296 7.148041341943224 a28.154665738899464,28.154665738899464 0 0,0 -0.4840081076939362,-0.02501769063016561 l 0.4308058725958881 -7.141683844550857" fill="#ff5007" stroke="none" /><path d="M 98.73552117531835 120.96189622390904 l -0.42793852303565116 7.094150360599878 a28.10704585030217,28.10704585030217 0 0,0 -0.4826879722910955,-0.0332889886216044 l 0.5499892561056767 -7.0857330274619885" fill="#ff5007" stroke="none" /><path d="M 98.37488393609728 120.93702456842531 l -0.5379609048872469 6.930766935764436 a27.951613643829226,27.951613643829226 0 0,0 -0.4793777372437213,-0.041362728285709846 l 0.6571829598725099 -6.920479955200062" fill="#ff4e07" stroke="none" /><path d="M 98.01472825383883 120.90594882070398 l -0.3910596233210635 4.118062167963879 a25.13658840691304,25.13658840691304 0 0,0 -0.43039513446036476,-0.04461221546634534 l 0.4618873543870219 -4.110720584041773" fill="#ff2603" stroke="none" /><path d="M 97.65516085044442 120.86867818915974 l -0.7797757759167866 6.93987463080099 a27.983545671930685,27.983545671930685 0 0,0 -0.4782155784497578,-0.0579052467411337 l 0.8991187774179334 -6.9254238553345076" fill="#ff4e07" stroke="none" /><path d="M 97.2962882734958 120.8252237178851 l -0.48661023896135247 3.7480945140872324 a24.779550503855297,24.779550503855297 0 0,0 -0.42251659803202624,-0.058556950507226674 l 0.5510554281802093 -3.739162998087401" fill="#ff2003" stroke="none" /><path d="M 96.93821686468263 120.77559828337769 l -1.0080080439119812 6.839795394116953 a27.91367349894213,27.91367349894213 0 0,0 -0.47475062327445106,-0.0741462836157728 l 1.12559453079495 -6.821430803154074" fill="#ff4d07" stroke="none" /><path d="M 96.58105272829116 120.7198165907248 l -1.1369158681474476 6.890041406027814 a27.983211887664815,27.983211887664815 0 0,0 -0.4745833188241619,-0.0825123932205754 l 1.2553481584436588 -6.869450434286232" fill="#ff4e07" stroke="none" /><path d="M 96.22490169976321 120.6578951692458 l -1.2553481584436588 6.869450434286232 a27.983211887664815,27.983211887664815 0 0,0 -0.47309268897254,-0.09066933981167456 l 1.3734084619878937 -6.846823896126089" fill="#ff4e07" stroke="none" /><path d="M 95.86986931433489 120.58985236759428 l -1.0564680476829953 5.266787612404685 a26.37170145204986,26.37170145204986 0 0,0 -0.444311102398584,-0.09310971146355651 l 1.1469706115109668 -5.247821920214587" fill="#ff3705" stroke="none" /><path d="M 95.51606077576429 120.51570834832081 l -1.0322735503598701 4.723039728193129 a25.834531306844873,25.834531306844873 0 0,0 -0.4336262731210528,-0.09869192799640995 l 1.113419972873785 -4.704571066619033" fill="#ff3004" stroke="none" /><path d="M 95.16358092515715 120.4354850818985 l -0.742279981915857 3.136380711079356 a24.223020871229917,24.223020871229917 0 0,0 -0.4049243766877103,-0.09952056002870034 l 0.7961576433467779 -3.123138892736626" fill="#ff1802" stroke="none" /><path d="M 94.81253420990036 120.34920634021253 l -4.475638339920119 17.556874930533542 a39.11836625847265,39.11836625847265 0 0,0 -0.6510591842350847,-0.17195064794132903 l 4.777187966966692 -17.477232933288633" fill="#ffe215" stroke="none" /><path d="M 94.46302465271185 120.25689768951611 l -1.8412320031852212 6.7361051786970885 a27.983211887664815,27.983211887664815 0 0,0 -0.46354701104966706,-0.1310030155685791 l 1.9569101823395034 -6.703413369789988" fill="#ff4e07" stroke="none" /><path d="M 94.11515582081647 120.15858648285463 l -1.7562118386437642 6.015919394559949 a27.267022114532153,27.267022114532153 0 0,0 -0.4494189869681345,-0.13540625413333351 l 1.8595058000521445 -5.98479777132089" fill="#ff4406" stroke="none" /><path d="M 93.76903079525671 120.05430185196036 l -1.593852682133214 5.129796303715317 a26.37170145204986,26.37170145204986 0 0,0 -0.4323435192178581,-0.1384227418952161 l 1.6819175464420124 -5.1016007151603935" fill="#ff3705" stroke="none" /><path d="M 93.42475214034765 119.94407469862007 l -2.2425799530790824 6.802204731518954 a28.162342777014448,28.162342777014448 0 0,0 -0.45908677733184505,-0.155747160574937 l 2.359336463348153 -6.762594584045894" fill="#ff5107" stroke="none" /><path d="M 93.08242187328487 119.8279376855182 l -2.359336463348153 6.762594584045894 a28.162342777014448,28.162342777014448 0 0,0 -0.45633782732660577,-0.16362650915710078 l 2.4753938513044855 -6.720980533848836" fill="#ff5107" stroke="none" /><path d="M 92.7421414339146 119.70592522655815 l -3.073958189226716 8.346151922761923 a29.894238071186116,29.894238071186116 0 0,0 -0.4813396247404622,-0.18200145948238336 l 3.217168034727461 -8.292002213172905" fill="#ff6909" stroke="none" /><path d="M 92.40401165467489 119.57807347666478 l -2.495055875018743 6.430813875532656 a27.897874377024337,27.897874377024337 0 0,0 -0.4462051441178263,-0.1775542354691639 l 2.6053820951784274 -6.386912795657426" fill="#ff4d07" stroke="none" /><path d="M 92.06813273071674 119.44442032107085 l -2.5535661020923923 6.2598894965131855 a27.76068904375223,27.76068904375223 0 0,0 -0.4409039095289287,-0.18429786994145805 l 2.660941471118782 -6.215006583551754" fill="#ff4b07" stroke="none" /><path d="M 91.7346041902142 119.30500536409082 l -2.7056087132447293 6.319333269010621 a27.874175694147645,27.874175694147645 0 0,0 -0.4394553944423762,-0.19264433051995433 l 2.8139847823448503 -6.271824385196214" fill="#ff4c07" stroke="none" /><path d="M 91.40352486487194 119.15986991738527 l -2.8384427298412778 6.326336389839011 a27.93392307773818,27.93392307773818 0 0,0 -0.4370089397527647,-0.20060937030553833 l 2.9469196653614618 -6.276539949199399" fill="#ff4d07" stroke="none" /><path d="M 91.07499286063937 119.00905698771935 l -1.7223504419236837 3.6683732788247765 a25.05258603333604,25.05258603333604 0 0,0 -0.388777162957061,-0.18663666416867694 l 1.7852402728809866 -3.6381823381565375" fill="#ff2403" stroke="none" /><path d="M 90.7491055286396 118.85261126421891 l -2.9861015710870324 6.085445282016993 a27.77860213268719,27.77860213268719 0 0,0 -0.4274546061530111,-0.21433461333717957 l 3.090410084922803 -6.0331428277705115" fill="#ff4b07" stroke="none" /><path d="M 90.42595943632237 118.69057910512821 l -3.155946561405697 6.161084075755404 a27.922351889854724,27.922351889854724 0 0,0 -0.4258944444369984,-0.22280784431490674 l 3.261531908369191 -6.105846812495781" fill="#ff4d07" stroke="none" /><path d="M 90.10565033884886 118.52300852407294 l -4.602064141694759 8.615429638558464 a30.767528972121063,30.767528972121063 0 0,0 -0.46499580147247066,-0.25355278623227584 l 4.749682755035871 -8.534936200566422" fill="#ff750a" stroke="none" /><line stroke="#e1ed5e" stroke-width="0.3" x1="58.666819895761336" x2="56.23545636021788" y1="174.27360380694188" y2="178.64263932499728" /><path d="M 58.180547188652646 175.14741091055294 a86.0,86.0 0 0,1 -31.652253787137756,-30.449443065178592" fill="none" id="id56" stroke="none" /><text fill="#e1ed5e" style="font-size:6.75px; font-family:Arial;" text-anchor="middle"><textPath startOffset="22.20632615414155" xlink:href="#id56">August</textPath></text><path d="M 89.7882731507175 118.34994917583269 l -3.3550595975040673 6.028869945773676 a27.899543298353684,27.899543298353684 0 0,0 -0.41763123038917377,-0.23714191212055677 l 3.4583395948144484 -5.9702248678584855" fill="#ff4d07" stroke="none" /><path d="M 89.4739219176387 118.17145234162733 l -3.4054706995057313 5.878955868717513 a27.794067470339115,27.794067470339115 0 0,0 -0.4119241329321159,-0.24337203848618144 l 3.506162703466229 -5.8194652579375825" fill="#ff4b07" stroke="none" /><path d="M 89.1626897886671 117.98757091392108 l -2.292923840564333 3.805753399883392 a25.44311362440263,25.44311362440263 0 0,0 -0.3731908673715083,-0.22924431131109538 l 2.3580939078681498 -3.7657206217439185" fill="#ff2a04" stroke="none" /><path d="M 88.8546689885994 117.79835938074946 l -1.5148040020669515 2.4190421973655716 a23.8541892574448,23.8541892574448 0 0,0 -0.34613359829334367,-0.22091883917520388 l 1.5562194024072187 -2.392608929366566" fill="#ff1302" stroke="none" /><path d="M 88.54995079064634 117.60387380957326 l -3.769007728225085 5.794659500745152 a27.91256088472257,27.91256088472257 0 0,0 -0.40051241988229463,-0.26543779262324557 l 3.8681948468473415 -5.728923687030588" fill="#ff4d07" stroke="none" /><path d="M 88.24862548938628 117.40417183066458 l -3.871556924487892 5.733903034502778 a27.91856900150821,27.91856900150821 0 0,0 -0.39596921753714326,-0.2723512384621364 l 3.9696830266479255 -5.666411006675538" fill="#ff4d07" stroke="none" /><path d="M 87.95078237400918 117.19931262002967 l -3.9932395137397836 5.700036043445445 a27.95962446621008,27.95962446621008 0 0,0 -0.39179778114348945,-0.2795373139696014 l 4.09076462273216 -5.630454467631627" fill="#ff4e07" stroke="none" /><path d="M 87.65650970185807 116.9893568818739 l -3.9700402415203118 5.46429161197157 a27.754235881278763,27.754235881278763 0 0,0 -0.3840856229356177,-0.2841373616573649 l 4.063510834874494 -5.395144301574436" fill="#ff4b07" stroke="none" /><path d="M 87.36589467227662 116.77436683061367 l -4.055946891864894 5.385101615413631 a27.741663340597704,27.741663340597704 0 0,0 -0.37896601124870904,-0.2905749774857848 l 4.14804163160709 -5.314487296100479" fill="#ff4b06" stroke="none" /><path d="M 87.07902340077011 116.55440617244103 l -2.1866675325003495 2.8015670657013434 a24.553912340127933,24.553912340127933 0 0,0 -0.3309429005880006,-0.2629210554183635 l 2.234567925805708 -2.763512096277847" fill="#ff1d02" stroke="none" /><path d="M 86.79598089348748 116.32954008644617 l -4.247232105425962 5.252593650654954 a27.7549034498105,27.7549034498105 0 0,0 -0.3689153634381037,-0.3035922284794893 l 4.337017597408754 -5.178706303318289" fill="#ff4b07" stroke="none" /><path d="M 86.51685102203217 116.09983520530335 l -5.798025040784099 6.92325270790825 a30.03042205166062,30.03042205166062 0 0,0 -0.39344789806540453,-0.33530483440119896 l 5.91633841542656 -6.822423483284098" fill="#ff6a09" stroke="none" /><path d="M 86.24171649860922 115.8653595955263 l -4.52713165477899 5.220460214538985 a27.910001872017574,27.910001872017574 0 0,0 -0.36024854465722933,-0.31787745527993816 l 4.616322552342806 -5.141759617486758" fill="#ff4d07" stroke="none" /><path d="M 85.97065885151581 115.62618273729859 l -4.646946403364693 5.175869123209305 a27.955841577863566,27.955841577863566 0 0,0 -0.35530603391262017,-0.3245636377544232 l 4.735351986744167 -5.095112718868306" fill="#ff4e07" stroke="none" /><path d="M 85.70375840098266 115.38237550388516 l -4.668318708196093 5.022986695063988 a27.85737521943225,27.85737521943225 0 0,0 -0.3484349627654335,-0.3294670055085332 l 4.7540895053523435 -4.941885052809525" fill="#ff4c07" stroke="none" /><path d="M 85.44109423537348 115.13401014063109 l -2.995015451362432 3.113324239133065 a25.32005849171897,25.32005849171897 0 0,0 -0.3114970627230129,-0.3048654373155047 l 3.048162466461239 -3.061308698894988" fill="#ff2803" stroke="none" /><path d="M 85.18274418774928 114.88116024355367 l -2.06356234143917 2.0724621525485114 a23.924617737543134,23.924617737543134 0 0,0 -0.2893276650672265,-0.29308739718389404 l 2.0989306315619296 -2.036634261383953" fill="#ff1402" stroke="none" /><path d="M 84.9287848128048 114.62390073753433 l -4.948848198748908 4.801966127132061 a27.895649148585214,27.895649148585214 0 0,0 -0.33141817655253203,-0.34749063312292056 l 5.030772926680398 -4.71606837742664" fill="#ff4d07" stroke="none" /><path d="M 84.67929136418377 114.36230785411684 l -3.1484032706835197 2.9514520572994334 a25.31549677341876,25.31549677341876 0 0,0 -0.2952915175248286,-0.32048062149019324 l 3.1987411962040797 -2.8968201810078984" fill="#ff2803" stroke="none" /><path d="M 84.4343377721795 114.09645910891817 l -5.09850663812424 4.61727161292318 a27.878514889603945,27.878514889603945 0 0,0 -0.31906449231730816,-0.35847233949794866 l 5.177229980089883 -4.528825103684365" fill="#ff4d07" stroke="none" /><path d="M 84.19399662182784 113.82643327865904 l -14.559854961071883 12.73635455780176 a40.34435586700904,40.34435586700904 0 0,0 -0.4527356979334567,-0.5266338982249593 l 14.776933168576123 -12.483843560415274" fill="#fff116" stroke="none" /><path d="M 83.95833913139862 113.55231037782056 l -4.277443821079116 3.613668607121544 a26.59956484421635,26.59956484421635 0 0,0 -0.2924736154105181,-0.35230331081386984 l 4.339013436383167 -3.5395040391939103" fill="#ff3a05" stroke="none" /><path d="M 83.72743513129214 113.27417163493433 l -2.998719705616741 2.446173690415725 a24.869894778483808,24.869894778483808 0 0,0 -0.2677446542140729,-0.33405262375465306 l 3.040382271885675 -2.3941932330828144" fill="#ff2203" stroke="none" /><path d="M 83.50135304334701 112.99209946851258 l -5.485660107367529 4.319762823740587 a27.982321796289167,27.982321796289167 0 0,0 -0.2947380390356865,-0.38098864654111664 l 5.559204963621284 -4.224696183086217" fill="#ff4e07" stroke="none" /><path d="M 83.28015986056508 112.70617746262583 l -5.407902744265922 4.109714650153729 a27.79228728758782,27.79228728758782 0 0,0 -0.28617947612925143,-0.3833841750567324 l 5.477843487090259 -4.016017595587689" fill="#ff4b07" stroke="none" /><path d="M 83.06392112726016 112.41649034213515 l -5.553575696222482 4.071539788791002 a27.886191927718926,27.886191927718926 0 0,0 -0.2804822499441167,-0.3895653135015465 l 5.622837738542206 -3.9753408698383175" fill="#ff4d07" stroke="none" /><path d="M 82.85270091963577 112.12312394758628 l -5.630196522501716 3.980543523015739 a27.895204102897388,27.895204102897388 0 0,0 -0.2738234318237328,-0.39446307625867033 l 5.697880861487583 -3.8830391845700563" fill="#ff4d07" stroke="none" /><path d="M 82.6465618267979 111.8261652097733 l -5.826047093893851 3.970382973369866 a28.05030252510446,28.05030252510446 0 0,0 -0.26847731903978783,-0.4013371644834829 l 5.893527518344369 -3.8695088946805622" fill="#ff4f07" stroke="none" /><path d="M 82.44556493220864 111.52570212397912 l -12.90517626422888 8.473141796049934 a36.438189864967484,36.438189864967484 0 0,0 -0.3397343029954504,-0.5272751827583246 l 13.049115430601375 -8.24974501337016" fill="#ffc011" stroke="none" /><path d="M 82.24976979558568 111.22182372390057 l -3.142091121478153 1.9864526985623 a24.71735536898173,24.71735536898173 0 0,0 -0.22426334341352946,-0.3615839165856986 l 3.1758191045596385 -1.9320724506113371" fill="#ff1f03" stroke="none" /><path d="M 82.05923443525364 110.91462005526583 l -5.880555048417784 3.577552130421746 a27.883299130748064,27.883299130748064 0 0,0 -0.24592953560197184,-0.41219204750936417 l 5.941265459717987 -3.4757979890262707" fill="#ff4d07" stroke="none" /><line stroke="#e1ed5e" stroke-width="0.3" x1="26.63291911575756" x2="22.317208475507996" y1="142.92168965132927" y2="145.44649492493687" /><path d="M 25.769776987707644 143.4266507060508 a86.0,86.0 0 0,1 -11.730757126820373,-40.83630448921669" fill="none" id="id57" stroke="none" /><text fill="#e1ed5e" style="font-size:6.75px; font-family:Arial;" text-anchor="middle"><textPath startOffset="21.46611528233685" xlink:href="#id57">September</textPath></text><path d="M 81.87401531095188 110.60418214915194 l -5.891423595469553 3.4466391755212014 a27.825554452752748,27.825554452752748 0 0,0 -0.23830335353718635,-0.4155019835415356 l 5.949878945159116 -3.3447173461213575" fill="#ff4c07" stroke="none" /><path d="M 81.69416730710424 110.29060199501025 l -5.8566741647086005 3.2923223900579384 a27.71863222625275,27.71863222625275 0 0,0 -0.2302277789521861,-0.41793029297713574 l 5.912478353112303 -3.191021578682981" fill="#ff4a06" stroke="none" /><path d="M 81.51974371655577 109.97397251340807 l -6.044854578287143 3.26246630385735 a27.86905766873766,27.86905766873766 0 0,0 -0.22420987577472531,-0.42412058926797164 l 6.100116962286753 -3.1579306995032517" fill="#ff4c07" stroke="none" /><path d="M 81.35079622478065 109.6543875284942 l -6.443370814484495 3.3356276001167195 a28.255579848613824,28.255579848613824 0 0,0 -0.21988402118194417,-0.4338520341944768 l 6.499833505452705 -3.2242213542195577" fill="#ff5207" stroke="none" /><path d="M 81.18737489456691 109.33194174019688 l -7.168435651600299 3.5558792828846015 a29.001921467096643,29.001921467096643 0 0,0 -0.21799327883318464,-0.4491307218727295 l 7.228582187048202 -3.431959605046587" fill="#ff5c08" stroke="none" /><path d="M 81.02952815118164 109.00673069616217 l -13.157386498082666 6.246815461310321 a35.565010225454486,35.565010225454486 0 0,0 -0.25780463374596624,-0.5552882457118993 l 13.26296574866846 -6.019407148319596" fill="#ffb510" stroke="none" /><path d="M 80.87730276802145 108.67885076344099 l -24.558796234586392 11.1460284532089 a47.96976868220558,47.96976868220558 0 0,0 -0.3347808220835992,-0.7548423742426389 l 24.74701814140127 -10.721637742473565" fill="#b2ff20" stroke="none" /><path d="M 80.73074385275274 108.34839909993369 l -6.082927318148152 2.6354263267731124 a27.629289304421846,27.629289304421846 0 0,0 -0.18531229947055478,-0.4380235355800731 l 6.127390598811015 -2.5303282655268795" fill="#ff4906" stroke="none" /><path d="M 80.58989483394504 108.01547362559985 l -3.7903993201244726 1.5652592049878276 a25.100873490465073,25.100873490465073 0 0,0 -0.16147916135323184,-0.4007780356690813 l 3.816781095735092 -1.499781801475941" fill="#ff2503" stroke="none" /><path d="M 80.45479744820244 107.68017299344265 l -3.725239653208915 1.4638111271988576 a25.00251839345571,25.00251839345571 0 0,0 -0.15395088823058714,-0.40191718949767347 l 3.7498848210330116 -1.3994703708680265" fill="#ff2403" stroke="none" /><path d="M 80.32549172779594 107.34259656027581 l -50.198776413214325 18.7343621462937 a74.58071927860212,74.58071927860212 0 0,0 -0.43851949655653827,-1.2066173178939723 l 50.513820170776086 -17.86749703139361" fill="#41ffd0" stroke="none" /><path d="M 80.20201598880116 107.00284435728193 l -8.398987922368027 2.9708482007947863 a29.908924578884346,29.908924578884346 0 0,0 -0.16750303652877327,-0.4868422305860076 l 8.448881789840028 -2.8258332671194832" fill="#ff6909" stroke="none" /><path d="M 80.0844068197444 106.66101706037122 l -6.894313708491827 2.305888698175641 a28.26971004920227,28.26971004920227 0 0,0 -0.1503783654295096,-0.4628170196297263 l 6.932984324937586 -2.1868727785681097" fill="#ff5207" stroke="none" /><path d="M 79.97269907076064 106.31721596034903 l -4.360610413652415 1.375468306953505 a25.572399396715845,25.572399396715845 0 0,0 -0.12880358185490093,-0.4209375580271882 l 4.383640768013446 -1.3002037763742689" fill="#ff2c04" stroke="none" /><path d="M 79.86692584326677 105.97154293290107 l -4.59868407608029 1.3639864027410809 a25.79670242337973,25.79670242337973 0 0,0 -0.12260480218625619,-0.42680340064932193 l 4.6214815151526505 -1.284625526587163" fill="#ff2f04" stroke="none" /><path d="M 79.76711848015287 105.62410040840567 l -6.5082577293900306 1.8090895712489903 a27.75501471123246,27.75501471123246 0 0,0 -0.12398815815348185,-0.4614060612160739 l 6.538433963885286 -1.6967925768573773" fill="#ff4b07" stroke="none" /><path d="M 79.67330655649465 105.27499134158121 l -6.468109694315057 1.678542687168383 a27.682361002694996,27.682361002694996 0 0,0 -0.11572371855410737,-0.46225873063792555 l 6.496044727164226 -1.5669561171330657" fill="#ff4a06" stroke="none" /><path d="M 79.58551787078972 104.9243191809786 l -11.38495111598458 2.7462432208715235 a32.71148853654143,32.71148853654143 0 0,0 -0.12732469335933472,-0.5485114465951931 l 11.43053637527447 -2.549863116927756" fill="#ff8f0d" stroke="none" /><path d="M 79.50377843672027 104.57218783832718 l -32.74894660364378 7.305460419468956 a54.553885849313176,54.553885849313176 0 0,0 -0.19656534352882907,-0.9182878449942987 l 32.86984598589705 -6.740658755058492" fill="#6aff28" stroke="none" /><path d="M 79.4281124754447 104.21870165774334 l -8.212202573980774 1.6840862352189898 a29.383103098718905,29.383103098718905 0 0,0 -0.097342116760037,-0.49634535621036135 l 8.239974623716478 -1.5424771519406744" fill="#ff6209" stroke="none" /><path d="M 79.35854240842038 103.8639653848113 l -4.304480678330375 0.8057747020463583 a25.379249568199718,25.379249568199718 0 0,0 -0.07668588932685147,-0.4300951924659268 l 4.317713009996415 -0.7315607588472178" fill="#ff2904" stroke="none" /><path d="M 79.29508885075956 103.50808413554451 l -6.66755372105163 1.129700063096869 a27.762580487925486,27.762580487925486 0 0,0 -0.07577630514149282,-0.4718591244502145 l 6.686011780554414 -1.0147617089534402" fill="#ff4b07" stroke="none" /><path d="M 79.23777060512086 103.15116336523772 l -3.9164996205205456 0.5944222024247424 a24.96135166733188,24.96135166733188 0 0,0 -0.06081767837940163,-0.4253587009354431 l 3.926151349916546 -0.5269180295088993" fill="#ff2303" stroke="none" /><path d="M 79.18660465613746 102.79330883721812 l -8.439064056222993 1.132583695098488 a29.5147253608932,29.5147253608932 0 0,0 -0.06324371886828427,-0.5041146654302642 l 8.457309284338125 -0.9871512753808153" fill="#ff6309" stroke="none" /><path d="M 79.1416061653843 102.43462659150553 l -7.006297629888704 0.8177867698240966 a28.05386289060706,28.05386289060706 0 0,0 -0.051856494829448284,-0.4801267384868665 l 7.019336426219204 -0.697063709452448" fill="#ff4f07" stroke="none" /><path d="M 79.10278846688536 102.07522291339032 l -9.012128683755122 0.8949603593433711 a30.056457224398393,30.056457224398393 0 0,0 -0.04669543102032444,-0.5152801902417778 l 9.02619871105252 -0.7396987805530274" fill="#ff6b09" stroke="none" /><path d="M 79.07016306316243 101.71520430193888 l -15.685900620063567 1.2854626772540907 a36.73848444282752,36.73848444282752 0 0,0 -0.046226532782680074,-0.6307243126683404 l 15.705703711510582 -1.0152652280889893" fill="#ffc412" stroke="none" /><path d="M 79.04373962182676 101.35467743843564 l -4.085004071640431 0.26406728833798787 a25.093530236615955,25.093530236615955 0 0,0 -0.02415389596171763,-0.4312840380660286 l 4.08894431848968 -0.19371153393652182" fill="#ff2503" stroke="none" /><path d="M 79.0235259727143 100.99374915477108 l -6.699436085640263 0.3173821748539759 a27.70694977694734,27.70694977694734 0 0,0 -0.018468485813150415,-0.4765895559654211 l 6.7039067043046145 -0.2020153718745579" fill="#ff4a06" stroke="none" /><path d="M 79.0095281055655 100.63252640178507 l -4.627376023281143 0.13944124364772442 a25.629476506179422,25.629476506179422 0 0,0 -0.009492593413387509,-0.44108351549051766 l 4.629090679379538 -0.05976791236707796" fill="#ff2d04" stroke="none" /><line stroke="#e1ed5e" stroke-width="0.3" x1="15.007084014347285" x2="10.007500721073583" y1="101.09737516637583" y2="101.16192664675087" /><path d="M 14.007167355692545 101.11028546245083 a86.0,86.0 0 0,1 10.666146001902526,-42.60595125391555" fill="none" id="id58" stroke="none" /><text fill="#e1ed5e" style="font-size:6.75px; font-family:Arial;" text-anchor="middle"><textPath startOffset="22.20632615414155" xlink:href="#id58">October</textPath></text><path d="M 79.00175016825051 100.2711162175752 l -27.644156557321406 0.3569239924246261 a48.64646065054376,48.64646065054376 0 0,0 -0.003603782413815997,-0.8373921163861636 l 27.646204637024724 0.11897760216521293" fill="#aaff21" stroke="none" /><path d="M 79.00019446554 99.90962569577889 l -11.765563895799657 -0.05063402368689456 a32.76567284903414,32.76567284903414 0 0,0 0.007281769617604911,-0.563981081675156 l 11.762949119064336 0.25315136342252254" fill="#ff900d" stroke="none" /><path d="M 79.00486145842228 99.54816195383935 l -8.979944012491442 -0.19325808920960041 a29.98202333310963,29.98202333310963 0 0,0 0.01554540147089889,-0.5158761938501372 l 8.975286916564897 0.347804430484732" fill="#ff6a09" stroke="none" /><path d="M 79.01574976396665 99.18683210126434 l -4.031758163018363 -0.15623604735718666 a25.034784205823033,25.034784205823033 0 0,0 0.020393086972125014,-0.4304658345148768 l 4.028471467812739 0.22561298849507241" fill="#ff2403" stroke="none" /><path d="M 79.03285615573316 98.82574320788736 l -13.111639293677966 -0.7343122940677642 a34.132185633501344,34.132185633501344 0 0,0 0.03790201889051955,-0.5863274564056751 l 13.097056683783034 0.9598988147264513" fill="#ffa20e" stroke="none" /><path d="M 79.05617556472873 98.46500227214037 l -3.359317919553058 -0.24620839377301176 a24.368328288304834,24.368328288304834 0 0,0 0.03426130815086435,-0.4180747401518209 l 3.3545821275826966 0.3039970511326108" fill="#ff1a02" stroke="none" /><path d="M 79.08570108090925 98.10471618934814 l -4.328578854194704 -0.3922620336078584 a25.346316187300655,25.346316187300655 0 0,0 0.04311634607511591,-0.4341757209083061 l 4.321185382437359 0.4667132852205951" fill="#ff2903" stroke="none" /><path d="M 79.12142395522702 97.74499172005258 l -3.836567494856515 -0.4143717200313818 a24.858879897710132,24.858879897710132 0 0,0 0.04961080386853388,-0.42503507073824015 l 3.828866337984392 0.48035052909448367" fill="#ff2103" stroke="none" /><path d="M 79.16333360222342 97.38593545837743 l -4.372346111415099 -0.548532798642451 a25.406619878000967,25.406619878000967 0 0,0 0.05817390162624073,-0.43346313773443584 l 4.362256210731025 0.6237142784415468" fill="#ff2904" stroke="none" /><path d="M 79.21141760316559 97.0276538004421 l -8.424817952204892 -1.204578318241488 a29.510497426858862,29.510497426858862 0 0,0 0.07622716986103475,-0.5022418082909647 l 8.402834888904554 1.349419238924544" fill="#ff6309" stroke="none" /><path d="M 79.26566170972629 96.67025291283419 l -6.780732158262192 -1.088924220138545 a27.867611270252226,27.867611270252226 0 0,0 0.08013681754707548,-0.4729720334479942 l 6.760983479194894 1.2054820419023677" fill="#ff4c07" stroke="none" /><path d="M 79.32604984820605 96.31383870115002 l -6.822870164747672 -1.2165164259230217 a27.930473973657534,27.930473973657534 0 0,0 0.08846548843868007,-0.47258617665245656 l 6.8009189523991305 1.3337806800380505" fill="#ff4d07" stroke="none" /><path d="M 79.3925641242962 95.95851677861259 l -3.1336197600386484 -0.614558344802891 a24.193314071567585,24.193314071567585 0 0,0 0.08366359533461463,-0.4079734033726949 l 3.1225768687890394 0.6684074043389883" fill="#ff1802" stroke="none" /><path d="M 79.46518482838121 95.60439243477599 l -3.4173073916819545 -0.7314963440398464 a24.494721263647186,24.494721263647186 0 0,0 0.09180343106045602,-0.4115367806001684 l 3.404209573619461 0.790211294189974" fill="#ff1c02" stroke="none" /><path d="M 79.54389044137918 95.25157060432595 l -6.761599072873952 -1.569554352815157 a27.94137759300925,27.94137759300925 0 0,0 0.11278630168640999,-0.46757203495069843 l 6.733579970926727 1.6857116194252522" fill="#ff4d07" stroke="none" /><path d="M 79.62865764111835 94.90015583598534 l -6.647451279242436 -1.6641498147143885 a27.852590978288127,27.852590978288127 0 0,0 0.12043416322593078,-0.46408195909659444 l 6.617820784146198 1.7783281993598468" fill="#ff4c07" stroke="none" /><path d="M 79.71946130924805 94.55025226153421 l -5.417608766628531 -1.4558095114746463 a26.609800895036326,26.609800895036326 0 0,0 0.12267527424926716,-0.44132823190541226 l 5.391746721812903 1.548849046799001" fill="#ff3b05" stroke="none" /><path d="M 79.81627453868168 94.20196356495316 l -2.99283648360527 -0.8597310248465617 a24.11387341629079,24.11387341629079 0 0,0 0.11803638023759382,-0.397959995133344 l 2.977594206255969 0.9111204067264449" fill="#ff1702" stroke="none" /><path d="M 79.91906864156998 93.8553929516997 l -6.57173032215761 -2.0108977883690926 a27.872506772818305,27.872506772818305 0 0,0 0.1443324888179804,-0.4575734319622736 l 6.536142349571426 2.1237213867577807" fill="#ff4c07" stroke="none" /><path d="M 80.02781315780177 93.51064311812611 l -6.422707704381435 -2.0868642363003613 a27.75323452848116,27.75323452848116 0 0,0 0.15153623702963515,-0.45307406082229834 l 6.385834173580028 2.197111400044982" fill="#ff4b07" stroke="none" /><path d="M 80.14247586403 93.16781622104843 l -3.852941975795305 -1.32564399710772 a25.074615794883385,25.074615794883385 0 0,0 0.14393655637861336,-0.4069280275874784 l 3.829552338606882 1.3917696511218096" fill="#ff2503" stroke="none" /><path d="M 80.2630227832202 92.82701384747504 l -3.8138668803907554 -1.3860691037003618 a25.057926581589943,25.057926581589943 0 0,0 0.15081937817028881,-0.40412095081914096 l 3.789442913718839 1.4515131915488442" fill="#ff2403" stroke="none" /><path d="M 80.38941819471856 92.48833698450439 l -6.625498895646603 -2.5378398003588147 a28.094918355308934,28.094918355308934 0 0,0 0.1768728296247196,-0.45012205895314156 l 6.580832516140193 2.6515108642077196" fill="#ff5007" stroke="none" /><path d="M 80.52162464483688 92.15188598940014 l -44.076035997379506 -17.758860753807497 a68.51919701042326,68.51919701042326 0 0,0 0.4501982485433422,-1.0901907682524696 l 43.76381606194997 18.514926092513278" fill="#3aff8f" stroke="none" /><path d="M 80.65960295795067 91.81776055985345 l -6.326102418002096 -2.676350676485307 a27.868946407315704,27.868946407315704 0 0,0 0.19071554788703704,-0.44019777917985103 l 6.27909616027238 2.7848476002517564" fill="#ff4c07" stroke="none" /><path d="M 80.803312248108 91.48605970444005 l -6.155827058335938 -2.730176409693337 a27.734097563904676,27.734097563904676 0 0,0 0.19730523415046247,-0.43473592965067254 l 6.107919507222124 2.8357343481860817" fill="#ff4a06" stroke="none" /><path d="M 80.95270993114464 91.15688171328213 l -4.062863929958903 -1.8862728601069245 a25.479384847960382,25.479384847960382 0 0,0 0.1881128498394708,-0.3962136365197713 l 4.029792886277681 1.9559289122672268" fill="#ff2a04" stroke="none" /><path d="M 81.10775173730289 90.83032412892265 l -6.327855848921728 -3.071333082578784 a28.03383583465493,28.03383583465493 0 0,0 0.2144454773973867,-0.4323089967927228 l 6.274050358570928 3.1798016678704695" fill="#ff4f07" stroke="none" /><path d="M 81.26839172434947 90.50648371742162 l -4.1899449862937725 -2.1235395469055716 a25.697345973572762,25.697345973572762 0 0,0 0.2033645949347009,-0.392835667763352 l 4.152770958198958 2.195347936929259" fill="#ff2e04" stroke="none" /><path d="M 81.43458229118936 90.18545643968196 l -6.023922855160485 -3.184525885345974 a27.813872003447337,27.813872003447337 0 0,0 0.22740078820790188,-0.4213391243549111 l 5.968213967734109 3.287745993033358" fill="#ff4c07" stroke="none" /><path d="M 81.6062741919709 89.86733742301443 l -6.007779868111304 -3.3095418989993877 a27.859044140761593,27.859044140761593 0 0,0 0.23500079954442205,-0.41804020029565075 l 5.949921427274454 3.4124656092298244" fill="#ff4c07" stroke="none" /><line stroke="#e1ed5e" stroke-width="0.3" x1="26.266209847984243" x2="21.928928074336255" y1="57.71137044288968" y2="55.22380399835378" /><path d="M 25.398753493254645 57.2138571539825 a86.0,86.0 0 0,1 29.58750427330803,-30.4925239686951" fill="none" id="id59" stroke="none" /><text fill="#e1ed5e" style="font-size:6.75px; font-family:Arial;" text-anchor="middle"><textPath startOffset="21.46611528233685" xlink:href="#id59">November</textPath></text><path d="M 81.78341655067845 89.55222093294921 l -5.877439092212762 -3.3708947282193837 a27.775486812872415,27.775486812872415 0 0,0 0.24143554307461557,-0.41269160559567675 l 5.818543874667821 3.471565746168951" fill="#ff4b07" stroke="none" /><path d="M 81.96595687620814 89.24020034530311 l -7.365932383958021 -4.394796894816769 a29.57736554145459,29.57736554145459 0 0,0 0.2646247482644262,-0.43497350775408405 l 7.289191837407378 4.520938175777927" fill="#ff6409" stroke="none" /><path d="M 82.15384107792192 88.93136811851018 l -5.736744880804985 -3.5580719392281197 a27.750564254354206,27.750564254354206 0 0,0 0.2552687239306889,-0.4037738183417016 l 5.6746485606283334 3.656293405284037" fill="#ff4b06" stroke="none" /><path d="M 82.34701348167596 88.62581576622439 l -3.9038753798333143 -2.51534762969617 a25.6440517524557,25.6440517524557 0 0,0 0.24227934051156344,-0.36900805742923354 l 3.859999403963831 2.582173751103073" fill="#ff2d04" stroke="none" /><path d="M 82.54541684631803 88.32363383020207 l -7.054440214005101 -4.719117399506366 a29.487355051091953,29.487355051091953 0 0,0 0.28585257431150535,-0.4194533804471118 l 6.972163174024856 4.839848803223892" fill="#ff6309" stroke="none" /><path d="M 82.7489923806493 88.02491185347247 l -7.079465188448845 -4.914334370060341 a29.61797596046864,29.61797596046864 0 0,0 0.2943284671381864,-0.4163067436828836 l 6.99382410150678 5.03546761407501" fill="#ff6509" stroke="none" /><path d="M 82.95767976084542 87.72973835380427 l -6.915359493476396 -4.9789740582100634 a29.52128978478862,29.52128978478862 0 0,0 0.30046682637279437,-0.40983641350108074 l 6.8286300545899685 5.097272915382647" fill="#ff6309" stroke="none" /><path d="M 83.17141714833178 87.43820079747577 l -6.796532247888494 -5.073313310098035 a29.481235672884353,29.481235672884353 0 0,0 0.3070597882658615,-0.4040546882140707 l 6.708196519398523 5.189552774193132" fill="#ff6309" stroke="none" /><path d="M 83.39014120810768 87.1503855733568 l -6.7044124446447055 -5.186625362096655 a29.476451431740234,29.476451431740234 0 0,0 0.3139184800608906,-0.39864459075656533 l 6.614139883989844 5.301262346806266" fill="#ff6309" stroke="none" /><path d="M 83.6137871275137 86.86637796730984 l -3.5337920829286955 -2.8323499713119684 a25.52878491930898,25.52878491930898 0 0,0 0.2777793261675977,-0.34052460888423347 l 3.4845142646847056 2.892758749804284" fill="#ff2b04" stroke="none" /><path d="M 83.84228863543731 86.58626213691792 l -6.594672670498875 -5.474736396697449 a29.571023640403084,29.571023640403084 0 0,0 0.3285050458870182,-0.388846358504912 l 6.499457011124733 5.587441704831477" fill="#ff6409" stroke="none" /><path d="M 84.07557802195018 86.31012108654704 l -3.2868935709664107 -2.8256708500918384 a25.33452247657329,25.33452247657329 0 0,0 0.2871344038949736,-0.32824425985249905 l 3.237767303493593 2.8818306661472803" fill="#ff2803" stroke="none" /><path d="M 84.31358615837235 86.03803664274999 l -37.69067647909984 -33.547237069231485 a71.45794494855483,71.45794494855483 0 0,0 0.8257011795369235,-0.9117598655433702 l 37.10763165894688 34.19104972204441" fill="#3dffaf" stroke="none" /><path d="M 84.5562425177563 85.77008943001954 l -3.392895063306252 -3.126220635080956 a25.613566122839675,25.613566122839675 0 0,0 0.30154812125887615,-0.3216705109242413 l 3.338579620076918 3.1841605628832497" fill="#ff2c04" stroke="none" /><path d="M 84.80347519578584 85.50635884689758 l -4.9503021598613115 -4.721336228435674 a27.84079726756076,27.84079726756076 0 0,0 0.3337392190115087,-0.3439476016969338 l 4.8682986771466865 4.805848025682729" fill="#ff4c07" stroke="none" /><path d="M 85.05521093208273 85.24692304244772 l -6.040874227043657 -5.963381748477856 a29.488467665311514,29.488467665311514 0 0,0 0.3597090344655515,-0.3581643295563985 l 5.937329392410793 6.066481928684366" fill="#ff6309" stroke="none" /><path d="M 85.31137513191541 84.99185889309783 l -6.27500220949323 -6.411500018005292 a29.97123097517987,29.97123097517987 0 0,0 0.3718098989807905,-0.35768082823492303 l 6.163709066900012 6.518563933002526" fill="#ff6a09" stroke="none" /><path d="M 85.57189188830299 84.74124197986013 l -2.2516128902363794 -2.3812419467034096 a24.27720518372263,24.27720518372263 0 0,0 0.30611488267354303,-0.28450042183995194 l 2.2102901237679804 2.4196469546180066" fill="#ff1902" stroke="none" /><path d="M 85.83668400450813 84.49514656593477 l -5.718314330049746 -6.259948278041442 a29.478565398757404,29.478565398757404 0 0,0 0.3775909616047297,-0.3390048935171183 l 5.609712380849045 6.357452180327842" fill="#ff6309" stroke="none" /><path d="M 86.10567301691215 84.25364557470407 l -5.6603590938565524 -6.414849785441294 a29.555113257063333,29.555113257063333 0 0,0 0.3843659386762358,-0.33331835441517854 l 5.549099356533543 6.511333133276151" fill="#ff6409" stroke="none" /><path d="M 86.37877921826538 84.01681056812373 l -5.523912917431553 -6.48177927509177 a29.516283020800586,29.516283020800586 0 0,0 0.3895340655331745,-0.32622357748402303 l 5.411521314939268 6.575904009969605" fill="#ff6309" stroke="none" /><path d="M 86.65592168130627 83.78471172551755 l -2.9067935521697352 -3.532240614685868 a25.574513363733015,25.574513363733015 0 0,0 0.342328989995815,-0.2768062358577795 l 2.84556116360942 3.581752947807784" fill="#ff2c04" stroke="none" /><path d="M 86.93701828274178 83.55741782278169 l -2.8755982193070118 -3.619561065996975 a25.622800820862047,25.622800820862047 0 0,0 0.3476982895038109,-0.2713840300566044 l 2.8128673746437753 3.668523485276801" fill="#ff2c04" stroke="none" /><path d="M 87.22198572758235 83.33499621200491 l -4.2625952131145395 -5.559249180569526 a28.00535291063412,28.00535291063412 0 0,0 0.3850787318237748,-0.29003331729032655 l 4.166270327532375 5.631799087365707" fill="#ff4e07" stroke="none" /><path d="M 87.51073957382395 83.11751280151077 l -8.014593147420685 -10.833809336607555 a34.47609468876824,34.47609468876824 0 0,0 0.4801283507409897,-0.3488336657144043 l 7.8269194803259134 10.970162237138627" fill="#ffa60f" stroke="none" /><path d="M 87.80319425747018 82.90503203632743 l -1.5090217526652752 -2.115035613656272 a23.59817672552337,23.59817672552337 0 0,0 0.3326992995728141,-0.23307712076231907 l 1.4723913135088007 2.140697577182533" fill="#ff0f01" stroke="none" /><path d="M 88.09926311788651 82.69761687909137 l -10.563613218680944 -15.358350063635113 a39.640516111713524,39.640516111713524 0 0,0 0.5655291684938761,-0.3818478190348796 l 10.29767935578053 15.537909794968657" fill="#ffe915" stroke="none" /><path d="M 88.39885842347998 82.49532879139004 l -4.728912584581928 -7.135337451178265 a29.560120021051368,29.560120021051368 0 0,0 0.4265567184834556,-0.27744435514869015 l 4.605388840314183 7.215680730486491" fill="#ff6409" stroke="none" /><path d="M 88.70189139769569 82.29822771554957 l -3.6590744249285176 -5.733004038280387 a27.80118820134432,27.80118820134432 0 0,0 0.4056072193422234,-0.2539912035416236 l 3.559848053214052 5.795139583144941" fill="#ff4b07" stroke="none" /><path d="M 89.00827224532344 82.1063720568725 l -4.481898083094598 -7.296161128425889 a29.562790295178317,29.562790295178317 0 0,0 0.4358933954209532,-0.2626208934966353 l 4.355642621455998 7.372228631381144" fill="#ff6409" stroke="none" /><line stroke="#e1ed5e" stroke-width="0.3" x1="56.76296977257108" x2="54.21961505331056" y1="26.818313649435495" y2="22.513508569990535" /><path d="M 56.25429882871898 25.957352633546506 a86.0,86.0 0 0,1 42.26535254187918,-11.944610805530505" fill="none" id="id60" stroke="none" /><text fill="#e1ed5e" style="font-size:6.75px; font-family:Arial;" text-anchor="middle"><textPath startOffset="22.20632615414155" xlink:href="#id60">December</textPath></text><path d="M 89.3179101791058 81.91981866633112 l -3.2870072869575866 -5.563488866854449 a27.461952125799577,27.461952125799577 0 0,0 0.4090565884681424,-0.23695197881659233 l 3.1907539660241215 5.6192450030610885" fill="#ff4706" stroke="none" /><path d="M 89.63071344664047 81.73862282372117 l -4.2011767856855435 -7.398703225418561 a29.508272198419732,29.508272198419732 0 0,0 0.4438548743136126,-0.24700475700405097 l 4.0731978222998855 7.469923379982797" fill="#ff6309" stroke="none" /><path d="M 89.94658935756843 81.56283822128135 l -3.3309555127479142 -6.108709556441061 a27.957844283458783,27.957844283458783 0 0,0 0.4244998637224366,-0.22675312583926113 l 3.2253106024971734 6.165141408782072" fill="#ff4e07" stroke="none" /><path d="M 90.26544431104013 81.39251694778311 l -6.529118754198013 -12.480329914023239 a35.08502845113504,35.08502845113504 0 0,0 0.5375352355620238,-0.27534642563668915 l 6.313323031047225 12.590868864972432" fill="#ffae10" stroke="none" /><path d="M 90.58718382345135 81.22770947309562 l -17.213846711744402 -34.330143657065385 a59.40410501665389,59.40410501665389 0 0,0 0.9180161397825882,-0.450466532890991 l 16.62035930495139 34.6213653500912" fill="#39ff2e" stroke="none" /><path d="M 90.91171255644093 81.06846463323043 l -1.5783490965524274 -3.2878110345935023 a24.64703815030535,24.64703815030535 0 0,0 0.3840499004623669,-0.18031657781402655 l 1.521520984790452 3.3144925950475366" fill="#ff1e03" stroke="none" /><path d="M 91.23893434514133 80.91482961587045 l -2.854725955202955 -6.218756188047796 a27.84268871173402,27.84268871173402 0 0,0 0.4372865050996747,-0.196197708242551 l 2.747257331636506 6.266974226806876" fill="#ff4c07" stroke="none" /><path d="M 91.56875222667455 80.76684994638697 l -3.400021862086484 -7.756044231787746 a29.468551870781333,29.468551870781333 0 0,0 0.46632754385997305,-0.1996571176394233 l 3.266010560436203 7.813420877389955" fill="#ff6309" stroke="none" /><path d="M 91.90106846888425 80.62456947434976 l -2.6539929470733328 -6.349264191705157 a27.88163020941872,27.88163020941872 0 0,0 0.44440149396496886,-0.1812825276452972 l 2.5443075835199833 6.394007605534031" fill="#ff4d07" stroke="none" /><path d="M 92.23578459929587 80.48803036053334 l -1.2921664938890187 -3.247297002555091 a24.494943786491095,24.494943786491095 0 0,0 0.393105163258764,-0.1525186960892625 l 1.236078165630577 3.2690584025349048" fill="#ff1c02" stroke="none" /><path d="M 92.57280143429618 80.3572730644239 l -4.810284831370592 -12.721769936415127 a34.60081874278125,34.60081874278125 0 0,0 0.5589147266805325,-0.20585301071184964 l 4.590587778917492 12.802686214933297" fill="#ffa80f" stroke="none" /><path d="M 92.91201910852362 80.23233633223022 l -2.8812376822177788 -8.035481235210014 a29.536421338174677,29.536421338174677 0 0,0 0.4800624827756268,-0.16748437396647511 l 2.742493195378865 8.0838864623487" fill="#ff6409" stroke="none" /><path d="M 93.25333710446033 80.11325718540243 l -1.2965039712422026 -3.8216287716470654 a25.035563035776725,25.035563035776725 0 0,0 0.40929232595310117,-0.13493724481394354 l 1.2305288230466922 3.843379740720241" fill="#ff2403" stroke="none" /><path d="M 93.59665428221793 80.00007090966166 l -2.0989997044994317 -6.555923590702254 a27.88374417643589,27.88374417643589 0 0,0 0.45837506444274784,-0.1424193637778391 l 1.9858392673459553 6.591083089362621" fill="#ff4d07" stroke="none" /><path d="M 93.94186890950719 79.89281104454417 l -2.470631837153508 -8.20012978374977 a29.564236693663748,29.564236693663748 0 0,0 0.48852758753530934,-0.14261459911006 l 2.329114031894777 8.241442711778529" fill="#ff6409" stroke="none" /><path d="M 94.28887869178378 79.79150937346287 l -2.320278564109379 -8.210178891893381 a29.53174835845251,29.53174835845251 0 0,0 0.4903706184526806,-0.13403681388054595 l 2.178610056432977 8.248902246600224" fill="#ff6409" stroke="none" /><path d="M 94.63758080256005 79.69619591428918 l -2.1962816802182368 -8.315812567110713 a29.600952962909325,29.600952962909325 0 0,0 0.49375955758859597,-0.12587030524448642 l 2.0528132339446397 8.352385868524062" fill="#ff6509" stroke="none" /><path d="M 94.98787191387505 79.60689891045804 l -15.03638425837485 -61.17930326862588 a84.0,84.0 0 0,0 1.4071052521498664,-0.3330163514365161 l 13.98105531926245 61.42906553220327" fill="#4dd2ff" stroke="none" /><path d="M 95.33964822691252 79.52364482259891 l -0.9559484908016205 -4.200185261119573 a25.307597212459864,25.307597212459864 0 0,0 0.4255981947510606,-0.09301928097278732 l 0.8835075718970389 4.216018040188229" fill="#ff2803" stroke="none" /><path d="M 95.692805502759 79.44645832069477 l -0.6665101160346325 -3.180525852355039 a24.24961235107747,24.24961235107747 0 0,0 0.40927986545821254,-0.0820976907058485 l 0.6116638411092835 3.1915274991380977" fill="#ff1902" stroke="none" /><path d="M 96.04723909329186 79.375362276772 l -0.7631609557251138 -3.9820061490769816 a25.054477477509298,25.054477477509298 0 0,0 0.4242616394866658,-0.07753110280403633 l 0.6945041951355547 3.994552733231754" fill="#ff2403" stroke="none" /><path d="M 96.40284397218896 79.31037775812273 l -0.6525187188345851 -3.7530665042229567 a24.809368564939582,24.809368564939582 0 0,0 0.4213703419642846,-0.06952971686451608 l 0.5878191707314149 3.7637424840271" fill="#ff2103" stroke="none" /><path d="M 96.75951476605007 79.25152402106235 l -1.3063773736819932 -8.36459283112641 a29.46599285807634,29.46599285807634 0 0,0 0.5018072889769513,-0.07395335015686277 l 1.1622011042763927 8.385840665444242" fill="#ff6309" stroke="none" /><path d="M 97.11714578562143 79.19881850522333 l -0.9265869812583274 -6.685771299748659 a27.749674162978557,27.749674162978557 0 0,0 0.4737071179111366,-0.061500779390183495 l 0.8113651348393336 6.700730402302979" fill="#ff4b06" stroke="none" /><path d="M 97.47563105711357 79.15227682838746 l -1.6340584864298233 -13.495015880032486 a34.59358675035409,34.59358675035409 0 0,0 0.5917699145596306,-0.06649224501000858 l 1.4015218683604747 13.521144078513094" fill="#ffa80f" stroke="none" /><path d="M 97.83486435360386 79.11191278185805 l -0.51641234823127 -4.98207407389691 a26.00876669362843,26.00876669362843 0 0,0 0.44570960040043894,-0.042325497123164746 l 0.43057762074059447 4.990225115535255" fill="#ff3204" stroke="none" /><path d="M 98.19473922651362 79.07773832637324 l -0.7555337419512588 -8.756338632357641 a29.788873504593507,29.788873504593507 0 0,0 0.5112477266142826,-0.039682663142479466 l 0.6046958259746422 8.768046557688582" fill="#ff6709" stroke="none" /><path d="M 98.55514903715128 79.0497635885617 l -0.19652824858211473 -2.849645655634537 a23.856414485883928,23.856414485883928 0 0,0 0.4099190345294809,-0.024727435603142445 l 0.14744716521301102 2.852606360617986" fill="#ff1302" stroke="none" /><path d="M 98.91598698831166 79.02799685794201 l -0.21622291418764605 -4.183185613856811 a25.188770013810544,25.188770013810544 0 0,0 0.4331978672059317,-0.01865441141780965 l 0.14418421459239011 4.186287751798813" fill="#ff2603" stroke="none" /><path d="M 99.27714615592234 79.0124445844662 l -0.09633472518744639 -2.797011318230646 a23.79866980788861,23.79866980788861 0 0,0 0.4095335898267975,-0.010577044383446397 l 0.04817450016576978 2.7982551547564523" fill="#ff1202" stroke="none" /><path d="M 99.63851952072746 79.00311137660856 l -0.05899528119211145 -3.426789050930973 a24.42729684194167,24.42729684194167 0 0,0 0.4204757604646464,-0.003619167619254345 l 8.394456214423393e-16 3.4272968419416685" fill="#ff1b02" stroke="none" /></svg>